M48
; DRILL file {KiCad 9.0.6} date 2026-01-05T12:50:19+0530
; FORMAT={-:-/ absolute / metric / decimal}
; #@! TF.CreationDate,2026-01-05T12:50:19+05:30
; #@! TF.GenerationSoftware,Kicad,Pcbnew,9.0.6
; #@! TF.FileFunction,Plated,1,2,PTH
FMAT,2
METRIC
; #@! TA.AperFunction,Plated,PTH,ViaDrill
T1C0.100
; #@! TA.AperFunction,Plated,PTH,ViaDrill
T2C0.300
; #@! TA.AperFunction,Plated,PTH,ComponentDrill
T3C0.600
; #@! TA.AperFunction,Plated,PTH,ComponentDrill
T4C1.000
%
G90
G05
T1
X60.24Y-50.18
X60.703Y-49.992
X60.988Y-49.581
X61.382Y-48.563
X61.383Y-49.2
X61.967Y-48.4
X61.97Y-47.767
X61.986Y-44.92
X62.658Y-55.14
X62.91Y-46.3
X63.22Y-44.21
X64.0Y-54.434
X64.194Y-55.02
X64.25Y-42.47
X64.3Y-30.0
X64.83Y-55.02
X65.25Y-53.105
X65.42Y-40.14
X65.5Y-52.09
X66.148Y-58.102
X66.5Y-57.02
X66.8Y-40.05
X67.533Y-54.749
X68.176Y-52.751
X68.23Y-48.06
X68.321Y-54.924
X68.649Y-52.929
X68.727Y-54.468
X69.4Y-54.4
X69.89Y-46.45
X70.25Y-36.62
X70.359Y-44.042
X70.417Y-42.92
X70.5Y-65.75
X70.53Y-41.81
X70.687Y-47.48
X71.137Y-47.857
X71.23Y-48.4
X71.59Y-50.0
X71.635Y-43.853
X71.748Y-48.519
X72.22Y-44.52
X72.389Y-45.865
T2
X67.201Y-37.499
X67.87Y-42.86
X72.67Y-45.26
X73.2Y-49.08
T4
X57.36Y-22.12
X57.36Y-24.66
X57.36Y-27.2
X57.36Y-29.74
X57.36Y-32.28
X57.36Y-34.82
X57.36Y-37.36
X57.36Y-39.9
X57.36Y-42.44
X57.36Y-44.98
X57.36Y-47.52
X57.36Y-50.06
X57.36Y-52.6
X57.36Y-55.14
X57.36Y-57.68
X57.36Y-60.22
X57.36Y-62.76
X57.36Y-65.3
X57.36Y-67.84
X57.36Y-70.38
X63.71Y-70.14
X66.25Y-70.14
X68.79Y-70.14
X75.25Y-22.21
X75.25Y-24.75
X75.25Y-27.29
X75.25Y-29.83
X75.25Y-32.37
X75.25Y-34.91
X75.25Y-37.45
X75.25Y-39.99
X75.25Y-42.53
X75.25Y-45.07
X75.25Y-47.61
X75.25Y-50.15
X75.25Y-52.69
X75.25Y-55.23
X75.25Y-57.77
X75.25Y-60.31
X75.25Y-62.85
X75.25Y-65.39
X75.25Y-67.93
X75.25Y-70.47
T3
G00X61.93Y-22.5
M15
G01X61.93Y-21.9
M16
G05
G00X61.93Y-26.93
M15
G01X61.93Y-25.83
M16
G05
G00X70.57Y-22.5
M15
G01X70.57Y-21.9
M16
G05
G00X70.57Y-26.93
M15
G01X70.57Y-25.83
M16
G05
M30
