%TF.GenerationSoftware,KiCad,Pcbnew,9.0.6*%
%TF.CreationDate,2026-01-06T13:19:56+05:30*%
%TF.ProjectId,Devboard,44657662-6f61-4726-942e-6b696361645f,rev?*%
%TF.SameCoordinates,Original*%
%TF.FileFunction,Legend,Top*%
%TF.FilePolarity,Positive*%
%FSLAX46Y46*%
G04 Gerber Fmt 4.6, Leading zero omitted, Abs format (unit mm)*
G04 Created by KiCad (PCBNEW 9.0.6) date 2026-01-06 13:19:56*
%MOMM*%
%LPD*%
G01*
G04 APERTURE LIST*
%ADD10C,0.037500*%
%ADD11C,0.100000*%
%ADD12C,0.187500*%
%ADD13C,0.150000*%
%ADD14C,0.120000*%
%ADD15C,0.000000*%
G04 APERTURE END LIST*
D10*
X73338664Y-21553242D02*
X73038664Y-21653242D01*
X73038664Y-21653242D02*
X73338664Y-21753242D01*
X73195807Y-21953242D02*
X73181521Y-21996099D01*
X73181521Y-21996099D02*
X73167235Y-22010385D01*
X73167235Y-22010385D02*
X73138664Y-22024671D01*
X73138664Y-22024671D02*
X73095807Y-22024671D01*
X73095807Y-22024671D02*
X73067235Y-22010385D01*
X73067235Y-22010385D02*
X73052950Y-21996099D01*
X73052950Y-21996099D02*
X73038664Y-21967528D01*
X73038664Y-21967528D02*
X73038664Y-21853242D01*
X73038664Y-21853242D02*
X73338664Y-21853242D01*
X73338664Y-21853242D02*
X73338664Y-21953242D01*
X73338664Y-21953242D02*
X73324378Y-21981814D01*
X73324378Y-21981814D02*
X73310092Y-21996099D01*
X73310092Y-21996099D02*
X73281521Y-22010385D01*
X73281521Y-22010385D02*
X73252950Y-22010385D01*
X73252950Y-22010385D02*
X73224378Y-21996099D01*
X73224378Y-21996099D02*
X73210092Y-21981814D01*
X73210092Y-21981814D02*
X73195807Y-21953242D01*
X73195807Y-21953242D02*
X73195807Y-21853242D01*
X73338664Y-22153242D02*
X73095807Y-22153242D01*
X73095807Y-22153242D02*
X73067235Y-22167528D01*
X73067235Y-22167528D02*
X73052950Y-22181814D01*
X73052950Y-22181814D02*
X73038664Y-22210385D01*
X73038664Y-22210385D02*
X73038664Y-22267528D01*
X73038664Y-22267528D02*
X73052950Y-22296099D01*
X73052950Y-22296099D02*
X73067235Y-22310385D01*
X73067235Y-22310385D02*
X73095807Y-22324671D01*
X73095807Y-22324671D02*
X73338664Y-22324671D01*
X73052950Y-22453242D02*
X73038664Y-22496100D01*
X73038664Y-22496100D02*
X73038664Y-22567528D01*
X73038664Y-22567528D02*
X73052950Y-22596100D01*
X73052950Y-22596100D02*
X73067235Y-22610385D01*
X73067235Y-22610385D02*
X73095807Y-22624671D01*
X73095807Y-22624671D02*
X73124378Y-22624671D01*
X73124378Y-22624671D02*
X73152950Y-22610385D01*
X73152950Y-22610385D02*
X73167235Y-22596100D01*
X73167235Y-22596100D02*
X73181521Y-22567528D01*
X73181521Y-22567528D02*
X73195807Y-22510385D01*
X73195807Y-22510385D02*
X73210092Y-22481814D01*
X73210092Y-22481814D02*
X73224378Y-22467528D01*
X73224378Y-22467528D02*
X73252950Y-22453242D01*
X73252950Y-22453242D02*
X73281521Y-22453242D01*
X73281521Y-22453242D02*
X73310092Y-22467528D01*
X73310092Y-22467528D02*
X73324378Y-22481814D01*
X73324378Y-22481814D02*
X73338664Y-22510385D01*
X73338664Y-22510385D02*
X73338664Y-22581814D01*
X73338664Y-22581814D02*
X73324378Y-22624671D01*
X73324378Y-24253242D02*
X73338664Y-24224671D01*
X73338664Y-24224671D02*
X73338664Y-24181813D01*
X73338664Y-24181813D02*
X73324378Y-24138956D01*
X73324378Y-24138956D02*
X73295807Y-24110385D01*
X73295807Y-24110385D02*
X73267235Y-24096099D01*
X73267235Y-24096099D02*
X73210092Y-24081813D01*
X73210092Y-24081813D02*
X73167235Y-24081813D01*
X73167235Y-24081813D02*
X73110092Y-24096099D01*
X73110092Y-24096099D02*
X73081521Y-24110385D01*
X73081521Y-24110385D02*
X73052950Y-24138956D01*
X73052950Y-24138956D02*
X73038664Y-24181813D01*
X73038664Y-24181813D02*
X73038664Y-24210385D01*
X73038664Y-24210385D02*
X73052950Y-24253242D01*
X73052950Y-24253242D02*
X73067235Y-24267528D01*
X73067235Y-24267528D02*
X73167235Y-24267528D01*
X73167235Y-24267528D02*
X73167235Y-24210385D01*
X73038664Y-24396099D02*
X73338664Y-24396099D01*
X73338664Y-24396099D02*
X73338664Y-24510385D01*
X73338664Y-24510385D02*
X73324378Y-24538956D01*
X73324378Y-24538956D02*
X73310092Y-24553242D01*
X73310092Y-24553242D02*
X73281521Y-24567528D01*
X73281521Y-24567528D02*
X73238664Y-24567528D01*
X73238664Y-24567528D02*
X73210092Y-24553242D01*
X73210092Y-24553242D02*
X73195807Y-24538956D01*
X73195807Y-24538956D02*
X73181521Y-24510385D01*
X73181521Y-24510385D02*
X73181521Y-24396099D01*
X73038664Y-24696099D02*
X73338664Y-24696099D01*
X73338664Y-24896099D02*
X73338664Y-24953242D01*
X73338664Y-24953242D02*
X73324378Y-24981813D01*
X73324378Y-24981813D02*
X73295807Y-25010385D01*
X73295807Y-25010385D02*
X73238664Y-25024670D01*
X73238664Y-25024670D02*
X73138664Y-25024670D01*
X73138664Y-25024670D02*
X73081521Y-25010385D01*
X73081521Y-25010385D02*
X73052950Y-24981813D01*
X73052950Y-24981813D02*
X73038664Y-24953242D01*
X73038664Y-24953242D02*
X73038664Y-24896099D01*
X73038664Y-24896099D02*
X73052950Y-24867528D01*
X73052950Y-24867528D02*
X73081521Y-24838956D01*
X73081521Y-24838956D02*
X73138664Y-24824670D01*
X73138664Y-24824670D02*
X73238664Y-24824670D01*
X73238664Y-24824670D02*
X73295807Y-24838956D01*
X73295807Y-24838956D02*
X73324378Y-24867528D01*
X73324378Y-24867528D02*
X73338664Y-24896099D01*
X73310092Y-25367527D02*
X73324378Y-25381813D01*
X73324378Y-25381813D02*
X73338664Y-25410385D01*
X73338664Y-25410385D02*
X73338664Y-25481813D01*
X73338664Y-25481813D02*
X73324378Y-25510385D01*
X73324378Y-25510385D02*
X73310092Y-25524670D01*
X73310092Y-25524670D02*
X73281521Y-25538956D01*
X73281521Y-25538956D02*
X73252950Y-25538956D01*
X73252950Y-25538956D02*
X73210092Y-25524670D01*
X73210092Y-25524670D02*
X73038664Y-25353242D01*
X73038664Y-25353242D02*
X73038664Y-25538956D01*
X73038664Y-25681813D02*
X73038664Y-25738956D01*
X73038664Y-25738956D02*
X73052950Y-25767527D01*
X73052950Y-25767527D02*
X73067235Y-25781813D01*
X73067235Y-25781813D02*
X73110092Y-25810384D01*
X73110092Y-25810384D02*
X73167235Y-25824670D01*
X73167235Y-25824670D02*
X73281521Y-25824670D01*
X73281521Y-25824670D02*
X73310092Y-25810384D01*
X73310092Y-25810384D02*
X73324378Y-25796099D01*
X73324378Y-25796099D02*
X73338664Y-25767527D01*
X73338664Y-25767527D02*
X73338664Y-25710384D01*
X73338664Y-25710384D02*
X73324378Y-25681813D01*
X73324378Y-25681813D02*
X73310092Y-25667527D01*
X73310092Y-25667527D02*
X73281521Y-25653241D01*
X73281521Y-25653241D02*
X73210092Y-25653241D01*
X73210092Y-25653241D02*
X73181521Y-25667527D01*
X73181521Y-25667527D02*
X73167235Y-25681813D01*
X73167235Y-25681813D02*
X73152950Y-25710384D01*
X73152950Y-25710384D02*
X73152950Y-25767527D01*
X73152950Y-25767527D02*
X73167235Y-25796099D01*
X73167235Y-25796099D02*
X73181521Y-25810384D01*
X73181521Y-25810384D02*
X73210092Y-25824670D01*
X73324378Y-27253242D02*
X73338664Y-27224671D01*
X73338664Y-27224671D02*
X73338664Y-27181813D01*
X73338664Y-27181813D02*
X73324378Y-27138956D01*
X73324378Y-27138956D02*
X73295807Y-27110385D01*
X73295807Y-27110385D02*
X73267235Y-27096099D01*
X73267235Y-27096099D02*
X73210092Y-27081813D01*
X73210092Y-27081813D02*
X73167235Y-27081813D01*
X73167235Y-27081813D02*
X73110092Y-27096099D01*
X73110092Y-27096099D02*
X73081521Y-27110385D01*
X73081521Y-27110385D02*
X73052950Y-27138956D01*
X73052950Y-27138956D02*
X73038664Y-27181813D01*
X73038664Y-27181813D02*
X73038664Y-27210385D01*
X73038664Y-27210385D02*
X73052950Y-27253242D01*
X73052950Y-27253242D02*
X73067235Y-27267528D01*
X73067235Y-27267528D02*
X73167235Y-27267528D01*
X73167235Y-27267528D02*
X73167235Y-27210385D01*
X73038664Y-27396099D02*
X73338664Y-27396099D01*
X73338664Y-27396099D02*
X73038664Y-27567528D01*
X73038664Y-27567528D02*
X73338664Y-27567528D01*
X73038664Y-27710385D02*
X73338664Y-27710385D01*
X73338664Y-27710385D02*
X73338664Y-27781814D01*
X73338664Y-27781814D02*
X73324378Y-27824671D01*
X73324378Y-27824671D02*
X73295807Y-27853242D01*
X73295807Y-27853242D02*
X73267235Y-27867528D01*
X73267235Y-27867528D02*
X73210092Y-27881814D01*
X73210092Y-27881814D02*
X73167235Y-27881814D01*
X73167235Y-27881814D02*
X73110092Y-27867528D01*
X73110092Y-27867528D02*
X73081521Y-27853242D01*
X73081521Y-27853242D02*
X73052950Y-27824671D01*
X73052950Y-27824671D02*
X73038664Y-27781814D01*
X73038664Y-27781814D02*
X73038664Y-27710385D01*
X73324378Y-29253242D02*
X73338664Y-29224671D01*
X73338664Y-29224671D02*
X73338664Y-29181813D01*
X73338664Y-29181813D02*
X73324378Y-29138956D01*
X73324378Y-29138956D02*
X73295807Y-29110385D01*
X73295807Y-29110385D02*
X73267235Y-29096099D01*
X73267235Y-29096099D02*
X73210092Y-29081813D01*
X73210092Y-29081813D02*
X73167235Y-29081813D01*
X73167235Y-29081813D02*
X73110092Y-29096099D01*
X73110092Y-29096099D02*
X73081521Y-29110385D01*
X73081521Y-29110385D02*
X73052950Y-29138956D01*
X73052950Y-29138956D02*
X73038664Y-29181813D01*
X73038664Y-29181813D02*
X73038664Y-29210385D01*
X73038664Y-29210385D02*
X73052950Y-29253242D01*
X73052950Y-29253242D02*
X73067235Y-29267528D01*
X73067235Y-29267528D02*
X73167235Y-29267528D01*
X73167235Y-29267528D02*
X73167235Y-29210385D01*
X73038664Y-29396099D02*
X73338664Y-29396099D01*
X73338664Y-29396099D02*
X73338664Y-29510385D01*
X73338664Y-29510385D02*
X73324378Y-29538956D01*
X73324378Y-29538956D02*
X73310092Y-29553242D01*
X73310092Y-29553242D02*
X73281521Y-29567528D01*
X73281521Y-29567528D02*
X73238664Y-29567528D01*
X73238664Y-29567528D02*
X73210092Y-29553242D01*
X73210092Y-29553242D02*
X73195807Y-29538956D01*
X73195807Y-29538956D02*
X73181521Y-29510385D01*
X73181521Y-29510385D02*
X73181521Y-29396099D01*
X73038664Y-29696099D02*
X73338664Y-29696099D01*
X73338664Y-29896099D02*
X73338664Y-29953242D01*
X73338664Y-29953242D02*
X73324378Y-29981813D01*
X73324378Y-29981813D02*
X73295807Y-30010385D01*
X73295807Y-30010385D02*
X73238664Y-30024670D01*
X73238664Y-30024670D02*
X73138664Y-30024670D01*
X73138664Y-30024670D02*
X73081521Y-30010385D01*
X73081521Y-30010385D02*
X73052950Y-29981813D01*
X73052950Y-29981813D02*
X73038664Y-29953242D01*
X73038664Y-29953242D02*
X73038664Y-29896099D01*
X73038664Y-29896099D02*
X73052950Y-29867528D01*
X73052950Y-29867528D02*
X73081521Y-29838956D01*
X73081521Y-29838956D02*
X73138664Y-29824670D01*
X73138664Y-29824670D02*
X73238664Y-29824670D01*
X73238664Y-29824670D02*
X73295807Y-29838956D01*
X73295807Y-29838956D02*
X73324378Y-29867528D01*
X73324378Y-29867528D02*
X73338664Y-29896099D01*
X73310092Y-30367527D02*
X73324378Y-30381813D01*
X73324378Y-30381813D02*
X73338664Y-30410385D01*
X73338664Y-30410385D02*
X73338664Y-30481813D01*
X73338664Y-30481813D02*
X73324378Y-30510385D01*
X73324378Y-30510385D02*
X73310092Y-30524670D01*
X73310092Y-30524670D02*
X73281521Y-30538956D01*
X73281521Y-30538956D02*
X73252950Y-30538956D01*
X73252950Y-30538956D02*
X73210092Y-30524670D01*
X73210092Y-30524670D02*
X73038664Y-30353242D01*
X73038664Y-30353242D02*
X73038664Y-30538956D01*
X73210092Y-30710384D02*
X73224378Y-30681813D01*
X73224378Y-30681813D02*
X73238664Y-30667527D01*
X73238664Y-30667527D02*
X73267235Y-30653241D01*
X73267235Y-30653241D02*
X73281521Y-30653241D01*
X73281521Y-30653241D02*
X73310092Y-30667527D01*
X73310092Y-30667527D02*
X73324378Y-30681813D01*
X73324378Y-30681813D02*
X73338664Y-30710384D01*
X73338664Y-30710384D02*
X73338664Y-30767527D01*
X73338664Y-30767527D02*
X73324378Y-30796099D01*
X73324378Y-30796099D02*
X73310092Y-30810384D01*
X73310092Y-30810384D02*
X73281521Y-30824670D01*
X73281521Y-30824670D02*
X73267235Y-30824670D01*
X73267235Y-30824670D02*
X73238664Y-30810384D01*
X73238664Y-30810384D02*
X73224378Y-30796099D01*
X73224378Y-30796099D02*
X73210092Y-30767527D01*
X73210092Y-30767527D02*
X73210092Y-30710384D01*
X73210092Y-30710384D02*
X73195807Y-30681813D01*
X73195807Y-30681813D02*
X73181521Y-30667527D01*
X73181521Y-30667527D02*
X73152950Y-30653241D01*
X73152950Y-30653241D02*
X73095807Y-30653241D01*
X73095807Y-30653241D02*
X73067235Y-30667527D01*
X73067235Y-30667527D02*
X73052950Y-30681813D01*
X73052950Y-30681813D02*
X73038664Y-30710384D01*
X73038664Y-30710384D02*
X73038664Y-30767527D01*
X73038664Y-30767527D02*
X73052950Y-30796099D01*
X73052950Y-30796099D02*
X73067235Y-30810384D01*
X73067235Y-30810384D02*
X73095807Y-30824670D01*
X73095807Y-30824670D02*
X73152950Y-30824670D01*
X73152950Y-30824670D02*
X73181521Y-30810384D01*
X73181521Y-30810384D02*
X73195807Y-30796099D01*
X73195807Y-30796099D02*
X73210092Y-30767527D01*
X73338664Y-32067528D02*
X73338664Y-32253242D01*
X73338664Y-32253242D02*
X73224378Y-32153242D01*
X73224378Y-32153242D02*
X73224378Y-32196099D01*
X73224378Y-32196099D02*
X73210092Y-32224671D01*
X73210092Y-32224671D02*
X73195807Y-32238956D01*
X73195807Y-32238956D02*
X73167235Y-32253242D01*
X73167235Y-32253242D02*
X73095807Y-32253242D01*
X73095807Y-32253242D02*
X73067235Y-32238956D01*
X73067235Y-32238956D02*
X73052950Y-32224671D01*
X73052950Y-32224671D02*
X73038664Y-32196099D01*
X73038664Y-32196099D02*
X73038664Y-32110385D01*
X73038664Y-32110385D02*
X73052950Y-32081813D01*
X73052950Y-32081813D02*
X73067235Y-32067528D01*
X73338664Y-32338956D02*
X73038664Y-32438956D01*
X73038664Y-32438956D02*
X73338664Y-32538956D01*
X73338664Y-32610385D02*
X73338664Y-32796099D01*
X73338664Y-32796099D02*
X73224378Y-32696099D01*
X73224378Y-32696099D02*
X73224378Y-32738956D01*
X73224378Y-32738956D02*
X73210092Y-32767528D01*
X73210092Y-32767528D02*
X73195807Y-32781813D01*
X73195807Y-32781813D02*
X73167235Y-32796099D01*
X73167235Y-32796099D02*
X73095807Y-32796099D01*
X73095807Y-32796099D02*
X73067235Y-32781813D01*
X73067235Y-32781813D02*
X73052950Y-32767528D01*
X73052950Y-32767528D02*
X73038664Y-32738956D01*
X73038664Y-32738956D02*
X73038664Y-32653242D01*
X73038664Y-32653242D02*
X73052950Y-32624670D01*
X73052950Y-32624670D02*
X73067235Y-32610385D01*
X73324378Y-34253242D02*
X73338664Y-34224671D01*
X73338664Y-34224671D02*
X73338664Y-34181813D01*
X73338664Y-34181813D02*
X73324378Y-34138956D01*
X73324378Y-34138956D02*
X73295807Y-34110385D01*
X73295807Y-34110385D02*
X73267235Y-34096099D01*
X73267235Y-34096099D02*
X73210092Y-34081813D01*
X73210092Y-34081813D02*
X73167235Y-34081813D01*
X73167235Y-34081813D02*
X73110092Y-34096099D01*
X73110092Y-34096099D02*
X73081521Y-34110385D01*
X73081521Y-34110385D02*
X73052950Y-34138956D01*
X73052950Y-34138956D02*
X73038664Y-34181813D01*
X73038664Y-34181813D02*
X73038664Y-34210385D01*
X73038664Y-34210385D02*
X73052950Y-34253242D01*
X73052950Y-34253242D02*
X73067235Y-34267528D01*
X73067235Y-34267528D02*
X73167235Y-34267528D01*
X73167235Y-34267528D02*
X73167235Y-34210385D01*
X73038664Y-34396099D02*
X73338664Y-34396099D01*
X73338664Y-34396099D02*
X73338664Y-34510385D01*
X73338664Y-34510385D02*
X73324378Y-34538956D01*
X73324378Y-34538956D02*
X73310092Y-34553242D01*
X73310092Y-34553242D02*
X73281521Y-34567528D01*
X73281521Y-34567528D02*
X73238664Y-34567528D01*
X73238664Y-34567528D02*
X73210092Y-34553242D01*
X73210092Y-34553242D02*
X73195807Y-34538956D01*
X73195807Y-34538956D02*
X73181521Y-34510385D01*
X73181521Y-34510385D02*
X73181521Y-34396099D01*
X73038664Y-34696099D02*
X73338664Y-34696099D01*
X73338664Y-34896099D02*
X73338664Y-34953242D01*
X73338664Y-34953242D02*
X73324378Y-34981813D01*
X73324378Y-34981813D02*
X73295807Y-35010385D01*
X73295807Y-35010385D02*
X73238664Y-35024670D01*
X73238664Y-35024670D02*
X73138664Y-35024670D01*
X73138664Y-35024670D02*
X73081521Y-35010385D01*
X73081521Y-35010385D02*
X73052950Y-34981813D01*
X73052950Y-34981813D02*
X73038664Y-34953242D01*
X73038664Y-34953242D02*
X73038664Y-34896099D01*
X73038664Y-34896099D02*
X73052950Y-34867528D01*
X73052950Y-34867528D02*
X73081521Y-34838956D01*
X73081521Y-34838956D02*
X73138664Y-34824670D01*
X73138664Y-34824670D02*
X73238664Y-34824670D01*
X73238664Y-34824670D02*
X73295807Y-34838956D01*
X73295807Y-34838956D02*
X73324378Y-34867528D01*
X73324378Y-34867528D02*
X73338664Y-34896099D01*
X73310092Y-35367527D02*
X73324378Y-35381813D01*
X73324378Y-35381813D02*
X73338664Y-35410385D01*
X73338664Y-35410385D02*
X73338664Y-35481813D01*
X73338664Y-35481813D02*
X73324378Y-35510385D01*
X73324378Y-35510385D02*
X73310092Y-35524670D01*
X73310092Y-35524670D02*
X73281521Y-35538956D01*
X73281521Y-35538956D02*
X73252950Y-35538956D01*
X73252950Y-35538956D02*
X73210092Y-35524670D01*
X73210092Y-35524670D02*
X73038664Y-35353242D01*
X73038664Y-35353242D02*
X73038664Y-35538956D01*
X73338664Y-35638956D02*
X73338664Y-35838956D01*
X73338664Y-35838956D02*
X73038664Y-35710384D01*
X73324378Y-36753242D02*
X73338664Y-36724671D01*
X73338664Y-36724671D02*
X73338664Y-36681813D01*
X73338664Y-36681813D02*
X73324378Y-36638956D01*
X73324378Y-36638956D02*
X73295807Y-36610385D01*
X73295807Y-36610385D02*
X73267235Y-36596099D01*
X73267235Y-36596099D02*
X73210092Y-36581813D01*
X73210092Y-36581813D02*
X73167235Y-36581813D01*
X73167235Y-36581813D02*
X73110092Y-36596099D01*
X73110092Y-36596099D02*
X73081521Y-36610385D01*
X73081521Y-36610385D02*
X73052950Y-36638956D01*
X73052950Y-36638956D02*
X73038664Y-36681813D01*
X73038664Y-36681813D02*
X73038664Y-36710385D01*
X73038664Y-36710385D02*
X73052950Y-36753242D01*
X73052950Y-36753242D02*
X73067235Y-36767528D01*
X73067235Y-36767528D02*
X73167235Y-36767528D01*
X73167235Y-36767528D02*
X73167235Y-36710385D01*
X73038664Y-36896099D02*
X73338664Y-36896099D01*
X73338664Y-36896099D02*
X73338664Y-37010385D01*
X73338664Y-37010385D02*
X73324378Y-37038956D01*
X73324378Y-37038956D02*
X73310092Y-37053242D01*
X73310092Y-37053242D02*
X73281521Y-37067528D01*
X73281521Y-37067528D02*
X73238664Y-37067528D01*
X73238664Y-37067528D02*
X73210092Y-37053242D01*
X73210092Y-37053242D02*
X73195807Y-37038956D01*
X73195807Y-37038956D02*
X73181521Y-37010385D01*
X73181521Y-37010385D02*
X73181521Y-36896099D01*
X73038664Y-37196099D02*
X73338664Y-37196099D01*
X73338664Y-37396099D02*
X73338664Y-37453242D01*
X73338664Y-37453242D02*
X73324378Y-37481813D01*
X73324378Y-37481813D02*
X73295807Y-37510385D01*
X73295807Y-37510385D02*
X73238664Y-37524670D01*
X73238664Y-37524670D02*
X73138664Y-37524670D01*
X73138664Y-37524670D02*
X73081521Y-37510385D01*
X73081521Y-37510385D02*
X73052950Y-37481813D01*
X73052950Y-37481813D02*
X73038664Y-37453242D01*
X73038664Y-37453242D02*
X73038664Y-37396099D01*
X73038664Y-37396099D02*
X73052950Y-37367528D01*
X73052950Y-37367528D02*
X73081521Y-37338956D01*
X73081521Y-37338956D02*
X73138664Y-37324670D01*
X73138664Y-37324670D02*
X73238664Y-37324670D01*
X73238664Y-37324670D02*
X73295807Y-37338956D01*
X73295807Y-37338956D02*
X73324378Y-37367528D01*
X73324378Y-37367528D02*
X73338664Y-37396099D01*
X73310092Y-37867527D02*
X73324378Y-37881813D01*
X73324378Y-37881813D02*
X73338664Y-37910385D01*
X73338664Y-37910385D02*
X73338664Y-37981813D01*
X73338664Y-37981813D02*
X73324378Y-38010385D01*
X73324378Y-38010385D02*
X73310092Y-38024670D01*
X73310092Y-38024670D02*
X73281521Y-38038956D01*
X73281521Y-38038956D02*
X73252950Y-38038956D01*
X73252950Y-38038956D02*
X73210092Y-38024670D01*
X73210092Y-38024670D02*
X73038664Y-37853242D01*
X73038664Y-37853242D02*
X73038664Y-38038956D01*
X73338664Y-38296099D02*
X73338664Y-38238956D01*
X73338664Y-38238956D02*
X73324378Y-38210384D01*
X73324378Y-38210384D02*
X73310092Y-38196099D01*
X73310092Y-38196099D02*
X73267235Y-38167527D01*
X73267235Y-38167527D02*
X73210092Y-38153241D01*
X73210092Y-38153241D02*
X73095807Y-38153241D01*
X73095807Y-38153241D02*
X73067235Y-38167527D01*
X73067235Y-38167527D02*
X73052950Y-38181813D01*
X73052950Y-38181813D02*
X73038664Y-38210384D01*
X73038664Y-38210384D02*
X73038664Y-38267527D01*
X73038664Y-38267527D02*
X73052950Y-38296099D01*
X73052950Y-38296099D02*
X73067235Y-38310384D01*
X73067235Y-38310384D02*
X73095807Y-38324670D01*
X73095807Y-38324670D02*
X73167235Y-38324670D01*
X73167235Y-38324670D02*
X73195807Y-38310384D01*
X73195807Y-38310384D02*
X73210092Y-38296099D01*
X73210092Y-38296099D02*
X73224378Y-38267527D01*
X73224378Y-38267527D02*
X73224378Y-38210384D01*
X73224378Y-38210384D02*
X73210092Y-38181813D01*
X73210092Y-38181813D02*
X73195807Y-38167527D01*
X73195807Y-38167527D02*
X73167235Y-38153241D01*
X73824378Y-39753242D02*
X73838664Y-39724671D01*
X73838664Y-39724671D02*
X73838664Y-39681813D01*
X73838664Y-39681813D02*
X73824378Y-39638956D01*
X73824378Y-39638956D02*
X73795807Y-39610385D01*
X73795807Y-39610385D02*
X73767235Y-39596099D01*
X73767235Y-39596099D02*
X73710092Y-39581813D01*
X73710092Y-39581813D02*
X73667235Y-39581813D01*
X73667235Y-39581813D02*
X73610092Y-39596099D01*
X73610092Y-39596099D02*
X73581521Y-39610385D01*
X73581521Y-39610385D02*
X73552950Y-39638956D01*
X73552950Y-39638956D02*
X73538664Y-39681813D01*
X73538664Y-39681813D02*
X73538664Y-39710385D01*
X73538664Y-39710385D02*
X73552950Y-39753242D01*
X73552950Y-39753242D02*
X73567235Y-39767528D01*
X73567235Y-39767528D02*
X73667235Y-39767528D01*
X73667235Y-39767528D02*
X73667235Y-39710385D01*
X73538664Y-39896099D02*
X73838664Y-39896099D01*
X73838664Y-39896099D02*
X73538664Y-40067528D01*
X73538664Y-40067528D02*
X73838664Y-40067528D01*
X73538664Y-40210385D02*
X73838664Y-40210385D01*
X73838664Y-40210385D02*
X73838664Y-40281814D01*
X73838664Y-40281814D02*
X73824378Y-40324671D01*
X73824378Y-40324671D02*
X73795807Y-40353242D01*
X73795807Y-40353242D02*
X73767235Y-40367528D01*
X73767235Y-40367528D02*
X73710092Y-40381814D01*
X73710092Y-40381814D02*
X73667235Y-40381814D01*
X73667235Y-40381814D02*
X73610092Y-40367528D01*
X73610092Y-40367528D02*
X73581521Y-40353242D01*
X73581521Y-40353242D02*
X73552950Y-40324671D01*
X73552950Y-40324671D02*
X73538664Y-40281814D01*
X73538664Y-40281814D02*
X73538664Y-40210385D01*
X73324378Y-41753242D02*
X73338664Y-41724671D01*
X73338664Y-41724671D02*
X73338664Y-41681813D01*
X73338664Y-41681813D02*
X73324378Y-41638956D01*
X73324378Y-41638956D02*
X73295807Y-41610385D01*
X73295807Y-41610385D02*
X73267235Y-41596099D01*
X73267235Y-41596099D02*
X73210092Y-41581813D01*
X73210092Y-41581813D02*
X73167235Y-41581813D01*
X73167235Y-41581813D02*
X73110092Y-41596099D01*
X73110092Y-41596099D02*
X73081521Y-41610385D01*
X73081521Y-41610385D02*
X73052950Y-41638956D01*
X73052950Y-41638956D02*
X73038664Y-41681813D01*
X73038664Y-41681813D02*
X73038664Y-41710385D01*
X73038664Y-41710385D02*
X73052950Y-41753242D01*
X73052950Y-41753242D02*
X73067235Y-41767528D01*
X73067235Y-41767528D02*
X73167235Y-41767528D01*
X73167235Y-41767528D02*
X73167235Y-41710385D01*
X73038664Y-41896099D02*
X73338664Y-41896099D01*
X73338664Y-41896099D02*
X73338664Y-42010385D01*
X73338664Y-42010385D02*
X73324378Y-42038956D01*
X73324378Y-42038956D02*
X73310092Y-42053242D01*
X73310092Y-42053242D02*
X73281521Y-42067528D01*
X73281521Y-42067528D02*
X73238664Y-42067528D01*
X73238664Y-42067528D02*
X73210092Y-42053242D01*
X73210092Y-42053242D02*
X73195807Y-42038956D01*
X73195807Y-42038956D02*
X73181521Y-42010385D01*
X73181521Y-42010385D02*
X73181521Y-41896099D01*
X73038664Y-42196099D02*
X73338664Y-42196099D01*
X73338664Y-42396099D02*
X73338664Y-42453242D01*
X73338664Y-42453242D02*
X73324378Y-42481813D01*
X73324378Y-42481813D02*
X73295807Y-42510385D01*
X73295807Y-42510385D02*
X73238664Y-42524670D01*
X73238664Y-42524670D02*
X73138664Y-42524670D01*
X73138664Y-42524670D02*
X73081521Y-42510385D01*
X73081521Y-42510385D02*
X73052950Y-42481813D01*
X73052950Y-42481813D02*
X73038664Y-42453242D01*
X73038664Y-42453242D02*
X73038664Y-42396099D01*
X73038664Y-42396099D02*
X73052950Y-42367528D01*
X73052950Y-42367528D02*
X73081521Y-42338956D01*
X73081521Y-42338956D02*
X73138664Y-42324670D01*
X73138664Y-42324670D02*
X73238664Y-42324670D01*
X73238664Y-42324670D02*
X73295807Y-42338956D01*
X73295807Y-42338956D02*
X73324378Y-42367528D01*
X73324378Y-42367528D02*
X73338664Y-42396099D01*
X73310092Y-42867527D02*
X73324378Y-42881813D01*
X73324378Y-42881813D02*
X73338664Y-42910385D01*
X73338664Y-42910385D02*
X73338664Y-42981813D01*
X73338664Y-42981813D02*
X73324378Y-43010385D01*
X73324378Y-43010385D02*
X73310092Y-43024670D01*
X73310092Y-43024670D02*
X73281521Y-43038956D01*
X73281521Y-43038956D02*
X73252950Y-43038956D01*
X73252950Y-43038956D02*
X73210092Y-43024670D01*
X73210092Y-43024670D02*
X73038664Y-42853242D01*
X73038664Y-42853242D02*
X73038664Y-43038956D01*
X73238664Y-43296099D02*
X73038664Y-43296099D01*
X73352950Y-43224670D02*
X73138664Y-43153241D01*
X73138664Y-43153241D02*
X73138664Y-43338956D01*
X73324378Y-44253242D02*
X73338664Y-44224671D01*
X73338664Y-44224671D02*
X73338664Y-44181813D01*
X73338664Y-44181813D02*
X73324378Y-44138956D01*
X73324378Y-44138956D02*
X73295807Y-44110385D01*
X73295807Y-44110385D02*
X73267235Y-44096099D01*
X73267235Y-44096099D02*
X73210092Y-44081813D01*
X73210092Y-44081813D02*
X73167235Y-44081813D01*
X73167235Y-44081813D02*
X73110092Y-44096099D01*
X73110092Y-44096099D02*
X73081521Y-44110385D01*
X73081521Y-44110385D02*
X73052950Y-44138956D01*
X73052950Y-44138956D02*
X73038664Y-44181813D01*
X73038664Y-44181813D02*
X73038664Y-44210385D01*
X73038664Y-44210385D02*
X73052950Y-44253242D01*
X73052950Y-44253242D02*
X73067235Y-44267528D01*
X73067235Y-44267528D02*
X73167235Y-44267528D01*
X73167235Y-44267528D02*
X73167235Y-44210385D01*
X73038664Y-44396099D02*
X73338664Y-44396099D01*
X73338664Y-44396099D02*
X73338664Y-44510385D01*
X73338664Y-44510385D02*
X73324378Y-44538956D01*
X73324378Y-44538956D02*
X73310092Y-44553242D01*
X73310092Y-44553242D02*
X73281521Y-44567528D01*
X73281521Y-44567528D02*
X73238664Y-44567528D01*
X73238664Y-44567528D02*
X73210092Y-44553242D01*
X73210092Y-44553242D02*
X73195807Y-44538956D01*
X73195807Y-44538956D02*
X73181521Y-44510385D01*
X73181521Y-44510385D02*
X73181521Y-44396099D01*
X73038664Y-44696099D02*
X73338664Y-44696099D01*
X73338664Y-44896099D02*
X73338664Y-44953242D01*
X73338664Y-44953242D02*
X73324378Y-44981813D01*
X73324378Y-44981813D02*
X73295807Y-45010385D01*
X73295807Y-45010385D02*
X73238664Y-45024670D01*
X73238664Y-45024670D02*
X73138664Y-45024670D01*
X73138664Y-45024670D02*
X73081521Y-45010385D01*
X73081521Y-45010385D02*
X73052950Y-44981813D01*
X73052950Y-44981813D02*
X73038664Y-44953242D01*
X73038664Y-44953242D02*
X73038664Y-44896099D01*
X73038664Y-44896099D02*
X73052950Y-44867528D01*
X73052950Y-44867528D02*
X73081521Y-44838956D01*
X73081521Y-44838956D02*
X73138664Y-44824670D01*
X73138664Y-44824670D02*
X73238664Y-44824670D01*
X73238664Y-44824670D02*
X73295807Y-44838956D01*
X73295807Y-44838956D02*
X73324378Y-44867528D01*
X73324378Y-44867528D02*
X73338664Y-44896099D01*
X73310092Y-45367527D02*
X73324378Y-45381813D01*
X73324378Y-45381813D02*
X73338664Y-45410385D01*
X73338664Y-45410385D02*
X73338664Y-45481813D01*
X73338664Y-45481813D02*
X73324378Y-45510385D01*
X73324378Y-45510385D02*
X73310092Y-45524670D01*
X73310092Y-45524670D02*
X73281521Y-45538956D01*
X73281521Y-45538956D02*
X73252950Y-45538956D01*
X73252950Y-45538956D02*
X73210092Y-45524670D01*
X73210092Y-45524670D02*
X73038664Y-45353242D01*
X73038664Y-45353242D02*
X73038664Y-45538956D01*
X73338664Y-45638956D02*
X73338664Y-45824670D01*
X73338664Y-45824670D02*
X73224378Y-45724670D01*
X73224378Y-45724670D02*
X73224378Y-45767527D01*
X73224378Y-45767527D02*
X73210092Y-45796099D01*
X73210092Y-45796099D02*
X73195807Y-45810384D01*
X73195807Y-45810384D02*
X73167235Y-45824670D01*
X73167235Y-45824670D02*
X73095807Y-45824670D01*
X73095807Y-45824670D02*
X73067235Y-45810384D01*
X73067235Y-45810384D02*
X73052950Y-45796099D01*
X73052950Y-45796099D02*
X73038664Y-45767527D01*
X73038664Y-45767527D02*
X73038664Y-45681813D01*
X73038664Y-45681813D02*
X73052950Y-45653241D01*
X73052950Y-45653241D02*
X73067235Y-45638956D01*
X73038664Y-47267528D02*
X73181521Y-47167528D01*
X73038664Y-47096099D02*
X73338664Y-47096099D01*
X73338664Y-47096099D02*
X73338664Y-47210385D01*
X73338664Y-47210385D02*
X73324378Y-47238956D01*
X73324378Y-47238956D02*
X73310092Y-47253242D01*
X73310092Y-47253242D02*
X73281521Y-47267528D01*
X73281521Y-47267528D02*
X73238664Y-47267528D01*
X73238664Y-47267528D02*
X73210092Y-47253242D01*
X73210092Y-47253242D02*
X73195807Y-47238956D01*
X73195807Y-47238956D02*
X73181521Y-47210385D01*
X73181521Y-47210385D02*
X73181521Y-47096099D01*
X73338664Y-47396099D02*
X73095807Y-47396099D01*
X73095807Y-47396099D02*
X73067235Y-47410385D01*
X73067235Y-47410385D02*
X73052950Y-47424671D01*
X73052950Y-47424671D02*
X73038664Y-47453242D01*
X73038664Y-47453242D02*
X73038664Y-47510385D01*
X73038664Y-47510385D02*
X73052950Y-47538956D01*
X73052950Y-47538956D02*
X73067235Y-47553242D01*
X73067235Y-47553242D02*
X73095807Y-47567528D01*
X73095807Y-47567528D02*
X73338664Y-47567528D01*
X73038664Y-47710385D02*
X73338664Y-47710385D01*
X73338664Y-47710385D02*
X73038664Y-47881814D01*
X73038664Y-47881814D02*
X73338664Y-47881814D01*
X73324378Y-49753242D02*
X73338664Y-49724671D01*
X73338664Y-49724671D02*
X73338664Y-49681813D01*
X73338664Y-49681813D02*
X73324378Y-49638956D01*
X73324378Y-49638956D02*
X73295807Y-49610385D01*
X73295807Y-49610385D02*
X73267235Y-49596099D01*
X73267235Y-49596099D02*
X73210092Y-49581813D01*
X73210092Y-49581813D02*
X73167235Y-49581813D01*
X73167235Y-49581813D02*
X73110092Y-49596099D01*
X73110092Y-49596099D02*
X73081521Y-49610385D01*
X73081521Y-49610385D02*
X73052950Y-49638956D01*
X73052950Y-49638956D02*
X73038664Y-49681813D01*
X73038664Y-49681813D02*
X73038664Y-49710385D01*
X73038664Y-49710385D02*
X73052950Y-49753242D01*
X73052950Y-49753242D02*
X73067235Y-49767528D01*
X73067235Y-49767528D02*
X73167235Y-49767528D01*
X73167235Y-49767528D02*
X73167235Y-49710385D01*
X73038664Y-49896099D02*
X73338664Y-49896099D01*
X73338664Y-49896099D02*
X73338664Y-50010385D01*
X73338664Y-50010385D02*
X73324378Y-50038956D01*
X73324378Y-50038956D02*
X73310092Y-50053242D01*
X73310092Y-50053242D02*
X73281521Y-50067528D01*
X73281521Y-50067528D02*
X73238664Y-50067528D01*
X73238664Y-50067528D02*
X73210092Y-50053242D01*
X73210092Y-50053242D02*
X73195807Y-50038956D01*
X73195807Y-50038956D02*
X73181521Y-50010385D01*
X73181521Y-50010385D02*
X73181521Y-49896099D01*
X73038664Y-50196099D02*
X73338664Y-50196099D01*
X73338664Y-50396099D02*
X73338664Y-50453242D01*
X73338664Y-50453242D02*
X73324378Y-50481813D01*
X73324378Y-50481813D02*
X73295807Y-50510385D01*
X73295807Y-50510385D02*
X73238664Y-50524670D01*
X73238664Y-50524670D02*
X73138664Y-50524670D01*
X73138664Y-50524670D02*
X73081521Y-50510385D01*
X73081521Y-50510385D02*
X73052950Y-50481813D01*
X73052950Y-50481813D02*
X73038664Y-50453242D01*
X73038664Y-50453242D02*
X73038664Y-50396099D01*
X73038664Y-50396099D02*
X73052950Y-50367528D01*
X73052950Y-50367528D02*
X73081521Y-50338956D01*
X73081521Y-50338956D02*
X73138664Y-50324670D01*
X73138664Y-50324670D02*
X73238664Y-50324670D01*
X73238664Y-50324670D02*
X73295807Y-50338956D01*
X73295807Y-50338956D02*
X73324378Y-50367528D01*
X73324378Y-50367528D02*
X73338664Y-50396099D01*
X73310092Y-50867527D02*
X73324378Y-50881813D01*
X73324378Y-50881813D02*
X73338664Y-50910385D01*
X73338664Y-50910385D02*
X73338664Y-50981813D01*
X73338664Y-50981813D02*
X73324378Y-51010385D01*
X73324378Y-51010385D02*
X73310092Y-51024670D01*
X73310092Y-51024670D02*
X73281521Y-51038956D01*
X73281521Y-51038956D02*
X73252950Y-51038956D01*
X73252950Y-51038956D02*
X73210092Y-51024670D01*
X73210092Y-51024670D02*
X73038664Y-50853242D01*
X73038664Y-50853242D02*
X73038664Y-51038956D01*
X73310092Y-51153241D02*
X73324378Y-51167527D01*
X73324378Y-51167527D02*
X73338664Y-51196099D01*
X73338664Y-51196099D02*
X73338664Y-51267527D01*
X73338664Y-51267527D02*
X73324378Y-51296099D01*
X73324378Y-51296099D02*
X73310092Y-51310384D01*
X73310092Y-51310384D02*
X73281521Y-51324670D01*
X73281521Y-51324670D02*
X73252950Y-51324670D01*
X73252950Y-51324670D02*
X73210092Y-51310384D01*
X73210092Y-51310384D02*
X73038664Y-51138956D01*
X73038664Y-51138956D02*
X73038664Y-51324670D01*
X73324378Y-52753242D02*
X73338664Y-52724671D01*
X73338664Y-52724671D02*
X73338664Y-52681813D01*
X73338664Y-52681813D02*
X73324378Y-52638956D01*
X73324378Y-52638956D02*
X73295807Y-52610385D01*
X73295807Y-52610385D02*
X73267235Y-52596099D01*
X73267235Y-52596099D02*
X73210092Y-52581813D01*
X73210092Y-52581813D02*
X73167235Y-52581813D01*
X73167235Y-52581813D02*
X73110092Y-52596099D01*
X73110092Y-52596099D02*
X73081521Y-52610385D01*
X73081521Y-52610385D02*
X73052950Y-52638956D01*
X73052950Y-52638956D02*
X73038664Y-52681813D01*
X73038664Y-52681813D02*
X73038664Y-52710385D01*
X73038664Y-52710385D02*
X73052950Y-52753242D01*
X73052950Y-52753242D02*
X73067235Y-52767528D01*
X73067235Y-52767528D02*
X73167235Y-52767528D01*
X73167235Y-52767528D02*
X73167235Y-52710385D01*
X73038664Y-52896099D02*
X73338664Y-52896099D01*
X73338664Y-52896099D02*
X73038664Y-53067528D01*
X73038664Y-53067528D02*
X73338664Y-53067528D01*
X73038664Y-53210385D02*
X73338664Y-53210385D01*
X73338664Y-53210385D02*
X73338664Y-53281814D01*
X73338664Y-53281814D02*
X73324378Y-53324671D01*
X73324378Y-53324671D02*
X73295807Y-53353242D01*
X73295807Y-53353242D02*
X73267235Y-53367528D01*
X73267235Y-53367528D02*
X73210092Y-53381814D01*
X73210092Y-53381814D02*
X73167235Y-53381814D01*
X73167235Y-53381814D02*
X73110092Y-53367528D01*
X73110092Y-53367528D02*
X73081521Y-53353242D01*
X73081521Y-53353242D02*
X73052950Y-53324671D01*
X73052950Y-53324671D02*
X73038664Y-53281814D01*
X73038664Y-53281814D02*
X73038664Y-53210385D01*
X73324378Y-54753242D02*
X73338664Y-54724671D01*
X73338664Y-54724671D02*
X73338664Y-54681813D01*
X73338664Y-54681813D02*
X73324378Y-54638956D01*
X73324378Y-54638956D02*
X73295807Y-54610385D01*
X73295807Y-54610385D02*
X73267235Y-54596099D01*
X73267235Y-54596099D02*
X73210092Y-54581813D01*
X73210092Y-54581813D02*
X73167235Y-54581813D01*
X73167235Y-54581813D02*
X73110092Y-54596099D01*
X73110092Y-54596099D02*
X73081521Y-54610385D01*
X73081521Y-54610385D02*
X73052950Y-54638956D01*
X73052950Y-54638956D02*
X73038664Y-54681813D01*
X73038664Y-54681813D02*
X73038664Y-54710385D01*
X73038664Y-54710385D02*
X73052950Y-54753242D01*
X73052950Y-54753242D02*
X73067235Y-54767528D01*
X73067235Y-54767528D02*
X73167235Y-54767528D01*
X73167235Y-54767528D02*
X73167235Y-54710385D01*
X73038664Y-54896099D02*
X73338664Y-54896099D01*
X73338664Y-54896099D02*
X73338664Y-55010385D01*
X73338664Y-55010385D02*
X73324378Y-55038956D01*
X73324378Y-55038956D02*
X73310092Y-55053242D01*
X73310092Y-55053242D02*
X73281521Y-55067528D01*
X73281521Y-55067528D02*
X73238664Y-55067528D01*
X73238664Y-55067528D02*
X73210092Y-55053242D01*
X73210092Y-55053242D02*
X73195807Y-55038956D01*
X73195807Y-55038956D02*
X73181521Y-55010385D01*
X73181521Y-55010385D02*
X73181521Y-54896099D01*
X73038664Y-55196099D02*
X73338664Y-55196099D01*
X73338664Y-55396099D02*
X73338664Y-55453242D01*
X73338664Y-55453242D02*
X73324378Y-55481813D01*
X73324378Y-55481813D02*
X73295807Y-55510385D01*
X73295807Y-55510385D02*
X73238664Y-55524670D01*
X73238664Y-55524670D02*
X73138664Y-55524670D01*
X73138664Y-55524670D02*
X73081521Y-55510385D01*
X73081521Y-55510385D02*
X73052950Y-55481813D01*
X73052950Y-55481813D02*
X73038664Y-55453242D01*
X73038664Y-55453242D02*
X73038664Y-55396099D01*
X73038664Y-55396099D02*
X73052950Y-55367528D01*
X73052950Y-55367528D02*
X73081521Y-55338956D01*
X73081521Y-55338956D02*
X73138664Y-55324670D01*
X73138664Y-55324670D02*
X73238664Y-55324670D01*
X73238664Y-55324670D02*
X73295807Y-55338956D01*
X73295807Y-55338956D02*
X73324378Y-55367528D01*
X73324378Y-55367528D02*
X73338664Y-55396099D01*
X73310092Y-55867527D02*
X73324378Y-55881813D01*
X73324378Y-55881813D02*
X73338664Y-55910385D01*
X73338664Y-55910385D02*
X73338664Y-55981813D01*
X73338664Y-55981813D02*
X73324378Y-56010385D01*
X73324378Y-56010385D02*
X73310092Y-56024670D01*
X73310092Y-56024670D02*
X73281521Y-56038956D01*
X73281521Y-56038956D02*
X73252950Y-56038956D01*
X73252950Y-56038956D02*
X73210092Y-56024670D01*
X73210092Y-56024670D02*
X73038664Y-55853242D01*
X73038664Y-55853242D02*
X73038664Y-56038956D01*
X73038664Y-56324670D02*
X73038664Y-56153241D01*
X73038664Y-56238956D02*
X73338664Y-56238956D01*
X73338664Y-56238956D02*
X73295807Y-56210384D01*
X73295807Y-56210384D02*
X73267235Y-56181813D01*
X73267235Y-56181813D02*
X73252950Y-56153241D01*
X73324378Y-57253242D02*
X73338664Y-57224671D01*
X73338664Y-57224671D02*
X73338664Y-57181813D01*
X73338664Y-57181813D02*
X73324378Y-57138956D01*
X73324378Y-57138956D02*
X73295807Y-57110385D01*
X73295807Y-57110385D02*
X73267235Y-57096099D01*
X73267235Y-57096099D02*
X73210092Y-57081813D01*
X73210092Y-57081813D02*
X73167235Y-57081813D01*
X73167235Y-57081813D02*
X73110092Y-57096099D01*
X73110092Y-57096099D02*
X73081521Y-57110385D01*
X73081521Y-57110385D02*
X73052950Y-57138956D01*
X73052950Y-57138956D02*
X73038664Y-57181813D01*
X73038664Y-57181813D02*
X73038664Y-57210385D01*
X73038664Y-57210385D02*
X73052950Y-57253242D01*
X73052950Y-57253242D02*
X73067235Y-57267528D01*
X73067235Y-57267528D02*
X73167235Y-57267528D01*
X73167235Y-57267528D02*
X73167235Y-57210385D01*
X73038664Y-57396099D02*
X73338664Y-57396099D01*
X73338664Y-57396099D02*
X73338664Y-57510385D01*
X73338664Y-57510385D02*
X73324378Y-57538956D01*
X73324378Y-57538956D02*
X73310092Y-57553242D01*
X73310092Y-57553242D02*
X73281521Y-57567528D01*
X73281521Y-57567528D02*
X73238664Y-57567528D01*
X73238664Y-57567528D02*
X73210092Y-57553242D01*
X73210092Y-57553242D02*
X73195807Y-57538956D01*
X73195807Y-57538956D02*
X73181521Y-57510385D01*
X73181521Y-57510385D02*
X73181521Y-57396099D01*
X73038664Y-57696099D02*
X73338664Y-57696099D01*
X73338664Y-57896099D02*
X73338664Y-57953242D01*
X73338664Y-57953242D02*
X73324378Y-57981813D01*
X73324378Y-57981813D02*
X73295807Y-58010385D01*
X73295807Y-58010385D02*
X73238664Y-58024670D01*
X73238664Y-58024670D02*
X73138664Y-58024670D01*
X73138664Y-58024670D02*
X73081521Y-58010385D01*
X73081521Y-58010385D02*
X73052950Y-57981813D01*
X73052950Y-57981813D02*
X73038664Y-57953242D01*
X73038664Y-57953242D02*
X73038664Y-57896099D01*
X73038664Y-57896099D02*
X73052950Y-57867528D01*
X73052950Y-57867528D02*
X73081521Y-57838956D01*
X73081521Y-57838956D02*
X73138664Y-57824670D01*
X73138664Y-57824670D02*
X73238664Y-57824670D01*
X73238664Y-57824670D02*
X73295807Y-57838956D01*
X73295807Y-57838956D02*
X73324378Y-57867528D01*
X73324378Y-57867528D02*
X73338664Y-57896099D01*
X73310092Y-58367527D02*
X73324378Y-58381813D01*
X73324378Y-58381813D02*
X73338664Y-58410385D01*
X73338664Y-58410385D02*
X73338664Y-58481813D01*
X73338664Y-58481813D02*
X73324378Y-58510385D01*
X73324378Y-58510385D02*
X73310092Y-58524670D01*
X73310092Y-58524670D02*
X73281521Y-58538956D01*
X73281521Y-58538956D02*
X73252950Y-58538956D01*
X73252950Y-58538956D02*
X73210092Y-58524670D01*
X73210092Y-58524670D02*
X73038664Y-58353242D01*
X73038664Y-58353242D02*
X73038664Y-58538956D01*
X73338664Y-58724670D02*
X73338664Y-58753241D01*
X73338664Y-58753241D02*
X73324378Y-58781813D01*
X73324378Y-58781813D02*
X73310092Y-58796099D01*
X73310092Y-58796099D02*
X73281521Y-58810384D01*
X73281521Y-58810384D02*
X73224378Y-58824670D01*
X73224378Y-58824670D02*
X73152950Y-58824670D01*
X73152950Y-58824670D02*
X73095807Y-58810384D01*
X73095807Y-58810384D02*
X73067235Y-58796099D01*
X73067235Y-58796099D02*
X73052950Y-58781813D01*
X73052950Y-58781813D02*
X73038664Y-58753241D01*
X73038664Y-58753241D02*
X73038664Y-58724670D01*
X73038664Y-58724670D02*
X73052950Y-58696099D01*
X73052950Y-58696099D02*
X73067235Y-58681813D01*
X73067235Y-58681813D02*
X73095807Y-58667527D01*
X73095807Y-58667527D02*
X73152950Y-58653241D01*
X73152950Y-58653241D02*
X73224378Y-58653241D01*
X73224378Y-58653241D02*
X73281521Y-58667527D01*
X73281521Y-58667527D02*
X73310092Y-58681813D01*
X73310092Y-58681813D02*
X73324378Y-58696099D01*
X73324378Y-58696099D02*
X73338664Y-58724670D01*
X73324378Y-59753242D02*
X73338664Y-59724671D01*
X73338664Y-59724671D02*
X73338664Y-59681813D01*
X73338664Y-59681813D02*
X73324378Y-59638956D01*
X73324378Y-59638956D02*
X73295807Y-59610385D01*
X73295807Y-59610385D02*
X73267235Y-59596099D01*
X73267235Y-59596099D02*
X73210092Y-59581813D01*
X73210092Y-59581813D02*
X73167235Y-59581813D01*
X73167235Y-59581813D02*
X73110092Y-59596099D01*
X73110092Y-59596099D02*
X73081521Y-59610385D01*
X73081521Y-59610385D02*
X73052950Y-59638956D01*
X73052950Y-59638956D02*
X73038664Y-59681813D01*
X73038664Y-59681813D02*
X73038664Y-59710385D01*
X73038664Y-59710385D02*
X73052950Y-59753242D01*
X73052950Y-59753242D02*
X73067235Y-59767528D01*
X73067235Y-59767528D02*
X73167235Y-59767528D01*
X73167235Y-59767528D02*
X73167235Y-59710385D01*
X73038664Y-59896099D02*
X73338664Y-59896099D01*
X73338664Y-59896099D02*
X73338664Y-60010385D01*
X73338664Y-60010385D02*
X73324378Y-60038956D01*
X73324378Y-60038956D02*
X73310092Y-60053242D01*
X73310092Y-60053242D02*
X73281521Y-60067528D01*
X73281521Y-60067528D02*
X73238664Y-60067528D01*
X73238664Y-60067528D02*
X73210092Y-60053242D01*
X73210092Y-60053242D02*
X73195807Y-60038956D01*
X73195807Y-60038956D02*
X73181521Y-60010385D01*
X73181521Y-60010385D02*
X73181521Y-59896099D01*
X73038664Y-60196099D02*
X73338664Y-60196099D01*
X73338664Y-60396099D02*
X73338664Y-60453242D01*
X73338664Y-60453242D02*
X73324378Y-60481813D01*
X73324378Y-60481813D02*
X73295807Y-60510385D01*
X73295807Y-60510385D02*
X73238664Y-60524670D01*
X73238664Y-60524670D02*
X73138664Y-60524670D01*
X73138664Y-60524670D02*
X73081521Y-60510385D01*
X73081521Y-60510385D02*
X73052950Y-60481813D01*
X73052950Y-60481813D02*
X73038664Y-60453242D01*
X73038664Y-60453242D02*
X73038664Y-60396099D01*
X73038664Y-60396099D02*
X73052950Y-60367528D01*
X73052950Y-60367528D02*
X73081521Y-60338956D01*
X73081521Y-60338956D02*
X73138664Y-60324670D01*
X73138664Y-60324670D02*
X73238664Y-60324670D01*
X73238664Y-60324670D02*
X73295807Y-60338956D01*
X73295807Y-60338956D02*
X73324378Y-60367528D01*
X73324378Y-60367528D02*
X73338664Y-60396099D01*
X73038664Y-61038956D02*
X73038664Y-60867527D01*
X73038664Y-60953242D02*
X73338664Y-60953242D01*
X73338664Y-60953242D02*
X73295807Y-60924670D01*
X73295807Y-60924670D02*
X73267235Y-60896099D01*
X73267235Y-60896099D02*
X73252950Y-60867527D01*
X73038664Y-61181813D02*
X73038664Y-61238956D01*
X73038664Y-61238956D02*
X73052950Y-61267527D01*
X73052950Y-61267527D02*
X73067235Y-61281813D01*
X73067235Y-61281813D02*
X73110092Y-61310384D01*
X73110092Y-61310384D02*
X73167235Y-61324670D01*
X73167235Y-61324670D02*
X73281521Y-61324670D01*
X73281521Y-61324670D02*
X73310092Y-61310384D01*
X73310092Y-61310384D02*
X73324378Y-61296099D01*
X73324378Y-61296099D02*
X73338664Y-61267527D01*
X73338664Y-61267527D02*
X73338664Y-61210384D01*
X73338664Y-61210384D02*
X73324378Y-61181813D01*
X73324378Y-61181813D02*
X73310092Y-61167527D01*
X73310092Y-61167527D02*
X73281521Y-61153241D01*
X73281521Y-61153241D02*
X73210092Y-61153241D01*
X73210092Y-61153241D02*
X73181521Y-61167527D01*
X73181521Y-61167527D02*
X73167235Y-61181813D01*
X73167235Y-61181813D02*
X73152950Y-61210384D01*
X73152950Y-61210384D02*
X73152950Y-61267527D01*
X73152950Y-61267527D02*
X73167235Y-61296099D01*
X73167235Y-61296099D02*
X73181521Y-61310384D01*
X73181521Y-61310384D02*
X73210092Y-61324670D01*
X73324378Y-62253242D02*
X73338664Y-62224671D01*
X73338664Y-62224671D02*
X73338664Y-62181813D01*
X73338664Y-62181813D02*
X73324378Y-62138956D01*
X73324378Y-62138956D02*
X73295807Y-62110385D01*
X73295807Y-62110385D02*
X73267235Y-62096099D01*
X73267235Y-62096099D02*
X73210092Y-62081813D01*
X73210092Y-62081813D02*
X73167235Y-62081813D01*
X73167235Y-62081813D02*
X73110092Y-62096099D01*
X73110092Y-62096099D02*
X73081521Y-62110385D01*
X73081521Y-62110385D02*
X73052950Y-62138956D01*
X73052950Y-62138956D02*
X73038664Y-62181813D01*
X73038664Y-62181813D02*
X73038664Y-62210385D01*
X73038664Y-62210385D02*
X73052950Y-62253242D01*
X73052950Y-62253242D02*
X73067235Y-62267528D01*
X73067235Y-62267528D02*
X73167235Y-62267528D01*
X73167235Y-62267528D02*
X73167235Y-62210385D01*
X73038664Y-62396099D02*
X73338664Y-62396099D01*
X73338664Y-62396099D02*
X73338664Y-62510385D01*
X73338664Y-62510385D02*
X73324378Y-62538956D01*
X73324378Y-62538956D02*
X73310092Y-62553242D01*
X73310092Y-62553242D02*
X73281521Y-62567528D01*
X73281521Y-62567528D02*
X73238664Y-62567528D01*
X73238664Y-62567528D02*
X73210092Y-62553242D01*
X73210092Y-62553242D02*
X73195807Y-62538956D01*
X73195807Y-62538956D02*
X73181521Y-62510385D01*
X73181521Y-62510385D02*
X73181521Y-62396099D01*
X73038664Y-62696099D02*
X73338664Y-62696099D01*
X73338664Y-62896099D02*
X73338664Y-62953242D01*
X73338664Y-62953242D02*
X73324378Y-62981813D01*
X73324378Y-62981813D02*
X73295807Y-63010385D01*
X73295807Y-63010385D02*
X73238664Y-63024670D01*
X73238664Y-63024670D02*
X73138664Y-63024670D01*
X73138664Y-63024670D02*
X73081521Y-63010385D01*
X73081521Y-63010385D02*
X73052950Y-62981813D01*
X73052950Y-62981813D02*
X73038664Y-62953242D01*
X73038664Y-62953242D02*
X73038664Y-62896099D01*
X73038664Y-62896099D02*
X73052950Y-62867528D01*
X73052950Y-62867528D02*
X73081521Y-62838956D01*
X73081521Y-62838956D02*
X73138664Y-62824670D01*
X73138664Y-62824670D02*
X73238664Y-62824670D01*
X73238664Y-62824670D02*
X73295807Y-62838956D01*
X73295807Y-62838956D02*
X73324378Y-62867528D01*
X73324378Y-62867528D02*
X73338664Y-62896099D01*
X73038664Y-63538956D02*
X73038664Y-63367527D01*
X73038664Y-63453242D02*
X73338664Y-63453242D01*
X73338664Y-63453242D02*
X73295807Y-63424670D01*
X73295807Y-63424670D02*
X73267235Y-63396099D01*
X73267235Y-63396099D02*
X73252950Y-63367527D01*
X73210092Y-63710384D02*
X73224378Y-63681813D01*
X73224378Y-63681813D02*
X73238664Y-63667527D01*
X73238664Y-63667527D02*
X73267235Y-63653241D01*
X73267235Y-63653241D02*
X73281521Y-63653241D01*
X73281521Y-63653241D02*
X73310092Y-63667527D01*
X73310092Y-63667527D02*
X73324378Y-63681813D01*
X73324378Y-63681813D02*
X73338664Y-63710384D01*
X73338664Y-63710384D02*
X73338664Y-63767527D01*
X73338664Y-63767527D02*
X73324378Y-63796099D01*
X73324378Y-63796099D02*
X73310092Y-63810384D01*
X73310092Y-63810384D02*
X73281521Y-63824670D01*
X73281521Y-63824670D02*
X73267235Y-63824670D01*
X73267235Y-63824670D02*
X73238664Y-63810384D01*
X73238664Y-63810384D02*
X73224378Y-63796099D01*
X73224378Y-63796099D02*
X73210092Y-63767527D01*
X73210092Y-63767527D02*
X73210092Y-63710384D01*
X73210092Y-63710384D02*
X73195807Y-63681813D01*
X73195807Y-63681813D02*
X73181521Y-63667527D01*
X73181521Y-63667527D02*
X73152950Y-63653241D01*
X73152950Y-63653241D02*
X73095807Y-63653241D01*
X73095807Y-63653241D02*
X73067235Y-63667527D01*
X73067235Y-63667527D02*
X73052950Y-63681813D01*
X73052950Y-63681813D02*
X73038664Y-63710384D01*
X73038664Y-63710384D02*
X73038664Y-63767527D01*
X73038664Y-63767527D02*
X73052950Y-63796099D01*
X73052950Y-63796099D02*
X73067235Y-63810384D01*
X73067235Y-63810384D02*
X73095807Y-63824670D01*
X73095807Y-63824670D02*
X73152950Y-63824670D01*
X73152950Y-63824670D02*
X73181521Y-63810384D01*
X73181521Y-63810384D02*
X73195807Y-63796099D01*
X73195807Y-63796099D02*
X73210092Y-63767527D01*
X73324378Y-65253242D02*
X73338664Y-65224671D01*
X73338664Y-65224671D02*
X73338664Y-65181813D01*
X73338664Y-65181813D02*
X73324378Y-65138956D01*
X73324378Y-65138956D02*
X73295807Y-65110385D01*
X73295807Y-65110385D02*
X73267235Y-65096099D01*
X73267235Y-65096099D02*
X73210092Y-65081813D01*
X73210092Y-65081813D02*
X73167235Y-65081813D01*
X73167235Y-65081813D02*
X73110092Y-65096099D01*
X73110092Y-65096099D02*
X73081521Y-65110385D01*
X73081521Y-65110385D02*
X73052950Y-65138956D01*
X73052950Y-65138956D02*
X73038664Y-65181813D01*
X73038664Y-65181813D02*
X73038664Y-65210385D01*
X73038664Y-65210385D02*
X73052950Y-65253242D01*
X73052950Y-65253242D02*
X73067235Y-65267528D01*
X73067235Y-65267528D02*
X73167235Y-65267528D01*
X73167235Y-65267528D02*
X73167235Y-65210385D01*
X73038664Y-65396099D02*
X73338664Y-65396099D01*
X73338664Y-65396099D02*
X73038664Y-65567528D01*
X73038664Y-65567528D02*
X73338664Y-65567528D01*
X73038664Y-65710385D02*
X73338664Y-65710385D01*
X73338664Y-65710385D02*
X73338664Y-65781814D01*
X73338664Y-65781814D02*
X73324378Y-65824671D01*
X73324378Y-65824671D02*
X73295807Y-65853242D01*
X73295807Y-65853242D02*
X73267235Y-65867528D01*
X73267235Y-65867528D02*
X73210092Y-65881814D01*
X73210092Y-65881814D02*
X73167235Y-65881814D01*
X73167235Y-65881814D02*
X73110092Y-65867528D01*
X73110092Y-65867528D02*
X73081521Y-65853242D01*
X73081521Y-65853242D02*
X73052950Y-65824671D01*
X73052950Y-65824671D02*
X73038664Y-65781814D01*
X73038664Y-65781814D02*
X73038664Y-65710385D01*
X73324378Y-67253242D02*
X73338664Y-67224671D01*
X73338664Y-67224671D02*
X73338664Y-67181813D01*
X73338664Y-67181813D02*
X73324378Y-67138956D01*
X73324378Y-67138956D02*
X73295807Y-67110385D01*
X73295807Y-67110385D02*
X73267235Y-67096099D01*
X73267235Y-67096099D02*
X73210092Y-67081813D01*
X73210092Y-67081813D02*
X73167235Y-67081813D01*
X73167235Y-67081813D02*
X73110092Y-67096099D01*
X73110092Y-67096099D02*
X73081521Y-67110385D01*
X73081521Y-67110385D02*
X73052950Y-67138956D01*
X73052950Y-67138956D02*
X73038664Y-67181813D01*
X73038664Y-67181813D02*
X73038664Y-67210385D01*
X73038664Y-67210385D02*
X73052950Y-67253242D01*
X73052950Y-67253242D02*
X73067235Y-67267528D01*
X73067235Y-67267528D02*
X73167235Y-67267528D01*
X73167235Y-67267528D02*
X73167235Y-67210385D01*
X73038664Y-67396099D02*
X73338664Y-67396099D01*
X73338664Y-67396099D02*
X73338664Y-67510385D01*
X73338664Y-67510385D02*
X73324378Y-67538956D01*
X73324378Y-67538956D02*
X73310092Y-67553242D01*
X73310092Y-67553242D02*
X73281521Y-67567528D01*
X73281521Y-67567528D02*
X73238664Y-67567528D01*
X73238664Y-67567528D02*
X73210092Y-67553242D01*
X73210092Y-67553242D02*
X73195807Y-67538956D01*
X73195807Y-67538956D02*
X73181521Y-67510385D01*
X73181521Y-67510385D02*
X73181521Y-67396099D01*
X73038664Y-67696099D02*
X73338664Y-67696099D01*
X73338664Y-67896099D02*
X73338664Y-67953242D01*
X73338664Y-67953242D02*
X73324378Y-67981813D01*
X73324378Y-67981813D02*
X73295807Y-68010385D01*
X73295807Y-68010385D02*
X73238664Y-68024670D01*
X73238664Y-68024670D02*
X73138664Y-68024670D01*
X73138664Y-68024670D02*
X73081521Y-68010385D01*
X73081521Y-68010385D02*
X73052950Y-67981813D01*
X73052950Y-67981813D02*
X73038664Y-67953242D01*
X73038664Y-67953242D02*
X73038664Y-67896099D01*
X73038664Y-67896099D02*
X73052950Y-67867528D01*
X73052950Y-67867528D02*
X73081521Y-67838956D01*
X73081521Y-67838956D02*
X73138664Y-67824670D01*
X73138664Y-67824670D02*
X73238664Y-67824670D01*
X73238664Y-67824670D02*
X73295807Y-67838956D01*
X73295807Y-67838956D02*
X73324378Y-67867528D01*
X73324378Y-67867528D02*
X73338664Y-67896099D01*
X73038664Y-68538956D02*
X73038664Y-68367527D01*
X73038664Y-68453242D02*
X73338664Y-68453242D01*
X73338664Y-68453242D02*
X73295807Y-68424670D01*
X73295807Y-68424670D02*
X73267235Y-68396099D01*
X73267235Y-68396099D02*
X73252950Y-68367527D01*
X73338664Y-68638956D02*
X73338664Y-68838956D01*
X73338664Y-68838956D02*
X73038664Y-68710384D01*
X73324378Y-69753242D02*
X73338664Y-69724671D01*
X73338664Y-69724671D02*
X73338664Y-69681813D01*
X73338664Y-69681813D02*
X73324378Y-69638956D01*
X73324378Y-69638956D02*
X73295807Y-69610385D01*
X73295807Y-69610385D02*
X73267235Y-69596099D01*
X73267235Y-69596099D02*
X73210092Y-69581813D01*
X73210092Y-69581813D02*
X73167235Y-69581813D01*
X73167235Y-69581813D02*
X73110092Y-69596099D01*
X73110092Y-69596099D02*
X73081521Y-69610385D01*
X73081521Y-69610385D02*
X73052950Y-69638956D01*
X73052950Y-69638956D02*
X73038664Y-69681813D01*
X73038664Y-69681813D02*
X73038664Y-69710385D01*
X73038664Y-69710385D02*
X73052950Y-69753242D01*
X73052950Y-69753242D02*
X73067235Y-69767528D01*
X73067235Y-69767528D02*
X73167235Y-69767528D01*
X73167235Y-69767528D02*
X73167235Y-69710385D01*
X73038664Y-69896099D02*
X73338664Y-69896099D01*
X73338664Y-69896099D02*
X73338664Y-70010385D01*
X73338664Y-70010385D02*
X73324378Y-70038956D01*
X73324378Y-70038956D02*
X73310092Y-70053242D01*
X73310092Y-70053242D02*
X73281521Y-70067528D01*
X73281521Y-70067528D02*
X73238664Y-70067528D01*
X73238664Y-70067528D02*
X73210092Y-70053242D01*
X73210092Y-70053242D02*
X73195807Y-70038956D01*
X73195807Y-70038956D02*
X73181521Y-70010385D01*
X73181521Y-70010385D02*
X73181521Y-69896099D01*
X73038664Y-70196099D02*
X73338664Y-70196099D01*
X73338664Y-70396099D02*
X73338664Y-70453242D01*
X73338664Y-70453242D02*
X73324378Y-70481813D01*
X73324378Y-70481813D02*
X73295807Y-70510385D01*
X73295807Y-70510385D02*
X73238664Y-70524670D01*
X73238664Y-70524670D02*
X73138664Y-70524670D01*
X73138664Y-70524670D02*
X73081521Y-70510385D01*
X73081521Y-70510385D02*
X73052950Y-70481813D01*
X73052950Y-70481813D02*
X73038664Y-70453242D01*
X73038664Y-70453242D02*
X73038664Y-70396099D01*
X73038664Y-70396099D02*
X73052950Y-70367528D01*
X73052950Y-70367528D02*
X73081521Y-70338956D01*
X73081521Y-70338956D02*
X73138664Y-70324670D01*
X73138664Y-70324670D02*
X73238664Y-70324670D01*
X73238664Y-70324670D02*
X73295807Y-70338956D01*
X73295807Y-70338956D02*
X73324378Y-70367528D01*
X73324378Y-70367528D02*
X73338664Y-70396099D01*
X73038664Y-71038956D02*
X73038664Y-70867527D01*
X73038664Y-70953242D02*
X73338664Y-70953242D01*
X73338664Y-70953242D02*
X73295807Y-70924670D01*
X73295807Y-70924670D02*
X73267235Y-70896099D01*
X73267235Y-70896099D02*
X73252950Y-70867527D01*
X73338664Y-71296099D02*
X73338664Y-71238956D01*
X73338664Y-71238956D02*
X73324378Y-71210384D01*
X73324378Y-71210384D02*
X73310092Y-71196099D01*
X73310092Y-71196099D02*
X73267235Y-71167527D01*
X73267235Y-71167527D02*
X73210092Y-71153241D01*
X73210092Y-71153241D02*
X73095807Y-71153241D01*
X73095807Y-71153241D02*
X73067235Y-71167527D01*
X73067235Y-71167527D02*
X73052950Y-71181813D01*
X73052950Y-71181813D02*
X73038664Y-71210384D01*
X73038664Y-71210384D02*
X73038664Y-71267527D01*
X73038664Y-71267527D02*
X73052950Y-71296099D01*
X73052950Y-71296099D02*
X73067235Y-71310384D01*
X73067235Y-71310384D02*
X73095807Y-71324670D01*
X73095807Y-71324670D02*
X73167235Y-71324670D01*
X73167235Y-71324670D02*
X73195807Y-71310384D01*
X73195807Y-71310384D02*
X73210092Y-71296099D01*
X73210092Y-71296099D02*
X73224378Y-71267527D01*
X73224378Y-71267527D02*
X73224378Y-71210384D01*
X73224378Y-71210384D02*
X73210092Y-71181813D01*
X73210092Y-71181813D02*
X73195807Y-71167527D01*
X73195807Y-71167527D02*
X73167235Y-71153241D01*
X59325621Y-71096757D02*
X59311335Y-71125329D01*
X59311335Y-71125329D02*
X59311335Y-71168186D01*
X59311335Y-71168186D02*
X59325621Y-71211043D01*
X59325621Y-71211043D02*
X59354192Y-71239614D01*
X59354192Y-71239614D02*
X59382764Y-71253900D01*
X59382764Y-71253900D02*
X59439907Y-71268186D01*
X59439907Y-71268186D02*
X59482764Y-71268186D01*
X59482764Y-71268186D02*
X59539907Y-71253900D01*
X59539907Y-71253900D02*
X59568478Y-71239614D01*
X59568478Y-71239614D02*
X59597050Y-71211043D01*
X59597050Y-71211043D02*
X59611335Y-71168186D01*
X59611335Y-71168186D02*
X59611335Y-71139614D01*
X59611335Y-71139614D02*
X59597050Y-71096757D01*
X59597050Y-71096757D02*
X59582764Y-71082471D01*
X59582764Y-71082471D02*
X59482764Y-71082471D01*
X59482764Y-71082471D02*
X59482764Y-71139614D01*
X59611335Y-70953900D02*
X59311335Y-70953900D01*
X59311335Y-70953900D02*
X59311335Y-70839614D01*
X59311335Y-70839614D02*
X59325621Y-70811043D01*
X59325621Y-70811043D02*
X59339907Y-70796757D01*
X59339907Y-70796757D02*
X59368478Y-70782471D01*
X59368478Y-70782471D02*
X59411335Y-70782471D01*
X59411335Y-70782471D02*
X59439907Y-70796757D01*
X59439907Y-70796757D02*
X59454192Y-70811043D01*
X59454192Y-70811043D02*
X59468478Y-70839614D01*
X59468478Y-70839614D02*
X59468478Y-70953900D01*
X59611335Y-70653900D02*
X59311335Y-70653900D01*
X59311335Y-70453900D02*
X59311335Y-70396757D01*
X59311335Y-70396757D02*
X59325621Y-70368186D01*
X59325621Y-70368186D02*
X59354192Y-70339614D01*
X59354192Y-70339614D02*
X59411335Y-70325329D01*
X59411335Y-70325329D02*
X59511335Y-70325329D01*
X59511335Y-70325329D02*
X59568478Y-70339614D01*
X59568478Y-70339614D02*
X59597050Y-70368186D01*
X59597050Y-70368186D02*
X59611335Y-70396757D01*
X59611335Y-70396757D02*
X59611335Y-70453900D01*
X59611335Y-70453900D02*
X59597050Y-70482472D01*
X59597050Y-70482472D02*
X59568478Y-70511043D01*
X59568478Y-70511043D02*
X59511335Y-70525329D01*
X59511335Y-70525329D02*
X59411335Y-70525329D01*
X59411335Y-70525329D02*
X59354192Y-70511043D01*
X59354192Y-70511043D02*
X59325621Y-70482472D01*
X59325621Y-70482472D02*
X59311335Y-70453900D01*
X59611335Y-69811043D02*
X59611335Y-69982472D01*
X59611335Y-69896757D02*
X59311335Y-69896757D01*
X59311335Y-69896757D02*
X59354192Y-69925329D01*
X59354192Y-69925329D02*
X59382764Y-69953900D01*
X59382764Y-69953900D02*
X59397050Y-69982472D01*
X59311335Y-69539615D02*
X59311335Y-69682472D01*
X59311335Y-69682472D02*
X59454192Y-69696758D01*
X59454192Y-69696758D02*
X59439907Y-69682472D01*
X59439907Y-69682472D02*
X59425621Y-69653901D01*
X59425621Y-69653901D02*
X59425621Y-69582472D01*
X59425621Y-69582472D02*
X59439907Y-69553901D01*
X59439907Y-69553901D02*
X59454192Y-69539615D01*
X59454192Y-69539615D02*
X59482764Y-69525329D01*
X59482764Y-69525329D02*
X59554192Y-69525329D01*
X59554192Y-69525329D02*
X59582764Y-69539615D01*
X59582764Y-69539615D02*
X59597050Y-69553901D01*
X59597050Y-69553901D02*
X59611335Y-69582472D01*
X59611335Y-69582472D02*
X59611335Y-69653901D01*
X59611335Y-69653901D02*
X59597050Y-69682472D01*
X59597050Y-69682472D02*
X59582764Y-69696758D01*
X59325621Y-68246757D02*
X59311335Y-68275329D01*
X59311335Y-68275329D02*
X59311335Y-68318186D01*
X59311335Y-68318186D02*
X59325621Y-68361043D01*
X59325621Y-68361043D02*
X59354192Y-68389614D01*
X59354192Y-68389614D02*
X59382764Y-68403900D01*
X59382764Y-68403900D02*
X59439907Y-68418186D01*
X59439907Y-68418186D02*
X59482764Y-68418186D01*
X59482764Y-68418186D02*
X59539907Y-68403900D01*
X59539907Y-68403900D02*
X59568478Y-68389614D01*
X59568478Y-68389614D02*
X59597050Y-68361043D01*
X59597050Y-68361043D02*
X59611335Y-68318186D01*
X59611335Y-68318186D02*
X59611335Y-68289614D01*
X59611335Y-68289614D02*
X59597050Y-68246757D01*
X59597050Y-68246757D02*
X59582764Y-68232471D01*
X59582764Y-68232471D02*
X59482764Y-68232471D01*
X59482764Y-68232471D02*
X59482764Y-68289614D01*
X59611335Y-68103900D02*
X59311335Y-68103900D01*
X59311335Y-68103900D02*
X59311335Y-67989614D01*
X59311335Y-67989614D02*
X59325621Y-67961043D01*
X59325621Y-67961043D02*
X59339907Y-67946757D01*
X59339907Y-67946757D02*
X59368478Y-67932471D01*
X59368478Y-67932471D02*
X59411335Y-67932471D01*
X59411335Y-67932471D02*
X59439907Y-67946757D01*
X59439907Y-67946757D02*
X59454192Y-67961043D01*
X59454192Y-67961043D02*
X59468478Y-67989614D01*
X59468478Y-67989614D02*
X59468478Y-68103900D01*
X59611335Y-67803900D02*
X59311335Y-67803900D01*
X59311335Y-67603900D02*
X59311335Y-67546757D01*
X59311335Y-67546757D02*
X59325621Y-67518186D01*
X59325621Y-67518186D02*
X59354192Y-67489614D01*
X59354192Y-67489614D02*
X59411335Y-67475329D01*
X59411335Y-67475329D02*
X59511335Y-67475329D01*
X59511335Y-67475329D02*
X59568478Y-67489614D01*
X59568478Y-67489614D02*
X59597050Y-67518186D01*
X59597050Y-67518186D02*
X59611335Y-67546757D01*
X59611335Y-67546757D02*
X59611335Y-67603900D01*
X59611335Y-67603900D02*
X59597050Y-67632472D01*
X59597050Y-67632472D02*
X59568478Y-67661043D01*
X59568478Y-67661043D02*
X59511335Y-67675329D01*
X59511335Y-67675329D02*
X59411335Y-67675329D01*
X59411335Y-67675329D02*
X59354192Y-67661043D01*
X59354192Y-67661043D02*
X59325621Y-67632472D01*
X59325621Y-67632472D02*
X59311335Y-67603900D01*
X59611335Y-66961043D02*
X59611335Y-67132472D01*
X59611335Y-67046757D02*
X59311335Y-67046757D01*
X59311335Y-67046757D02*
X59354192Y-67075329D01*
X59354192Y-67075329D02*
X59382764Y-67103900D01*
X59382764Y-67103900D02*
X59397050Y-67132472D01*
X59411335Y-66703901D02*
X59611335Y-66703901D01*
X59297050Y-66775329D02*
X59511335Y-66846758D01*
X59511335Y-66846758D02*
X59511335Y-66661043D01*
X59325621Y-65846757D02*
X59311335Y-65875329D01*
X59311335Y-65875329D02*
X59311335Y-65918186D01*
X59311335Y-65918186D02*
X59325621Y-65961043D01*
X59325621Y-65961043D02*
X59354192Y-65989614D01*
X59354192Y-65989614D02*
X59382764Y-66003900D01*
X59382764Y-66003900D02*
X59439907Y-66018186D01*
X59439907Y-66018186D02*
X59482764Y-66018186D01*
X59482764Y-66018186D02*
X59539907Y-66003900D01*
X59539907Y-66003900D02*
X59568478Y-65989614D01*
X59568478Y-65989614D02*
X59597050Y-65961043D01*
X59597050Y-65961043D02*
X59611335Y-65918186D01*
X59611335Y-65918186D02*
X59611335Y-65889614D01*
X59611335Y-65889614D02*
X59597050Y-65846757D01*
X59597050Y-65846757D02*
X59582764Y-65832471D01*
X59582764Y-65832471D02*
X59482764Y-65832471D01*
X59482764Y-65832471D02*
X59482764Y-65889614D01*
X59611335Y-65703900D02*
X59311335Y-65703900D01*
X59311335Y-65703900D02*
X59611335Y-65532471D01*
X59611335Y-65532471D02*
X59311335Y-65532471D01*
X59611335Y-65389614D02*
X59311335Y-65389614D01*
X59311335Y-65389614D02*
X59311335Y-65318185D01*
X59311335Y-65318185D02*
X59325621Y-65275328D01*
X59325621Y-65275328D02*
X59354192Y-65246757D01*
X59354192Y-65246757D02*
X59382764Y-65232471D01*
X59382764Y-65232471D02*
X59439907Y-65218185D01*
X59439907Y-65218185D02*
X59482764Y-65218185D01*
X59482764Y-65218185D02*
X59539907Y-65232471D01*
X59539907Y-65232471D02*
X59568478Y-65246757D01*
X59568478Y-65246757D02*
X59597050Y-65275328D01*
X59597050Y-65275328D02*
X59611335Y-65318185D01*
X59611335Y-65318185D02*
X59611335Y-65389614D01*
X59325621Y-63296757D02*
X59311335Y-63325329D01*
X59311335Y-63325329D02*
X59311335Y-63368186D01*
X59311335Y-63368186D02*
X59325621Y-63411043D01*
X59325621Y-63411043D02*
X59354192Y-63439614D01*
X59354192Y-63439614D02*
X59382764Y-63453900D01*
X59382764Y-63453900D02*
X59439907Y-63468186D01*
X59439907Y-63468186D02*
X59482764Y-63468186D01*
X59482764Y-63468186D02*
X59539907Y-63453900D01*
X59539907Y-63453900D02*
X59568478Y-63439614D01*
X59568478Y-63439614D02*
X59597050Y-63411043D01*
X59597050Y-63411043D02*
X59611335Y-63368186D01*
X59611335Y-63368186D02*
X59611335Y-63339614D01*
X59611335Y-63339614D02*
X59597050Y-63296757D01*
X59597050Y-63296757D02*
X59582764Y-63282471D01*
X59582764Y-63282471D02*
X59482764Y-63282471D01*
X59482764Y-63282471D02*
X59482764Y-63339614D01*
X59611335Y-63153900D02*
X59311335Y-63153900D01*
X59311335Y-63153900D02*
X59311335Y-63039614D01*
X59311335Y-63039614D02*
X59325621Y-63011043D01*
X59325621Y-63011043D02*
X59339907Y-62996757D01*
X59339907Y-62996757D02*
X59368478Y-62982471D01*
X59368478Y-62982471D02*
X59411335Y-62982471D01*
X59411335Y-62982471D02*
X59439907Y-62996757D01*
X59439907Y-62996757D02*
X59454192Y-63011043D01*
X59454192Y-63011043D02*
X59468478Y-63039614D01*
X59468478Y-63039614D02*
X59468478Y-63153900D01*
X59611335Y-62853900D02*
X59311335Y-62853900D01*
X59311335Y-62653900D02*
X59311335Y-62596757D01*
X59311335Y-62596757D02*
X59325621Y-62568186D01*
X59325621Y-62568186D02*
X59354192Y-62539614D01*
X59354192Y-62539614D02*
X59411335Y-62525329D01*
X59411335Y-62525329D02*
X59511335Y-62525329D01*
X59511335Y-62525329D02*
X59568478Y-62539614D01*
X59568478Y-62539614D02*
X59597050Y-62568186D01*
X59597050Y-62568186D02*
X59611335Y-62596757D01*
X59611335Y-62596757D02*
X59611335Y-62653900D01*
X59611335Y-62653900D02*
X59597050Y-62682472D01*
X59597050Y-62682472D02*
X59568478Y-62711043D01*
X59568478Y-62711043D02*
X59511335Y-62725329D01*
X59511335Y-62725329D02*
X59411335Y-62725329D01*
X59411335Y-62725329D02*
X59354192Y-62711043D01*
X59354192Y-62711043D02*
X59325621Y-62682472D01*
X59325621Y-62682472D02*
X59311335Y-62653900D01*
X59611335Y-62011043D02*
X59611335Y-62182472D01*
X59611335Y-62096757D02*
X59311335Y-62096757D01*
X59311335Y-62096757D02*
X59354192Y-62125329D01*
X59354192Y-62125329D02*
X59382764Y-62153900D01*
X59382764Y-62153900D02*
X59397050Y-62182472D01*
X59311335Y-61911043D02*
X59311335Y-61725329D01*
X59311335Y-61725329D02*
X59425621Y-61825329D01*
X59425621Y-61825329D02*
X59425621Y-61782472D01*
X59425621Y-61782472D02*
X59439907Y-61753901D01*
X59439907Y-61753901D02*
X59454192Y-61739615D01*
X59454192Y-61739615D02*
X59482764Y-61725329D01*
X59482764Y-61725329D02*
X59554192Y-61725329D01*
X59554192Y-61725329D02*
X59582764Y-61739615D01*
X59582764Y-61739615D02*
X59597050Y-61753901D01*
X59597050Y-61753901D02*
X59611335Y-61782472D01*
X59611335Y-61782472D02*
X59611335Y-61868186D01*
X59611335Y-61868186D02*
X59597050Y-61896758D01*
X59597050Y-61896758D02*
X59582764Y-61911043D01*
X59325621Y-60896757D02*
X59311335Y-60925329D01*
X59311335Y-60925329D02*
X59311335Y-60968186D01*
X59311335Y-60968186D02*
X59325621Y-61011043D01*
X59325621Y-61011043D02*
X59354192Y-61039614D01*
X59354192Y-61039614D02*
X59382764Y-61053900D01*
X59382764Y-61053900D02*
X59439907Y-61068186D01*
X59439907Y-61068186D02*
X59482764Y-61068186D01*
X59482764Y-61068186D02*
X59539907Y-61053900D01*
X59539907Y-61053900D02*
X59568478Y-61039614D01*
X59568478Y-61039614D02*
X59597050Y-61011043D01*
X59597050Y-61011043D02*
X59611335Y-60968186D01*
X59611335Y-60968186D02*
X59611335Y-60939614D01*
X59611335Y-60939614D02*
X59597050Y-60896757D01*
X59597050Y-60896757D02*
X59582764Y-60882471D01*
X59582764Y-60882471D02*
X59482764Y-60882471D01*
X59482764Y-60882471D02*
X59482764Y-60939614D01*
X59611335Y-60753900D02*
X59311335Y-60753900D01*
X59311335Y-60753900D02*
X59311335Y-60639614D01*
X59311335Y-60639614D02*
X59325621Y-60611043D01*
X59325621Y-60611043D02*
X59339907Y-60596757D01*
X59339907Y-60596757D02*
X59368478Y-60582471D01*
X59368478Y-60582471D02*
X59411335Y-60582471D01*
X59411335Y-60582471D02*
X59439907Y-60596757D01*
X59439907Y-60596757D02*
X59454192Y-60611043D01*
X59454192Y-60611043D02*
X59468478Y-60639614D01*
X59468478Y-60639614D02*
X59468478Y-60753900D01*
X59611335Y-60453900D02*
X59311335Y-60453900D01*
X59311335Y-60253900D02*
X59311335Y-60196757D01*
X59311335Y-60196757D02*
X59325621Y-60168186D01*
X59325621Y-60168186D02*
X59354192Y-60139614D01*
X59354192Y-60139614D02*
X59411335Y-60125329D01*
X59411335Y-60125329D02*
X59511335Y-60125329D01*
X59511335Y-60125329D02*
X59568478Y-60139614D01*
X59568478Y-60139614D02*
X59597050Y-60168186D01*
X59597050Y-60168186D02*
X59611335Y-60196757D01*
X59611335Y-60196757D02*
X59611335Y-60253900D01*
X59611335Y-60253900D02*
X59597050Y-60282472D01*
X59597050Y-60282472D02*
X59568478Y-60311043D01*
X59568478Y-60311043D02*
X59511335Y-60325329D01*
X59511335Y-60325329D02*
X59411335Y-60325329D01*
X59411335Y-60325329D02*
X59354192Y-60311043D01*
X59354192Y-60311043D02*
X59325621Y-60282472D01*
X59325621Y-60282472D02*
X59311335Y-60253900D01*
X59611335Y-59611043D02*
X59611335Y-59782472D01*
X59611335Y-59696757D02*
X59311335Y-59696757D01*
X59311335Y-59696757D02*
X59354192Y-59725329D01*
X59354192Y-59725329D02*
X59382764Y-59753900D01*
X59382764Y-59753900D02*
X59397050Y-59782472D01*
X59339907Y-59496758D02*
X59325621Y-59482472D01*
X59325621Y-59482472D02*
X59311335Y-59453901D01*
X59311335Y-59453901D02*
X59311335Y-59382472D01*
X59311335Y-59382472D02*
X59325621Y-59353901D01*
X59325621Y-59353901D02*
X59339907Y-59339615D01*
X59339907Y-59339615D02*
X59368478Y-59325329D01*
X59368478Y-59325329D02*
X59397050Y-59325329D01*
X59397050Y-59325329D02*
X59439907Y-59339615D01*
X59439907Y-59339615D02*
X59611335Y-59511043D01*
X59611335Y-59511043D02*
X59611335Y-59325329D01*
D11*
X70650000Y-68300000D02*
X70650000Y-69400000D01*
X70600000Y-68300000D02*
X70650000Y-68300000D01*
X70550000Y-68300000D02*
X70600000Y-68300000D01*
X69250000Y-68300000D02*
X70550000Y-68300000D01*
X61884859Y-68351076D02*
X61850000Y-71700000D01*
D10*
X59325621Y-58446757D02*
X59311335Y-58475329D01*
X59311335Y-58475329D02*
X59311335Y-58518186D01*
X59311335Y-58518186D02*
X59325621Y-58561043D01*
X59325621Y-58561043D02*
X59354192Y-58589614D01*
X59354192Y-58589614D02*
X59382764Y-58603900D01*
X59382764Y-58603900D02*
X59439907Y-58618186D01*
X59439907Y-58618186D02*
X59482764Y-58618186D01*
X59482764Y-58618186D02*
X59539907Y-58603900D01*
X59539907Y-58603900D02*
X59568478Y-58589614D01*
X59568478Y-58589614D02*
X59597050Y-58561043D01*
X59597050Y-58561043D02*
X59611335Y-58518186D01*
X59611335Y-58518186D02*
X59611335Y-58489614D01*
X59611335Y-58489614D02*
X59597050Y-58446757D01*
X59597050Y-58446757D02*
X59582764Y-58432471D01*
X59582764Y-58432471D02*
X59482764Y-58432471D01*
X59482764Y-58432471D02*
X59482764Y-58489614D01*
X59611335Y-58303900D02*
X59311335Y-58303900D01*
X59311335Y-58303900D02*
X59311335Y-58189614D01*
X59311335Y-58189614D02*
X59325621Y-58161043D01*
X59325621Y-58161043D02*
X59339907Y-58146757D01*
X59339907Y-58146757D02*
X59368478Y-58132471D01*
X59368478Y-58132471D02*
X59411335Y-58132471D01*
X59411335Y-58132471D02*
X59439907Y-58146757D01*
X59439907Y-58146757D02*
X59454192Y-58161043D01*
X59454192Y-58161043D02*
X59468478Y-58189614D01*
X59468478Y-58189614D02*
X59468478Y-58303900D01*
X59611335Y-58003900D02*
X59311335Y-58003900D01*
X59311335Y-57803900D02*
X59311335Y-57746757D01*
X59311335Y-57746757D02*
X59325621Y-57718186D01*
X59325621Y-57718186D02*
X59354192Y-57689614D01*
X59354192Y-57689614D02*
X59411335Y-57675329D01*
X59411335Y-57675329D02*
X59511335Y-57675329D01*
X59511335Y-57675329D02*
X59568478Y-57689614D01*
X59568478Y-57689614D02*
X59597050Y-57718186D01*
X59597050Y-57718186D02*
X59611335Y-57746757D01*
X59611335Y-57746757D02*
X59611335Y-57803900D01*
X59611335Y-57803900D02*
X59597050Y-57832472D01*
X59597050Y-57832472D02*
X59568478Y-57861043D01*
X59568478Y-57861043D02*
X59511335Y-57875329D01*
X59511335Y-57875329D02*
X59411335Y-57875329D01*
X59411335Y-57875329D02*
X59354192Y-57861043D01*
X59354192Y-57861043D02*
X59325621Y-57832472D01*
X59325621Y-57832472D02*
X59311335Y-57803900D01*
X59611335Y-57161043D02*
X59611335Y-57332472D01*
X59611335Y-57246757D02*
X59311335Y-57246757D01*
X59311335Y-57246757D02*
X59354192Y-57275329D01*
X59354192Y-57275329D02*
X59382764Y-57303900D01*
X59382764Y-57303900D02*
X59397050Y-57332472D01*
X59611335Y-56875329D02*
X59611335Y-57046758D01*
X59611335Y-56961043D02*
X59311335Y-56961043D01*
X59311335Y-56961043D02*
X59354192Y-56989615D01*
X59354192Y-56989615D02*
X59382764Y-57018186D01*
X59382764Y-57018186D02*
X59397050Y-57046758D01*
X59325621Y-55796757D02*
X59311335Y-55825329D01*
X59311335Y-55825329D02*
X59311335Y-55868186D01*
X59311335Y-55868186D02*
X59325621Y-55911043D01*
X59325621Y-55911043D02*
X59354192Y-55939614D01*
X59354192Y-55939614D02*
X59382764Y-55953900D01*
X59382764Y-55953900D02*
X59439907Y-55968186D01*
X59439907Y-55968186D02*
X59482764Y-55968186D01*
X59482764Y-55968186D02*
X59539907Y-55953900D01*
X59539907Y-55953900D02*
X59568478Y-55939614D01*
X59568478Y-55939614D02*
X59597050Y-55911043D01*
X59597050Y-55911043D02*
X59611335Y-55868186D01*
X59611335Y-55868186D02*
X59611335Y-55839614D01*
X59611335Y-55839614D02*
X59597050Y-55796757D01*
X59597050Y-55796757D02*
X59582764Y-55782471D01*
X59582764Y-55782471D02*
X59482764Y-55782471D01*
X59482764Y-55782471D02*
X59482764Y-55839614D01*
X59611335Y-55653900D02*
X59311335Y-55653900D01*
X59311335Y-55653900D02*
X59311335Y-55539614D01*
X59311335Y-55539614D02*
X59325621Y-55511043D01*
X59325621Y-55511043D02*
X59339907Y-55496757D01*
X59339907Y-55496757D02*
X59368478Y-55482471D01*
X59368478Y-55482471D02*
X59411335Y-55482471D01*
X59411335Y-55482471D02*
X59439907Y-55496757D01*
X59439907Y-55496757D02*
X59454192Y-55511043D01*
X59454192Y-55511043D02*
X59468478Y-55539614D01*
X59468478Y-55539614D02*
X59468478Y-55653900D01*
X59611335Y-55353900D02*
X59311335Y-55353900D01*
X59311335Y-55153900D02*
X59311335Y-55096757D01*
X59311335Y-55096757D02*
X59325621Y-55068186D01*
X59325621Y-55068186D02*
X59354192Y-55039614D01*
X59354192Y-55039614D02*
X59411335Y-55025329D01*
X59411335Y-55025329D02*
X59511335Y-55025329D01*
X59511335Y-55025329D02*
X59568478Y-55039614D01*
X59568478Y-55039614D02*
X59597050Y-55068186D01*
X59597050Y-55068186D02*
X59611335Y-55096757D01*
X59611335Y-55096757D02*
X59611335Y-55153900D01*
X59611335Y-55153900D02*
X59597050Y-55182472D01*
X59597050Y-55182472D02*
X59568478Y-55211043D01*
X59568478Y-55211043D02*
X59511335Y-55225329D01*
X59511335Y-55225329D02*
X59411335Y-55225329D01*
X59411335Y-55225329D02*
X59354192Y-55211043D01*
X59354192Y-55211043D02*
X59325621Y-55182472D01*
X59325621Y-55182472D02*
X59311335Y-55153900D01*
X59611335Y-54511043D02*
X59611335Y-54682472D01*
X59611335Y-54596757D02*
X59311335Y-54596757D01*
X59311335Y-54596757D02*
X59354192Y-54625329D01*
X59354192Y-54625329D02*
X59382764Y-54653900D01*
X59382764Y-54653900D02*
X59397050Y-54682472D01*
X59311335Y-54325329D02*
X59311335Y-54296758D01*
X59311335Y-54296758D02*
X59325621Y-54268186D01*
X59325621Y-54268186D02*
X59339907Y-54253901D01*
X59339907Y-54253901D02*
X59368478Y-54239615D01*
X59368478Y-54239615D02*
X59425621Y-54225329D01*
X59425621Y-54225329D02*
X59497050Y-54225329D01*
X59497050Y-54225329D02*
X59554192Y-54239615D01*
X59554192Y-54239615D02*
X59582764Y-54253901D01*
X59582764Y-54253901D02*
X59597050Y-54268186D01*
X59597050Y-54268186D02*
X59611335Y-54296758D01*
X59611335Y-54296758D02*
X59611335Y-54325329D01*
X59611335Y-54325329D02*
X59597050Y-54353901D01*
X59597050Y-54353901D02*
X59582764Y-54368186D01*
X59582764Y-54368186D02*
X59554192Y-54382472D01*
X59554192Y-54382472D02*
X59497050Y-54396758D01*
X59497050Y-54396758D02*
X59425621Y-54396758D01*
X59425621Y-54396758D02*
X59368478Y-54382472D01*
X59368478Y-54382472D02*
X59339907Y-54368186D01*
X59339907Y-54368186D02*
X59325621Y-54353901D01*
X59325621Y-54353901D02*
X59311335Y-54325329D01*
X59325621Y-27396757D02*
X59311335Y-27425329D01*
X59311335Y-27425329D02*
X59311335Y-27468186D01*
X59311335Y-27468186D02*
X59325621Y-27511043D01*
X59325621Y-27511043D02*
X59354192Y-27539614D01*
X59354192Y-27539614D02*
X59382764Y-27553900D01*
X59382764Y-27553900D02*
X59439907Y-27568186D01*
X59439907Y-27568186D02*
X59482764Y-27568186D01*
X59482764Y-27568186D02*
X59539907Y-27553900D01*
X59539907Y-27553900D02*
X59568478Y-27539614D01*
X59568478Y-27539614D02*
X59597050Y-27511043D01*
X59597050Y-27511043D02*
X59611335Y-27468186D01*
X59611335Y-27468186D02*
X59611335Y-27439614D01*
X59611335Y-27439614D02*
X59597050Y-27396757D01*
X59597050Y-27396757D02*
X59582764Y-27382471D01*
X59582764Y-27382471D02*
X59482764Y-27382471D01*
X59482764Y-27382471D02*
X59482764Y-27439614D01*
X59611335Y-27253900D02*
X59311335Y-27253900D01*
X59311335Y-27253900D02*
X59611335Y-27082471D01*
X59611335Y-27082471D02*
X59311335Y-27082471D01*
X59611335Y-26939614D02*
X59311335Y-26939614D01*
X59311335Y-26939614D02*
X59311335Y-26868185D01*
X59311335Y-26868185D02*
X59325621Y-26825328D01*
X59325621Y-26825328D02*
X59354192Y-26796757D01*
X59354192Y-26796757D02*
X59382764Y-26782471D01*
X59382764Y-26782471D02*
X59439907Y-26768185D01*
X59439907Y-26768185D02*
X59482764Y-26768185D01*
X59482764Y-26768185D02*
X59539907Y-26782471D01*
X59539907Y-26782471D02*
X59568478Y-26796757D01*
X59568478Y-26796757D02*
X59597050Y-26825328D01*
X59597050Y-26825328D02*
X59611335Y-26868185D01*
X59611335Y-26868185D02*
X59611335Y-26939614D01*
X59375621Y-52896757D02*
X59361335Y-52925329D01*
X59361335Y-52925329D02*
X59361335Y-52968186D01*
X59361335Y-52968186D02*
X59375621Y-53011043D01*
X59375621Y-53011043D02*
X59404192Y-53039614D01*
X59404192Y-53039614D02*
X59432764Y-53053900D01*
X59432764Y-53053900D02*
X59489907Y-53068186D01*
X59489907Y-53068186D02*
X59532764Y-53068186D01*
X59532764Y-53068186D02*
X59589907Y-53053900D01*
X59589907Y-53053900D02*
X59618478Y-53039614D01*
X59618478Y-53039614D02*
X59647050Y-53011043D01*
X59647050Y-53011043D02*
X59661335Y-52968186D01*
X59661335Y-52968186D02*
X59661335Y-52939614D01*
X59661335Y-52939614D02*
X59647050Y-52896757D01*
X59647050Y-52896757D02*
X59632764Y-52882471D01*
X59632764Y-52882471D02*
X59532764Y-52882471D01*
X59532764Y-52882471D02*
X59532764Y-52939614D01*
X59661335Y-52753900D02*
X59361335Y-52753900D01*
X59361335Y-52753900D02*
X59661335Y-52582471D01*
X59661335Y-52582471D02*
X59361335Y-52582471D01*
X59661335Y-52439614D02*
X59361335Y-52439614D01*
X59361335Y-52439614D02*
X59361335Y-52368185D01*
X59361335Y-52368185D02*
X59375621Y-52325328D01*
X59375621Y-52325328D02*
X59404192Y-52296757D01*
X59404192Y-52296757D02*
X59432764Y-52282471D01*
X59432764Y-52282471D02*
X59489907Y-52268185D01*
X59489907Y-52268185D02*
X59532764Y-52268185D01*
X59532764Y-52268185D02*
X59589907Y-52282471D01*
X59589907Y-52282471D02*
X59618478Y-52296757D01*
X59618478Y-52296757D02*
X59647050Y-52325328D01*
X59647050Y-52325328D02*
X59661335Y-52368185D01*
X59661335Y-52368185D02*
X59661335Y-52439614D01*
X59375621Y-50646757D02*
X59361335Y-50675329D01*
X59361335Y-50675329D02*
X59361335Y-50718186D01*
X59361335Y-50718186D02*
X59375621Y-50761043D01*
X59375621Y-50761043D02*
X59404192Y-50789614D01*
X59404192Y-50789614D02*
X59432764Y-50803900D01*
X59432764Y-50803900D02*
X59489907Y-50818186D01*
X59489907Y-50818186D02*
X59532764Y-50818186D01*
X59532764Y-50818186D02*
X59589907Y-50803900D01*
X59589907Y-50803900D02*
X59618478Y-50789614D01*
X59618478Y-50789614D02*
X59647050Y-50761043D01*
X59647050Y-50761043D02*
X59661335Y-50718186D01*
X59661335Y-50718186D02*
X59661335Y-50689614D01*
X59661335Y-50689614D02*
X59647050Y-50646757D01*
X59647050Y-50646757D02*
X59632764Y-50632471D01*
X59632764Y-50632471D02*
X59532764Y-50632471D01*
X59532764Y-50632471D02*
X59532764Y-50689614D01*
X59661335Y-50503900D02*
X59361335Y-50503900D01*
X59361335Y-50503900D02*
X59361335Y-50389614D01*
X59361335Y-50389614D02*
X59375621Y-50361043D01*
X59375621Y-50361043D02*
X59389907Y-50346757D01*
X59389907Y-50346757D02*
X59418478Y-50332471D01*
X59418478Y-50332471D02*
X59461335Y-50332471D01*
X59461335Y-50332471D02*
X59489907Y-50346757D01*
X59489907Y-50346757D02*
X59504192Y-50361043D01*
X59504192Y-50361043D02*
X59518478Y-50389614D01*
X59518478Y-50389614D02*
X59518478Y-50503900D01*
X59661335Y-50203900D02*
X59361335Y-50203900D01*
X59361335Y-50003900D02*
X59361335Y-49946757D01*
X59361335Y-49946757D02*
X59375621Y-49918186D01*
X59375621Y-49918186D02*
X59404192Y-49889614D01*
X59404192Y-49889614D02*
X59461335Y-49875329D01*
X59461335Y-49875329D02*
X59561335Y-49875329D01*
X59561335Y-49875329D02*
X59618478Y-49889614D01*
X59618478Y-49889614D02*
X59647050Y-49918186D01*
X59647050Y-49918186D02*
X59661335Y-49946757D01*
X59661335Y-49946757D02*
X59661335Y-50003900D01*
X59661335Y-50003900D02*
X59647050Y-50032472D01*
X59647050Y-50032472D02*
X59618478Y-50061043D01*
X59618478Y-50061043D02*
X59561335Y-50075329D01*
X59561335Y-50075329D02*
X59461335Y-50075329D01*
X59461335Y-50075329D02*
X59404192Y-50061043D01*
X59404192Y-50061043D02*
X59375621Y-50032472D01*
X59375621Y-50032472D02*
X59361335Y-50003900D01*
X59661335Y-49503900D02*
X59661335Y-49446757D01*
X59661335Y-49446757D02*
X59647050Y-49418186D01*
X59647050Y-49418186D02*
X59632764Y-49403900D01*
X59632764Y-49403900D02*
X59589907Y-49375329D01*
X59589907Y-49375329D02*
X59532764Y-49361043D01*
X59532764Y-49361043D02*
X59418478Y-49361043D01*
X59418478Y-49361043D02*
X59389907Y-49375329D01*
X59389907Y-49375329D02*
X59375621Y-49389615D01*
X59375621Y-49389615D02*
X59361335Y-49418186D01*
X59361335Y-49418186D02*
X59361335Y-49475329D01*
X59361335Y-49475329D02*
X59375621Y-49503900D01*
X59375621Y-49503900D02*
X59389907Y-49518186D01*
X59389907Y-49518186D02*
X59418478Y-49532472D01*
X59418478Y-49532472D02*
X59489907Y-49532472D01*
X59489907Y-49532472D02*
X59518478Y-49518186D01*
X59518478Y-49518186D02*
X59532764Y-49503900D01*
X59532764Y-49503900D02*
X59547050Y-49475329D01*
X59547050Y-49475329D02*
X59547050Y-49418186D01*
X59547050Y-49418186D02*
X59532764Y-49389615D01*
X59532764Y-49389615D02*
X59518478Y-49375329D01*
X59518478Y-49375329D02*
X59489907Y-49361043D01*
X59325621Y-48096757D02*
X59311335Y-48125329D01*
X59311335Y-48125329D02*
X59311335Y-48168186D01*
X59311335Y-48168186D02*
X59325621Y-48211043D01*
X59325621Y-48211043D02*
X59354192Y-48239614D01*
X59354192Y-48239614D02*
X59382764Y-48253900D01*
X59382764Y-48253900D02*
X59439907Y-48268186D01*
X59439907Y-48268186D02*
X59482764Y-48268186D01*
X59482764Y-48268186D02*
X59539907Y-48253900D01*
X59539907Y-48253900D02*
X59568478Y-48239614D01*
X59568478Y-48239614D02*
X59597050Y-48211043D01*
X59597050Y-48211043D02*
X59611335Y-48168186D01*
X59611335Y-48168186D02*
X59611335Y-48139614D01*
X59611335Y-48139614D02*
X59597050Y-48096757D01*
X59597050Y-48096757D02*
X59582764Y-48082471D01*
X59582764Y-48082471D02*
X59482764Y-48082471D01*
X59482764Y-48082471D02*
X59482764Y-48139614D01*
X59611335Y-47953900D02*
X59311335Y-47953900D01*
X59311335Y-47953900D02*
X59311335Y-47839614D01*
X59311335Y-47839614D02*
X59325621Y-47811043D01*
X59325621Y-47811043D02*
X59339907Y-47796757D01*
X59339907Y-47796757D02*
X59368478Y-47782471D01*
X59368478Y-47782471D02*
X59411335Y-47782471D01*
X59411335Y-47782471D02*
X59439907Y-47796757D01*
X59439907Y-47796757D02*
X59454192Y-47811043D01*
X59454192Y-47811043D02*
X59468478Y-47839614D01*
X59468478Y-47839614D02*
X59468478Y-47953900D01*
X59611335Y-47653900D02*
X59311335Y-47653900D01*
X59311335Y-47453900D02*
X59311335Y-47396757D01*
X59311335Y-47396757D02*
X59325621Y-47368186D01*
X59325621Y-47368186D02*
X59354192Y-47339614D01*
X59354192Y-47339614D02*
X59411335Y-47325329D01*
X59411335Y-47325329D02*
X59511335Y-47325329D01*
X59511335Y-47325329D02*
X59568478Y-47339614D01*
X59568478Y-47339614D02*
X59597050Y-47368186D01*
X59597050Y-47368186D02*
X59611335Y-47396757D01*
X59611335Y-47396757D02*
X59611335Y-47453900D01*
X59611335Y-47453900D02*
X59597050Y-47482472D01*
X59597050Y-47482472D02*
X59568478Y-47511043D01*
X59568478Y-47511043D02*
X59511335Y-47525329D01*
X59511335Y-47525329D02*
X59411335Y-47525329D01*
X59411335Y-47525329D02*
X59354192Y-47511043D01*
X59354192Y-47511043D02*
X59325621Y-47482472D01*
X59325621Y-47482472D02*
X59311335Y-47453900D01*
X59439907Y-46925329D02*
X59425621Y-46953900D01*
X59425621Y-46953900D02*
X59411335Y-46968186D01*
X59411335Y-46968186D02*
X59382764Y-46982472D01*
X59382764Y-46982472D02*
X59368478Y-46982472D01*
X59368478Y-46982472D02*
X59339907Y-46968186D01*
X59339907Y-46968186D02*
X59325621Y-46953900D01*
X59325621Y-46953900D02*
X59311335Y-46925329D01*
X59311335Y-46925329D02*
X59311335Y-46868186D01*
X59311335Y-46868186D02*
X59325621Y-46839615D01*
X59325621Y-46839615D02*
X59339907Y-46825329D01*
X59339907Y-46825329D02*
X59368478Y-46811043D01*
X59368478Y-46811043D02*
X59382764Y-46811043D01*
X59382764Y-46811043D02*
X59411335Y-46825329D01*
X59411335Y-46825329D02*
X59425621Y-46839615D01*
X59425621Y-46839615D02*
X59439907Y-46868186D01*
X59439907Y-46868186D02*
X59439907Y-46925329D01*
X59439907Y-46925329D02*
X59454192Y-46953900D01*
X59454192Y-46953900D02*
X59468478Y-46968186D01*
X59468478Y-46968186D02*
X59497050Y-46982472D01*
X59497050Y-46982472D02*
X59554192Y-46982472D01*
X59554192Y-46982472D02*
X59582764Y-46968186D01*
X59582764Y-46968186D02*
X59597050Y-46953900D01*
X59597050Y-46953900D02*
X59611335Y-46925329D01*
X59611335Y-46925329D02*
X59611335Y-46868186D01*
X59611335Y-46868186D02*
X59597050Y-46839615D01*
X59597050Y-46839615D02*
X59582764Y-46825329D01*
X59582764Y-46825329D02*
X59554192Y-46811043D01*
X59554192Y-46811043D02*
X59497050Y-46811043D01*
X59497050Y-46811043D02*
X59468478Y-46825329D01*
X59468478Y-46825329D02*
X59454192Y-46839615D01*
X59454192Y-46839615D02*
X59439907Y-46868186D01*
X59325621Y-45496757D02*
X59311335Y-45525329D01*
X59311335Y-45525329D02*
X59311335Y-45568186D01*
X59311335Y-45568186D02*
X59325621Y-45611043D01*
X59325621Y-45611043D02*
X59354192Y-45639614D01*
X59354192Y-45639614D02*
X59382764Y-45653900D01*
X59382764Y-45653900D02*
X59439907Y-45668186D01*
X59439907Y-45668186D02*
X59482764Y-45668186D01*
X59482764Y-45668186D02*
X59539907Y-45653900D01*
X59539907Y-45653900D02*
X59568478Y-45639614D01*
X59568478Y-45639614D02*
X59597050Y-45611043D01*
X59597050Y-45611043D02*
X59611335Y-45568186D01*
X59611335Y-45568186D02*
X59611335Y-45539614D01*
X59611335Y-45539614D02*
X59597050Y-45496757D01*
X59597050Y-45496757D02*
X59582764Y-45482471D01*
X59582764Y-45482471D02*
X59482764Y-45482471D01*
X59482764Y-45482471D02*
X59482764Y-45539614D01*
X59611335Y-45353900D02*
X59311335Y-45353900D01*
X59311335Y-45353900D02*
X59311335Y-45239614D01*
X59311335Y-45239614D02*
X59325621Y-45211043D01*
X59325621Y-45211043D02*
X59339907Y-45196757D01*
X59339907Y-45196757D02*
X59368478Y-45182471D01*
X59368478Y-45182471D02*
X59411335Y-45182471D01*
X59411335Y-45182471D02*
X59439907Y-45196757D01*
X59439907Y-45196757D02*
X59454192Y-45211043D01*
X59454192Y-45211043D02*
X59468478Y-45239614D01*
X59468478Y-45239614D02*
X59468478Y-45353900D01*
X59611335Y-45053900D02*
X59311335Y-45053900D01*
X59311335Y-44853900D02*
X59311335Y-44796757D01*
X59311335Y-44796757D02*
X59325621Y-44768186D01*
X59325621Y-44768186D02*
X59354192Y-44739614D01*
X59354192Y-44739614D02*
X59411335Y-44725329D01*
X59411335Y-44725329D02*
X59511335Y-44725329D01*
X59511335Y-44725329D02*
X59568478Y-44739614D01*
X59568478Y-44739614D02*
X59597050Y-44768186D01*
X59597050Y-44768186D02*
X59611335Y-44796757D01*
X59611335Y-44796757D02*
X59611335Y-44853900D01*
X59611335Y-44853900D02*
X59597050Y-44882472D01*
X59597050Y-44882472D02*
X59568478Y-44911043D01*
X59568478Y-44911043D02*
X59511335Y-44925329D01*
X59511335Y-44925329D02*
X59411335Y-44925329D01*
X59411335Y-44925329D02*
X59354192Y-44911043D01*
X59354192Y-44911043D02*
X59325621Y-44882472D01*
X59325621Y-44882472D02*
X59311335Y-44853900D01*
X59311335Y-44396757D02*
X59311335Y-44196757D01*
X59311335Y-44196757D02*
X59611335Y-44325329D01*
X59325621Y-42996757D02*
X59311335Y-43025329D01*
X59311335Y-43025329D02*
X59311335Y-43068186D01*
X59311335Y-43068186D02*
X59325621Y-43111043D01*
X59325621Y-43111043D02*
X59354192Y-43139614D01*
X59354192Y-43139614D02*
X59382764Y-43153900D01*
X59382764Y-43153900D02*
X59439907Y-43168186D01*
X59439907Y-43168186D02*
X59482764Y-43168186D01*
X59482764Y-43168186D02*
X59539907Y-43153900D01*
X59539907Y-43153900D02*
X59568478Y-43139614D01*
X59568478Y-43139614D02*
X59597050Y-43111043D01*
X59597050Y-43111043D02*
X59611335Y-43068186D01*
X59611335Y-43068186D02*
X59611335Y-43039614D01*
X59611335Y-43039614D02*
X59597050Y-42996757D01*
X59597050Y-42996757D02*
X59582764Y-42982471D01*
X59582764Y-42982471D02*
X59482764Y-42982471D01*
X59482764Y-42982471D02*
X59482764Y-43039614D01*
X59611335Y-42853900D02*
X59311335Y-42853900D01*
X59311335Y-42853900D02*
X59311335Y-42739614D01*
X59311335Y-42739614D02*
X59325621Y-42711043D01*
X59325621Y-42711043D02*
X59339907Y-42696757D01*
X59339907Y-42696757D02*
X59368478Y-42682471D01*
X59368478Y-42682471D02*
X59411335Y-42682471D01*
X59411335Y-42682471D02*
X59439907Y-42696757D01*
X59439907Y-42696757D02*
X59454192Y-42711043D01*
X59454192Y-42711043D02*
X59468478Y-42739614D01*
X59468478Y-42739614D02*
X59468478Y-42853900D01*
X59611335Y-42553900D02*
X59311335Y-42553900D01*
X59311335Y-42353900D02*
X59311335Y-42296757D01*
X59311335Y-42296757D02*
X59325621Y-42268186D01*
X59325621Y-42268186D02*
X59354192Y-42239614D01*
X59354192Y-42239614D02*
X59411335Y-42225329D01*
X59411335Y-42225329D02*
X59511335Y-42225329D01*
X59511335Y-42225329D02*
X59568478Y-42239614D01*
X59568478Y-42239614D02*
X59597050Y-42268186D01*
X59597050Y-42268186D02*
X59611335Y-42296757D01*
X59611335Y-42296757D02*
X59611335Y-42353900D01*
X59611335Y-42353900D02*
X59597050Y-42382472D01*
X59597050Y-42382472D02*
X59568478Y-42411043D01*
X59568478Y-42411043D02*
X59511335Y-42425329D01*
X59511335Y-42425329D02*
X59411335Y-42425329D01*
X59411335Y-42425329D02*
X59354192Y-42411043D01*
X59354192Y-42411043D02*
X59325621Y-42382472D01*
X59325621Y-42382472D02*
X59311335Y-42353900D01*
X59311335Y-41739615D02*
X59311335Y-41796757D01*
X59311335Y-41796757D02*
X59325621Y-41825329D01*
X59325621Y-41825329D02*
X59339907Y-41839615D01*
X59339907Y-41839615D02*
X59382764Y-41868186D01*
X59382764Y-41868186D02*
X59439907Y-41882472D01*
X59439907Y-41882472D02*
X59554192Y-41882472D01*
X59554192Y-41882472D02*
X59582764Y-41868186D01*
X59582764Y-41868186D02*
X59597050Y-41853900D01*
X59597050Y-41853900D02*
X59611335Y-41825329D01*
X59611335Y-41825329D02*
X59611335Y-41768186D01*
X59611335Y-41768186D02*
X59597050Y-41739615D01*
X59597050Y-41739615D02*
X59582764Y-41725329D01*
X59582764Y-41725329D02*
X59554192Y-41711043D01*
X59554192Y-41711043D02*
X59482764Y-41711043D01*
X59482764Y-41711043D02*
X59454192Y-41725329D01*
X59454192Y-41725329D02*
X59439907Y-41739615D01*
X59439907Y-41739615D02*
X59425621Y-41768186D01*
X59425621Y-41768186D02*
X59425621Y-41825329D01*
X59425621Y-41825329D02*
X59439907Y-41853900D01*
X59439907Y-41853900D02*
X59454192Y-41868186D01*
X59454192Y-41868186D02*
X59482764Y-41882472D01*
X59275621Y-40296757D02*
X59261335Y-40325329D01*
X59261335Y-40325329D02*
X59261335Y-40368186D01*
X59261335Y-40368186D02*
X59275621Y-40411043D01*
X59275621Y-40411043D02*
X59304192Y-40439614D01*
X59304192Y-40439614D02*
X59332764Y-40453900D01*
X59332764Y-40453900D02*
X59389907Y-40468186D01*
X59389907Y-40468186D02*
X59432764Y-40468186D01*
X59432764Y-40468186D02*
X59489907Y-40453900D01*
X59489907Y-40453900D02*
X59518478Y-40439614D01*
X59518478Y-40439614D02*
X59547050Y-40411043D01*
X59547050Y-40411043D02*
X59561335Y-40368186D01*
X59561335Y-40368186D02*
X59561335Y-40339614D01*
X59561335Y-40339614D02*
X59547050Y-40296757D01*
X59547050Y-40296757D02*
X59532764Y-40282471D01*
X59532764Y-40282471D02*
X59432764Y-40282471D01*
X59432764Y-40282471D02*
X59432764Y-40339614D01*
X59561335Y-40153900D02*
X59261335Y-40153900D01*
X59261335Y-40153900D02*
X59561335Y-39982471D01*
X59561335Y-39982471D02*
X59261335Y-39982471D01*
X59561335Y-39839614D02*
X59261335Y-39839614D01*
X59261335Y-39839614D02*
X59261335Y-39768185D01*
X59261335Y-39768185D02*
X59275621Y-39725328D01*
X59275621Y-39725328D02*
X59304192Y-39696757D01*
X59304192Y-39696757D02*
X59332764Y-39682471D01*
X59332764Y-39682471D02*
X59389907Y-39668185D01*
X59389907Y-39668185D02*
X59432764Y-39668185D01*
X59432764Y-39668185D02*
X59489907Y-39682471D01*
X59489907Y-39682471D02*
X59518478Y-39696757D01*
X59518478Y-39696757D02*
X59547050Y-39725328D01*
X59547050Y-39725328D02*
X59561335Y-39768185D01*
X59561335Y-39768185D02*
X59561335Y-39839614D01*
X59325621Y-37946757D02*
X59311335Y-37975329D01*
X59311335Y-37975329D02*
X59311335Y-38018186D01*
X59311335Y-38018186D02*
X59325621Y-38061043D01*
X59325621Y-38061043D02*
X59354192Y-38089614D01*
X59354192Y-38089614D02*
X59382764Y-38103900D01*
X59382764Y-38103900D02*
X59439907Y-38118186D01*
X59439907Y-38118186D02*
X59482764Y-38118186D01*
X59482764Y-38118186D02*
X59539907Y-38103900D01*
X59539907Y-38103900D02*
X59568478Y-38089614D01*
X59568478Y-38089614D02*
X59597050Y-38061043D01*
X59597050Y-38061043D02*
X59611335Y-38018186D01*
X59611335Y-38018186D02*
X59611335Y-37989614D01*
X59611335Y-37989614D02*
X59597050Y-37946757D01*
X59597050Y-37946757D02*
X59582764Y-37932471D01*
X59582764Y-37932471D02*
X59482764Y-37932471D01*
X59482764Y-37932471D02*
X59482764Y-37989614D01*
X59611335Y-37803900D02*
X59311335Y-37803900D01*
X59311335Y-37803900D02*
X59311335Y-37689614D01*
X59311335Y-37689614D02*
X59325621Y-37661043D01*
X59325621Y-37661043D02*
X59339907Y-37646757D01*
X59339907Y-37646757D02*
X59368478Y-37632471D01*
X59368478Y-37632471D02*
X59411335Y-37632471D01*
X59411335Y-37632471D02*
X59439907Y-37646757D01*
X59439907Y-37646757D02*
X59454192Y-37661043D01*
X59454192Y-37661043D02*
X59468478Y-37689614D01*
X59468478Y-37689614D02*
X59468478Y-37803900D01*
X59611335Y-37503900D02*
X59311335Y-37503900D01*
X59311335Y-37303900D02*
X59311335Y-37246757D01*
X59311335Y-37246757D02*
X59325621Y-37218186D01*
X59325621Y-37218186D02*
X59354192Y-37189614D01*
X59354192Y-37189614D02*
X59411335Y-37175329D01*
X59411335Y-37175329D02*
X59511335Y-37175329D01*
X59511335Y-37175329D02*
X59568478Y-37189614D01*
X59568478Y-37189614D02*
X59597050Y-37218186D01*
X59597050Y-37218186D02*
X59611335Y-37246757D01*
X59611335Y-37246757D02*
X59611335Y-37303900D01*
X59611335Y-37303900D02*
X59597050Y-37332472D01*
X59597050Y-37332472D02*
X59568478Y-37361043D01*
X59568478Y-37361043D02*
X59511335Y-37375329D01*
X59511335Y-37375329D02*
X59411335Y-37375329D01*
X59411335Y-37375329D02*
X59354192Y-37361043D01*
X59354192Y-37361043D02*
X59325621Y-37332472D01*
X59325621Y-37332472D02*
X59311335Y-37303900D01*
X59311335Y-36675329D02*
X59311335Y-36818186D01*
X59311335Y-36818186D02*
X59454192Y-36832472D01*
X59454192Y-36832472D02*
X59439907Y-36818186D01*
X59439907Y-36818186D02*
X59425621Y-36789615D01*
X59425621Y-36789615D02*
X59425621Y-36718186D01*
X59425621Y-36718186D02*
X59439907Y-36689615D01*
X59439907Y-36689615D02*
X59454192Y-36675329D01*
X59454192Y-36675329D02*
X59482764Y-36661043D01*
X59482764Y-36661043D02*
X59554192Y-36661043D01*
X59554192Y-36661043D02*
X59582764Y-36675329D01*
X59582764Y-36675329D02*
X59597050Y-36689615D01*
X59597050Y-36689615D02*
X59611335Y-36718186D01*
X59611335Y-36718186D02*
X59611335Y-36789615D01*
X59611335Y-36789615D02*
X59597050Y-36818186D01*
X59597050Y-36818186D02*
X59582764Y-36832472D01*
X59325621Y-35496757D02*
X59311335Y-35525329D01*
X59311335Y-35525329D02*
X59311335Y-35568186D01*
X59311335Y-35568186D02*
X59325621Y-35611043D01*
X59325621Y-35611043D02*
X59354192Y-35639614D01*
X59354192Y-35639614D02*
X59382764Y-35653900D01*
X59382764Y-35653900D02*
X59439907Y-35668186D01*
X59439907Y-35668186D02*
X59482764Y-35668186D01*
X59482764Y-35668186D02*
X59539907Y-35653900D01*
X59539907Y-35653900D02*
X59568478Y-35639614D01*
X59568478Y-35639614D02*
X59597050Y-35611043D01*
X59597050Y-35611043D02*
X59611335Y-35568186D01*
X59611335Y-35568186D02*
X59611335Y-35539614D01*
X59611335Y-35539614D02*
X59597050Y-35496757D01*
X59597050Y-35496757D02*
X59582764Y-35482471D01*
X59582764Y-35482471D02*
X59482764Y-35482471D01*
X59482764Y-35482471D02*
X59482764Y-35539614D01*
X59611335Y-35353900D02*
X59311335Y-35353900D01*
X59311335Y-35353900D02*
X59311335Y-35239614D01*
X59311335Y-35239614D02*
X59325621Y-35211043D01*
X59325621Y-35211043D02*
X59339907Y-35196757D01*
X59339907Y-35196757D02*
X59368478Y-35182471D01*
X59368478Y-35182471D02*
X59411335Y-35182471D01*
X59411335Y-35182471D02*
X59439907Y-35196757D01*
X59439907Y-35196757D02*
X59454192Y-35211043D01*
X59454192Y-35211043D02*
X59468478Y-35239614D01*
X59468478Y-35239614D02*
X59468478Y-35353900D01*
X59611335Y-35053900D02*
X59311335Y-35053900D01*
X59311335Y-34853900D02*
X59311335Y-34796757D01*
X59311335Y-34796757D02*
X59325621Y-34768186D01*
X59325621Y-34768186D02*
X59354192Y-34739614D01*
X59354192Y-34739614D02*
X59411335Y-34725329D01*
X59411335Y-34725329D02*
X59511335Y-34725329D01*
X59511335Y-34725329D02*
X59568478Y-34739614D01*
X59568478Y-34739614D02*
X59597050Y-34768186D01*
X59597050Y-34768186D02*
X59611335Y-34796757D01*
X59611335Y-34796757D02*
X59611335Y-34853900D01*
X59611335Y-34853900D02*
X59597050Y-34882472D01*
X59597050Y-34882472D02*
X59568478Y-34911043D01*
X59568478Y-34911043D02*
X59511335Y-34925329D01*
X59511335Y-34925329D02*
X59411335Y-34925329D01*
X59411335Y-34925329D02*
X59354192Y-34911043D01*
X59354192Y-34911043D02*
X59325621Y-34882472D01*
X59325621Y-34882472D02*
X59311335Y-34853900D01*
X59411335Y-34239615D02*
X59611335Y-34239615D01*
X59297050Y-34311043D02*
X59511335Y-34382472D01*
X59511335Y-34382472D02*
X59511335Y-34196757D01*
X59275621Y-32846757D02*
X59261335Y-32875329D01*
X59261335Y-32875329D02*
X59261335Y-32918186D01*
X59261335Y-32918186D02*
X59275621Y-32961043D01*
X59275621Y-32961043D02*
X59304192Y-32989614D01*
X59304192Y-32989614D02*
X59332764Y-33003900D01*
X59332764Y-33003900D02*
X59389907Y-33018186D01*
X59389907Y-33018186D02*
X59432764Y-33018186D01*
X59432764Y-33018186D02*
X59489907Y-33003900D01*
X59489907Y-33003900D02*
X59518478Y-32989614D01*
X59518478Y-32989614D02*
X59547050Y-32961043D01*
X59547050Y-32961043D02*
X59561335Y-32918186D01*
X59561335Y-32918186D02*
X59561335Y-32889614D01*
X59561335Y-32889614D02*
X59547050Y-32846757D01*
X59547050Y-32846757D02*
X59532764Y-32832471D01*
X59532764Y-32832471D02*
X59432764Y-32832471D01*
X59432764Y-32832471D02*
X59432764Y-32889614D01*
X59561335Y-32703900D02*
X59261335Y-32703900D01*
X59261335Y-32703900D02*
X59261335Y-32589614D01*
X59261335Y-32589614D02*
X59275621Y-32561043D01*
X59275621Y-32561043D02*
X59289907Y-32546757D01*
X59289907Y-32546757D02*
X59318478Y-32532471D01*
X59318478Y-32532471D02*
X59361335Y-32532471D01*
X59361335Y-32532471D02*
X59389907Y-32546757D01*
X59389907Y-32546757D02*
X59404192Y-32561043D01*
X59404192Y-32561043D02*
X59418478Y-32589614D01*
X59418478Y-32589614D02*
X59418478Y-32703900D01*
X59561335Y-32403900D02*
X59261335Y-32403900D01*
X59261335Y-32203900D02*
X59261335Y-32146757D01*
X59261335Y-32146757D02*
X59275621Y-32118186D01*
X59275621Y-32118186D02*
X59304192Y-32089614D01*
X59304192Y-32089614D02*
X59361335Y-32075329D01*
X59361335Y-32075329D02*
X59461335Y-32075329D01*
X59461335Y-32075329D02*
X59518478Y-32089614D01*
X59518478Y-32089614D02*
X59547050Y-32118186D01*
X59547050Y-32118186D02*
X59561335Y-32146757D01*
X59561335Y-32146757D02*
X59561335Y-32203900D01*
X59561335Y-32203900D02*
X59547050Y-32232472D01*
X59547050Y-32232472D02*
X59518478Y-32261043D01*
X59518478Y-32261043D02*
X59461335Y-32275329D01*
X59461335Y-32275329D02*
X59361335Y-32275329D01*
X59361335Y-32275329D02*
X59304192Y-32261043D01*
X59304192Y-32261043D02*
X59275621Y-32232472D01*
X59275621Y-32232472D02*
X59261335Y-32203900D01*
X59261335Y-31746757D02*
X59261335Y-31561043D01*
X59261335Y-31561043D02*
X59375621Y-31661043D01*
X59375621Y-31661043D02*
X59375621Y-31618186D01*
X59375621Y-31618186D02*
X59389907Y-31589615D01*
X59389907Y-31589615D02*
X59404192Y-31575329D01*
X59404192Y-31575329D02*
X59432764Y-31561043D01*
X59432764Y-31561043D02*
X59504192Y-31561043D01*
X59504192Y-31561043D02*
X59532764Y-31575329D01*
X59532764Y-31575329D02*
X59547050Y-31589615D01*
X59547050Y-31589615D02*
X59561335Y-31618186D01*
X59561335Y-31618186D02*
X59561335Y-31703900D01*
X59561335Y-31703900D02*
X59547050Y-31732472D01*
X59547050Y-31732472D02*
X59532764Y-31746757D01*
X59275621Y-30396757D02*
X59261335Y-30425329D01*
X59261335Y-30425329D02*
X59261335Y-30468186D01*
X59261335Y-30468186D02*
X59275621Y-30511043D01*
X59275621Y-30511043D02*
X59304192Y-30539614D01*
X59304192Y-30539614D02*
X59332764Y-30553900D01*
X59332764Y-30553900D02*
X59389907Y-30568186D01*
X59389907Y-30568186D02*
X59432764Y-30568186D01*
X59432764Y-30568186D02*
X59489907Y-30553900D01*
X59489907Y-30553900D02*
X59518478Y-30539614D01*
X59518478Y-30539614D02*
X59547050Y-30511043D01*
X59547050Y-30511043D02*
X59561335Y-30468186D01*
X59561335Y-30468186D02*
X59561335Y-30439614D01*
X59561335Y-30439614D02*
X59547050Y-30396757D01*
X59547050Y-30396757D02*
X59532764Y-30382471D01*
X59532764Y-30382471D02*
X59432764Y-30382471D01*
X59432764Y-30382471D02*
X59432764Y-30439614D01*
X59561335Y-30253900D02*
X59261335Y-30253900D01*
X59261335Y-30253900D02*
X59261335Y-30139614D01*
X59261335Y-30139614D02*
X59275621Y-30111043D01*
X59275621Y-30111043D02*
X59289907Y-30096757D01*
X59289907Y-30096757D02*
X59318478Y-30082471D01*
X59318478Y-30082471D02*
X59361335Y-30082471D01*
X59361335Y-30082471D02*
X59389907Y-30096757D01*
X59389907Y-30096757D02*
X59404192Y-30111043D01*
X59404192Y-30111043D02*
X59418478Y-30139614D01*
X59418478Y-30139614D02*
X59418478Y-30253900D01*
X59561335Y-29953900D02*
X59261335Y-29953900D01*
X59261335Y-29753900D02*
X59261335Y-29696757D01*
X59261335Y-29696757D02*
X59275621Y-29668186D01*
X59275621Y-29668186D02*
X59304192Y-29639614D01*
X59304192Y-29639614D02*
X59361335Y-29625329D01*
X59361335Y-29625329D02*
X59461335Y-29625329D01*
X59461335Y-29625329D02*
X59518478Y-29639614D01*
X59518478Y-29639614D02*
X59547050Y-29668186D01*
X59547050Y-29668186D02*
X59561335Y-29696757D01*
X59561335Y-29696757D02*
X59561335Y-29753900D01*
X59561335Y-29753900D02*
X59547050Y-29782472D01*
X59547050Y-29782472D02*
X59518478Y-29811043D01*
X59518478Y-29811043D02*
X59461335Y-29825329D01*
X59461335Y-29825329D02*
X59361335Y-29825329D01*
X59361335Y-29825329D02*
X59304192Y-29811043D01*
X59304192Y-29811043D02*
X59275621Y-29782472D01*
X59275621Y-29782472D02*
X59261335Y-29753900D01*
X59289907Y-29282472D02*
X59275621Y-29268186D01*
X59275621Y-29268186D02*
X59261335Y-29239615D01*
X59261335Y-29239615D02*
X59261335Y-29168186D01*
X59261335Y-29168186D02*
X59275621Y-29139615D01*
X59275621Y-29139615D02*
X59289907Y-29125329D01*
X59289907Y-29125329D02*
X59318478Y-29111043D01*
X59318478Y-29111043D02*
X59347050Y-29111043D01*
X59347050Y-29111043D02*
X59389907Y-29125329D01*
X59389907Y-29125329D02*
X59561335Y-29296757D01*
X59561335Y-29296757D02*
X59561335Y-29111043D01*
X59325621Y-25196757D02*
X59311335Y-25225329D01*
X59311335Y-25225329D02*
X59311335Y-25268186D01*
X59311335Y-25268186D02*
X59325621Y-25311043D01*
X59325621Y-25311043D02*
X59354192Y-25339614D01*
X59354192Y-25339614D02*
X59382764Y-25353900D01*
X59382764Y-25353900D02*
X59439907Y-25368186D01*
X59439907Y-25368186D02*
X59482764Y-25368186D01*
X59482764Y-25368186D02*
X59539907Y-25353900D01*
X59539907Y-25353900D02*
X59568478Y-25339614D01*
X59568478Y-25339614D02*
X59597050Y-25311043D01*
X59597050Y-25311043D02*
X59611335Y-25268186D01*
X59611335Y-25268186D02*
X59611335Y-25239614D01*
X59611335Y-25239614D02*
X59597050Y-25196757D01*
X59597050Y-25196757D02*
X59582764Y-25182471D01*
X59582764Y-25182471D02*
X59482764Y-25182471D01*
X59482764Y-25182471D02*
X59482764Y-25239614D01*
X59611335Y-25053900D02*
X59311335Y-25053900D01*
X59311335Y-25053900D02*
X59311335Y-24939614D01*
X59311335Y-24939614D02*
X59325621Y-24911043D01*
X59325621Y-24911043D02*
X59339907Y-24896757D01*
X59339907Y-24896757D02*
X59368478Y-24882471D01*
X59368478Y-24882471D02*
X59411335Y-24882471D01*
X59411335Y-24882471D02*
X59439907Y-24896757D01*
X59439907Y-24896757D02*
X59454192Y-24911043D01*
X59454192Y-24911043D02*
X59468478Y-24939614D01*
X59468478Y-24939614D02*
X59468478Y-25053900D01*
X59611335Y-24753900D02*
X59311335Y-24753900D01*
X59311335Y-24553900D02*
X59311335Y-24496757D01*
X59311335Y-24496757D02*
X59325621Y-24468186D01*
X59325621Y-24468186D02*
X59354192Y-24439614D01*
X59354192Y-24439614D02*
X59411335Y-24425329D01*
X59411335Y-24425329D02*
X59511335Y-24425329D01*
X59511335Y-24425329D02*
X59568478Y-24439614D01*
X59568478Y-24439614D02*
X59597050Y-24468186D01*
X59597050Y-24468186D02*
X59611335Y-24496757D01*
X59611335Y-24496757D02*
X59611335Y-24553900D01*
X59611335Y-24553900D02*
X59597050Y-24582472D01*
X59597050Y-24582472D02*
X59568478Y-24611043D01*
X59568478Y-24611043D02*
X59511335Y-24625329D01*
X59511335Y-24625329D02*
X59411335Y-24625329D01*
X59411335Y-24625329D02*
X59354192Y-24611043D01*
X59354192Y-24611043D02*
X59325621Y-24582472D01*
X59325621Y-24582472D02*
X59311335Y-24553900D01*
X59611335Y-23911043D02*
X59611335Y-24082472D01*
X59611335Y-23996757D02*
X59311335Y-23996757D01*
X59311335Y-23996757D02*
X59354192Y-24025329D01*
X59354192Y-24025329D02*
X59382764Y-24053900D01*
X59382764Y-24053900D02*
X59397050Y-24082472D01*
X59375621Y-22746757D02*
X59361335Y-22775329D01*
X59361335Y-22775329D02*
X59361335Y-22818186D01*
X59361335Y-22818186D02*
X59375621Y-22861043D01*
X59375621Y-22861043D02*
X59404192Y-22889614D01*
X59404192Y-22889614D02*
X59432764Y-22903900D01*
X59432764Y-22903900D02*
X59489907Y-22918186D01*
X59489907Y-22918186D02*
X59532764Y-22918186D01*
X59532764Y-22918186D02*
X59589907Y-22903900D01*
X59589907Y-22903900D02*
X59618478Y-22889614D01*
X59618478Y-22889614D02*
X59647050Y-22861043D01*
X59647050Y-22861043D02*
X59661335Y-22818186D01*
X59661335Y-22818186D02*
X59661335Y-22789614D01*
X59661335Y-22789614D02*
X59647050Y-22746757D01*
X59647050Y-22746757D02*
X59632764Y-22732471D01*
X59632764Y-22732471D02*
X59532764Y-22732471D01*
X59532764Y-22732471D02*
X59532764Y-22789614D01*
X59661335Y-22603900D02*
X59361335Y-22603900D01*
X59361335Y-22603900D02*
X59361335Y-22489614D01*
X59361335Y-22489614D02*
X59375621Y-22461043D01*
X59375621Y-22461043D02*
X59389907Y-22446757D01*
X59389907Y-22446757D02*
X59418478Y-22432471D01*
X59418478Y-22432471D02*
X59461335Y-22432471D01*
X59461335Y-22432471D02*
X59489907Y-22446757D01*
X59489907Y-22446757D02*
X59504192Y-22461043D01*
X59504192Y-22461043D02*
X59518478Y-22489614D01*
X59518478Y-22489614D02*
X59518478Y-22603900D01*
X59661335Y-22303900D02*
X59361335Y-22303900D01*
X59361335Y-22103900D02*
X59361335Y-22046757D01*
X59361335Y-22046757D02*
X59375621Y-22018186D01*
X59375621Y-22018186D02*
X59404192Y-21989614D01*
X59404192Y-21989614D02*
X59461335Y-21975329D01*
X59461335Y-21975329D02*
X59561335Y-21975329D01*
X59561335Y-21975329D02*
X59618478Y-21989614D01*
X59618478Y-21989614D02*
X59647050Y-22018186D01*
X59647050Y-22018186D02*
X59661335Y-22046757D01*
X59661335Y-22046757D02*
X59661335Y-22103900D01*
X59661335Y-22103900D02*
X59647050Y-22132472D01*
X59647050Y-22132472D02*
X59618478Y-22161043D01*
X59618478Y-22161043D02*
X59561335Y-22175329D01*
X59561335Y-22175329D02*
X59461335Y-22175329D01*
X59461335Y-22175329D02*
X59404192Y-22161043D01*
X59404192Y-22161043D02*
X59375621Y-22132472D01*
X59375621Y-22132472D02*
X59361335Y-22103900D01*
X59361335Y-21561043D02*
X59361335Y-21532472D01*
X59361335Y-21532472D02*
X59375621Y-21503900D01*
X59375621Y-21503900D02*
X59389907Y-21489615D01*
X59389907Y-21489615D02*
X59418478Y-21475329D01*
X59418478Y-21475329D02*
X59475621Y-21461043D01*
X59475621Y-21461043D02*
X59547050Y-21461043D01*
X59547050Y-21461043D02*
X59604192Y-21475329D01*
X59604192Y-21475329D02*
X59632764Y-21489615D01*
X59632764Y-21489615D02*
X59647050Y-21503900D01*
X59647050Y-21503900D02*
X59661335Y-21532472D01*
X59661335Y-21532472D02*
X59661335Y-21561043D01*
X59661335Y-21561043D02*
X59647050Y-21589615D01*
X59647050Y-21589615D02*
X59632764Y-21603900D01*
X59632764Y-21603900D02*
X59604192Y-21618186D01*
X59604192Y-21618186D02*
X59547050Y-21632472D01*
X59547050Y-21632472D02*
X59475621Y-21632472D01*
X59475621Y-21632472D02*
X59418478Y-21618186D01*
X59418478Y-21618186D02*
X59389907Y-21603900D01*
X59389907Y-21603900D02*
X59375621Y-21589615D01*
X59375621Y-21589615D02*
X59361335Y-21561043D01*
D12*
X72645488Y-59957597D02*
X71693107Y-60624264D01*
X72645488Y-61100454D02*
X70645488Y-61100454D01*
X70645488Y-61100454D02*
X70645488Y-60338549D01*
X70645488Y-60338549D02*
X70740726Y-60148073D01*
X70740726Y-60148073D02*
X70835964Y-60052835D01*
X70835964Y-60052835D02*
X71026440Y-59957597D01*
X71026440Y-59957597D02*
X71312154Y-59957597D01*
X71312154Y-59957597D02*
X71502630Y-60052835D01*
X71502630Y-60052835D02*
X71597869Y-60148073D01*
X71597869Y-60148073D02*
X71693107Y-60338549D01*
X71693107Y-60338549D02*
X71693107Y-61100454D01*
X72645488Y-59100454D02*
X70645488Y-59100454D01*
X70645488Y-59100454D02*
X70645488Y-58338549D01*
X70645488Y-58338549D02*
X70740726Y-58148073D01*
X70740726Y-58148073D02*
X70835964Y-58052835D01*
X70835964Y-58052835D02*
X71026440Y-57957597D01*
X71026440Y-57957597D02*
X71312154Y-57957597D01*
X71312154Y-57957597D02*
X71502630Y-58052835D01*
X71502630Y-58052835D02*
X71597869Y-58148073D01*
X71597869Y-58148073D02*
X71693107Y-58338549D01*
X71693107Y-58338549D02*
X71693107Y-59100454D01*
X71597869Y-56433787D02*
X71597869Y-57100454D01*
X72645488Y-57100454D02*
X70645488Y-57100454D01*
X70645488Y-57100454D02*
X70645488Y-56148073D01*
X72645488Y-55100454D02*
X72550250Y-55290930D01*
X72550250Y-55290930D02*
X72455011Y-55386168D01*
X72455011Y-55386168D02*
X72264535Y-55481406D01*
X72264535Y-55481406D02*
X71693107Y-55481406D01*
X71693107Y-55481406D02*
X71502630Y-55386168D01*
X71502630Y-55386168D02*
X71407392Y-55290930D01*
X71407392Y-55290930D02*
X71312154Y-55100454D01*
X71312154Y-55100454D02*
X71312154Y-54814739D01*
X71312154Y-54814739D02*
X71407392Y-54624263D01*
X71407392Y-54624263D02*
X71502630Y-54529025D01*
X71502630Y-54529025D02*
X71693107Y-54433787D01*
X71693107Y-54433787D02*
X72264535Y-54433787D01*
X72264535Y-54433787D02*
X72455011Y-54529025D01*
X72455011Y-54529025D02*
X72550250Y-54624263D01*
X72550250Y-54624263D02*
X72645488Y-54814739D01*
X72645488Y-54814739D02*
X72645488Y-55100454D01*
X72645488Y-53576644D02*
X71312154Y-53576644D01*
X71693107Y-53576644D02*
X71502630Y-53481406D01*
X71502630Y-53481406D02*
X71407392Y-53386168D01*
X71407392Y-53386168D02*
X71312154Y-53195692D01*
X71312154Y-53195692D02*
X71312154Y-53005215D01*
X71312154Y-51481406D02*
X72931202Y-51481406D01*
X72931202Y-51481406D02*
X73121678Y-51576644D01*
X73121678Y-51576644D02*
X73216916Y-51671882D01*
X73216916Y-51671882D02*
X73312154Y-51862359D01*
X73312154Y-51862359D02*
X73312154Y-52148073D01*
X73312154Y-52148073D02*
X73216916Y-52338549D01*
X72550250Y-51481406D02*
X72645488Y-51671882D01*
X72645488Y-51671882D02*
X72645488Y-52052835D01*
X72645488Y-52052835D02*
X72550250Y-52243311D01*
X72550250Y-52243311D02*
X72455011Y-52338549D01*
X72455011Y-52338549D02*
X72264535Y-52433787D01*
X72264535Y-52433787D02*
X71693107Y-52433787D01*
X71693107Y-52433787D02*
X71502630Y-52338549D01*
X71502630Y-52338549D02*
X71407392Y-52243311D01*
X71407392Y-52243311D02*
X71312154Y-52052835D01*
X71312154Y-52052835D02*
X71312154Y-51671882D01*
X71312154Y-51671882D02*
X71407392Y-51481406D01*
X72550250Y-49767120D02*
X72645488Y-49957596D01*
X72645488Y-49957596D02*
X72645488Y-50338549D01*
X72645488Y-50338549D02*
X72550250Y-50529025D01*
X72550250Y-50529025D02*
X72359773Y-50624263D01*
X72359773Y-50624263D02*
X71597869Y-50624263D01*
X71597869Y-50624263D02*
X71407392Y-50529025D01*
X71407392Y-50529025D02*
X71312154Y-50338549D01*
X71312154Y-50338549D02*
X71312154Y-49957596D01*
X71312154Y-49957596D02*
X71407392Y-49767120D01*
X71407392Y-49767120D02*
X71597869Y-49671882D01*
X71597869Y-49671882D02*
X71788345Y-49671882D01*
X71788345Y-49671882D02*
X71978821Y-50624263D01*
X72645488Y-47957596D02*
X70645488Y-47957596D01*
X72550250Y-47957596D02*
X72645488Y-48148072D01*
X72645488Y-48148072D02*
X72645488Y-48529025D01*
X72645488Y-48529025D02*
X72550250Y-48719501D01*
X72550250Y-48719501D02*
X72455011Y-48814739D01*
X72455011Y-48814739D02*
X72264535Y-48909977D01*
X72264535Y-48909977D02*
X71693107Y-48909977D01*
X71693107Y-48909977D02*
X71502630Y-48814739D01*
X71502630Y-48814739D02*
X71407392Y-48719501D01*
X71407392Y-48719501D02*
X71312154Y-48529025D01*
X71312154Y-48529025D02*
X71312154Y-48148072D01*
X71312154Y-48148072D02*
X71407392Y-47957596D01*
G36*
X60664176Y-51119155D02*
G01*
X60745509Y-51138267D01*
X60782977Y-51152722D01*
X60817255Y-51170385D01*
X60848475Y-51191630D01*
X60874958Y-51215753D01*
X60896908Y-51243481D01*
X60913609Y-51274860D01*
X60924014Y-51309196D01*
X60927592Y-51347583D01*
X60924944Y-51377359D01*
X60917334Y-51403332D01*
X60905230Y-51426694D01*
X60890040Y-51446013D01*
X60871701Y-51462099D01*
X60850778Y-51475017D01*
X60804677Y-51490404D01*
X60804677Y-51493091D01*
X60852487Y-51523866D01*
X60873541Y-51543726D01*
X60891749Y-51566547D01*
X60906567Y-51592066D01*
X60918066Y-51621196D01*
X60925135Y-51652527D01*
X60927592Y-51687814D01*
X60922640Y-51738325D01*
X60908541Y-51781053D01*
X60885618Y-51818612D01*
X60855113Y-51849747D01*
X60817921Y-51874055D01*
X60772437Y-51892428D01*
X60722513Y-51903282D01*
X60665519Y-51907083D01*
X60598737Y-51901888D01*
X60539673Y-51886933D01*
X60485926Y-51862071D01*
X60440938Y-51828864D01*
X60404179Y-51787183D01*
X60376275Y-51737028D01*
X60359108Y-51680782D01*
X60353133Y-51616067D01*
X60441243Y-51616067D01*
X60446481Y-51663911D01*
X60460966Y-51701125D01*
X60483839Y-51732494D01*
X60512623Y-51757178D01*
X60546396Y-51775534D01*
X60585347Y-51788258D01*
X60626389Y-51795398D01*
X60668206Y-51797784D01*
X60727783Y-51793148D01*
X60769925Y-51781044D01*
X60799059Y-51763285D01*
X60821364Y-51737904D01*
X60834785Y-51707563D01*
X60839481Y-51670717D01*
X60835468Y-51635080D01*
X60824216Y-51606542D01*
X60805853Y-51582455D01*
X60780680Y-51562822D01*
X60750582Y-51548108D01*
X60713391Y-51536871D01*
X60627479Y-51525209D01*
X60455532Y-51515622D01*
X60445701Y-51561113D01*
X60441243Y-51616067D01*
X60353133Y-51616067D01*
X60355881Y-51554640D01*
X60363330Y-51495900D01*
X60373893Y-51444303D01*
X60385129Y-51404980D01*
X60668084Y-51420673D01*
X60692264Y-51421772D01*
X60706857Y-51422077D01*
X60715040Y-51422077D01*
X60719741Y-51422077D01*
X60754149Y-51420097D01*
X60778970Y-51414933D01*
X60800399Y-51406260D01*
X60815668Y-51396127D01*
X60827327Y-51383529D01*
X60834413Y-51369870D01*
X60839481Y-51339401D01*
X60834290Y-51309916D01*
X60818660Y-51284080D01*
X60794839Y-51262646D01*
X60762240Y-51244146D01*
X60724812Y-51230402D01*
X60678892Y-51219905D01*
X60630249Y-51213771D01*
X60577714Y-51211662D01*
X60513536Y-51215134D01*
X60456312Y-51225095D01*
X60405157Y-51241032D01*
X60356631Y-51263558D01*
X60314371Y-51290665D01*
X60277723Y-51322365D01*
X60245990Y-51358952D01*
X60219723Y-51399886D01*
X60198771Y-51445647D01*
X60178690Y-51519272D01*
X60171782Y-51601046D01*
X60176289Y-51677287D01*
X60189190Y-51744744D01*
X60209823Y-51804623D01*
X60238848Y-51860793D01*
X60274159Y-51909856D01*
X60315947Y-51952512D01*
X60363583Y-51988742D01*
X60417225Y-52018924D01*
X60477575Y-52043065D01*
X60540593Y-52059870D01*
X60608532Y-52070223D01*
X60682006Y-52073778D01*
X60750618Y-52070565D01*
X60811518Y-52061383D01*
X60865615Y-52046789D01*
X60917155Y-52025518D01*
X60961857Y-51999090D01*
X61000498Y-51967533D01*
X61033681Y-51930369D01*
X61061277Y-51887362D01*
X61083358Y-51837779D01*
X61098558Y-51785356D01*
X61108106Y-51726334D01*
X61111446Y-51659787D01*
X61106622Y-51577538D01*
X61093677Y-51498953D01*
X61074931Y-51426901D01*
X61052705Y-51363337D01*
X61149059Y-51363337D01*
X61171857Y-51424492D01*
X61190031Y-51495900D01*
X61201135Y-51571685D01*
X61205052Y-51658443D01*
X61200924Y-51739429D01*
X61189075Y-51811846D01*
X61170125Y-51876735D01*
X61142859Y-51938273D01*
X61108997Y-51992182D01*
X61068459Y-52039279D01*
X61021286Y-52079730D01*
X60967257Y-52113534D01*
X60905549Y-52140762D01*
X60840545Y-52159643D01*
X60767986Y-52171452D01*
X60686830Y-52175566D01*
X60601749Y-52170955D01*
X60521988Y-52157429D01*
X60446861Y-52135266D01*
X60375167Y-52104138D01*
X60311185Y-52065796D01*
X60254153Y-52020167D01*
X60204019Y-51967158D01*
X60161430Y-51907050D01*
X60126170Y-51839122D01*
X60100692Y-51766938D01*
X60084994Y-51687949D01*
X60079581Y-51601046D01*
X60083557Y-51530668D01*
X60095161Y-51465561D01*
X60114080Y-51405041D01*
X60140682Y-51347594D01*
X60173663Y-51296214D01*
X60213182Y-51250314D01*
X60258765Y-51210453D01*
X60310907Y-51176648D01*
X60370352Y-51148831D01*
X60433042Y-51129113D01*
X60502312Y-51116867D01*
X60579118Y-51112622D01*
X60664176Y-51119155D01*
G37*
G36*
X60992500Y-50691913D02*
G01*
X60991156Y-50664253D01*
X60987737Y-50634516D01*
X60982913Y-50608260D01*
X60978150Y-50590125D01*
X61073466Y-50590125D01*
X61081770Y-50612657D01*
X61089036Y-50642759D01*
X61093860Y-50676892D01*
X61095631Y-50711758D01*
X61092792Y-50753085D01*
X61084579Y-50790282D01*
X61069605Y-50824042D01*
X61046721Y-50852808D01*
X61016209Y-50875644D01*
X60973937Y-50894146D01*
X60924921Y-50905038D01*
X60858410Y-50909167D01*
X60419200Y-50909167D01*
X60419200Y-51015047D01*
X60365956Y-51015047D01*
X60314665Y-50909167D01*
X60157555Y-50855861D01*
X60157555Y-50784115D01*
X60329685Y-50784115D01*
X60329685Y-50595621D01*
X60419200Y-50595621D01*
X60419200Y-50784115D01*
X60858105Y-50784115D01*
X60920089Y-50777983D01*
X60958733Y-50762622D01*
X60977080Y-50745743D01*
X60988388Y-50722857D01*
X60992500Y-50691913D01*
G37*
G36*
X61080000Y-50022016D02*
G01*
X60978089Y-50047295D01*
X60978089Y-50052730D01*
X61031090Y-50097854D01*
X61051394Y-50121548D01*
X61067604Y-50147069D01*
X61079943Y-50174860D01*
X61088792Y-50206481D01*
X61093807Y-50240573D01*
X61095631Y-50282257D01*
X61092173Y-50328156D01*
X61082198Y-50369024D01*
X61065111Y-50406172D01*
X61040982Y-50437718D01*
X61010054Y-50463239D01*
X60970884Y-50483147D01*
X60926253Y-50495163D01*
X60870806Y-50499511D01*
X60815770Y-50494194D01*
X60769641Y-50479120D01*
X60730616Y-50454795D01*
X60697515Y-50420621D01*
X60672818Y-50380438D01*
X60652938Y-50328776D01*
X60638718Y-50263107D01*
X60631509Y-50180469D01*
X60626739Y-50056210D01*
X60712048Y-50056210D01*
X60716810Y-50153907D01*
X60721947Y-50212855D01*
X60730549Y-50257039D01*
X60744226Y-50295837D01*
X60760957Y-50323656D01*
X60782670Y-50345205D01*
X60808157Y-50359499D01*
X60837053Y-50367588D01*
X60870744Y-50370429D01*
X60911365Y-50366224D01*
X60941275Y-50354892D01*
X60963129Y-50337334D01*
X60979065Y-50313689D01*
X60988977Y-50285087D01*
X60992500Y-50250200D01*
X60989171Y-50209631D01*
X60979494Y-50173019D01*
X60963103Y-50139790D01*
X60940170Y-50111531D01*
X60911017Y-50088763D01*
X60873859Y-50070926D01*
X60831729Y-50060115D01*
X60779764Y-50056210D01*
X60712048Y-50056210D01*
X60626739Y-50056210D01*
X60626685Y-50054806D01*
X60580157Y-50054806D01*
X60537009Y-50057510D01*
X60504685Y-50064698D01*
X60476716Y-50077163D01*
X60455837Y-50093396D01*
X60440042Y-50114169D01*
X60429214Y-50139863D01*
X60423234Y-50168644D01*
X60421093Y-50203061D01*
X60425297Y-50258437D01*
X60437519Y-50308635D01*
X60477086Y-50402547D01*
X60383541Y-50446266D01*
X60358609Y-50393686D01*
X60337074Y-50333548D01*
X60322797Y-50270236D01*
X60317962Y-50203061D01*
X60321718Y-50135894D01*
X60331945Y-50082527D01*
X60350469Y-50035211D01*
X60376275Y-49998508D01*
X60410261Y-49969870D01*
X60453639Y-49948988D01*
X60503427Y-49936990D01*
X60567456Y-49932562D01*
X61080000Y-49932562D01*
X61080000Y-50022016D01*
G37*
G36*
X60798578Y-49084147D02*
G01*
X60874591Y-49099206D01*
X60942993Y-49124600D01*
X60996530Y-49156908D01*
X61039951Y-49198310D01*
X61070718Y-49246728D01*
X61089250Y-49301506D01*
X61095631Y-49363538D01*
X61093305Y-49402752D01*
X61086716Y-49436627D01*
X61076236Y-49468240D01*
X61063208Y-49495734D01*
X61028709Y-49542140D01*
X60987004Y-49578044D01*
X60987004Y-49586226D01*
X61031212Y-49582135D01*
X61067604Y-49579448D01*
X61097158Y-49578044D01*
X61416078Y-49578044D01*
X61416078Y-49702363D01*
X60329685Y-49702363D01*
X60329685Y-49601308D01*
X60432756Y-49583539D01*
X60432756Y-49578044D01*
X60387998Y-49542568D01*
X60368659Y-49521277D01*
X60351789Y-49496467D01*
X60338113Y-49468937D01*
X60327182Y-49437360D01*
X60320378Y-49403386D01*
X60319413Y-49387473D01*
X60421093Y-49387473D01*
X60425322Y-49436959D01*
X60436847Y-49475279D01*
X60456651Y-49507723D01*
X60484658Y-49533347D01*
X60519553Y-49552147D01*
X60564647Y-49566137D01*
X60614640Y-49574169D01*
X60677426Y-49578044D01*
X60705453Y-49578044D01*
X60772538Y-49575592D01*
X60828124Y-49568824D01*
X60878915Y-49555878D01*
X60918372Y-49537438D01*
X60950569Y-49511432D01*
X60973693Y-49478332D01*
X60987442Y-49438504D01*
X60992500Y-49386069D01*
X60987545Y-49341761D01*
X60973529Y-49305452D01*
X60950712Y-49275358D01*
X60918005Y-49250514D01*
X60866337Y-49228012D01*
X60796640Y-49212807D01*
X60704049Y-49207100D01*
X60609518Y-49212928D01*
X60540626Y-49228231D01*
X60491496Y-49250514D01*
X60460912Y-49275103D01*
X60439297Y-49305272D01*
X60425872Y-49342110D01*
X60421093Y-49387473D01*
X60319413Y-49387473D01*
X60317962Y-49363538D01*
X60324266Y-49301543D01*
X60342569Y-49246789D01*
X60372986Y-49198309D01*
X60416025Y-49156908D01*
X60469221Y-49124606D01*
X60537353Y-49099206D01*
X60612968Y-49084144D01*
X60705453Y-49078689D01*
X60798578Y-49084147D01*
G37*
G36*
X60876301Y-48433888D02*
G01*
X60928633Y-48439078D01*
X60971983Y-48453733D01*
X61009545Y-48477814D01*
X61040615Y-48510764D01*
X61064366Y-48550917D01*
X61081953Y-48600584D01*
X61092044Y-48654982D01*
X61095631Y-48718736D01*
X61092356Y-48790545D01*
X61083541Y-48846536D01*
X61068320Y-48897474D01*
X61048126Y-48940081D01*
X60933759Y-48940081D01*
X60955314Y-48892943D01*
X60974059Y-48838293D01*
X60987370Y-48779248D01*
X60992500Y-48718797D01*
X60990487Y-48676042D01*
X60985111Y-48643265D01*
X60975652Y-48614147D01*
X60963801Y-48592768D01*
X60948234Y-48575783D01*
X60930034Y-48564436D01*
X60909324Y-48557810D01*
X60885826Y-48555521D01*
X60847602Y-48562360D01*
X60831236Y-48571555D01*
X60813775Y-48587334D01*
X60797754Y-48607541D01*
X60779947Y-48636854D01*
X60741662Y-48717393D01*
X60699958Y-48805870D01*
X60677744Y-48842889D01*
X60654162Y-48872487D01*
X60626834Y-48896705D01*
X60595788Y-48914497D01*
X60560645Y-48925267D01*
X60516837Y-48929152D01*
X60470892Y-48924303D01*
X60431718Y-48910406D01*
X60397531Y-48887825D01*
X60369192Y-48857466D01*
X60347360Y-48820646D01*
X60330968Y-48775462D01*
X60321356Y-48726070D01*
X60317962Y-48668911D01*
X60321689Y-48604298D01*
X60332311Y-48547644D01*
X60348976Y-48493812D01*
X60369863Y-48443475D01*
X60470247Y-48486523D01*
X60435809Y-48577686D01*
X60424763Y-48624959D01*
X60421093Y-48673002D01*
X60424178Y-48719210D01*
X60432261Y-48752571D01*
X60444052Y-48776133D01*
X60461504Y-48794740D01*
X60482835Y-48805750D01*
X60509326Y-48809595D01*
X60532272Y-48807536D01*
X60551031Y-48801779D01*
X60567767Y-48791505D01*
X60584492Y-48774790D01*
X60616243Y-48723560D01*
X60652147Y-48643571D01*
X60693180Y-48555826D01*
X60715380Y-48519422D01*
X60739281Y-48489942D01*
X60766838Y-48465727D01*
X60797716Y-48448237D01*
X60832522Y-48437705D01*
X60876301Y-48433888D01*
G37*
D13*
X62338095Y-34054819D02*
X62338095Y-34864342D01*
X62338095Y-34864342D02*
X62385714Y-34959580D01*
X62385714Y-34959580D02*
X62433333Y-35007200D01*
X62433333Y-35007200D02*
X62528571Y-35054819D01*
X62528571Y-35054819D02*
X62719047Y-35054819D01*
X62719047Y-35054819D02*
X62814285Y-35007200D01*
X62814285Y-35007200D02*
X62861904Y-34959580D01*
X62861904Y-34959580D02*
X62909523Y-34864342D01*
X62909523Y-34864342D02*
X62909523Y-34054819D01*
X63814285Y-34388152D02*
X63814285Y-35054819D01*
X63576190Y-34007200D02*
X63338095Y-34721485D01*
X63338095Y-34721485D02*
X63957142Y-34721485D01*
X65916666Y-22704819D02*
X65916666Y-23419104D01*
X65916666Y-23419104D02*
X65869047Y-23561961D01*
X65869047Y-23561961D02*
X65773809Y-23657200D01*
X65773809Y-23657200D02*
X65630952Y-23704819D01*
X65630952Y-23704819D02*
X65535714Y-23704819D01*
X66916666Y-23704819D02*
X66345238Y-23704819D01*
X66630952Y-23704819D02*
X66630952Y-22704819D01*
X66630952Y-22704819D02*
X66535714Y-22847676D01*
X66535714Y-22847676D02*
X66440476Y-22942914D01*
X66440476Y-22942914D02*
X66345238Y-22990533D01*
X63166667Y-38607200D02*
X63309524Y-38654819D01*
X63309524Y-38654819D02*
X63547619Y-38654819D01*
X63547619Y-38654819D02*
X63642857Y-38607200D01*
X63642857Y-38607200D02*
X63690476Y-38559580D01*
X63690476Y-38559580D02*
X63738095Y-38464342D01*
X63738095Y-38464342D02*
X63738095Y-38369104D01*
X63738095Y-38369104D02*
X63690476Y-38273866D01*
X63690476Y-38273866D02*
X63642857Y-38226247D01*
X63642857Y-38226247D02*
X63547619Y-38178628D01*
X63547619Y-38178628D02*
X63357143Y-38131009D01*
X63357143Y-38131009D02*
X63261905Y-38083390D01*
X63261905Y-38083390D02*
X63214286Y-38035771D01*
X63214286Y-38035771D02*
X63166667Y-37940533D01*
X63166667Y-37940533D02*
X63166667Y-37845295D01*
X63166667Y-37845295D02*
X63214286Y-37750057D01*
X63214286Y-37750057D02*
X63261905Y-37702438D01*
X63261905Y-37702438D02*
X63357143Y-37654819D01*
X63357143Y-37654819D02*
X63595238Y-37654819D01*
X63595238Y-37654819D02*
X63738095Y-37702438D01*
X64071429Y-37654819D02*
X64309524Y-38654819D01*
X64309524Y-38654819D02*
X64500000Y-37940533D01*
X64500000Y-37940533D02*
X64690476Y-38654819D01*
X64690476Y-38654819D02*
X64928572Y-37654819D01*
X65833333Y-38654819D02*
X65261905Y-38654819D01*
X65547619Y-38654819D02*
X65547619Y-37654819D01*
X65547619Y-37654819D02*
X65452381Y-37797676D01*
X65452381Y-37797676D02*
X65357143Y-37892914D01*
X65357143Y-37892914D02*
X65261905Y-37940533D01*
X65323809Y-62278628D02*
X65323809Y-62754819D01*
X64990476Y-61754819D02*
X65323809Y-62278628D01*
X65323809Y-62278628D02*
X65657142Y-61754819D01*
X66514285Y-62754819D02*
X65942857Y-62754819D01*
X66228571Y-62754819D02*
X66228571Y-61754819D01*
X66228571Y-61754819D02*
X66133333Y-61897676D01*
X66133333Y-61897676D02*
X66038095Y-61992914D01*
X66038095Y-61992914D02*
X65942857Y-62040533D01*
D14*
%TO.C,R6*%
X63253641Y-41630000D02*
X62946359Y-41630000D01*
X63253641Y-40870000D02*
X62946359Y-40870000D01*
%TO.C,U4*%
X63050000Y-33477500D02*
X62720000Y-33237500D01*
X63050000Y-32997500D01*
X63050000Y-33477500D01*
G36*
X63050000Y-33477500D02*
G01*
X62720000Y-33237500D01*
X63050000Y-32997500D01*
X63050000Y-33477500D01*
G37*
X64660000Y-32697500D02*
X64610000Y-32697500D01*
X64660000Y-31177500D02*
X64660000Y-32697500D01*
X63660000Y-31177500D02*
X64660000Y-31177500D01*
X63490000Y-32697500D02*
X62710000Y-32697500D01*
X61590000Y-32697500D02*
X61540000Y-32697500D01*
X61540000Y-32697500D02*
X61540000Y-31177500D01*
X61540000Y-31177500D02*
X62540000Y-31177500D01*
%TO.C,C7*%
X70107836Y-42860000D02*
X69892164Y-42860000D01*
X70107836Y-42140000D02*
X69892164Y-42140000D01*
%TO.C,C8*%
X71140000Y-43407836D02*
X71140000Y-43192164D01*
X71860000Y-43407836D02*
X71860000Y-43192164D01*
%TO.C,C6*%
X71892164Y-42160000D02*
X72107836Y-42160000D01*
X71892164Y-41440000D02*
X72107836Y-41440000D01*
%TO.C,C9*%
X66340000Y-41007836D02*
X66340000Y-40792164D01*
X67060000Y-41007836D02*
X67060000Y-40792164D01*
%TO.C,C16*%
X62707836Y-55670000D02*
X62492164Y-55670000D01*
X62707836Y-56390000D02*
X62492164Y-56390000D01*
%TO.C,C5*%
X71140000Y-45427836D02*
X71140000Y-45212164D01*
X71860000Y-45427836D02*
X71860000Y-45212164D01*
%TO.C,C11*%
X70107836Y-41860000D02*
X69892164Y-41860000D01*
X70107836Y-41140000D02*
X69892164Y-41140000D01*
%TO.C,R1*%
X67620000Y-29446359D02*
X67620000Y-29753641D01*
X68380000Y-29446359D02*
X68380000Y-29753641D01*
%TO.C,R4*%
X66620000Y-29446359D02*
X66620000Y-29753641D01*
X67380000Y-29446359D02*
X67380000Y-29753641D01*
%TO.C,C3*%
X69872164Y-45140000D02*
X70087836Y-45140000D01*
X69872164Y-45860000D02*
X70087836Y-45860000D01*
%TO.C,R7*%
X65046359Y-40120000D02*
X65353641Y-40120000D01*
X65046359Y-40880000D02*
X65353641Y-40880000D01*
%TO.C,C10*%
X70872164Y-46440000D02*
X71087836Y-46440000D01*
X70872164Y-47160000D02*
X71087836Y-47160000D01*
%TO.C,U3*%
X63214432Y-41865000D02*
X66010000Y-41865000D01*
X66010000Y-44135000D02*
X62790000Y-44135000D01*
X62920000Y-41860000D02*
X62780000Y-41670000D01*
X63060000Y-41670000D01*
X62920000Y-41860000D01*
G36*
X62920000Y-41860000D02*
G01*
X62780000Y-41670000D01*
X63060000Y-41670000D01*
X62920000Y-41860000D01*
G37*
%TO.C,J1*%
X61550000Y-21250000D02*
X61550000Y-19350000D01*
X61550000Y-25150000D02*
X61550000Y-23150000D01*
X70950000Y-19350000D02*
X61550000Y-19350000D01*
X70950000Y-21250000D02*
X70950000Y-19350000D01*
X70950000Y-25150000D02*
X70950000Y-23150000D01*
D15*
%TO.C,G\u002A\u002A\u002A*%
G36*
X71569133Y-64779992D02*
G01*
X71601931Y-64829103D01*
X71604452Y-64843703D01*
X71593952Y-64908941D01*
X71543877Y-64964353D01*
X71476278Y-65007988D01*
X71429252Y-65009006D01*
X71392077Y-64964801D01*
X71372987Y-64922850D01*
X71334341Y-64827600D01*
X71411512Y-64794495D01*
X71504616Y-64768190D01*
X71569133Y-64779992D01*
G37*
G36*
X66320168Y-64650992D02*
G01*
X66319966Y-64738367D01*
X66313728Y-64812626D01*
X66303339Y-64906059D01*
X66292208Y-64959627D01*
X66275157Y-64984074D01*
X66247008Y-64990141D01*
X66228372Y-64989694D01*
X66149853Y-64981448D01*
X66089452Y-64970644D01*
X66017805Y-64954600D01*
X66149087Y-64767854D01*
X66222154Y-64669911D01*
X66273518Y-64617378D01*
X66305438Y-64610867D01*
X66320168Y-64650992D01*
G37*
G36*
X71694243Y-65131749D02*
G01*
X71743541Y-65168761D01*
X71760610Y-65224586D01*
X71739766Y-65290470D01*
X71675325Y-65357661D01*
X71662793Y-65366477D01*
X71586318Y-65411040D01*
X71536660Y-65418219D01*
X71504182Y-65386011D01*
X71483735Y-65329250D01*
X71463395Y-65247348D01*
X71461962Y-65199219D01*
X71482492Y-65170370D01*
X71521695Y-65149177D01*
X71618400Y-65122303D01*
X71694243Y-65131749D01*
G37*
G36*
X65184018Y-63433825D02*
G01*
X65339574Y-63440112D01*
X65474323Y-63451726D01*
X65603218Y-63469880D01*
X65713111Y-63490116D01*
X66095185Y-63579334D01*
X66489132Y-63698003D01*
X66901817Y-63848476D01*
X67340101Y-64033110D01*
X67479935Y-64096589D01*
X67728022Y-64207963D01*
X67944853Y-64297773D01*
X68143010Y-64370128D01*
X68335075Y-64429134D01*
X68533630Y-64478898D01*
X68751255Y-64523528D01*
X68834276Y-64538698D01*
X69047918Y-64567759D01*
X69296053Y-64586697D01*
X69563364Y-64595369D01*
X69834534Y-64593634D01*
X70094247Y-64581349D01*
X70327185Y-64558372D01*
X70366282Y-64552915D01*
X70739515Y-64484871D01*
X71125568Y-64390308D01*
X71512167Y-64273348D01*
X71887040Y-64138115D01*
X72237911Y-63988730D01*
X72552509Y-63829316D01*
X72599061Y-63802923D01*
X72682349Y-63757425D01*
X72747921Y-63726314D01*
X72784419Y-63714835D01*
X72787801Y-63715768D01*
X72780986Y-63741525D01*
X72753711Y-63804785D01*
X72709438Y-63898233D01*
X72651626Y-64014556D01*
X72586470Y-64141210D01*
X72517872Y-64274066D01*
X72458319Y-64392351D01*
X72411563Y-64488370D01*
X72381354Y-64554428D01*
X72371400Y-64582306D01*
X72387902Y-64593448D01*
X72439926Y-64601728D01*
X72531251Y-64607376D01*
X72665654Y-64610623D01*
X72846913Y-64611698D01*
X72854000Y-64611700D01*
X73004281Y-64612283D01*
X73135472Y-64613907D01*
X73239773Y-64616383D01*
X73309380Y-64619523D01*
X73336494Y-64623136D01*
X73336600Y-64623382D01*
X73318209Y-64647941D01*
X73267496Y-64698921D01*
X73191144Y-64770199D01*
X73095841Y-64855655D01*
X72988270Y-64949167D01*
X72890710Y-65031644D01*
X72471515Y-65367099D01*
X72055498Y-65672348D01*
X71646559Y-65945026D01*
X71248602Y-66182770D01*
X70865529Y-66383214D01*
X70501243Y-66543997D01*
X70237800Y-66638708D01*
X70097179Y-66683059D01*
X69979861Y-66717275D01*
X69875801Y-66742632D01*
X69774954Y-66760413D01*
X69667274Y-66771896D01*
X69542716Y-66778360D01*
X69391236Y-66781086D01*
X69202787Y-66781353D01*
X69120200Y-66781079D01*
X68836886Y-66776987D01*
X68571290Y-66766174D01*
X68316532Y-66747403D01*
X68065733Y-66719439D01*
X67812011Y-66681043D01*
X67548488Y-66630980D01*
X67268283Y-66568013D01*
X66964517Y-66490904D01*
X66630309Y-66398417D01*
X66258780Y-66289315D01*
X66074765Y-66233610D01*
X65578827Y-66087751D01*
X65139851Y-65969594D01*
X67370671Y-65969594D01*
X67389132Y-66014160D01*
X67411265Y-66030612D01*
X67474528Y-66039080D01*
X67547073Y-66005448D01*
X67622229Y-65935843D01*
X67693323Y-65836396D01*
X67751894Y-65717708D01*
X67794447Y-65641069D01*
X67839900Y-65615005D01*
X67840573Y-65615000D01*
X67863724Y-65622211D01*
X67882813Y-65649512D01*
X67900997Y-65705400D01*
X67921429Y-65798373D01*
X67934880Y-65869000D01*
X67958658Y-65981219D01*
X67984620Y-66077804D01*
X68008940Y-66145586D01*
X68021588Y-66167450D01*
X68082348Y-66204885D01*
X68152212Y-66207385D01*
X68200720Y-66181420D01*
X68219924Y-66138196D01*
X68230491Y-66067728D01*
X68231200Y-66044153D01*
X68223310Y-65972648D01*
X68202619Y-65876502D01*
X68173596Y-65770627D01*
X68142943Y-65676772D01*
X68945904Y-65676772D01*
X68950040Y-65755727D01*
X68980206Y-65943608D01*
X69035383Y-66088751D01*
X69115105Y-66190513D01*
X69218906Y-66248256D01*
X69318998Y-66262325D01*
X69405999Y-66255214D01*
X69481776Y-66237838D01*
X69500778Y-66230035D01*
X69555276Y-66184705D01*
X69590234Y-66123081D01*
X69598412Y-66062827D01*
X69582975Y-66029515D01*
X69546444Y-66012818D01*
X69485201Y-66021147D01*
X69461181Y-66028049D01*
X69359686Y-66042654D01*
X69279664Y-66014060D01*
X69214223Y-65939105D01*
X69196035Y-65906386D01*
X69147099Y-65776458D01*
X69126636Y-65643104D01*
X69133827Y-65517878D01*
X69167854Y-65412331D01*
X69227897Y-65338019D01*
X69236766Y-65331779D01*
X69284801Y-65306376D01*
X69324225Y-65311421D01*
X69363552Y-65334608D01*
X69432508Y-65364625D01*
X69478662Y-65356637D01*
X69498863Y-65319484D01*
X69489964Y-65262005D01*
X69467954Y-65225117D01*
X69708866Y-65225117D01*
X69717020Y-65326725D01*
X69726924Y-65406293D01*
X69745052Y-65545669D01*
X69764132Y-65699406D01*
X69780464Y-65837573D01*
X69782582Y-65856300D01*
X69795107Y-65959181D01*
X69807327Y-66044699D01*
X69817150Y-66098646D01*
X69819539Y-66107180D01*
X69851365Y-66125299D01*
X69921583Y-66129722D01*
X70019947Y-66121405D01*
X70136206Y-66101301D01*
X70260112Y-66070366D01*
X70280855Y-66064203D01*
X70385313Y-66023472D01*
X70447583Y-65979097D01*
X70464561Y-65934074D01*
X70447362Y-65903302D01*
X70415513Y-65887014D01*
X70360948Y-65888146D01*
X70287245Y-65902603D01*
X70193475Y-65920408D01*
X70105019Y-65931109D01*
X70073724Y-65932500D01*
X70021427Y-65926168D01*
X69987662Y-65901374D01*
X69968554Y-65849422D01*
X69960231Y-65761615D01*
X69958746Y-65674384D01*
X69953250Y-65571922D01*
X69938969Y-65450541D01*
X69918583Y-65325534D01*
X69894770Y-65212192D01*
X69870208Y-65125808D01*
X69857313Y-65095260D01*
X69814929Y-65050276D01*
X69768281Y-65053280D01*
X69726898Y-65103366D01*
X69724793Y-65107843D01*
X69711483Y-65155791D01*
X69708866Y-65225117D01*
X69467954Y-65225117D01*
X69448815Y-65193040D01*
X69423821Y-65165413D01*
X69366584Y-65115914D01*
X69315566Y-65098347D01*
X69252371Y-65102987D01*
X69145767Y-65144313D01*
X69059284Y-65227826D01*
X68995456Y-65348054D01*
X68956818Y-65499527D01*
X68945904Y-65676772D01*
X68142943Y-65676772D01*
X68140711Y-65669937D01*
X68108431Y-65589346D01*
X68081270Y-65543810D01*
X68084053Y-65510959D01*
X68126642Y-65446794D01*
X68204200Y-65356616D01*
X68300235Y-65241656D01*
X68354137Y-65151649D01*
X68366798Y-65084543D01*
X68341769Y-65040403D01*
X68295860Y-65034739D01*
X68221895Y-65068581D01*
X68122063Y-65140619D01*
X68009947Y-65238857D01*
X67902994Y-65338655D01*
X67918169Y-65107631D01*
X67924136Y-65004014D01*
X70375578Y-65004014D01*
X70376277Y-65053685D01*
X70390108Y-65139085D01*
X70413825Y-65247854D01*
X70444181Y-65367634D01*
X70477929Y-65486066D01*
X70511822Y-65590791D01*
X70542613Y-65669451D01*
X70558097Y-65698762D01*
X70636207Y-65780662D01*
X70736690Y-65833304D01*
X70845467Y-65853358D01*
X70948459Y-65837496D01*
X71007364Y-65805001D01*
X71072371Y-65723608D01*
X71107720Y-65604298D01*
X71113596Y-65445828D01*
X71090255Y-65247372D01*
X71053171Y-65074251D01*
X71010191Y-64948605D01*
X70961788Y-64871536D01*
X70917588Y-64845200D01*
X70870265Y-64856965D01*
X70841904Y-64906429D01*
X70836396Y-64982777D01*
X70846899Y-65041639D01*
X70869391Y-65143557D01*
X70888452Y-65263213D01*
X70902357Y-65384759D01*
X70909381Y-65492348D01*
X70907799Y-65570132D01*
X70905838Y-65583156D01*
X70879454Y-65644775D01*
X70843874Y-65680386D01*
X70786852Y-65687168D01*
X70733238Y-65644349D01*
X70682806Y-65551590D01*
X70635328Y-65408555D01*
X70619539Y-65347258D01*
X70580023Y-65191677D01*
X70546884Y-65079802D01*
X70517387Y-65005364D01*
X70488797Y-64962093D01*
X70458382Y-64943718D01*
X70442779Y-64941900D01*
X70394270Y-64964305D01*
X70375578Y-65004014D01*
X67924136Y-65004014D01*
X67924543Y-64996954D01*
X67924742Y-64923924D01*
X67916757Y-64875556D01*
X67898578Y-64838868D01*
X67871234Y-64804398D01*
X67825382Y-64762453D01*
X71191317Y-64762453D01*
X71191831Y-64795600D01*
X71204771Y-64868528D01*
X71228179Y-64972296D01*
X71260099Y-65097965D01*
X71283507Y-65183675D01*
X71393500Y-65576092D01*
X71471495Y-65576496D01*
X71537108Y-65565114D01*
X71623922Y-65535356D01*
X71686098Y-65507050D01*
X71769733Y-65457168D01*
X71840471Y-65402672D01*
X71871707Y-65369632D01*
X71906304Y-65281565D01*
X71897535Y-65181750D01*
X71847552Y-65080995D01*
X71804074Y-65029894D01*
X71754291Y-64974287D01*
X71736580Y-64930639D01*
X71743574Y-64878884D01*
X71745760Y-64871049D01*
X71757112Y-64766873D01*
X71732865Y-64677852D01*
X71678742Y-64614351D01*
X71600466Y-64586734D01*
X71588535Y-64586320D01*
X71531984Y-64597065D01*
X71450912Y-64624730D01*
X71360708Y-64662492D01*
X71276756Y-64703529D01*
X71214443Y-64741018D01*
X71191317Y-64762453D01*
X67825382Y-64762453D01*
X67817512Y-64755254D01*
X67769346Y-64745857D01*
X67755226Y-64749296D01*
X67727077Y-64763050D01*
X67705788Y-64789187D01*
X67689116Y-64835798D01*
X67674821Y-64910975D01*
X67660663Y-65022807D01*
X67649109Y-65132400D01*
X67597369Y-65410535D01*
X67501813Y-65674723D01*
X67434288Y-65805500D01*
X67385476Y-65902454D01*
X67370671Y-65969594D01*
X65139851Y-65969594D01*
X65125704Y-65965786D01*
X64715685Y-65867770D01*
X64349058Y-65793761D01*
X64026111Y-65743813D01*
X63747131Y-65717983D01*
X63512407Y-65716328D01*
X63444571Y-65721109D01*
X63281056Y-65736379D01*
X63203291Y-65929689D01*
X63167087Y-66023364D01*
X63139902Y-66100710D01*
X63126373Y-66148305D01*
X63125663Y-66154409D01*
X63146924Y-66184302D01*
X63198878Y-66216494D01*
X63208350Y-66220703D01*
X63317620Y-66288643D01*
X63413743Y-66386999D01*
X63472256Y-66484134D01*
X63506102Y-66619372D01*
X63502209Y-66761287D01*
X63464501Y-66897650D01*
X63396899Y-67016233D01*
X63303327Y-67104808D01*
X63266374Y-67125876D01*
X63197190Y-67156688D01*
X63145493Y-67174947D01*
X63133218Y-67177100D01*
X63125956Y-67196783D01*
X63142814Y-67248094D01*
X63153938Y-67271370D01*
X63195166Y-67398616D01*
X63200788Y-67536205D01*
X63174201Y-67671923D01*
X63118797Y-67793561D01*
X63037973Y-67888905D01*
X62970138Y-67932529D01*
X62909994Y-67964482D01*
X62875558Y-67991021D01*
X62872455Y-67997278D01*
X62885850Y-68029153D01*
X62919703Y-68081929D01*
X62927781Y-68093075D01*
X62967479Y-68170481D01*
X62989417Y-68277223D01*
X62994096Y-68331087D01*
X62996764Y-68431078D01*
X62985994Y-68505607D01*
X62956725Y-68579319D01*
X62934308Y-68622217D01*
X62851220Y-68736236D01*
X62750943Y-68810956D01*
X62640866Y-68842406D01*
X62544189Y-68831876D01*
X62431899Y-68777370D01*
X62358172Y-68695349D01*
X62327474Y-68591138D01*
X62326854Y-68572668D01*
X62326264Y-68509536D01*
X62324793Y-68474816D01*
X62324233Y-68472500D01*
X62309392Y-68491293D01*
X62273597Y-68540016D01*
X62235331Y-68593150D01*
X62097009Y-68768529D01*
X61957934Y-68905464D01*
X61806454Y-69015128D01*
X61776748Y-69032965D01*
X61706412Y-69072627D01*
X61645300Y-69101025D01*
X61583879Y-69119158D01*
X61512616Y-69128027D01*
X61421978Y-69128631D01*
X61302434Y-69121971D01*
X61144450Y-69109046D01*
X61093800Y-69104596D01*
X60747395Y-69061419D01*
X60401608Y-68994530D01*
X60066880Y-68906931D01*
X59753655Y-68801623D01*
X59472374Y-68681607D01*
X59295748Y-68587920D01*
X59213754Y-68538193D01*
X59166568Y-68501480D01*
X59144609Y-68466098D01*
X59138293Y-68420362D01*
X59138000Y-68395596D01*
X59138000Y-68295725D01*
X59329269Y-68420587D01*
X59548699Y-68543905D01*
X59810242Y-68656606D01*
X60105838Y-68756052D01*
X60427431Y-68839606D01*
X60766963Y-68904629D01*
X60843059Y-68916156D01*
X60961833Y-68932393D01*
X61068176Y-68945312D01*
X61148103Y-68953303D01*
X61180902Y-68955100D01*
X61248785Y-68955100D01*
X61181571Y-68866977D01*
X61095830Y-68715999D01*
X61036701Y-68524791D01*
X61004226Y-68296418D01*
X60998444Y-68033946D01*
X61002188Y-67981486D01*
X61153835Y-67981486D01*
X61156032Y-68224329D01*
X61181099Y-68438474D01*
X61228431Y-68620005D01*
X61297425Y-68765006D01*
X61387476Y-68869560D01*
X61449718Y-68910430D01*
X61514093Y-68935959D01*
X61573969Y-68938840D01*
X61645746Y-68917150D01*
X61728800Y-68877736D01*
X61813437Y-68820170D01*
X61913004Y-68729839D01*
X62016416Y-68617614D01*
X62095150Y-68518451D01*
X62164338Y-68424703D01*
X62067219Y-68408884D01*
X61953252Y-68383608D01*
X61884859Y-68351076D01*
X61857016Y-68308589D01*
X61855800Y-68295317D01*
X61874523Y-68243131D01*
X61877482Y-68238892D01*
X62046540Y-68238892D01*
X62211520Y-68271296D01*
X62344860Y-68309361D01*
X62438855Y-68361879D01*
X62489980Y-68425802D01*
X62494711Y-68498081D01*
X62490160Y-68512281D01*
X62483945Y-68582337D01*
X62515311Y-68636319D01*
X62572203Y-68668963D01*
X62642566Y-68675008D01*
X62714346Y-68649191D01*
X62745814Y-68623885D01*
X62816103Y-68519780D01*
X62844739Y-68397012D01*
X62830151Y-68268131D01*
X62799795Y-68192703D01*
X62735762Y-68112692D01*
X62645842Y-68049963D01*
X62550010Y-68017339D01*
X62523502Y-68015339D01*
X62449044Y-68027737D01*
X62350660Y-68059921D01*
X62247191Y-68104261D01*
X62157477Y-68153127D01*
X62122620Y-68177708D01*
X62046540Y-68238892D01*
X61877482Y-68238892D01*
X61923822Y-68172496D01*
X61993387Y-68095118D01*
X62072911Y-68022702D01*
X62136921Y-67976113D01*
X62210388Y-67911860D01*
X62258836Y-67829996D01*
X62450137Y-67829996D01*
X62455105Y-67860804D01*
X62460970Y-67862900D01*
X62489968Y-67842559D01*
X62500782Y-67822722D01*
X62513365Y-67763809D01*
X62515427Y-67727472D01*
X62511153Y-67692290D01*
X62496876Y-67704058D01*
X62493100Y-67710500D01*
X62463912Y-67774631D01*
X62450137Y-67829996D01*
X62258836Y-67829996D01*
X62266369Y-67817268D01*
X62280645Y-67782863D01*
X62312893Y-67700181D01*
X62339604Y-67632160D01*
X62343800Y-67621600D01*
X62516200Y-67621600D01*
X62528900Y-67634300D01*
X62541600Y-67621600D01*
X62528900Y-67608900D01*
X62516200Y-67621600D01*
X62343800Y-67621600D01*
X62350755Y-67604099D01*
X62352504Y-67574183D01*
X62320496Y-67555693D01*
X62270673Y-67545332D01*
X62152894Y-67518729D01*
X62083101Y-67482747D01*
X62060339Y-67433667D01*
X62080995Y-67375292D01*
X62249740Y-67375292D01*
X62414720Y-67407696D01*
X62548060Y-67445761D01*
X62642055Y-67498279D01*
X62693180Y-67562202D01*
X62697911Y-67634481D01*
X62693360Y-67648681D01*
X62687145Y-67718737D01*
X62718511Y-67772719D01*
X62775403Y-67805363D01*
X62845766Y-67811408D01*
X62917546Y-67785591D01*
X62949014Y-67760285D01*
X63019303Y-67656180D01*
X63047939Y-67533412D01*
X63033351Y-67404531D01*
X63002995Y-67329103D01*
X62938962Y-67249092D01*
X62849042Y-67186363D01*
X62753210Y-67153739D01*
X62726702Y-67151739D01*
X62652244Y-67164137D01*
X62553860Y-67196321D01*
X62450391Y-67240661D01*
X62360677Y-67289527D01*
X62325820Y-67314108D01*
X62249740Y-67375292D01*
X62080995Y-67375292D01*
X62083656Y-67367772D01*
X62152099Y-67281344D01*
X62192350Y-67239741D01*
X62335495Y-67121701D01*
X62457736Y-67060310D01*
X62536800Y-67028635D01*
X62584256Y-66993486D01*
X62603553Y-66961345D01*
X62786358Y-66961345D01*
X62790390Y-66994009D01*
X62809097Y-66999300D01*
X62842395Y-66986139D01*
X62846400Y-66975399D01*
X62830862Y-66941604D01*
X62801002Y-66941746D01*
X62786358Y-66961345D01*
X62603553Y-66961345D01*
X62617521Y-66938079D01*
X62638788Y-66885854D01*
X62687803Y-66758000D01*
X62582951Y-66736845D01*
X62471961Y-66710270D01*
X62403795Y-66682104D01*
X62370559Y-66647956D01*
X62363800Y-66614979D01*
X62383008Y-66562492D01*
X62554540Y-66562492D01*
X62719520Y-66594896D01*
X62852860Y-66632961D01*
X62946855Y-66685479D01*
X62997980Y-66749402D01*
X63002711Y-66821681D01*
X62998160Y-66835881D01*
X62991945Y-66905937D01*
X63023311Y-66959919D01*
X63080203Y-66992563D01*
X63150566Y-66998608D01*
X63222346Y-66972791D01*
X63253814Y-66947485D01*
X63324103Y-66843380D01*
X63352739Y-66720612D01*
X63338151Y-66591731D01*
X63307795Y-66516303D01*
X63243762Y-66436292D01*
X63153842Y-66373563D01*
X63058010Y-66340939D01*
X63031502Y-66338939D01*
X62957044Y-66351337D01*
X62858660Y-66383521D01*
X62755191Y-66427861D01*
X62665477Y-66476727D01*
X62630620Y-66501308D01*
X62554540Y-66562492D01*
X62383008Y-66562492D01*
X62384012Y-66559749D01*
X62437624Y-66488807D01*
X62514097Y-66411937D01*
X62602894Y-66338925D01*
X62693477Y-66279556D01*
X62757500Y-66249408D01*
X62855003Y-66210941D01*
X62912885Y-66178374D01*
X62940561Y-66144342D01*
X62947447Y-66101480D01*
X62947442Y-66100839D01*
X62931221Y-66022255D01*
X62889828Y-65923840D01*
X62832224Y-65823390D01*
X62767371Y-65738698D01*
X62762412Y-65733424D01*
X62630433Y-65626646D01*
X62480702Y-65558143D01*
X62323824Y-65530754D01*
X62170405Y-65547316D01*
X62123640Y-65562414D01*
X62000364Y-65634162D01*
X61877769Y-65752955D01*
X61757670Y-65915050D01*
X61641880Y-66116705D01*
X61532214Y-66354176D01*
X61430487Y-66623722D01*
X61338513Y-66921599D01*
X61258106Y-67244064D01*
X61220470Y-67425371D01*
X61175113Y-67713861D01*
X61153835Y-67981486D01*
X61002188Y-67981486D01*
X61019393Y-67740439D01*
X61067115Y-67418962D01*
X61141647Y-67072582D01*
X61157544Y-67009265D01*
X61264917Y-66632623D01*
X61381283Y-66305659D01*
X61506803Y-66028025D01*
X61641636Y-65799373D01*
X61785939Y-65619355D01*
X61797526Y-65607421D01*
X61864504Y-65535216D01*
X61909878Y-65477805D01*
X61927498Y-65443411D01*
X61924526Y-65437563D01*
X61637355Y-65343388D01*
X61374466Y-65254094D01*
X61143706Y-65172409D01*
X60952925Y-65101061D01*
X60928700Y-65091599D01*
X60727312Y-65007266D01*
X60498746Y-64902932D01*
X60256078Y-64785225D01*
X60012381Y-64660776D01*
X59780730Y-64536213D01*
X59574200Y-64418166D01*
X59449150Y-64341411D01*
X59328086Y-64263752D01*
X59243372Y-64207203D01*
X59188520Y-64165574D01*
X59157039Y-64132673D01*
X59142440Y-64102308D01*
X59138234Y-64068287D01*
X59138000Y-64044533D01*
X59138000Y-63946311D01*
X59207850Y-63993293D01*
X59477378Y-64171305D01*
X59718854Y-64323150D01*
X59943297Y-64455125D01*
X60161726Y-64573527D01*
X60385163Y-64684654D01*
X60558959Y-64765339D01*
X60808126Y-64873564D01*
X61068339Y-64978396D01*
X61331186Y-65076991D01*
X61588255Y-65166505D01*
X61831135Y-65244093D01*
X62051414Y-65306912D01*
X62240680Y-65352116D01*
X62353898Y-65372284D01*
X62566650Y-65423514D01*
X62746004Y-65512631D01*
X62893283Y-65640439D01*
X62976668Y-65751244D01*
X63018463Y-65815246D01*
X63042723Y-65841157D01*
X63058897Y-65833926D01*
X63074632Y-65802543D01*
X63089565Y-65766898D01*
X63121434Y-65689223D01*
X63168177Y-65574600D01*
X63227727Y-65428111D01*
X63298021Y-65254839D01*
X63362786Y-65094946D01*
X64322233Y-65094946D01*
X64332581Y-65141132D01*
X64350080Y-65165420D01*
X64412984Y-65197756D01*
X64486290Y-65185377D01*
X64564499Y-65131815D01*
X64642115Y-65040602D01*
X64701902Y-64939319D01*
X64743249Y-64863150D01*
X64778060Y-64809209D01*
X64798250Y-64789500D01*
X64845417Y-64799903D01*
X64914164Y-64826345D01*
X64989993Y-64861677D01*
X65058405Y-64898747D01*
X65104900Y-64930408D01*
X65116652Y-64946513D01*
X65111125Y-64986254D01*
X65099227Y-65061377D01*
X65083296Y-65157217D01*
X65079489Y-65179583D01*
X65063304Y-65280168D01*
X65057339Y-65342853D01*
X65062139Y-65379611D01*
X65078250Y-65402412D01*
X65090068Y-65411846D01*
X65157793Y-65433680D01*
X65182734Y-65424403D01*
X65602815Y-65424403D01*
X65610598Y-65469906D01*
X65645196Y-65486499D01*
X65678047Y-65488000D01*
X65731240Y-65478664D01*
X65779924Y-65444084D01*
X65837881Y-65374398D01*
X65839076Y-65372785D01*
X65889561Y-65307607D01*
X65928024Y-65274782D01*
X65972179Y-65265472D01*
X66039739Y-65270841D01*
X66042729Y-65271185D01*
X66108806Y-65281799D01*
X66145961Y-65301565D01*
X66157640Y-65340550D01*
X66147292Y-65408825D01*
X66122136Y-65503133D01*
X66105626Y-65581418D01*
X66102007Y-65644386D01*
X66105282Y-65661883D01*
X66141380Y-65697509D01*
X66199631Y-65699050D01*
X66266333Y-65668406D01*
X66305948Y-65634050D01*
X66352074Y-65559624D01*
X66394429Y-65444816D01*
X66422557Y-65335600D01*
X66663907Y-65335600D01*
X66665591Y-65524056D01*
X66700704Y-65679681D01*
X66768215Y-65799975D01*
X66867091Y-65882437D01*
X66895545Y-65896396D01*
X66996855Y-65927509D01*
X67079620Y-65919487D01*
X67149657Y-65878768D01*
X67203685Y-65817146D01*
X67208296Y-65761009D01*
X67164862Y-65716567D01*
X67109353Y-65696376D01*
X67019362Y-65664266D01*
X66962610Y-65612750D01*
X66933154Y-65532354D01*
X66925054Y-65413606D01*
X66925144Y-65402711D01*
X66943407Y-65236736D01*
X66990179Y-65072827D01*
X67059290Y-64929414D01*
X67105131Y-64865303D01*
X67168969Y-64806192D01*
X67227494Y-64794430D01*
X67291030Y-64829037D01*
X67309954Y-64845800D01*
X67371294Y-64881707D01*
X67421942Y-64870185D01*
X67455619Y-64814414D01*
X67464483Y-64767567D01*
X67458997Y-64699588D01*
X67420936Y-64637351D01*
X67396587Y-64611379D01*
X67302389Y-64550024D01*
X67190952Y-64535833D01*
X67064404Y-64569005D01*
X67043736Y-64578321D01*
X66948194Y-64648009D01*
X66858647Y-64758455D01*
X66780128Y-64899626D01*
X66717667Y-65061491D01*
X66676298Y-65234016D01*
X66663907Y-65335600D01*
X66422557Y-65335600D01*
X66431731Y-65299981D01*
X66462700Y-65135475D01*
X66486056Y-64961654D01*
X66500518Y-64788874D01*
X66504805Y-64627492D01*
X66497636Y-64487863D01*
X66477731Y-64380344D01*
X66465116Y-64346935D01*
X66419065Y-64269592D01*
X66369624Y-64237444D01*
X66305243Y-64245548D01*
X66266447Y-64261897D01*
X66236356Y-64281310D01*
X66203099Y-64314836D01*
X66163150Y-64367869D01*
X66112979Y-64445806D01*
X66049058Y-64554043D01*
X65967859Y-64697976D01*
X65894621Y-64830555D01*
X65812310Y-64982951D01*
X65738971Y-65123644D01*
X65678070Y-65245576D01*
X65633075Y-65341692D01*
X65607452Y-65404939D01*
X65602815Y-65424403D01*
X65182734Y-65424403D01*
X65231323Y-65406330D01*
X65295016Y-65346619D01*
X65330883Y-65287024D01*
X65373687Y-65189429D01*
X65420627Y-65063431D01*
X65468904Y-64918631D01*
X65515715Y-64764625D01*
X65558263Y-64611012D01*
X65593746Y-64467391D01*
X65619365Y-64343360D01*
X65632318Y-64248518D01*
X65630760Y-64195749D01*
X65593429Y-64137093D01*
X65528891Y-64110194D01*
X65453708Y-64121015D01*
X65440637Y-64127260D01*
X65406838Y-64161543D01*
X65359811Y-64230107D01*
X65307363Y-64320993D01*
X65281719Y-64370720D01*
X65233840Y-64463789D01*
X65193000Y-64536662D01*
X65164986Y-64579330D01*
X65157034Y-64586300D01*
X65125272Y-64577262D01*
X65062976Y-64554066D01*
X65013616Y-64534120D01*
X64888058Y-64481940D01*
X64898787Y-64333612D01*
X64896952Y-64194839D01*
X64872384Y-64078767D01*
X64828576Y-63992131D01*
X64769021Y-63941663D01*
X64697212Y-63934096D01*
X64692138Y-63935266D01*
X64658179Y-63949272D01*
X64630094Y-63977331D01*
X64604563Y-64027119D01*
X64578264Y-64106314D01*
X64547874Y-64222592D01*
X64523697Y-64324522D01*
X64488546Y-64464670D01*
X64445034Y-64622347D01*
X64401611Y-64767145D01*
X64394538Y-64789242D01*
X64352246Y-64927170D01*
X64328466Y-65026348D01*
X64322233Y-65094946D01*
X63362786Y-65094946D01*
X63376995Y-65059866D01*
X63462584Y-64848274D01*
X63527384Y-64687900D01*
X63953101Y-63633800D01*
X64066500Y-63577896D01*
X64197364Y-63522592D01*
X64340335Y-63481740D01*
X64504385Y-63453924D01*
X64698486Y-63437727D01*
X64931608Y-63431733D01*
X64992700Y-63431651D01*
X65184018Y-63433825D01*
G37*
D14*
%TO.C,C1*%
X69892164Y-43140000D02*
X70107836Y-43140000D01*
X69892164Y-43860000D02*
X70107836Y-43860000D01*
%TO.C,C15*%
X62707836Y-57640000D02*
X62492164Y-57640000D01*
X62707836Y-58360000D02*
X62492164Y-58360000D01*
D15*
%TO.C,G\u002A\u002A\u002A*%
G36*
X67742096Y-31280756D02*
G01*
X67811486Y-31314498D01*
X67870784Y-31374143D01*
X67914999Y-31452113D01*
X67939140Y-31540833D01*
X67942133Y-31584457D01*
X67931732Y-31661397D01*
X67903858Y-31732125D01*
X67863501Y-31787176D01*
X67820220Y-31815641D01*
X67761733Y-31831299D01*
X67715996Y-31828281D01*
X67666607Y-31805148D01*
X67660811Y-31801658D01*
X67606203Y-31750184D01*
X67565645Y-31676098D01*
X67541399Y-31588540D01*
X67535727Y-31496646D01*
X67550892Y-31409555D01*
X67558580Y-31388697D01*
X67593321Y-31338721D01*
X67645148Y-31300137D01*
X67702385Y-31279816D01*
X67742096Y-31280756D01*
G37*
G36*
X67863970Y-30920425D02*
G01*
X67961389Y-30950755D01*
X68049175Y-31006645D01*
X68119282Y-31072989D01*
X68213481Y-31195822D01*
X68276111Y-31329843D01*
X68307756Y-31476701D01*
X68310655Y-31614131D01*
X68288537Y-31763957D01*
X68241081Y-31894462D01*
X68169470Y-32003664D01*
X68074887Y-32089583D01*
X68001400Y-32132125D01*
X67892323Y-32166460D01*
X67776482Y-32172555D01*
X67664172Y-32150500D01*
X67611933Y-32128629D01*
X67498515Y-32053279D01*
X67405061Y-31955898D01*
X67332491Y-31841505D01*
X67281729Y-31715120D01*
X67253693Y-31581763D01*
X67252585Y-31547593D01*
X67453585Y-31547593D01*
X67475472Y-31657680D01*
X67486978Y-31691580D01*
X67536968Y-31792092D01*
X67601776Y-31872421D01*
X67676928Y-31930224D01*
X67757947Y-31963152D01*
X67840359Y-31968859D01*
X67919690Y-31945001D01*
X67943459Y-31930897D01*
X68022866Y-31857718D01*
X68076975Y-31763634D01*
X68104624Y-31651494D01*
X68105522Y-31532922D01*
X68079946Y-31401131D01*
X68030255Y-31289085D01*
X67958081Y-31199527D01*
X67870841Y-31138116D01*
X67784755Y-31109373D01*
X67703293Y-31110777D01*
X67628989Y-31138672D01*
X67564380Y-31189404D01*
X67512000Y-31259318D01*
X67474384Y-31344757D01*
X67454067Y-31442068D01*
X67453585Y-31547593D01*
X67252585Y-31547593D01*
X67249307Y-31446453D01*
X67269491Y-31314211D01*
X67315167Y-31190057D01*
X67387255Y-31079010D01*
X67413851Y-31049332D01*
X67488664Y-30981960D01*
X67563482Y-30939525D01*
X67649154Y-30917542D01*
X67747400Y-30911526D01*
X67863970Y-30920425D01*
G37*
G36*
X68360628Y-29704855D02*
G01*
X68573798Y-29767416D01*
X68776158Y-29858443D01*
X68965831Y-29975611D01*
X69140939Y-30116591D01*
X69299606Y-30279055D01*
X69439954Y-30460676D01*
X69560107Y-30659125D01*
X69658186Y-30872075D01*
X69732316Y-31097198D01*
X69780619Y-31332166D01*
X69801218Y-31574651D01*
X69799015Y-31732333D01*
X69791278Y-31829174D01*
X69778841Y-31931465D01*
X69763715Y-32024123D01*
X69754081Y-32069251D01*
X69739017Y-32133494D01*
X69728393Y-32183479D01*
X69723799Y-32211496D01*
X69724029Y-32214843D01*
X69740202Y-32223466D01*
X69779326Y-32243485D01*
X69834056Y-32271151D01*
X69855600Y-32281977D01*
X70036862Y-32384740D01*
X70214492Y-32509966D01*
X70391202Y-32660033D01*
X70569703Y-32837316D01*
X70752705Y-33044190D01*
X70822603Y-33129333D01*
X70971140Y-33324656D01*
X71123581Y-33545610D01*
X71275632Y-33784970D01*
X71423000Y-34035507D01*
X71561391Y-34289994D01*
X71686513Y-34541204D01*
X71768176Y-34721067D01*
X71801913Y-34798738D01*
X71834022Y-34872325D01*
X71860067Y-34931677D01*
X71871785Y-34958133D01*
X71901120Y-35028074D01*
X71938107Y-35122649D01*
X71980012Y-35234259D01*
X72024098Y-35355306D01*
X72067631Y-35478189D01*
X72107874Y-35595309D01*
X72142093Y-35699067D01*
X72164356Y-35770933D01*
X72254692Y-36099545D01*
X72332760Y-36430744D01*
X72396096Y-36753384D01*
X72432252Y-36981666D01*
X72441413Y-37069299D01*
X72448185Y-37180018D01*
X72452614Y-37307330D01*
X72454744Y-37444745D01*
X72454620Y-37585770D01*
X72452287Y-37723914D01*
X72447790Y-37852686D01*
X72441175Y-37965593D01*
X72432485Y-38056144D01*
X72424475Y-38106235D01*
X72396184Y-38240204D01*
X72528842Y-38378383D01*
X72655498Y-38527991D01*
X72749505Y-38678723D01*
X72809606Y-38827400D01*
X72817342Y-38860377D01*
X72830133Y-38922990D01*
X72847312Y-39011497D01*
X72868210Y-39122152D01*
X72892160Y-39251214D01*
X72918493Y-39394939D01*
X72946543Y-39549584D01*
X72975642Y-39711404D01*
X73005120Y-39876657D01*
X73034312Y-40041600D01*
X73062548Y-40202489D01*
X73089161Y-40355580D01*
X73113483Y-40497131D01*
X73134847Y-40623398D01*
X73152584Y-40730638D01*
X73166027Y-40815107D01*
X73174363Y-40871977D01*
X73184522Y-40979168D01*
X73181776Y-41059541D01*
X73165365Y-41117891D01*
X73134528Y-41159015D01*
X73127976Y-41164497D01*
X73069516Y-41193391D01*
X73005325Y-41190967D01*
X72932498Y-41157035D01*
X72923539Y-41151172D01*
X72896278Y-41129213D01*
X72847625Y-41086112D01*
X72780311Y-41024491D01*
X72697070Y-40946975D01*
X72600636Y-40856188D01*
X72493740Y-40754754D01*
X72379116Y-40645298D01*
X72259497Y-40530442D01*
X72137616Y-40412812D01*
X72016207Y-40295032D01*
X71898001Y-40179725D01*
X71785733Y-40069515D01*
X71682135Y-39967026D01*
X71589940Y-39874884D01*
X71513290Y-39797154D01*
X71410871Y-39689817D01*
X71330200Y-39597825D01*
X71267520Y-39514238D01*
X71219078Y-39432116D01*
X71181116Y-39344519D01*
X71149882Y-39244506D01*
X71121618Y-39125139D01*
X71104636Y-39041909D01*
X71082172Y-38934971D01*
X71079781Y-38925258D01*
X71299747Y-38925258D01*
X71300318Y-38951910D01*
X71304148Y-38975567D01*
X71335575Y-39126855D01*
X71376851Y-39255342D01*
X71432654Y-39370214D01*
X71507660Y-39480658D01*
X71606545Y-39595860D01*
X71635455Y-39626387D01*
X71675822Y-39667478D01*
X71734270Y-39725742D01*
X71808126Y-39798599D01*
X71894717Y-39883471D01*
X71991368Y-39977778D01*
X72095407Y-40078940D01*
X72204160Y-40184379D01*
X72314953Y-40291515D01*
X72425113Y-40397769D01*
X72531966Y-40500561D01*
X72632839Y-40597312D01*
X72725058Y-40685444D01*
X72805950Y-40762376D01*
X72872841Y-40825529D01*
X72923058Y-40872324D01*
X72953926Y-40900182D01*
X72962937Y-40907076D01*
X72962605Y-40889144D01*
X72957336Y-40845850D01*
X72948162Y-40785168D01*
X72943628Y-40757800D01*
X72905109Y-40532159D01*
X72866735Y-40310007D01*
X72828999Y-40094039D01*
X72792394Y-39886954D01*
X72757413Y-39691448D01*
X72724550Y-39510220D01*
X72694297Y-39345965D01*
X72667148Y-39201382D01*
X72643596Y-39079168D01*
X72624133Y-38982020D01*
X72609253Y-38912635D01*
X72599449Y-38873711D01*
X72598839Y-38871812D01*
X72531686Y-38723009D01*
X72433967Y-38588478D01*
X72388587Y-38540826D01*
X72346660Y-38501160D01*
X72321928Y-38483178D01*
X72308315Y-38483961D01*
X72300478Y-38498493D01*
X72285972Y-38527589D01*
X72257943Y-38575548D01*
X72221826Y-38633166D01*
X72212623Y-38647310D01*
X72130431Y-38750985D01*
X72032407Y-38839415D01*
X71926779Y-38906035D01*
X71849031Y-38937294D01*
X71765283Y-38953712D01*
X71663330Y-38961338D01*
X71556877Y-38960161D01*
X71459632Y-38950171D01*
X71403457Y-38937650D01*
X71344942Y-38920562D01*
X71312496Y-38915620D01*
X71299747Y-38925258D01*
X71079781Y-38925258D01*
X71061663Y-38851660D01*
X71044000Y-38795199D01*
X71030069Y-38768812D01*
X71029196Y-38768133D01*
X71003381Y-38750054D01*
X70959554Y-38718863D01*
X70907153Y-38681277D01*
X70906625Y-38680898D01*
X70808975Y-38610595D01*
X70797860Y-38855198D01*
X70780388Y-39106142D01*
X70752128Y-39325749D01*
X70712932Y-39514832D01*
X70662654Y-39674207D01*
X70640781Y-39726772D01*
X70597831Y-39822478D01*
X70743182Y-40125411D01*
X70788097Y-40221232D01*
X70827375Y-40309252D01*
X70858721Y-40383983D01*
X70879844Y-40439934D01*
X70888449Y-40471619D01*
X70888533Y-40473329D01*
X70878796Y-40517785D01*
X70861923Y-40544924D01*
X70819315Y-40567214D01*
X70767912Y-40568614D01*
X70723807Y-40549457D01*
X70716148Y-40541900D01*
X70701004Y-40517534D01*
X70674355Y-40467960D01*
X70639005Y-40398665D01*
X70597757Y-40315137D01*
X70556891Y-40230184D01*
X70514341Y-40141416D01*
X70476819Y-40064635D01*
X70446670Y-40004516D01*
X70426238Y-39965734D01*
X70417876Y-39952952D01*
X70415821Y-39970547D01*
X70412935Y-40016923D01*
X70409465Y-40087013D01*
X70405655Y-40175747D01*
X70401751Y-40278057D01*
X70400664Y-40308723D01*
X70396431Y-40426318D01*
X70392624Y-40514761D01*
X70388606Y-40578751D01*
X70383739Y-40622988D01*
X70377388Y-40652168D01*
X70368915Y-40670991D01*
X70357683Y-40684156D01*
X70348745Y-40691788D01*
X70307230Y-40718277D01*
X70271257Y-40719039D01*
X70228302Y-40693744D01*
X70221403Y-40688407D01*
X70176238Y-40652881D01*
X70186390Y-40269307D01*
X70189509Y-40146174D01*
X70191359Y-40053220D01*
X70191756Y-39986774D01*
X70190513Y-39943167D01*
X70187447Y-39918727D01*
X70182372Y-39909784D01*
X70175102Y-39912668D01*
X70168738Y-39919600D01*
X70149741Y-39944267D01*
X70114835Y-39991015D01*
X70067974Y-40054493D01*
X70013111Y-40129353D01*
X69970990Y-40187139D01*
X69912074Y-40266483D01*
X69857058Y-40337522D01*
X69810150Y-40395049D01*
X69775563Y-40433854D01*
X69760713Y-40447239D01*
X69709472Y-40464722D01*
X69660893Y-40455680D01*
X69623380Y-40425707D01*
X69605340Y-40380395D01*
X69607981Y-40345589D01*
X69620355Y-40321921D01*
X69650015Y-40275439D01*
X69693996Y-40210477D01*
X69749332Y-40131367D01*
X69813059Y-40042441D01*
X69852041Y-39988968D01*
X70086840Y-39668870D01*
X70038337Y-39528152D01*
X69979497Y-39326638D01*
X69931059Y-39094135D01*
X69893245Y-38831955D01*
X69866276Y-38541411D01*
X69862635Y-38486912D01*
X69851301Y-38307291D01*
X69773017Y-38289133D01*
X69719458Y-38275764D01*
X69676268Y-38263362D01*
X69665100Y-38259510D01*
X69642150Y-38258112D01*
X69635485Y-38283290D01*
X69635466Y-38285827D01*
X69631134Y-38331564D01*
X69619205Y-38402792D01*
X69601280Y-38492405D01*
X69578960Y-38593302D01*
X69553846Y-38698377D01*
X69527538Y-38800528D01*
X69501637Y-38892651D01*
X69490523Y-38929000D01*
X69425471Y-39113984D01*
X69356403Y-39270355D01*
X69284191Y-39396371D01*
X69209810Y-39490184D01*
X69127741Y-39574442D01*
X69186850Y-39848621D01*
X69206873Y-39944605D01*
X69223995Y-40032615D01*
X69236969Y-40105749D01*
X69244542Y-40157107D01*
X69245979Y-40175209D01*
X69232888Y-40230022D01*
X69199346Y-40267149D01*
X69154030Y-40282533D01*
X69105610Y-40272118D01*
X69079799Y-40252933D01*
X69061747Y-40220067D01*
X69040065Y-40154290D01*
X69014970Y-40056338D01*
X68993749Y-39960833D01*
X68967041Y-39835494D01*
X68946089Y-39739775D01*
X68929916Y-39670104D01*
X68917543Y-39622910D01*
X68907991Y-39594624D01*
X68900282Y-39581673D01*
X68893437Y-39580488D01*
X68890208Y-39583013D01*
X68880014Y-39603271D01*
X68861048Y-39649981D01*
X68835449Y-39717534D01*
X68805356Y-39800322D01*
X68781207Y-39868800D01*
X68748238Y-39960025D01*
X68716802Y-40040731D01*
X68689340Y-40105115D01*
X68668291Y-40147372D01*
X68658397Y-40160900D01*
X68608210Y-40181519D01*
X68558443Y-40176010D01*
X68518562Y-40148696D01*
X68498031Y-40103900D01*
X68497073Y-40087224D01*
X68503061Y-40054323D01*
X68518588Y-39996569D01*
X68541589Y-39920926D01*
X68570001Y-39834360D01*
X68584385Y-39792600D01*
X68614001Y-39707578D01*
X68639200Y-39634586D01*
X68658059Y-39579247D01*
X68668654Y-39547181D01*
X68670263Y-39541514D01*
X68660641Y-39546620D01*
X68631011Y-39570584D01*
X68580236Y-39614392D01*
X68507179Y-39679028D01*
X68410703Y-39765478D01*
X68384175Y-39789367D01*
X68316519Y-39849298D01*
X68267656Y-39889261D01*
X68232044Y-39912838D01*
X68204139Y-39923610D01*
X68178397Y-39925161D01*
X68174523Y-39924834D01*
X68122716Y-39906327D01*
X68090047Y-39868487D01*
X68081988Y-39820368D01*
X68092179Y-39788531D01*
X68110640Y-39765887D01*
X68150572Y-39724508D01*
X68208113Y-39668139D01*
X68279403Y-39600522D01*
X68360580Y-39525400D01*
X68409649Y-39480789D01*
X68513312Y-39386075D01*
X68592329Y-39311345D01*
X68648201Y-39255057D01*
X68682429Y-39215670D01*
X68696511Y-39191641D01*
X68696738Y-39185622D01*
X68691028Y-39156848D01*
X68683145Y-39103838D01*
X68674445Y-39036038D01*
X68670848Y-39005200D01*
X68655886Y-38794771D01*
X68655695Y-38729692D01*
X68860564Y-38729692D01*
X68861621Y-38817617D01*
X68863874Y-38863524D01*
X68869913Y-38943261D01*
X68875630Y-38994774D01*
X68882491Y-39023658D01*
X68891959Y-39035506D01*
X68905499Y-39035915D01*
X68908798Y-39035123D01*
X68957745Y-39037749D01*
X68998646Y-39071717D01*
X69029693Y-39135084D01*
X69040949Y-39177155D01*
X69057212Y-39252381D01*
X69068589Y-39299100D01*
X69077425Y-39321891D01*
X69086062Y-39325334D01*
X69096844Y-39314009D01*
X69105052Y-39302409D01*
X69123491Y-39271085D01*
X69151075Y-39218363D01*
X69182935Y-39153675D01*
X69195533Y-39127103D01*
X69252978Y-38989462D01*
X69305861Y-38830534D01*
X69355070Y-38647055D01*
X69401495Y-38435762D01*
X69439359Y-38232269D01*
X69450070Y-38170539D01*
X69441271Y-38165710D01*
X70062758Y-38165710D01*
X70063716Y-38284739D01*
X70066695Y-38407570D01*
X70071636Y-38526705D01*
X70078328Y-38632667D01*
X70092688Y-38777658D01*
X70113563Y-38933563D01*
X70139108Y-39089124D01*
X70167478Y-39233080D01*
X70196136Y-39351658D01*
X70231806Y-39481815D01*
X70322706Y-39474277D01*
X70376107Y-39471183D01*
X70407190Y-39476028D01*
X70427293Y-39492996D01*
X70443524Y-39518868D01*
X70465640Y-39549965D01*
X70482086Y-39560255D01*
X70484091Y-39559032D01*
X70492957Y-39537639D01*
X70506283Y-39492585D01*
X70521300Y-39433294D01*
X70522418Y-39428533D01*
X70543857Y-39329033D01*
X70560566Y-39231692D01*
X70573370Y-39128909D01*
X70583094Y-39013080D01*
X70590562Y-38876602D01*
X70595104Y-38758329D01*
X70605669Y-38443724D01*
X70428839Y-38241862D01*
X70359787Y-38162205D01*
X70291012Y-38081413D01*
X70229139Y-38007364D01*
X70180792Y-37947937D01*
X70168104Y-37931806D01*
X70084200Y-37823612D01*
X70072605Y-37906406D01*
X70067144Y-37969046D01*
X70063881Y-38057980D01*
X70062758Y-38165710D01*
X69441271Y-38165710D01*
X69324612Y-38101683D01*
X69248577Y-38056789D01*
X69163012Y-38001473D01*
X69084695Y-37946644D01*
X69074493Y-37939047D01*
X69018957Y-37897982D01*
X68973971Y-37866052D01*
X68946053Y-37847821D01*
X68940497Y-37845267D01*
X68930573Y-37861385D01*
X68920104Y-37906509D01*
X68909457Y-37975788D01*
X68898995Y-38064371D01*
X68889084Y-38167410D01*
X68880089Y-38280054D01*
X68872375Y-38397455D01*
X68866306Y-38514761D01*
X68862247Y-38627123D01*
X68860564Y-38729692D01*
X68655695Y-38729692D01*
X68655201Y-38561165D01*
X68668463Y-38311758D01*
X68695338Y-38053924D01*
X68721666Y-37874849D01*
X68754506Y-37675831D01*
X68583172Y-37476916D01*
X68365008Y-37199658D01*
X68164838Y-36896550D01*
X67984459Y-36571480D01*
X67825666Y-36228341D01*
X67690255Y-35871021D01*
X67580020Y-35503410D01*
X67496758Y-35129400D01*
X67494855Y-35119000D01*
X67456108Y-34875694D01*
X67431610Y-34644591D01*
X67420320Y-34411525D01*
X67420387Y-34392288D01*
X67624583Y-34392288D01*
X67643324Y-34695636D01*
X67681683Y-35000079D01*
X67739446Y-35299147D01*
X67746793Y-35330667D01*
X67836255Y-35660514D01*
X67944792Y-35978689D01*
X68070934Y-36283158D01*
X68213208Y-36571886D01*
X68370143Y-36842839D01*
X68540267Y-37093983D01*
X68722108Y-37323283D01*
X68914196Y-37528704D01*
X69115058Y-37708213D01*
X69323224Y-37859775D01*
X69537220Y-37981355D01*
X69720133Y-38058727D01*
X69776694Y-38078468D01*
X69820040Y-38092780D01*
X69840964Y-38098623D01*
X69841102Y-38098633D01*
X69847004Y-38083257D01*
X69853831Y-38041468D01*
X69860512Y-37980659D01*
X69863674Y-37942633D01*
X69870876Y-37856364D01*
X69879564Y-37767335D01*
X69888126Y-37691783D01*
X69890071Y-37676803D01*
X69904798Y-37567607D01*
X69781163Y-37363537D01*
X69717265Y-37257714D01*
X69666468Y-37172303D01*
X69624129Y-37098873D01*
X69585601Y-37028992D01*
X69546238Y-36954229D01*
X69501395Y-36866153D01*
X69446426Y-36756333D01*
X69444798Y-36753066D01*
X69261991Y-36364572D01*
X69099285Y-35973717D01*
X68957484Y-35583548D01*
X68837389Y-35197112D01*
X68739804Y-34817454D01*
X68665531Y-34447623D01*
X68615373Y-34090665D01*
X68590132Y-33749626D01*
X68589603Y-33683716D01*
X68793227Y-33683716D01*
X68794142Y-33713533D01*
X68820259Y-34075051D01*
X68874170Y-34451822D01*
X68955059Y-34840975D01*
X69062113Y-35239635D01*
X69194519Y-35644930D01*
X69351463Y-36053985D01*
X69532131Y-36463928D01*
X69630734Y-36667588D01*
X69706145Y-36816825D01*
X69773195Y-36944462D01*
X69837276Y-37059848D01*
X69903780Y-37172334D01*
X69978097Y-37291269D01*
X70065619Y-37426001D01*
X70085272Y-37455800D01*
X70264518Y-37713097D01*
X70445667Y-37945829D01*
X70627340Y-38152678D01*
X70808159Y-38332323D01*
X70986747Y-38483444D01*
X71161724Y-38604721D01*
X71331714Y-38694835D01*
X71412380Y-38727075D01*
X71491926Y-38746321D01*
X71585734Y-38755460D01*
X71682607Y-38754684D01*
X71771344Y-38744187D01*
X71840748Y-38724162D01*
X71850400Y-38719520D01*
X71938089Y-38656251D01*
X72019747Y-38563848D01*
X72092646Y-38446883D01*
X72154060Y-38309928D01*
X72201262Y-38157556D01*
X72211115Y-38114838D01*
X72230761Y-37996331D01*
X72245271Y-37852943D01*
X72254339Y-37693311D01*
X72257659Y-37526073D01*
X72254925Y-37359869D01*
X72245832Y-37203337D01*
X72244092Y-37183332D01*
X72197109Y-36811799D01*
X72123355Y-36426812D01*
X72024666Y-36033047D01*
X71902877Y-35635182D01*
X71759820Y-35237895D01*
X71597332Y-34845863D01*
X71417245Y-34463762D01*
X71221395Y-34096271D01*
X71011616Y-33748067D01*
X70789741Y-33423826D01*
X70747183Y-33366400D01*
X70687709Y-33288136D01*
X70635124Y-33221714D01*
X70583413Y-33160250D01*
X70526559Y-33096862D01*
X70458545Y-33024666D01*
X70373354Y-32936780D01*
X70357251Y-32920315D01*
X70185608Y-32756728D01*
X70019489Y-32621844D01*
X69859852Y-32515951D01*
X69707650Y-32439335D01*
X69563842Y-32392283D01*
X69429383Y-32375083D01*
X69305228Y-32388020D01*
X69192336Y-32431383D01*
X69091660Y-32505458D01*
X69065026Y-32532573D01*
X68975441Y-32653791D01*
X68903627Y-32803015D01*
X68849542Y-32980432D01*
X68813142Y-33186229D01*
X68794385Y-33420594D01*
X68793227Y-33683716D01*
X68589603Y-33683716D01*
X68588140Y-33501580D01*
X68594066Y-33247293D01*
X68418469Y-33253809D01*
X68222819Y-33250327D01*
X68040178Y-33225744D01*
X67895277Y-33187044D01*
X67844449Y-33170428D01*
X67808715Y-33160396D01*
X67797205Y-33158923D01*
X67787766Y-33180550D01*
X67772566Y-33227540D01*
X67753699Y-33292311D01*
X67733259Y-33367283D01*
X67713340Y-33444874D01*
X67696036Y-33517505D01*
X67688198Y-33553530D01*
X67646806Y-33814764D01*
X67625672Y-34096508D01*
X67624583Y-34392288D01*
X67420387Y-34392288D01*
X67421194Y-34162332D01*
X67422089Y-34129927D01*
X67432806Y-33912939D01*
X67452043Y-33719292D01*
X67481283Y-33539199D01*
X67522009Y-33362872D01*
X67556876Y-33240605D01*
X67582377Y-33151184D01*
X67595084Y-33091959D01*
X67595202Y-33061851D01*
X67591380Y-33057571D01*
X67569642Y-33045240D01*
X67528117Y-33017818D01*
X67474275Y-32980306D01*
X67450460Y-32963232D01*
X67390458Y-32920251D01*
X67336653Y-32882402D01*
X67298090Y-32856024D01*
X67290072Y-32850804D01*
X67276335Y-32844205D01*
X67258041Y-32841010D01*
X67231355Y-32841961D01*
X67192447Y-32847799D01*
X67137481Y-32859265D01*
X67062625Y-32877102D01*
X66964046Y-32902050D01*
X66837910Y-32934852D01*
X66788142Y-32947905D01*
X66621657Y-32991522D01*
X66484392Y-33027173D01*
X66372851Y-33055650D01*
X66283537Y-33077744D01*
X66212955Y-33094247D01*
X66157610Y-33105951D01*
X66114006Y-33113647D01*
X66078647Y-33118128D01*
X66048038Y-33120186D01*
X66025662Y-33120616D01*
X65971864Y-33117170D01*
X65937179Y-33102586D01*
X65909750Y-33074300D01*
X65884425Y-33030155D01*
X65879942Y-32979834D01*
X65881956Y-32960902D01*
X65884822Y-32945397D01*
X65890309Y-32927653D01*
X65899790Y-32905530D01*
X65905029Y-32895427D01*
X66154094Y-32895427D01*
X66157978Y-32896130D01*
X66165052Y-32893836D01*
X66167487Y-32892994D01*
X66189473Y-32886822D01*
X66239453Y-32873413D01*
X66312639Y-32854033D01*
X66404240Y-32829945D01*
X66509469Y-32802414D01*
X66587466Y-32782085D01*
X66701574Y-32752276D01*
X66807445Y-32724406D01*
X66899785Y-32699885D01*
X66973301Y-32680123D01*
X67022699Y-32666531D01*
X67039177Y-32661732D01*
X67092954Y-32644936D01*
X67000970Y-32523068D01*
X66953975Y-32455056D01*
X66900737Y-32369021D01*
X66848968Y-32277800D01*
X66818760Y-32219799D01*
X66728534Y-32038398D01*
X66449114Y-32448399D01*
X66364101Y-32573133D01*
X66296362Y-32672635D01*
X66244137Y-32749685D01*
X66205665Y-32807062D01*
X66179185Y-32847546D01*
X66162937Y-32873915D01*
X66155160Y-32888949D01*
X66154094Y-32895427D01*
X65905029Y-32895427D01*
X65914641Y-32876891D01*
X65936235Y-32839598D01*
X65965948Y-32791511D01*
X66005152Y-32730492D01*
X66055223Y-32654402D01*
X66117535Y-32561104D01*
X66193463Y-32448459D01*
X66284380Y-32314328D01*
X66391661Y-32156573D01*
X66516680Y-31973055D01*
X66519171Y-31969400D01*
X66651898Y-31774667D01*
X66628770Y-31656133D01*
X66617031Y-31571350D01*
X66609081Y-31463267D01*
X66605036Y-31342250D01*
X66605026Y-31292066D01*
X66816319Y-31292066D01*
X66816776Y-31406403D01*
X66818833Y-31494692D01*
X66823183Y-31564739D01*
X66830520Y-31624351D01*
X66841539Y-31681336D01*
X66856222Y-31740800D01*
X66931245Y-31969364D01*
X67030744Y-32182769D01*
X67152391Y-32378616D01*
X67293857Y-32554510D01*
X67452815Y-32708053D01*
X67626938Y-32836848D01*
X67813897Y-32938499D01*
X68011366Y-33010608D01*
X68112739Y-33034722D01*
X68176537Y-33042889D01*
X68261611Y-33048014D01*
X68355970Y-33049970D01*
X68447621Y-33048628D01*
X68524575Y-33043861D01*
X68557860Y-33039457D01*
X68623253Y-33027733D01*
X68664337Y-32883800D01*
X68729981Y-32694235D01*
X68810424Y-32534540D01*
X68906302Y-32403818D01*
X69018254Y-32301177D01*
X69125782Y-32235708D01*
X69193994Y-32205294D01*
X69255140Y-32187363D01*
X69325062Y-32178074D01*
X69375668Y-32175143D01*
X69441601Y-32172230D01*
X69485367Y-32166243D01*
X69513124Y-32151200D01*
X69531029Y-32121118D01*
X69545242Y-32070016D01*
X69561304Y-31994800D01*
X69593892Y-31761756D01*
X69594505Y-31525193D01*
X69564218Y-31288981D01*
X69504104Y-31056993D01*
X69415239Y-30833101D01*
X69298698Y-30621175D01*
X69155555Y-30425088D01*
X69111413Y-30374170D01*
X69039079Y-30301980D01*
X68948396Y-30223542D01*
X68849454Y-30146678D01*
X68752344Y-30079210D01*
X68667158Y-30028961D01*
X68664007Y-30027352D01*
X68465720Y-29943804D01*
X68268105Y-29893033D01*
X68073443Y-29873985D01*
X67884013Y-29885609D01*
X67702096Y-29926853D01*
X67529973Y-29996665D01*
X67369925Y-30093991D01*
X67224230Y-30217780D01*
X67095170Y-30366980D01*
X66985026Y-30540538D01*
X66896077Y-30737403D01*
X66855041Y-30862044D01*
X66840509Y-30916689D01*
X66830092Y-30968696D01*
X66823127Y-31025426D01*
X66818951Y-31094241D01*
X66816901Y-31182501D01*
X66816319Y-31292066D01*
X66605026Y-31292066D01*
X66605012Y-31218666D01*
X66609125Y-31102883D01*
X66617490Y-31005265D01*
X66621204Y-30978800D01*
X66643544Y-30872951D01*
X66677711Y-30751703D01*
X66719147Y-30629141D01*
X66763297Y-30519348D01*
X66784148Y-30475252D01*
X66897537Y-30285527D01*
X67033205Y-30118104D01*
X67188357Y-29974639D01*
X67360197Y-29856786D01*
X67545930Y-29766202D01*
X67742759Y-29704542D01*
X67947889Y-29673463D01*
X68138524Y-29673091D01*
X68360628Y-29704855D01*
G37*
D14*
%TO.C,SW1*%
X62430000Y-36630000D02*
X66570000Y-36630000D01*
X62430000Y-36930000D02*
X62430000Y-36630000D01*
X62430000Y-39770000D02*
X62430000Y-39470000D01*
X66570000Y-36630000D02*
X66570000Y-36930000D01*
X66570000Y-39470000D02*
X66570000Y-39770000D01*
X66570000Y-39770000D02*
X62430000Y-39770000D01*
%TO.C,R2*%
X64220000Y-29446359D02*
X64220000Y-29753641D01*
X64980000Y-29446359D02*
X64980000Y-29753641D01*
%TO.C,R3*%
X65320000Y-29446359D02*
X65320000Y-29753641D01*
X66080000Y-29446359D02*
X66080000Y-29753641D01*
%TO.C,C4*%
X66440000Y-35087836D02*
X66440000Y-34872164D01*
X67160000Y-35087836D02*
X67160000Y-34872164D01*
%TO.C,Y1*%
X63940000Y-57640000D02*
X63940000Y-61060000D01*
X63940000Y-61060000D02*
X68060000Y-61060000D01*
%TO.C,C2*%
X69892164Y-44140000D02*
X70107836Y-44140000D01*
X69892164Y-44860000D02*
X70107836Y-44860000D01*
%TO.C,U1*%
X62640000Y-46640000D02*
X63290000Y-46640000D01*
X62640000Y-47290000D02*
X62640000Y-46640000D01*
X62640000Y-53860000D02*
X62640000Y-53210000D01*
X63290000Y-53860000D02*
X62640000Y-53860000D01*
X69210000Y-46640000D02*
X69860000Y-46640000D01*
X69860000Y-46640000D02*
X69860000Y-47290000D01*
X69860000Y-53210000D02*
X69860000Y-53860000D01*
X69860000Y-53860000D02*
X69210000Y-53860000D01*
X62110000Y-47650000D02*
X61780000Y-47890000D01*
X61780000Y-47410000D01*
X62110000Y-47650000D01*
G36*
X62110000Y-47650000D02*
G01*
X61780000Y-47890000D01*
X61780000Y-47410000D01*
X62110000Y-47650000D01*
G37*
%TO.C,R5*%
X65546359Y-55720000D02*
X65853641Y-55720000D01*
X65546359Y-56480000D02*
X65853641Y-56480000D01*
%TO.C,C17*%
X60992164Y-40140000D02*
X61207836Y-40140000D01*
X60992164Y-40860000D02*
X61207836Y-40860000D01*
%TD*%
M02*
