%TF.GenerationSoftware,KiCad,Pcbnew,9.0.6*%
%TF.CreationDate,2026-01-06T13:19:56+05:30*%
%TF.ProjectId,Devboard,44657662-6f61-4726-942e-6b696361645f,rev?*%
%TF.SameCoordinates,Original*%
%TF.FileFunction,Copper,L1,Top*%
%TF.FilePolarity,Positive*%
%FSLAX46Y46*%
G04 Gerber Fmt 4.6, Leading zero omitted, Abs format (unit mm)*
G04 Created by KiCad (PCBNEW 9.0.6) date 2026-01-06 13:19:56*
%MOMM*%
%LPD*%
G01*
G04 APERTURE LIST*
G04 Aperture macros list*
%AMRoundRect*
0 Rectangle with rounded corners*
0 $1 Rounding radius*
0 $2 $3 $4 $5 $6 $7 $8 $9 X,Y pos of 4 corners*
0 Add a 4 corners polygon primitive as box body*
4,1,4,$2,$3,$4,$5,$6,$7,$8,$9,$2,$3,0*
0 Add four circle primitives for the rounded corners*
1,1,$1+$1,$2,$3*
1,1,$1+$1,$4,$5*
1,1,$1+$1,$6,$7*
1,1,$1+$1,$8,$9*
0 Add four rect primitives between the rounded corners*
20,1,$1+$1,$2,$3,$4,$5,0*
20,1,$1+$1,$4,$5,$6,$7,0*
20,1,$1+$1,$6,$7,$8,$9,0*
20,1,$1+$1,$8,$9,$2,$3,0*%
G04 Aperture macros list end*
%TA.AperFunction,SMDPad,CuDef*%
%ADD10RoundRect,0.135000X0.135000X0.185000X-0.135000X0.185000X-0.135000X-0.185000X0.135000X-0.185000X0*%
%TD*%
%TA.AperFunction,ComponentPad*%
%ADD11R,1.700000X1.700000*%
%TD*%
%TA.AperFunction,ComponentPad*%
%ADD12C,1.700000*%
%TD*%
%TA.AperFunction,SMDPad,CuDef*%
%ADD13RoundRect,0.100000X0.100000X-0.130000X0.100000X0.130000X-0.100000X0.130000X-0.100000X-0.130000X0*%
%TD*%
%TA.AperFunction,SMDPad,CuDef*%
%ADD14RoundRect,0.150000X0.150000X-0.587500X0.150000X0.587500X-0.150000X0.587500X-0.150000X-0.587500X0*%
%TD*%
%TA.AperFunction,SMDPad,CuDef*%
%ADD15RoundRect,0.140000X0.140000X0.170000X-0.140000X0.170000X-0.140000X-0.170000X0.140000X-0.170000X0*%
%TD*%
%TA.AperFunction,SMDPad,CuDef*%
%ADD16RoundRect,0.140000X0.170000X-0.140000X0.170000X0.140000X-0.170000X0.140000X-0.170000X-0.140000X0*%
%TD*%
%TA.AperFunction,SMDPad,CuDef*%
%ADD17RoundRect,0.140000X-0.140000X-0.170000X0.140000X-0.170000X0.140000X0.170000X-0.140000X0.170000X0*%
%TD*%
%TA.AperFunction,SMDPad,CuDef*%
%ADD18RoundRect,0.135000X-0.185000X0.135000X-0.185000X-0.135000X0.185000X-0.135000X0.185000X0.135000X0*%
%TD*%
%TA.AperFunction,SMDPad,CuDef*%
%ADD19RoundRect,0.135000X-0.135000X-0.185000X0.135000X-0.185000X0.135000X0.185000X-0.135000X0.185000X0*%
%TD*%
%TA.AperFunction,SMDPad,CuDef*%
%ADD20RoundRect,0.100000X-0.130000X-0.100000X0.130000X-0.100000X0.130000X0.100000X-0.130000X0.100000X0*%
%TD*%
%TA.AperFunction,SMDPad,CuDef*%
%ADD21RoundRect,0.062500X-0.387500X-0.062500X0.387500X-0.062500X0.387500X0.062500X-0.387500X0.062500X0*%
%TD*%
%TA.AperFunction,HeatsinkPad*%
%ADD22R,0.200000X1.600000*%
%TD*%
%TA.AperFunction,SMDPad,CuDef*%
%ADD23R,0.600000X1.450000*%
%TD*%
%TA.AperFunction,SMDPad,CuDef*%
%ADD24R,0.300000X1.450000*%
%TD*%
%TA.AperFunction,HeatsinkPad*%
%ADD25O,1.000000X2.100000*%
%TD*%
%TA.AperFunction,HeatsinkPad*%
%ADD26O,1.000000X1.600000*%
%TD*%
%TA.AperFunction,SMDPad,CuDef*%
%ADD27RoundRect,0.200000X-0.200000X-0.800000X0.200000X-0.800000X0.200000X0.800000X-0.200000X0.800000X0*%
%TD*%
%TA.AperFunction,SMDPad,CuDef*%
%ADD28RoundRect,0.250000X-0.450000X-0.350000X0.450000X-0.350000X0.450000X0.350000X-0.450000X0.350000X0*%
%TD*%
%TA.AperFunction,SMDPad,CuDef*%
%ADD29RoundRect,0.050000X-0.387500X-0.050000X0.387500X-0.050000X0.387500X0.050000X-0.387500X0.050000X0*%
%TD*%
%TA.AperFunction,SMDPad,CuDef*%
%ADD30RoundRect,0.050000X-0.050000X-0.387500X0.050000X-0.387500X0.050000X0.387500X-0.050000X0.387500X0*%
%TD*%
%TA.AperFunction,HeatsinkPad*%
%ADD31R,3.200000X3.200000*%
%TD*%
%TA.AperFunction,ViaPad*%
%ADD32C,0.300000*%
%TD*%
%TA.AperFunction,Conductor*%
%ADD33C,0.200000*%
%TD*%
G04 APERTURE END LIST*
D10*
%TO.P,R6,2*%
%TO.N,+3V3*%
X62590000Y-41250000D03*
%TO.P,R6,1*%
%TO.N,QSPI_SS*%
X63610000Y-41250000D03*
%TD*%
D11*
%TO.P,J4,1,Pin_1*%
%TO.N,SWCLK*%
X68780000Y-70200000D03*
D12*
%TO.P,J4,2,Pin_2*%
%TO.N,GND*%
X66240000Y-70200000D03*
%TO.P,J4,3,Pin_3*%
%TO.N,SWD*%
X63700000Y-70200000D03*
%TD*%
D13*
%TO.P,C14,2*%
%TO.N,+3V3*%
X65100000Y-33280000D03*
%TO.P,C14,1*%
%TO.N,GND*%
X65100000Y-33920000D03*
%TD*%
D14*
%TO.P,U4,3,VI*%
%TO.N,VBUS*%
X63100000Y-31000000D03*
%TO.P,U4,2,VO*%
%TO.N,+3V3*%
X64050000Y-32875000D03*
%TO.P,U4,1,GND*%
%TO.N,GND*%
X62150000Y-32875000D03*
%TD*%
D15*
%TO.P,C7,1*%
%TO.N,+3V3*%
X70480000Y-42500000D03*
%TO.P,C7,2*%
%TO.N,GND*%
X69520000Y-42500000D03*
%TD*%
D16*
%TO.P,C8,1*%
%TO.N,+3V3*%
X71500000Y-43780000D03*
%TO.P,C8,2*%
%TO.N,GND*%
X71500000Y-42820000D03*
%TD*%
D17*
%TO.P,C6,2*%
%TO.N,GND*%
X72480000Y-41800000D03*
%TO.P,C6,1*%
%TO.N,+3V3*%
X71520000Y-41800000D03*
%TD*%
D16*
%TO.P,C9,1*%
%TO.N,+3V3*%
X66700000Y-41380000D03*
%TO.P,C9,2*%
%TO.N,GND*%
X66700000Y-40420000D03*
%TD*%
D15*
%TO.P,C16,1*%
%TO.N,XIN*%
X63080000Y-56030000D03*
%TO.P,C16,2*%
%TO.N,GND*%
X62120000Y-56030000D03*
%TD*%
D16*
%TO.P,C5,1*%
%TO.N,+3V3*%
X71500000Y-45800000D03*
%TO.P,C5,2*%
%TO.N,GND*%
X71500000Y-44840000D03*
%TD*%
D15*
%TO.P,C11,1*%
%TO.N,+3V3*%
X70480000Y-41500000D03*
%TO.P,C11,2*%
%TO.N,GND*%
X69520000Y-41500000D03*
%TD*%
D18*
%TO.P,R1,1*%
%TO.N,Net-(J1-CC1)*%
X68000000Y-29090000D03*
%TO.P,R1,2*%
%TO.N,GND*%
X68000000Y-30110000D03*
%TD*%
%TO.P,R4,1*%
%TO.N,D -*%
X67000000Y-29090000D03*
%TO.P,R4,2*%
%TO.N,Net-(U1-USB_DM)*%
X67000000Y-30110000D03*
%TD*%
D17*
%TO.P,C3,1*%
%TO.N,+1V1*%
X69500000Y-45500000D03*
%TO.P,C3,2*%
%TO.N,GND*%
X70460000Y-45500000D03*
%TD*%
D19*
%TO.P,R7,1*%
%TO.N,QSPI_SS*%
X64690000Y-40500000D03*
%TO.P,R7,2*%
%TO.N,Net-(R7-Pad2)*%
X65710000Y-40500000D03*
%TD*%
D20*
%TO.P,C13,1*%
%TO.N,GND*%
X62480000Y-29300000D03*
%TO.P,C13,2*%
%TO.N,VBUS*%
X63120000Y-29300000D03*
%TD*%
D17*
%TO.P,C10,1*%
%TO.N,+3V3*%
X70500000Y-46800000D03*
%TO.P,C10,2*%
%TO.N,GND*%
X71460000Y-46800000D03*
%TD*%
D21*
%TO.P,U3,1,~{CS}*%
%TO.N,QSPI_SS*%
X62975000Y-42250000D03*
%TO.P,U3,2,DO/IO_{1}*%
%TO.N,QSPI_SD1*%
X62975000Y-42750000D03*
%TO.P,U3,3,~{WP}/IO_{2}*%
%TO.N,QSPI_SD2*%
X62975000Y-43250000D03*
%TO.P,U3,4,GND*%
%TO.N,GND*%
X62975000Y-43750000D03*
%TO.P,U3,5,DI/IO_{0}*%
%TO.N,QSPI_SD0*%
X65825000Y-43750000D03*
%TO.P,U3,6,CLK*%
%TO.N,QSPI_SCLK*%
X65825000Y-43250000D03*
%TO.P,U3,7,~{HOLD}/~{RESET}/IO_{3}*%
%TO.N,QSPI_SD3*%
X65825000Y-42750000D03*
%TO.P,U3,8,VCC*%
%TO.N,GND*%
X65825000Y-42250000D03*
D22*
%TO.P,U3,9*%
%TO.N,N/C*%
X64400000Y-43000000D03*
%TD*%
D23*
%TO.P,J1,A1,GND*%
%TO.N,GND*%
X69500000Y-27295000D03*
%TO.P,J1,A4,VBUS*%
%TO.N,VBUS*%
X68700000Y-27295000D03*
D24*
%TO.P,J1,A5,CC1*%
%TO.N,Net-(J1-CC1)*%
X67500000Y-27295000D03*
%TO.P,J1,A6,D+*%
%TO.N,D +*%
X66500000Y-27295000D03*
%TO.P,J1,A7,D-*%
%TO.N,D -*%
X66000000Y-27295000D03*
%TO.P,J1,A8*%
%TO.N,N/C*%
X65000000Y-27295000D03*
D23*
%TO.P,J1,A9,VBUS*%
%TO.N,VBUS*%
X63800000Y-27295000D03*
%TO.P,J1,A12,GND*%
%TO.N,GND*%
X63000000Y-27295000D03*
%TO.P,J1,B1,GND*%
X63000000Y-27295000D03*
%TO.P,J1,B4,VBUS*%
%TO.N,VBUS*%
X63800000Y-27295000D03*
D24*
%TO.P,J1,B5,CC2*%
%TO.N,Net-(J1-CC2)*%
X64500000Y-27295000D03*
%TO.P,J1,B6,D+*%
%TO.N,D +*%
X65500000Y-27295000D03*
%TO.P,J1,B7,D-*%
%TO.N,D -*%
X67000000Y-27295000D03*
%TO.P,J1,B8*%
%TO.N,N/C*%
X68000000Y-27295000D03*
D23*
%TO.P,J1,B9,VBUS*%
%TO.N,VBUS*%
X68700000Y-27295000D03*
%TO.P,J1,B12,GND*%
%TO.N,GND*%
X69500000Y-27295000D03*
D25*
%TO.P,J1,S1,SHIELD*%
X70570000Y-26380000D03*
D26*
X70570000Y-22200000D03*
D25*
X61930000Y-26380000D03*
D26*
X61930000Y-22200000D03*
%TD*%
D17*
%TO.P,C1,1*%
%TO.N,+1V1*%
X69520000Y-43500000D03*
%TO.P,C1,2*%
%TO.N,GND*%
X70480000Y-43500000D03*
%TD*%
D15*
%TO.P,C15,1*%
%TO.N,Net-(C15-Pad1)*%
X63080000Y-58000000D03*
%TO.P,C15,2*%
%TO.N,GND*%
X62120000Y-58000000D03*
%TD*%
D27*
%TO.P,SW1,1,1*%
%TO.N,GND*%
X62400000Y-38200000D03*
%TO.P,SW1,2,2*%
%TO.N,Net-(R7-Pad2)*%
X66600000Y-38200000D03*
%TD*%
D18*
%TO.P,R2,1*%
%TO.N,Net-(J1-CC2)*%
X64600000Y-29090000D03*
%TO.P,R2,2*%
%TO.N,GND*%
X64600000Y-30110000D03*
%TD*%
%TO.P,R3,1*%
%TO.N,D +*%
X65700000Y-29090000D03*
%TO.P,R3,2*%
%TO.N,Net-(U1-USB_DP)*%
X65700000Y-30110000D03*
%TD*%
D16*
%TO.P,C4,1*%
%TO.N,+3V3*%
X66800000Y-35460000D03*
%TO.P,C4,2*%
%TO.N,GND*%
X66800000Y-34500000D03*
%TD*%
D28*
%TO.P,Y1,1,1*%
%TO.N,GND*%
X64900000Y-60200000D03*
%TO.P,Y1,2,2*%
%TO.N,XIN*%
X67100000Y-60200000D03*
%TO.P,Y1,3,3*%
%TO.N,GND*%
X67100000Y-58500000D03*
%TO.P,Y1,4,4*%
%TO.N,Net-(C15-Pad1)*%
X64900000Y-58500000D03*
%TD*%
D17*
%TO.P,C2,1*%
%TO.N,+1V1*%
X69520000Y-44500000D03*
%TO.P,C2,2*%
%TO.N,GND*%
X70480000Y-44500000D03*
%TD*%
D29*
%TO.P,U1,1,IOVDD*%
%TO.N,+3V3*%
X62812500Y-47650000D03*
%TO.P,U1,2,GPIO0*%
%TO.N,GPI 0*%
X62812500Y-48050000D03*
%TO.P,U1,3,GPIO1*%
%TO.N,GPIO 1*%
X62812500Y-48450000D03*
%TO.P,U1,4,GPIO2*%
%TO.N,GPIO 2*%
X62812500Y-48850000D03*
%TO.P,U1,5,GPIO3*%
%TO.N,GPIO 3*%
X62812500Y-49250000D03*
%TO.P,U1,6,GPIO4*%
%TO.N,GPIO 4*%
X62812500Y-49650000D03*
%TO.P,U1,7,GPIO5*%
%TO.N,GPIO 5*%
X62812500Y-50050000D03*
%TO.P,U1,8,GPIO6*%
%TO.N,GPIO 6*%
X62812500Y-50450000D03*
%TO.P,U1,9,GPIO7*%
%TO.N,GPIO 7*%
X62812500Y-50850000D03*
%TO.P,U1,10,IOVDD*%
%TO.N,+3V3*%
X62812500Y-51250000D03*
%TO.P,U1,11,GPIO8*%
%TO.N,GPIO 8*%
X62812500Y-51650000D03*
%TO.P,U1,12,GPIO9*%
%TO.N,GPIO 9*%
X62812500Y-52050000D03*
%TO.P,U1,13,GPIO10*%
%TO.N,GPI 10*%
X62812500Y-52450000D03*
%TO.P,U1,14,GPIO11*%
%TO.N,GPI 11*%
X62812500Y-52850000D03*
D30*
%TO.P,U1,15,GPIO12*%
%TO.N,GPI 12*%
X63650000Y-53687500D03*
%TO.P,U1,16,GPIO13*%
%TO.N,GPI 13*%
X64050000Y-53687500D03*
%TO.P,U1,17,GPIO14*%
%TO.N,GPI 14*%
X64450000Y-53687500D03*
%TO.P,U1,18,GPIO15*%
%TO.N,GPI 15*%
X64850000Y-53687500D03*
%TO.P,U1,19,TESTEN*%
%TO.N,GND*%
X65250000Y-53687500D03*
%TO.P,U1,20,XIN*%
%TO.N,XIN*%
X65650000Y-53687500D03*
%TO.P,U1,21,XOUT*%
%TO.N,XOUT*%
X66050000Y-53687500D03*
%TO.P,U1,22,IOVDD*%
%TO.N,+3V3*%
X66450000Y-53687500D03*
%TO.P,U1,23,DVDD*%
%TO.N,+1V1*%
X66850000Y-53687500D03*
%TO.P,U1,24,SWCLK*%
%TO.N,SWCLK*%
X67250000Y-53687500D03*
%TO.P,U1,25,SWD*%
%TO.N,SWD*%
X67650000Y-53687500D03*
%TO.P,U1,26,RUN*%
%TO.N,RUN*%
X68050000Y-53687500D03*
%TO.P,U1,27,GPIO16*%
%TO.N,GPI 16*%
X68450000Y-53687500D03*
%TO.P,U1,28,GPIO17*%
%TO.N,GPI 17*%
X68850000Y-53687500D03*
D29*
%TO.P,U1,29,GPIO18*%
%TO.N,GPI 18*%
X69687500Y-52850000D03*
%TO.P,U1,30,GPIO19*%
%TO.N,GPI 19*%
X69687500Y-52450000D03*
%TO.P,U1,31,GPIO20*%
%TO.N,GPI 20*%
X69687500Y-52050000D03*
%TO.P,U1,32,GPIO21*%
%TO.N,GPI 21*%
X69687500Y-51650000D03*
%TO.P,U1,33,IOVDD*%
%TO.N,+3V3*%
X69687500Y-51250000D03*
%TO.P,U1,34,GPIO22*%
%TO.N,GPI 22*%
X69687500Y-50850000D03*
%TO.P,U1,35,GPIO23*%
%TO.N,GPI 23*%
X69687500Y-50450000D03*
%TO.P,U1,36,GPIO24*%
%TO.N,GPI 24*%
X69687500Y-50050000D03*
%TO.P,U1,37,GPIO25*%
%TO.N,unconnected-(U1-GPIO25-Pad37)*%
X69687500Y-49650000D03*
%TO.P,U1,38,GPIO26_ADC0*%
%TO.N,GPI 26*%
X69687500Y-49250000D03*
%TO.P,U1,39,GPIO27_ADC1*%
%TO.N,GPI 27*%
X69687500Y-48850000D03*
%TO.P,U1,40,GPIO28_ADC2*%
%TO.N,GPI 28*%
X69687500Y-48450000D03*
%TO.P,U1,41,GPIO29_ADC3*%
%TO.N,GPI 29*%
X69687500Y-48050000D03*
%TO.P,U1,42,IOVDD*%
%TO.N,+3V3*%
X69687500Y-47650000D03*
D30*
%TO.P,U1,43,ADC_AVDD*%
X68850000Y-46812500D03*
%TO.P,U1,44,VREG_IN*%
X68450000Y-46812500D03*
%TO.P,U1,45,VREG_VOUT*%
%TO.N,+1V1*%
X68050000Y-46812500D03*
%TO.P,U1,46,USB_DM*%
%TO.N,Net-(U1-USB_DM)*%
X67650000Y-46812500D03*
%TO.P,U1,47,USB_DP*%
%TO.N,Net-(U1-USB_DP)*%
X67250000Y-46812500D03*
%TO.P,U1,48,USB_VDD*%
%TO.N,+3V3*%
X66850000Y-46812500D03*
%TO.P,U1,49,IOVDD*%
X66450000Y-46812500D03*
%TO.P,U1,50,DVDD*%
%TO.N,+1V1*%
X66050000Y-46812500D03*
%TO.P,U1,51,QSPI_SD3*%
%TO.N,QSPI_SD3*%
X65650000Y-46812500D03*
%TO.P,U1,52,QSPI_SCLK*%
%TO.N,QSPI_SCLK*%
X65250000Y-46812500D03*
%TO.P,U1,53,QSPI_SD0*%
%TO.N,QSPI_SD0*%
X64850000Y-46812500D03*
%TO.P,U1,54,QSPI_SD2*%
%TO.N,QSPI_SD2*%
X64450000Y-46812500D03*
%TO.P,U1,55,QSPI_SD1*%
%TO.N,QSPI_SD1*%
X64050000Y-46812500D03*
%TO.P,U1,56,QSPI_SS*%
%TO.N,QSPI_SS*%
X63650000Y-46812500D03*
D31*
%TO.P,U1,57,GND*%
%TO.N,GND*%
X66250000Y-50250000D03*
%TD*%
D19*
%TO.P,R5,1*%
%TO.N,Net-(C15-Pad1)*%
X65190000Y-56100000D03*
%TO.P,R5,2*%
%TO.N,XOUT*%
X66210000Y-56100000D03*
%TD*%
D17*
%TO.P,C17,1*%
%TO.N,+3V3*%
X60620000Y-40500000D03*
%TO.P,C17,2*%
%TO.N,GND*%
X61580000Y-40500000D03*
%TD*%
D11*
%TO.P,J2,1,Pin_1*%
%TO.N,GPI 0*%
X57360000Y-22120000D03*
D12*
%TO.P,J2,2,Pin_2*%
%TO.N,GPIO 1*%
X57360000Y-24660000D03*
%TO.P,J2,3,Pin_3*%
%TO.N,GND*%
X57360000Y-27200000D03*
%TO.P,J2,4,Pin_4*%
%TO.N,GPIO 2*%
X57360000Y-29740000D03*
%TO.P,J2,5,Pin_5*%
%TO.N,GPIO 3*%
X57360000Y-32280000D03*
%TO.P,J2,6,Pin_6*%
%TO.N,GPIO 4*%
X57360000Y-34820000D03*
%TO.P,J2,7,Pin_7*%
%TO.N,GPIO 5*%
X57360000Y-37360000D03*
%TO.P,J2,8,Pin_8*%
%TO.N,GND*%
X57360000Y-39900000D03*
%TO.P,J2,9,Pin_9*%
%TO.N,GPIO 6*%
X57360000Y-42440000D03*
%TO.P,J2,10,Pin_10*%
%TO.N,GPIO 7*%
X57360000Y-44980000D03*
%TO.P,J2,11,Pin_11*%
%TO.N,GPIO 8*%
X57360000Y-47520000D03*
%TO.P,J2,12,Pin_12*%
%TO.N,GPIO 9*%
X57360000Y-50060000D03*
%TO.P,J2,13,Pin_13*%
%TO.N,GND*%
X57360000Y-52600000D03*
%TO.P,J2,14,Pin_14*%
%TO.N,GPI 10*%
X57360000Y-55140000D03*
%TO.P,J2,15,Pin_15*%
%TO.N,GPI 11*%
X57360000Y-57680000D03*
%TO.P,J2,16,Pin_16*%
%TO.N,GPI 12*%
X57360000Y-60220000D03*
%TO.P,J2,17,Pin_17*%
%TO.N,GPI 13*%
X57360000Y-62760000D03*
%TO.P,J2,18,Pin_18*%
%TO.N,GND*%
X57360000Y-65300000D03*
%TO.P,J2,19,Pin_19*%
%TO.N,GPI 14*%
X57360000Y-67840000D03*
%TO.P,J2,20,Pin_20*%
%TO.N,GPI 15*%
X57360000Y-70380000D03*
%TD*%
D11*
%TO.P,J3,1,Pin_1*%
%TO.N,VBUS*%
X75250000Y-22210000D03*
D12*
%TO.P,J3,2,Pin_2*%
%TO.N,GPI 29*%
X75250000Y-24750000D03*
%TO.P,J3,3,Pin_3*%
%TO.N,GND*%
X75250000Y-27290000D03*
%TO.P,J3,4,Pin_4*%
%TO.N,GPI 28*%
X75250000Y-29830000D03*
%TO.P,J3,5,Pin_5*%
%TO.N,+3V3*%
X75250000Y-32370000D03*
%TO.P,J3,6,Pin_6*%
%TO.N,GPI 27*%
X75250000Y-34910000D03*
%TO.P,J3,7,Pin_7*%
%TO.N,GPI 26*%
X75250000Y-37450000D03*
%TO.P,J3,8,Pin_8*%
%TO.N,GND*%
X75250000Y-39990000D03*
%TO.P,J3,9,Pin_9*%
%TO.N,GPI 24*%
X75250000Y-42530000D03*
%TO.P,J3,10,Pin_10*%
%TO.N,GPI 23*%
X75250000Y-45070000D03*
%TO.P,J3,11,Pin_11*%
%TO.N,RUN*%
X75250000Y-47610000D03*
%TO.P,J3,12,Pin_12*%
%TO.N,GPI 22*%
X75250000Y-50150000D03*
%TO.P,J3,13,Pin_13*%
%TO.N,GND*%
X75250000Y-52690000D03*
%TO.P,J3,14,Pin_14*%
%TO.N,GPI 21*%
X75250000Y-55230000D03*
%TO.P,J3,15,Pin_15*%
%TO.N,GPI 20*%
X75250000Y-57770000D03*
%TO.P,J3,16,Pin_16*%
%TO.N,GPI 19*%
X75250000Y-60310000D03*
%TO.P,J3,17,Pin_17*%
%TO.N,GPI 18*%
X75250000Y-62850000D03*
%TO.P,J3,18,Pin_18*%
%TO.N,GND*%
X75250000Y-65390000D03*
%TO.P,J3,19,Pin_19*%
%TO.N,GPI 17*%
X75250000Y-67930000D03*
%TO.P,J3,20,Pin_20*%
%TO.N,GPI 16*%
X75250000Y-70470000D03*
%TD*%
D32*
%TO.N,GND*%
X68850000Y-41500000D03*
X63950000Y-29900000D03*
X65023486Y-52918702D03*
X62050000Y-56100000D03*
X64250000Y-59550000D03*
X62850000Y-40450000D03*
X65800000Y-41600000D03*
X66317468Y-40795768D03*
X64850000Y-34500000D03*
%TO.N,+3V3*%
X69200000Y-33250000D03*
X66850000Y-33350000D03*
%TO.N,GND*%
X74750000Y-26200000D03*
%TO.N,GPI 29*%
X71050000Y-47900000D03*
%TO.N,GPI 28*%
X71350000Y-48750000D03*
%TO.N,GPI 27*%
X70900000Y-49200000D03*
%TO.N,GPI 26*%
X70440730Y-49435665D03*
%TO.N,GPI 24*%
X71914211Y-50699000D03*
%TO.N,GPI 23*%
X71275963Y-50953168D03*
%TO.N,GPI 22*%
X71213553Y-51527156D03*
%TO.N,GPI 21*%
X70765340Y-53910932D03*
%TO.N,GPI 20*%
X70268959Y-54410094D03*
%TO.N,GPI 19*%
X69750000Y-54527532D03*
%TO.N,GPI 18*%
X69300000Y-54781784D03*
%TO.N,GPI 17*%
X68965040Y-55242244D03*
%TO.N,GPI 16*%
X68893199Y-55806801D03*
%TO.N,SWD*%
X67700000Y-56350000D03*
%TO.N,GPI 15*%
X64224233Y-55336601D03*
%TO.N,GPI 14*%
X64025375Y-54877844D03*
%TO.N,GPI 13*%
X62250000Y-54450000D03*
%TO.N,GPIO 7*%
X61457781Y-50617746D03*
%TO.N,GPIO 5*%
X63394869Y-50049999D03*
%TO.N,GPIO 4*%
X62000000Y-49751000D03*
%TO.N,GPIO 3*%
X63450000Y-49213039D03*
%TO.N,GPIO 1*%
X60992067Y-28000000D03*
%TO.N,GPIO 2*%
X62050000Y-48850000D03*
%TO.N,GPIO 1*%
X63450000Y-48450000D03*
%TO.N,GPI 0*%
X62047565Y-48042015D03*
%TO.N,+1V1*%
X66200000Y-47800000D03*
X67918873Y-47534830D03*
X67000000Y-52750000D03*
%TO.N,+3V3*%
X68200002Y-51700000D03*
X66000000Y-52300000D03*
X63800000Y-47700000D03*
X63900000Y-50900000D03*
X68100000Y-48400000D03*
%TD*%
D33*
%TO.N,QSPI_SS*%
X63610000Y-41250000D02*
X63610000Y-41615000D01*
X63610000Y-41615000D02*
X62975000Y-42250000D01*
X63610000Y-41250000D02*
X63940000Y-41250000D01*
X63940000Y-41250000D02*
X64690000Y-40500000D01*
%TO.N,+3V3*%
X62590000Y-41250000D02*
X61370000Y-41250000D01*
X61370000Y-41250000D02*
X60620000Y-40500000D01*
%TO.N,GND*%
X69520000Y-41500000D02*
X68850000Y-41500000D01*
X64160000Y-30110000D02*
X63950000Y-29900000D01*
X64600000Y-30110000D02*
X64160000Y-30110000D01*
%TO.N,+3V3*%
X70480000Y-41500000D02*
X70480000Y-42500000D01*
%TO.N,GND*%
X65250000Y-53687500D02*
X65250000Y-53145216D01*
X65250000Y-53145216D02*
X65023486Y-52918702D01*
X65250000Y-52850000D02*
X65100000Y-52700000D01*
X65250000Y-53687500D02*
X65250000Y-52850000D01*
X62120000Y-56030000D02*
X62050000Y-56100000D01*
X64900000Y-60200000D02*
X64250000Y-59550000D01*
X62120000Y-58470000D02*
X62600000Y-58950000D01*
X62120000Y-58000000D02*
X62120000Y-58470000D01*
X64900000Y-60200000D02*
X65400000Y-60200000D01*
X65400000Y-60200000D02*
X67100000Y-58500000D01*
X70460000Y-45500000D02*
X70840000Y-45500000D01*
X70840000Y-45500000D02*
X71500000Y-44840000D01*
X62800000Y-40500000D02*
X62850000Y-40450000D01*
X61580000Y-40500000D02*
X62800000Y-40500000D01*
X63850000Y-43340798D02*
X63850000Y-42100000D01*
X63440798Y-43750000D02*
X63850000Y-43340798D01*
X62975000Y-43750000D02*
X63440798Y-43750000D01*
X65800000Y-41600000D02*
X65800000Y-41900000D01*
X63850000Y-42100000D02*
X64051000Y-41899000D01*
X64051000Y-41899000D02*
X65799000Y-41899000D01*
X65799000Y-41899000D02*
X65800000Y-41900000D01*
X65800000Y-41900000D02*
X65800000Y-42225000D01*
X66700000Y-40420000D02*
X66693236Y-40420000D01*
X66693236Y-40420000D02*
X66317468Y-40795768D01*
X65800000Y-42225000D02*
X65825000Y-42250000D01*
X70480000Y-43500000D02*
X70480000Y-43460000D01*
X70480000Y-43460000D02*
X69520000Y-42500000D01*
X70480000Y-43500000D02*
X70820000Y-43500000D01*
X70820000Y-43500000D02*
X71500000Y-42820000D01*
X65100000Y-33920000D02*
X65100000Y-34250000D01*
X65100000Y-34250000D02*
X64850000Y-34500000D01*
X65520000Y-33920000D02*
X66100000Y-34500000D01*
X65100000Y-33920000D02*
X65520000Y-33920000D01*
%TO.N,+3V3*%
X65100000Y-33280000D02*
X66780000Y-33280000D01*
X66780000Y-33280000D02*
X66850000Y-33350000D01*
X74370000Y-33250000D02*
X75250000Y-32370000D01*
X69200000Y-33250000D02*
X74370000Y-33250000D01*
%TO.N,VBUS*%
X68590000Y-26260000D02*
X68198000Y-25868000D01*
X68514000Y-26184000D02*
X68514000Y-25590702D01*
X74159000Y-23301000D02*
X75250000Y-22210000D01*
X68514000Y-25590702D02*
X70803702Y-23301000D01*
X68590000Y-26260000D02*
X68514000Y-26184000D01*
X70803702Y-23301000D02*
X74159000Y-23301000D01*
%TO.N,GPI 29*%
X69687500Y-48050000D02*
X70900000Y-48050000D01*
X70900000Y-48050000D02*
X71050000Y-47900000D01*
%TO.N,GPI 28*%
X71050000Y-48450000D02*
X71350000Y-48750000D01*
X69687500Y-48450000D02*
X71050000Y-48450000D01*
%TO.N,GPI 27*%
X69687500Y-48850000D02*
X70550000Y-48850000D01*
X70550000Y-48850000D02*
X70900000Y-49200000D01*
%TO.N,GPI 26*%
X70255065Y-49250000D02*
X70440730Y-49435665D01*
X69687500Y-49250000D02*
X70255065Y-49250000D01*
%TO.N,GPI 24*%
X71265211Y-50050000D02*
X71914211Y-50699000D01*
X69687500Y-50050000D02*
X71265211Y-50050000D01*
%TO.N,GPI 23*%
X69687500Y-50450000D02*
X70772795Y-50450000D01*
X70772795Y-50450000D02*
X71275963Y-50953168D01*
%TO.N,GPI 22*%
X69687500Y-50850000D02*
X70536397Y-50850000D01*
X70536397Y-50850000D02*
X71213553Y-51527156D01*
%TO.N,GPI 21*%
X71252000Y-53424272D02*
X70765340Y-53910932D01*
X71252000Y-52202000D02*
X71252000Y-53424272D01*
X71200000Y-52150000D02*
X71252000Y-52202000D01*
X69687500Y-51650000D02*
X70700000Y-51650000D01*
X70700000Y-51650000D02*
X71200000Y-52150000D01*
%TO.N,GPI 20*%
X70850000Y-52482900D02*
X70851000Y-52483900D01*
X70450000Y-52050000D02*
X70850000Y-52450000D01*
X69687500Y-52050000D02*
X70450000Y-52050000D01*
X70850000Y-52450000D02*
X70850000Y-52482900D01*
X70851000Y-53188874D02*
X70269937Y-53769937D01*
X70851000Y-52483900D02*
X70851000Y-53188874D01*
X70269937Y-53769937D02*
X70268959Y-53770915D01*
X70268959Y-53770915D02*
X70268959Y-54410094D01*
%TO.N,GPI 19*%
X70450000Y-52650000D02*
X70450000Y-53022774D01*
X69687500Y-52450000D02*
X70250000Y-52450000D01*
X70250000Y-52450000D02*
X70450000Y-52650000D01*
X70072774Y-53400000D02*
X69800000Y-53400000D01*
X69800000Y-53400000D02*
X69750000Y-53450000D01*
X69750000Y-53450000D02*
X69750000Y-54527532D01*
X70450000Y-53022774D02*
X70072774Y-53400000D01*
%TO.N,GPI 18*%
X69687500Y-52850000D02*
X69300000Y-53237500D01*
X69300000Y-53237500D02*
X69300000Y-54781784D01*
%TO.N,GPI 17*%
X68850000Y-55127204D02*
X68965040Y-55242244D01*
X68850000Y-53687500D02*
X68850000Y-55127204D01*
%TO.N,GPI 16*%
X68450000Y-55363602D02*
X68893199Y-55806801D01*
X68450000Y-53687500D02*
X68450000Y-55363602D01*
%TO.N,RUN*%
X68050000Y-53687500D02*
X68050000Y-55600000D01*
X68050000Y-55600000D02*
X68750000Y-56300000D01*
X68750000Y-56300000D02*
X70050000Y-56300000D01*
X70050000Y-56300000D02*
X72700000Y-53650000D01*
X72700000Y-53650000D02*
X72700000Y-49550000D01*
X72700000Y-49550000D02*
X73900000Y-48350000D01*
X73900000Y-48350000D02*
X74510000Y-48350000D01*
X74510000Y-48350000D02*
X75250000Y-47610000D01*
X75250000Y-48522240D02*
X75250000Y-47610000D01*
%TO.N,SWD*%
X67650000Y-56300000D02*
X67700000Y-56350000D01*
X67650000Y-53687500D02*
X67650000Y-56300000D01*
%TO.N,SWCLK*%
X67850000Y-57250000D02*
X68400000Y-57250000D01*
X67250000Y-56650000D02*
X67850000Y-57250000D01*
X67250000Y-53687500D02*
X67250000Y-56650000D01*
X68400000Y-57250000D02*
X68780000Y-57630000D01*
X68780000Y-57630000D02*
X68780000Y-70200000D01*
%TO.N,XIN*%
X65650000Y-53687500D02*
X65650000Y-54548645D01*
X65650000Y-54548645D02*
X64168645Y-56030000D01*
X64168645Y-56030000D02*
X63080000Y-56030000D01*
%TO.N,GPI 15*%
X64850000Y-54710834D02*
X64224233Y-55336601D01*
X64850000Y-53687500D02*
X64850000Y-54710834D01*
%TO.N,GPI 14*%
X64450000Y-53687500D02*
X64450000Y-54453219D01*
X64450000Y-54453219D02*
X64025375Y-54877844D01*
%TO.N,GPI 13*%
X62250000Y-54450000D02*
X63885911Y-54450000D01*
X63885911Y-54450000D02*
X64050000Y-54285911D01*
X64050000Y-54285911D02*
X64050000Y-53687500D01*
%TO.N,GPI 12*%
X63650000Y-53687500D02*
X63512500Y-53687500D01*
X63512500Y-53687500D02*
X63076000Y-53251000D01*
X63076000Y-53251000D02*
X60416100Y-53251000D01*
X58230000Y-59350000D02*
X57360000Y-60220000D01*
X60416100Y-53251000D02*
X59201000Y-54466100D01*
X59201000Y-54466100D02*
X59201000Y-59249000D01*
X59201000Y-59249000D02*
X59100000Y-59350000D01*
X59100000Y-59350000D02*
X58230000Y-59350000D01*
%TO.N,GPI 11*%
X62812500Y-52850000D02*
X60250000Y-52850000D01*
X60250000Y-52850000D02*
X58800000Y-54300000D01*
X58800000Y-54300000D02*
X58800000Y-57300000D01*
X58800000Y-57300000D02*
X58420000Y-57680000D01*
X58420000Y-57680000D02*
X57360000Y-57680000D01*
%TO.N,GPI 10*%
X62812500Y-52450000D02*
X60050000Y-52450000D01*
X60050000Y-52450000D02*
X57360000Y-55140000D01*
%TO.N,GPIO 9*%
X62812500Y-52050000D02*
X61650000Y-52050000D01*
X61650000Y-52050000D02*
X59660000Y-50060000D01*
X59660000Y-50060000D02*
X57360000Y-50060000D01*
%TO.N,GPIO 8*%
X59558000Y-49355776D02*
X59558000Y-48181711D01*
X61852224Y-51650000D02*
X59558000Y-49355776D01*
X62812500Y-51650000D02*
X61852224Y-51650000D01*
X58896289Y-47520000D02*
X57360000Y-47520000D01*
X59558000Y-48181711D02*
X58896289Y-47520000D01*
%TO.N,GPIO 7*%
X62812500Y-50850000D02*
X62277226Y-50850000D01*
X62277226Y-50850000D02*
X62276226Y-50851000D01*
X61457781Y-50617746D02*
X61691035Y-50851000D01*
X61691035Y-50851000D02*
X62276226Y-50851000D01*
%TO.N,GPIO 6*%
X62812500Y-50450000D02*
X62061189Y-50450000D01*
X62061189Y-50450000D02*
X59959000Y-48347811D01*
X58850000Y-42300000D02*
X57500000Y-42300000D01*
X59959000Y-48347811D02*
X59959000Y-43491000D01*
X59959000Y-43491000D02*
X60000000Y-43450000D01*
X60000000Y-43450000D02*
X58850000Y-42300000D01*
X57500000Y-42300000D02*
X57360000Y-42440000D01*
%TO.N,GPIO 5*%
X63394869Y-50049999D02*
X62812500Y-50050000D01*
%TO.N,GPIO 4*%
X62812500Y-49650000D02*
X62101000Y-49650000D01*
X62101000Y-49650000D02*
X62000000Y-49751000D01*
%TO.N,GPIO 3*%
X63413039Y-49250000D02*
X63450000Y-49213039D01*
X62812500Y-49250000D02*
X63413039Y-49250000D01*
%TO.N,GPIO 1*%
X60992067Y-28000000D02*
X60950000Y-27957933D01*
X60950000Y-25500000D02*
X60110000Y-24660000D01*
X60110000Y-24660000D02*
X57360000Y-24660000D01*
X60950000Y-27957933D02*
X60950000Y-25500000D01*
%TO.N,GPIO 2*%
X62812500Y-48850000D02*
X62050000Y-48850000D01*
%TO.N,GPIO 1*%
X62812500Y-48450000D02*
X63450000Y-48450000D01*
%TO.N,GPI 0*%
X62055550Y-48050000D02*
X62047565Y-48042015D01*
X62812500Y-48050000D02*
X62055550Y-48050000D01*
%TO.N,+3V3*%
X71520000Y-41800000D02*
X72111000Y-42391000D01*
X72111000Y-42391000D02*
X72111000Y-43169000D01*
X72111000Y-43169000D02*
X71500000Y-43780000D01*
X70480000Y-42500000D02*
X70820000Y-42500000D01*
X70820000Y-42500000D02*
X71520000Y-41800000D01*
X71500000Y-43780000D02*
X72111000Y-44391000D01*
X72111000Y-44391000D02*
X72111000Y-45189000D01*
X72111000Y-45189000D02*
X71500000Y-45800000D01*
X70500000Y-46800000D02*
X71500000Y-45800000D01*
X70500000Y-46800000D02*
X70500000Y-46837500D01*
X70500000Y-46837500D02*
X69687500Y-47650000D01*
X66700000Y-41380000D02*
X67378000Y-40702000D01*
X67378000Y-40702000D02*
X67378000Y-36038000D01*
X66700000Y-41380000D02*
X66700000Y-41722000D01*
X66700000Y-41722000D02*
X67378000Y-42400000D01*
%TO.N,+1V1*%
X69500000Y-45500000D02*
X68400000Y-45500000D01*
X68400000Y-45500000D02*
X68050000Y-45850000D01*
X68050000Y-45850000D02*
X68050000Y-46812500D01*
X69520000Y-43500000D02*
X69520000Y-45480000D01*
X69520000Y-45480000D02*
X69500000Y-45500000D01*
X67000000Y-53002226D02*
X67000000Y-52750000D01*
X66850000Y-53687500D02*
X66850000Y-53152226D01*
X66050000Y-46812500D02*
X66050000Y-47650000D01*
X68050000Y-47403703D02*
X67918873Y-47534830D01*
X66850000Y-53152226D02*
X67000000Y-53002226D01*
X68050000Y-46812500D02*
X68050000Y-47403703D01*
X66050000Y-47650000D02*
X66200000Y-47800000D01*
%TO.N,+3V3*%
X68200002Y-51700000D02*
X68200002Y-51499998D01*
X64455000Y-33280000D02*
X64050000Y-32875000D01*
X66900000Y-47700000D02*
X66450000Y-47250000D01*
X60620000Y-40500000D02*
X61420000Y-39700000D01*
X66848000Y-46810500D02*
X66850000Y-46812500D01*
X66450000Y-47250000D02*
X66450000Y-46812500D01*
X68850000Y-46812500D02*
X68450000Y-46812500D01*
X66800000Y-35460000D02*
X67378000Y-36038000D01*
X63500000Y-39700000D02*
X64050000Y-39150000D01*
X67378000Y-42400000D02*
X67378000Y-44787800D01*
X65100000Y-33280000D02*
X64455000Y-33280000D01*
X63750000Y-47650000D02*
X63800000Y-47700000D01*
X67378000Y-44787800D02*
X66848000Y-45317800D01*
X64050000Y-36100000D02*
X64050000Y-32875000D01*
X63550000Y-51250000D02*
X62812500Y-51250000D01*
X66000000Y-52300000D02*
X66450000Y-52750000D01*
X64050000Y-39150000D02*
X64050000Y-36100000D01*
X68100000Y-48400000D02*
X67400000Y-47700000D01*
X66800000Y-35460000D02*
X64690000Y-35460000D01*
X62812500Y-47650000D02*
X63750000Y-47650000D01*
X61420000Y-39700000D02*
X63500000Y-39700000D01*
X66450000Y-52750000D02*
X66450000Y-53687500D01*
X64690000Y-35460000D02*
X64050000Y-36100000D01*
X63900000Y-50900000D02*
X63550000Y-51250000D01*
X68200002Y-51499998D02*
X68450000Y-51250000D01*
X68100000Y-48400000D02*
X68800000Y-47700000D01*
X69687500Y-47650000D02*
X68850000Y-46812500D01*
X66850000Y-46812500D02*
X66450000Y-46812500D01*
X68800000Y-46862500D02*
X68850000Y-46812500D01*
X67400000Y-47700000D02*
X66900000Y-47700000D01*
X66848000Y-45317800D02*
X66848000Y-46810500D01*
X68800000Y-47700000D02*
X68800000Y-46862500D01*
X68450000Y-51250000D02*
X69687500Y-51250000D01*
%TO.N,VBUS*%
X63100000Y-29320000D02*
X63120000Y-29300000D01*
X68700000Y-27295000D02*
X68700000Y-26370000D01*
X68700000Y-26370000D02*
X68590000Y-26260000D01*
X63800000Y-26295298D02*
X63800000Y-27295000D01*
X68198000Y-25868000D02*
X64227298Y-25868000D01*
X63800000Y-28620000D02*
X63800000Y-27295000D01*
X63100000Y-31000000D02*
X63100000Y-29320000D01*
X64227298Y-25868000D02*
X63800000Y-26295298D01*
X63120000Y-29300000D02*
X63800000Y-28620000D01*
%TO.N,Net-(C15-Pad1)*%
X64900000Y-58500000D02*
X64900000Y-58400000D01*
X63080000Y-58000000D02*
X64400000Y-58000000D01*
X64400000Y-58000000D02*
X64900000Y-58500000D01*
X64900000Y-58400000D02*
X65190000Y-58110000D01*
X65190000Y-58110000D02*
X65190000Y-56100000D01*
%TO.N,XIN*%
X66600000Y-61600000D02*
X67100000Y-61100000D01*
X62600000Y-57000000D02*
X62182450Y-57000000D01*
X62400000Y-61600000D02*
X66600000Y-61600000D01*
X62182450Y-57000000D02*
X61539000Y-57643450D01*
X63080000Y-56520000D02*
X62600000Y-57000000D01*
X61539000Y-57643450D02*
X61539000Y-60739000D01*
X61539000Y-60739000D02*
X62400000Y-61600000D01*
X67100000Y-61100000D02*
X67100000Y-60200000D01*
X63080000Y-56030000D02*
X63080000Y-56520000D01*
%TO.N,Net-(J1-CC1)*%
X68000000Y-29090000D02*
X67500000Y-28590000D01*
X67500000Y-28590000D02*
X67500000Y-27295000D01*
%TO.N,D -*%
X67000000Y-28200000D02*
X67000000Y-27295000D01*
X67000000Y-27295000D02*
X67000000Y-29090000D01*
X66879000Y-28321000D02*
X67000000Y-28200000D01*
X66000000Y-27295000D02*
X66000000Y-28272000D01*
X66049000Y-28321000D02*
X66879000Y-28321000D01*
X66000000Y-28272000D02*
X66049000Y-28321000D01*
%TO.N,D +*%
X66451000Y-26269000D02*
X66500000Y-26318000D01*
X66500000Y-26318000D02*
X66500000Y-27295000D01*
X65700000Y-29090000D02*
X65500000Y-28890000D01*
X65500000Y-26318000D02*
X65549000Y-26269000D01*
X65549000Y-26269000D02*
X66451000Y-26269000D01*
X65500000Y-27295000D02*
X65500000Y-26318000D01*
X65500000Y-28890000D02*
X65500000Y-27295000D01*
%TO.N,Net-(J1-CC2)*%
X64500000Y-28990000D02*
X64500000Y-27295000D01*
X64600000Y-29090000D02*
X64500000Y-28990000D01*
%TO.N,Net-(U1-USB_DP)*%
X65700000Y-30110000D02*
X67999000Y-32409000D01*
X67250000Y-46812500D02*
X67250000Y-46277226D01*
X67250000Y-46277226D02*
X67249000Y-46276226D01*
X67999000Y-44733900D02*
X67249000Y-45483900D01*
X67249000Y-45483900D02*
X67249000Y-46276226D01*
X67999000Y-32409000D02*
X67999000Y-44733900D01*
%TO.N,Net-(U1-USB_DM)*%
X68400000Y-31510000D02*
X68400000Y-44900000D01*
X68400000Y-44900000D02*
X67650000Y-45650000D01*
X67000000Y-30110000D02*
X68400000Y-31510000D01*
X67650000Y-45650000D02*
X67650000Y-46812500D01*
%TO.N,XOUT*%
X66050000Y-54250000D02*
X66210000Y-54410000D01*
X66210000Y-54410000D02*
X66210000Y-56100000D01*
X66050000Y-53687500D02*
X66050000Y-54250000D01*
%TO.N,QSPI_SS*%
X62837500Y-46000000D02*
X63650000Y-46812500D01*
X61400000Y-46000000D02*
X62837500Y-46000000D01*
X61050000Y-42250000D02*
X60600000Y-42700000D01*
X62975000Y-42250000D02*
X61050000Y-42250000D01*
X60600000Y-45200000D02*
X61400000Y-46000000D01*
X60600000Y-42700000D02*
X60600000Y-45200000D01*
%TO.N,Net-(R7-Pad2)*%
X65710000Y-39090000D02*
X66600000Y-38200000D01*
X65710000Y-40500000D02*
X65710000Y-39090000D01*
%TO.N,QSPI_SD2*%
X61500000Y-44900000D02*
X61700000Y-45100000D01*
X61950000Y-43250000D02*
X61500000Y-43700000D01*
X64450000Y-45850000D02*
X64450000Y-46812500D01*
X62975000Y-43250000D02*
X61950000Y-43250000D01*
X61500000Y-43700000D02*
X61500000Y-44900000D01*
X61700000Y-45100000D02*
X63700000Y-45100000D01*
X63700000Y-45100000D02*
X64450000Y-45850000D01*
%TO.N,QSPI_SD1*%
X61117100Y-42750000D02*
X61001000Y-42866100D01*
X62975000Y-42750000D02*
X61117100Y-42750000D01*
X61001000Y-42866100D02*
X61001000Y-45033900D01*
X61001000Y-45033900D02*
X61566100Y-45599000D01*
X64050000Y-46050000D02*
X64050000Y-46812500D01*
X61566100Y-45599000D02*
X63599000Y-45599000D01*
X63599000Y-45599000D02*
X64050000Y-46050000D01*
%TO.N,QSPI_SD3*%
X65650000Y-44850000D02*
X65923000Y-44577000D01*
X66530898Y-44577000D02*
X66977000Y-44130898D01*
X65650000Y-46812500D02*
X65650000Y-44850000D01*
X66977000Y-43369102D02*
X66357898Y-42750000D01*
X65923000Y-44577000D02*
X66530898Y-44577000D01*
X66977000Y-44130898D02*
X66977000Y-43369102D01*
X66357898Y-42750000D02*
X65825000Y-42750000D01*
%TO.N,QSPI_SCLK*%
X65250000Y-44317100D02*
X65391100Y-44176000D01*
X66290798Y-43250000D02*
X65825000Y-43250000D01*
X66576000Y-43964798D02*
X66576000Y-43535202D01*
X65391100Y-44176000D02*
X66364798Y-44176000D01*
X66576000Y-43535202D02*
X66290798Y-43250000D01*
X65250000Y-46812500D02*
X65250000Y-44317100D01*
X66364798Y-44176000D02*
X66576000Y-43964798D01*
%TO.N,QSPI_SD0*%
X64850000Y-44150000D02*
X65250000Y-43750000D01*
X64850000Y-46812500D02*
X64850000Y-44150000D01*
X65250000Y-43750000D02*
X65825000Y-43750000D01*
%TD*%
%TA.AperFunction,Conductor*%
%TO.N,GND*%
G36*
X61702607Y-53871185D02*
G01*
X61748362Y-53923989D01*
X61758306Y-53993147D01*
X61738670Y-54044391D01*
X61673538Y-54141866D01*
X61673533Y-54141875D01*
X61624499Y-54260255D01*
X61624497Y-54260261D01*
X61599500Y-54385928D01*
X61599500Y-54385931D01*
X61599500Y-54514069D01*
X61599500Y-54514071D01*
X61599499Y-54514071D01*
X61624497Y-54639738D01*
X61624499Y-54639744D01*
X61673533Y-54758124D01*
X61673538Y-54758133D01*
X61744723Y-54864668D01*
X61744726Y-54864672D01*
X61835327Y-54955273D01*
X61835335Y-54955279D01*
X61906338Y-55002722D01*
X61951144Y-55056334D01*
X61959851Y-55125659D01*
X61929697Y-55188686D01*
X61872043Y-55224900D01*
X61723810Y-55267966D01*
X61723804Y-55267968D01*
X61584625Y-55350278D01*
X61584616Y-55350285D01*
X61470285Y-55464616D01*
X61470278Y-55464625D01*
X61387968Y-55603804D01*
X61387966Y-55603809D01*
X61342855Y-55759081D01*
X61342854Y-55759087D01*
X61341209Y-55779999D01*
X61341210Y-55780000D01*
X61996000Y-55780000D01*
X62063039Y-55799685D01*
X62108794Y-55852489D01*
X62120000Y-55904000D01*
X62120000Y-56156000D01*
X62100315Y-56223039D01*
X62047511Y-56268794D01*
X61996000Y-56280000D01*
X61341210Y-56280000D01*
X61342854Y-56300910D01*
X61387968Y-56456195D01*
X61470278Y-56595374D01*
X61470285Y-56595383D01*
X61516376Y-56641474D01*
X61549861Y-56702797D01*
X61544877Y-56772489D01*
X61516376Y-56816836D01*
X61170286Y-57162928D01*
X61058481Y-57274732D01*
X61058479Y-57274734D01*
X61036435Y-57312917D01*
X61027117Y-57329057D01*
X61019334Y-57342538D01*
X60986447Y-57399500D01*
X60979423Y-57411665D01*
X60938499Y-57564393D01*
X60938499Y-57564395D01*
X60938499Y-57732496D01*
X60938500Y-57732509D01*
X60938500Y-60652330D01*
X60938499Y-60652348D01*
X60938499Y-60818054D01*
X60938498Y-60818054D01*
X60938499Y-60818057D01*
X60979423Y-60970785D01*
X60979424Y-60970787D01*
X60979423Y-60970787D01*
X60994639Y-60997140D01*
X60994640Y-60997141D01*
X60996002Y-60999500D01*
X61058479Y-61107714D01*
X61058481Y-61107717D01*
X61177349Y-61226585D01*
X61177355Y-61226590D01*
X61915139Y-61964374D01*
X61915149Y-61964385D01*
X61919479Y-61968715D01*
X61919480Y-61968716D01*
X62031284Y-62080520D01*
X62031286Y-62080521D01*
X62031290Y-62080524D01*
X62103503Y-62122216D01*
X62103507Y-62122217D01*
X62103508Y-62122218D01*
X62168213Y-62159576D01*
X62168214Y-62159576D01*
X62168215Y-62159577D01*
X62320943Y-62200501D01*
X62320946Y-62200501D01*
X62486653Y-62200501D01*
X62486669Y-62200500D01*
X66513331Y-62200500D01*
X66513347Y-62200501D01*
X66520943Y-62200501D01*
X66679054Y-62200501D01*
X66679057Y-62200501D01*
X66831785Y-62159577D01*
X66896492Y-62122218D01*
X66896496Y-62122216D01*
X66968709Y-62080524D01*
X66968708Y-62080524D01*
X66968716Y-62080520D01*
X67080520Y-61968716D01*
X67080521Y-61968714D01*
X67580520Y-61468716D01*
X67655592Y-61338685D01*
X67706157Y-61290472D01*
X67723966Y-61282983D01*
X67869334Y-61234814D01*
X67990404Y-61160137D01*
X68057795Y-61141697D01*
X68124459Y-61162619D01*
X68169229Y-61216261D01*
X68179500Y-61265676D01*
X68179500Y-68725500D01*
X68159815Y-68792539D01*
X68107011Y-68838294D01*
X68055501Y-68849500D01*
X67882130Y-68849500D01*
X67882123Y-68849501D01*
X67822516Y-68855908D01*
X67687671Y-68906202D01*
X67687664Y-68906206D01*
X67572455Y-68992452D01*
X67572452Y-68992455D01*
X67486206Y-69107664D01*
X67486202Y-69107671D01*
X67435908Y-69242517D01*
X67429501Y-69302116D01*
X67429501Y-69302123D01*
X67429500Y-69302135D01*
X67429500Y-69312690D01*
X67409815Y-69379729D01*
X67393181Y-69400371D01*
X66722962Y-70070590D01*
X66705925Y-70007007D01*
X66640099Y-69892993D01*
X66547007Y-69799901D01*
X66432993Y-69734075D01*
X66369409Y-69717037D01*
X67001716Y-69084728D01*
X66947550Y-69045375D01*
X66758217Y-68948904D01*
X66556129Y-68883242D01*
X66346246Y-68850000D01*
X66133754Y-68850000D01*
X65923872Y-68883242D01*
X65923869Y-68883242D01*
X65721782Y-68948904D01*
X65532439Y-69045380D01*
X65478282Y-69084727D01*
X65478282Y-69084728D01*
X66110591Y-69717037D01*
X66047007Y-69734075D01*
X65932993Y-69799901D01*
X65839901Y-69892993D01*
X65774075Y-70007007D01*
X65757037Y-70070591D01*
X65124728Y-69438282D01*
X65124727Y-69438282D01*
X65085380Y-69492440D01*
X65085376Y-69492446D01*
X65080760Y-69501505D01*
X65032781Y-69552297D01*
X64964959Y-69569087D01*
X64898826Y-69546543D01*
X64859794Y-69501493D01*
X64855051Y-69492184D01*
X64855049Y-69492181D01*
X64855048Y-69492179D01*
X64730109Y-69320213D01*
X64579786Y-69169890D01*
X64407820Y-69044951D01*
X64218414Y-68948444D01*
X64218413Y-68948443D01*
X64218412Y-68948443D01*
X64016243Y-68882754D01*
X64016241Y-68882753D01*
X64016240Y-68882753D01*
X63854957Y-68857208D01*
X63806287Y-68849500D01*
X63593713Y-68849500D01*
X63545042Y-68857208D01*
X63383760Y-68882753D01*
X63181585Y-68948444D01*
X62992179Y-69044951D01*
X62820213Y-69169890D01*
X62669890Y-69320213D01*
X62544951Y-69492179D01*
X62448444Y-69681585D01*
X62382753Y-69883760D01*
X62363233Y-70007007D01*
X62349500Y-70093713D01*
X62349500Y-70306287D01*
X62382754Y-70516243D01*
X62402263Y-70576286D01*
X62448444Y-70718414D01*
X62544951Y-70907820D01*
X62669890Y-71079786D01*
X62669896Y-71079792D01*
X62820208Y-71230104D01*
X62861070Y-71259792D01*
X62882252Y-71275181D01*
X62924918Y-71330511D01*
X62930897Y-71400124D01*
X62898292Y-71461920D01*
X62837453Y-71496277D01*
X62809367Y-71499500D01*
X58449758Y-71499500D01*
X58382719Y-71479815D01*
X58336964Y-71427011D01*
X58327020Y-71357853D01*
X58356045Y-71294297D01*
X58362077Y-71287819D01*
X58374715Y-71275181D01*
X58390104Y-71259792D01*
X58390106Y-71259788D01*
X58390109Y-71259786D01*
X58515048Y-71087820D01*
X58515047Y-71087820D01*
X58515051Y-71087816D01*
X58611557Y-70898412D01*
X58677246Y-70696243D01*
X58710500Y-70486287D01*
X58710500Y-70273713D01*
X58677246Y-70063757D01*
X58611557Y-69861588D01*
X58515051Y-69672184D01*
X58515049Y-69672181D01*
X58515048Y-69672179D01*
X58390109Y-69500213D01*
X58239786Y-69349890D01*
X58067820Y-69224951D01*
X58067115Y-69224591D01*
X58059054Y-69220485D01*
X58008259Y-69172512D01*
X57991463Y-69104692D01*
X58013999Y-69038556D01*
X58059054Y-68999515D01*
X58067816Y-68995051D01*
X58115917Y-68960104D01*
X58239786Y-68870109D01*
X58239788Y-68870106D01*
X58239792Y-68870104D01*
X58390104Y-68719792D01*
X58390106Y-68719788D01*
X58390109Y-68719786D01*
X58515048Y-68547820D01*
X58515047Y-68547820D01*
X58515051Y-68547816D01*
X58611557Y-68358412D01*
X58677246Y-68156243D01*
X58710500Y-67946287D01*
X58710500Y-67733713D01*
X58677246Y-67523757D01*
X58611557Y-67321588D01*
X58515051Y-67132184D01*
X58515049Y-67132181D01*
X58515048Y-67132179D01*
X58390109Y-66960213D01*
X58239786Y-66809890D01*
X58067817Y-66684949D01*
X58058504Y-66680204D01*
X58007707Y-66632230D01*
X57990912Y-66564409D01*
X58013449Y-66498274D01*
X58058507Y-66459232D01*
X58067555Y-66454622D01*
X58121716Y-66415270D01*
X58121717Y-66415270D01*
X57489408Y-65782962D01*
X57552993Y-65765925D01*
X57667007Y-65700099D01*
X57760099Y-65607007D01*
X57825925Y-65492993D01*
X57842962Y-65429409D01*
X58475270Y-66061717D01*
X58475270Y-66061716D01*
X58514622Y-66007554D01*
X58611095Y-65818217D01*
X58676757Y-65616130D01*
X58676757Y-65616127D01*
X58710000Y-65406246D01*
X58710000Y-65193753D01*
X58676757Y-64983872D01*
X58676757Y-64983869D01*
X58611095Y-64781782D01*
X58514624Y-64592449D01*
X58475270Y-64538282D01*
X58475269Y-64538282D01*
X57842962Y-65170590D01*
X57825925Y-65107007D01*
X57760099Y-64992993D01*
X57667007Y-64899901D01*
X57552993Y-64834075D01*
X57489409Y-64817037D01*
X58121716Y-64184728D01*
X58067547Y-64145373D01*
X58067547Y-64145372D01*
X58058500Y-64140763D01*
X58007706Y-64092788D01*
X57990912Y-64024966D01*
X58013451Y-63958832D01*
X58058508Y-63919793D01*
X58067816Y-63915051D01*
X58213744Y-63809029D01*
X58239786Y-63790109D01*
X58239788Y-63790106D01*
X58239792Y-63790104D01*
X58390104Y-63639792D01*
X58390106Y-63639788D01*
X58390109Y-63639786D01*
X58515048Y-63467820D01*
X58515047Y-63467820D01*
X58515051Y-63467816D01*
X58611557Y-63278412D01*
X58677246Y-63076243D01*
X58710500Y-62866287D01*
X58710500Y-62653713D01*
X58677246Y-62443757D01*
X58611557Y-62241588D01*
X58515051Y-62052184D01*
X58515049Y-62052181D01*
X58515048Y-62052179D01*
X58390109Y-61880213D01*
X58239786Y-61729890D01*
X58067820Y-61604951D01*
X58067115Y-61604591D01*
X58059054Y-61600485D01*
X58008259Y-61552512D01*
X57991463Y-61484692D01*
X58013999Y-61418556D01*
X58059054Y-61379515D01*
X58067816Y-61375051D01*
X58117866Y-61338688D01*
X58239786Y-61250109D01*
X58239788Y-61250106D01*
X58239792Y-61250104D01*
X58390104Y-61099792D01*
X58390106Y-61099788D01*
X58390109Y-61099786D01*
X58515048Y-60927820D01*
X58515047Y-60927820D01*
X58515051Y-60927816D01*
X58611557Y-60738412D01*
X58677246Y-60536243D01*
X58710500Y-60326287D01*
X58710500Y-60113713D01*
X58707361Y-60093897D01*
X58709756Y-60075358D01*
X58707096Y-60056853D01*
X58714141Y-60041424D01*
X58716315Y-60024607D01*
X58728353Y-60010305D01*
X58736121Y-59993297D01*
X58750389Y-59984127D01*
X58761310Y-59971154D01*
X58779170Y-59965631D01*
X58794899Y-59955523D01*
X58826598Y-59950965D01*
X58828061Y-59950513D01*
X58829834Y-59950500D01*
X59013331Y-59950500D01*
X59013347Y-59950501D01*
X59020943Y-59950501D01*
X59179054Y-59950501D01*
X59179057Y-59950501D01*
X59331785Y-59909577D01*
X59381904Y-59880639D01*
X59468716Y-59830520D01*
X59580520Y-59718716D01*
X59681520Y-59617716D01*
X59760577Y-59480784D01*
X59801501Y-59328057D01*
X59801501Y-59169942D01*
X59801501Y-59162347D01*
X59801500Y-59162329D01*
X59801500Y-54766197D01*
X59821185Y-54699158D01*
X59837819Y-54678516D01*
X60628516Y-53887819D01*
X60689839Y-53854334D01*
X60716197Y-53851500D01*
X61635568Y-53851500D01*
X61702607Y-53871185D01*
G37*
%TD.AperFunction*%
%TA.AperFunction,Conductor*%
G36*
X65774075Y-70392993D02*
G01*
X65839901Y-70507007D01*
X65932993Y-70600099D01*
X66047007Y-70665925D01*
X66110590Y-70682962D01*
X65478282Y-71315269D01*
X65482257Y-71365771D01*
X65467893Y-71434148D01*
X65418842Y-71483905D01*
X65358639Y-71499500D01*
X64590633Y-71499500D01*
X64523594Y-71479815D01*
X64477839Y-71427011D01*
X64467895Y-71357853D01*
X64496920Y-71294297D01*
X64517748Y-71275181D01*
X64579792Y-71230104D01*
X64730104Y-71079792D01*
X64730106Y-71079788D01*
X64730109Y-71079786D01*
X64797515Y-70987007D01*
X64855051Y-70907816D01*
X64859793Y-70898508D01*
X64907763Y-70847711D01*
X64975583Y-70830911D01*
X65041719Y-70853445D01*
X65080763Y-70898500D01*
X65085373Y-70907547D01*
X65124728Y-70961716D01*
X65757037Y-70329408D01*
X65774075Y-70392993D01*
G37*
%TD.AperFunction*%
%TA.AperFunction,Conductor*%
G36*
X67393181Y-70999628D02*
G01*
X67426666Y-71060951D01*
X67429500Y-71087300D01*
X67429500Y-71097865D01*
X67429501Y-71097876D01*
X67435908Y-71157483D01*
X67486202Y-71292328D01*
X67486206Y-71292334D01*
X67492835Y-71301190D01*
X67517252Y-71366654D01*
X67502400Y-71434927D01*
X67452995Y-71484332D01*
X67393568Y-71499500D01*
X67121361Y-71499500D01*
X67054322Y-71479815D01*
X67008567Y-71427011D01*
X66997743Y-71365772D01*
X67001717Y-71315270D01*
X66369408Y-70682962D01*
X66432993Y-70665925D01*
X66547007Y-70600099D01*
X66640099Y-70507007D01*
X66705925Y-70392993D01*
X66722962Y-70329408D01*
X67393181Y-70999628D01*
G37*
%TD.AperFunction*%
%TA.AperFunction,Conductor*%
G36*
X74307281Y-48970185D02*
G01*
X74353036Y-49022989D01*
X74362980Y-49092147D01*
X74333955Y-49155703D01*
X74327923Y-49162181D01*
X74219894Y-49270209D01*
X74219890Y-49270213D01*
X74094951Y-49442179D01*
X73998444Y-49631585D01*
X73932753Y-49833760D01*
X73913250Y-49956898D01*
X73899500Y-50043713D01*
X73899500Y-50256287D01*
X73932754Y-50466243D01*
X73995872Y-50660500D01*
X73998444Y-50668414D01*
X74094951Y-50857820D01*
X74219890Y-51029786D01*
X74370213Y-51180109D01*
X74542179Y-51305048D01*
X74542181Y-51305049D01*
X74542184Y-51305051D01*
X74551493Y-51309794D01*
X74602290Y-51357766D01*
X74619087Y-51425587D01*
X74596552Y-51491722D01*
X74551505Y-51530760D01*
X74542446Y-51535376D01*
X74542440Y-51535380D01*
X74488282Y-51574727D01*
X74488282Y-51574728D01*
X75120591Y-52207037D01*
X75057007Y-52224075D01*
X74942993Y-52289901D01*
X74849901Y-52382993D01*
X74784075Y-52497007D01*
X74767037Y-52560591D01*
X74134728Y-51928282D01*
X74134727Y-51928282D01*
X74095380Y-51982439D01*
X73998904Y-52171782D01*
X73933242Y-52373869D01*
X73933242Y-52373872D01*
X73900000Y-52583753D01*
X73900000Y-52796246D01*
X73933242Y-53006127D01*
X73933242Y-53006130D01*
X73998904Y-53208217D01*
X74095375Y-53397550D01*
X74134728Y-53451716D01*
X74767037Y-52819408D01*
X74784075Y-52882993D01*
X74849901Y-52997007D01*
X74942993Y-53090099D01*
X75057007Y-53155925D01*
X75120590Y-53172962D01*
X74488282Y-53805269D01*
X74488282Y-53805270D01*
X74542452Y-53844626D01*
X74542451Y-53844626D01*
X74551495Y-53849234D01*
X74602292Y-53897208D01*
X74619087Y-53965029D01*
X74596550Y-54031164D01*
X74551499Y-54070202D01*
X74542182Y-54074949D01*
X74370213Y-54199890D01*
X74219890Y-54350213D01*
X74094951Y-54522179D01*
X73998444Y-54711585D01*
X73998443Y-54711587D01*
X73998443Y-54711588D01*
X73983320Y-54758133D01*
X73932753Y-54913760D01*
X73911483Y-55048054D01*
X73899500Y-55123713D01*
X73899500Y-55336287D01*
X73903187Y-55359566D01*
X73911313Y-55410874D01*
X73932754Y-55546243D01*
X73982550Y-55699500D01*
X73998444Y-55748414D01*
X74094951Y-55937820D01*
X74219890Y-56109786D01*
X74370213Y-56260109D01*
X74542182Y-56385050D01*
X74550946Y-56389516D01*
X74601742Y-56437491D01*
X74618536Y-56505312D01*
X74595998Y-56571447D01*
X74550946Y-56610484D01*
X74542182Y-56614949D01*
X74370213Y-56739890D01*
X74219890Y-56890213D01*
X74094951Y-57062179D01*
X73998444Y-57251585D01*
X73998443Y-57251587D01*
X73998443Y-57251588D01*
X73932754Y-57453757D01*
X73899500Y-57663713D01*
X73899500Y-57876287D01*
X73932754Y-58086243D01*
X73992783Y-58270993D01*
X73998444Y-58288414D01*
X74094951Y-58477820D01*
X74219890Y-58649786D01*
X74370213Y-58800109D01*
X74542182Y-58925050D01*
X74550946Y-58929516D01*
X74601742Y-58977491D01*
X74618536Y-59045312D01*
X74595998Y-59111447D01*
X74550946Y-59150484D01*
X74542182Y-59154949D01*
X74370213Y-59279890D01*
X74219890Y-59430213D01*
X74094951Y-59602179D01*
X73998444Y-59791585D01*
X73998443Y-59791587D01*
X73998443Y-59791588D01*
X73985793Y-59830520D01*
X73932753Y-59993760D01*
X73899500Y-60203713D01*
X73899500Y-60416286D01*
X73928598Y-60600008D01*
X73932754Y-60626243D01*
X73995078Y-60818057D01*
X73998444Y-60828414D01*
X74094951Y-61017820D01*
X74219890Y-61189786D01*
X74370213Y-61340109D01*
X74542182Y-61465050D01*
X74550946Y-61469516D01*
X74601742Y-61517491D01*
X74618536Y-61585312D01*
X74595998Y-61651447D01*
X74550946Y-61690484D01*
X74542182Y-61694949D01*
X74370213Y-61819890D01*
X74219890Y-61970213D01*
X74094951Y-62142179D01*
X73998444Y-62331585D01*
X73932753Y-62533760D01*
X73899500Y-62743713D01*
X73899500Y-62956286D01*
X73932753Y-63166239D01*
X73998444Y-63368414D01*
X74094951Y-63557820D01*
X74219890Y-63729786D01*
X74370213Y-63880109D01*
X74542179Y-64005048D01*
X74542181Y-64005049D01*
X74542184Y-64005051D01*
X74551493Y-64009794D01*
X74602290Y-64057766D01*
X74619087Y-64125587D01*
X74596552Y-64191722D01*
X74551505Y-64230760D01*
X74542446Y-64235376D01*
X74542440Y-64235380D01*
X74488282Y-64274727D01*
X74488282Y-64274728D01*
X75120591Y-64907037D01*
X75057007Y-64924075D01*
X74942993Y-64989901D01*
X74849901Y-65082993D01*
X74784075Y-65197007D01*
X74767037Y-65260591D01*
X74134728Y-64628282D01*
X74134727Y-64628282D01*
X74095380Y-64682439D01*
X73998904Y-64871782D01*
X73933242Y-65073869D01*
X73933242Y-65073872D01*
X73900000Y-65283753D01*
X73900000Y-65496246D01*
X73933242Y-65706127D01*
X73933242Y-65706130D01*
X73998904Y-65908217D01*
X74095375Y-66097550D01*
X74134728Y-66151716D01*
X74767037Y-65519408D01*
X74784075Y-65582993D01*
X74849901Y-65697007D01*
X74942993Y-65790099D01*
X75057007Y-65855925D01*
X75120590Y-65872962D01*
X74488282Y-66505269D01*
X74488282Y-66505270D01*
X74542452Y-66544626D01*
X74542451Y-66544626D01*
X74551495Y-66549234D01*
X74602292Y-66597208D01*
X74619087Y-66665029D01*
X74596550Y-66731164D01*
X74551499Y-66770202D01*
X74542182Y-66774949D01*
X74370213Y-66899890D01*
X74219890Y-67050213D01*
X74094951Y-67222179D01*
X73998444Y-67411585D01*
X73932753Y-67613760D01*
X73899500Y-67823713D01*
X73899500Y-68036286D01*
X73932753Y-68246239D01*
X73998444Y-68448414D01*
X74094951Y-68637820D01*
X74219890Y-68809786D01*
X74370213Y-68960109D01*
X74542182Y-69085050D01*
X74550946Y-69089516D01*
X74601742Y-69137491D01*
X74618536Y-69205312D01*
X74595998Y-69271447D01*
X74550946Y-69310484D01*
X74542182Y-69314949D01*
X74370213Y-69439890D01*
X74219890Y-69590213D01*
X74094951Y-69762179D01*
X73998444Y-69951585D01*
X73932753Y-70153760D01*
X73908595Y-70306287D01*
X73899500Y-70363713D01*
X73899500Y-70576287D01*
X73909534Y-70639644D01*
X73922010Y-70718412D01*
X73932754Y-70786243D01*
X73972256Y-70907818D01*
X73998444Y-70988414D01*
X74094948Y-71177815D01*
X74185620Y-71302615D01*
X74209099Y-71368422D01*
X74193273Y-71436475D01*
X74143167Y-71485170D01*
X74085301Y-71499500D01*
X70166432Y-71499500D01*
X70099393Y-71479815D01*
X70053638Y-71427011D01*
X70043694Y-71357853D01*
X70067165Y-71301190D01*
X70072324Y-71294297D01*
X70073796Y-71292331D01*
X70124091Y-71157483D01*
X70130500Y-71097873D01*
X70130499Y-69302128D01*
X70124091Y-69242517D01*
X70117539Y-69224951D01*
X70073797Y-69107671D01*
X70073793Y-69107664D01*
X69987547Y-68992455D01*
X69987544Y-68992452D01*
X69872335Y-68906206D01*
X69872328Y-68906202D01*
X69737482Y-68855908D01*
X69737483Y-68855908D01*
X69677883Y-68849501D01*
X69677881Y-68849500D01*
X69677873Y-68849500D01*
X69677865Y-68849500D01*
X69504500Y-68849500D01*
X69437461Y-68829815D01*
X69391706Y-68777011D01*
X69380500Y-68725500D01*
X69380500Y-57550945D01*
X69380500Y-57550943D01*
X69354459Y-57453757D01*
X69339577Y-57398215D01*
X69289387Y-57311284D01*
X69260520Y-57261284D01*
X69148716Y-57149480D01*
X69148715Y-57149479D01*
X69144385Y-57145149D01*
X69144374Y-57145139D01*
X69111416Y-57112181D01*
X69077931Y-57050858D01*
X69082915Y-56981166D01*
X69124787Y-56925233D01*
X69190251Y-56900816D01*
X69199097Y-56900500D01*
X69963331Y-56900500D01*
X69963347Y-56900501D01*
X69970943Y-56900501D01*
X70129054Y-56900501D01*
X70129057Y-56900501D01*
X70281785Y-56859577D01*
X70351233Y-56819481D01*
X70418716Y-56780520D01*
X70530520Y-56668716D01*
X70530520Y-56668714D01*
X70540724Y-56658511D01*
X70540728Y-56658506D01*
X73058506Y-54140728D01*
X73058511Y-54140724D01*
X73068714Y-54130520D01*
X73068716Y-54130520D01*
X73180520Y-54018716D01*
X73202756Y-53980202D01*
X73245293Y-53906526D01*
X73245294Y-53906524D01*
X73251089Y-53896484D01*
X73259577Y-53881785D01*
X73300501Y-53729057D01*
X73300501Y-53570943D01*
X73300501Y-53563348D01*
X73300500Y-53563330D01*
X73300500Y-49850097D01*
X73320185Y-49783058D01*
X73336819Y-49762416D01*
X74112416Y-48986819D01*
X74139343Y-48972115D01*
X74165162Y-48955523D01*
X74171362Y-48954631D01*
X74173739Y-48953334D01*
X74200097Y-48950500D01*
X74240242Y-48950500D01*
X74307281Y-48970185D01*
G37*
%TD.AperFunction*%
%TA.AperFunction,Conductor*%
G36*
X56894075Y-65492993D02*
G01*
X56959901Y-65607007D01*
X57052993Y-65700099D01*
X57167007Y-65765925D01*
X57230590Y-65782962D01*
X56598282Y-66415269D01*
X56598282Y-66415270D01*
X56652452Y-66454626D01*
X56652451Y-66454626D01*
X56661495Y-66459234D01*
X56712292Y-66507208D01*
X56729087Y-66575029D01*
X56706550Y-66641164D01*
X56661499Y-66680202D01*
X56652182Y-66684949D01*
X56480213Y-66809890D01*
X56329894Y-66960209D01*
X56329890Y-66960214D01*
X56224818Y-67104835D01*
X56169489Y-67147501D01*
X56099875Y-67153480D01*
X56038080Y-67120875D01*
X56003723Y-67060036D01*
X56000500Y-67031950D01*
X56000500Y-66107197D01*
X56020185Y-66040158D01*
X56072989Y-65994403D01*
X56142147Y-65984459D01*
X56205703Y-66013484D01*
X56224819Y-66034313D01*
X56244728Y-66061716D01*
X56877037Y-65429408D01*
X56894075Y-65492993D01*
G37*
%TD.AperFunction*%
%TA.AperFunction,Conductor*%
G36*
X76365269Y-66151716D02*
G01*
X76365770Y-66151677D01*
X76434147Y-66166041D01*
X76483905Y-66215092D01*
X76499500Y-66275295D01*
X76499500Y-66970970D01*
X76479815Y-67038009D01*
X76427011Y-67083764D01*
X76357853Y-67093708D01*
X76294297Y-67064683D01*
X76281222Y-67051516D01*
X76280107Y-67050211D01*
X76129786Y-66899890D01*
X75957817Y-66774949D01*
X75948504Y-66770204D01*
X75897707Y-66722230D01*
X75880912Y-66654409D01*
X75903449Y-66588274D01*
X75948507Y-66549232D01*
X75957555Y-66544622D01*
X76011716Y-66505270D01*
X76011717Y-66505270D01*
X75379408Y-65872962D01*
X75442993Y-65855925D01*
X75557007Y-65790099D01*
X75650099Y-65697007D01*
X75715925Y-65582993D01*
X75732962Y-65519408D01*
X76365269Y-66151716D01*
G37*
%TD.AperFunction*%
%TA.AperFunction,Conductor*%
G36*
X76468635Y-63727164D02*
G01*
X76498110Y-63790512D01*
X76499500Y-63809029D01*
X76499500Y-64504703D01*
X76479815Y-64571742D01*
X76427011Y-64617497D01*
X76365772Y-64628321D01*
X76365270Y-64628281D01*
X75732962Y-65260590D01*
X75715925Y-65197007D01*
X75650099Y-65082993D01*
X75557007Y-64989901D01*
X75442993Y-64924075D01*
X75379409Y-64907037D01*
X76011716Y-64274728D01*
X75957547Y-64235373D01*
X75957547Y-64235372D01*
X75948500Y-64230763D01*
X75897706Y-64182788D01*
X75880912Y-64114966D01*
X75903451Y-64048832D01*
X75948508Y-64009793D01*
X75957816Y-64005051D01*
X76037007Y-63947515D01*
X76129786Y-63880109D01*
X76129788Y-63880106D01*
X76129792Y-63880104D01*
X76280104Y-63729792D01*
X76280107Y-63729787D01*
X76281214Y-63728493D01*
X76281758Y-63728137D01*
X76283549Y-63726347D01*
X76283925Y-63726723D01*
X76339723Y-63690302D01*
X76409591Y-63689807D01*
X76468635Y-63727164D01*
G37*
%TD.AperFunction*%
%TA.AperFunction,Conductor*%
G36*
X56205703Y-63474336D02*
G01*
X56224815Y-63495160D01*
X56277772Y-63568049D01*
X56329896Y-63639792D01*
X56480213Y-63790109D01*
X56652179Y-63915048D01*
X56652181Y-63915049D01*
X56652184Y-63915051D01*
X56661493Y-63919794D01*
X56712290Y-63967766D01*
X56729087Y-64035587D01*
X56706552Y-64101722D01*
X56661505Y-64140760D01*
X56652446Y-64145376D01*
X56652440Y-64145380D01*
X56598282Y-64184727D01*
X56598282Y-64184728D01*
X57230591Y-64817037D01*
X57167007Y-64834075D01*
X57052993Y-64899901D01*
X56959901Y-64992993D01*
X56894075Y-65107007D01*
X56877037Y-65170591D01*
X56244728Y-64538282D01*
X56244727Y-64538282D01*
X56224819Y-64565685D01*
X56169489Y-64608351D01*
X56099876Y-64614330D01*
X56038080Y-64581725D01*
X56003723Y-64520887D01*
X56000500Y-64492800D01*
X56000500Y-63568049D01*
X56020185Y-63501010D01*
X56072989Y-63455255D01*
X56142147Y-63445311D01*
X56205703Y-63474336D01*
G37*
%TD.AperFunction*%
%TA.AperFunction,Conductor*%
G36*
X63646366Y-58746189D02*
G01*
X63690129Y-58800654D01*
X63699501Y-58847944D01*
X63699501Y-58900018D01*
X63710000Y-59002796D01*
X63710001Y-59002799D01*
X63765185Y-59169331D01*
X63765189Y-59169340D01*
X63836763Y-59285380D01*
X63855203Y-59352772D01*
X63836763Y-59415573D01*
X63765643Y-59530875D01*
X63765641Y-59530880D01*
X63710494Y-59697302D01*
X63710493Y-59697309D01*
X63700000Y-59800013D01*
X63700000Y-59950000D01*
X64776000Y-59950000D01*
X64843039Y-59969685D01*
X64888794Y-60022489D01*
X64900000Y-60074000D01*
X64900000Y-60326000D01*
X64880315Y-60393039D01*
X64827511Y-60438794D01*
X64776000Y-60450000D01*
X63700001Y-60450000D01*
X63700001Y-60599986D01*
X63710494Y-60702697D01*
X63754831Y-60836496D01*
X63757233Y-60906324D01*
X63721501Y-60966366D01*
X63658981Y-60997559D01*
X63637125Y-60999500D01*
X62700097Y-60999500D01*
X62633058Y-60979815D01*
X62612416Y-60963181D01*
X62175819Y-60526584D01*
X62142334Y-60465261D01*
X62139500Y-60438903D01*
X62139500Y-58933999D01*
X62159185Y-58866960D01*
X62211989Y-58821205D01*
X62263500Y-58809999D01*
X62324624Y-58809999D01*
X62324649Y-58809998D01*
X62360911Y-58807145D01*
X62516194Y-58762032D01*
X62536384Y-58750091D01*
X62604108Y-58732906D01*
X62662629Y-58750089D01*
X62683605Y-58762494D01*
X62683612Y-58762496D01*
X62839002Y-58807642D01*
X62839005Y-58807642D01*
X62839007Y-58807643D01*
X62875310Y-58810500D01*
X62875318Y-58810500D01*
X63284682Y-58810500D01*
X63284690Y-58810500D01*
X63320993Y-58807643D01*
X63320995Y-58807642D01*
X63320997Y-58807642D01*
X63476389Y-58762496D01*
X63476389Y-58762495D01*
X63476395Y-58762494D01*
X63512382Y-58741211D01*
X63580103Y-58724029D01*
X63646366Y-58746189D01*
G37*
%TD.AperFunction*%
%TA.AperFunction,Conductor*%
G36*
X56894075Y-52792993D02*
G01*
X56959901Y-52907007D01*
X57052993Y-53000099D01*
X57167007Y-53065925D01*
X57230590Y-53082962D01*
X56598282Y-53715269D01*
X56598282Y-53715270D01*
X56652452Y-53754626D01*
X56652451Y-53754626D01*
X56661495Y-53759234D01*
X56712292Y-53807208D01*
X56729087Y-53875029D01*
X56706550Y-53941164D01*
X56661499Y-53980202D01*
X56652182Y-53984949D01*
X56480213Y-54109890D01*
X56329894Y-54260209D01*
X56329890Y-54260214D01*
X56224818Y-54404835D01*
X56169489Y-54447501D01*
X56099875Y-54453480D01*
X56038080Y-54420875D01*
X56003723Y-54360036D01*
X56000500Y-54331950D01*
X56000500Y-53407197D01*
X56020185Y-53340158D01*
X56072989Y-53294403D01*
X56142147Y-53284459D01*
X56205703Y-53313484D01*
X56224819Y-53334313D01*
X56244728Y-53361716D01*
X56877037Y-52729408D01*
X56894075Y-52792993D01*
G37*
%TD.AperFunction*%
%TA.AperFunction,Conductor*%
G36*
X76365269Y-53451716D02*
G01*
X76365770Y-53451677D01*
X76434147Y-53466041D01*
X76483905Y-53515092D01*
X76499500Y-53575295D01*
X76499500Y-54270970D01*
X76479815Y-54338009D01*
X76427011Y-54383764D01*
X76357853Y-54393708D01*
X76294297Y-54364683D01*
X76281222Y-54351516D01*
X76280107Y-54350211D01*
X76129786Y-54199890D01*
X75957817Y-54074949D01*
X75948504Y-54070204D01*
X75897707Y-54022230D01*
X75880912Y-53954409D01*
X75903449Y-53888274D01*
X75948507Y-53849232D01*
X75957555Y-53844622D01*
X76011716Y-53805270D01*
X76011717Y-53805270D01*
X75379408Y-53172962D01*
X75442993Y-53155925D01*
X75557007Y-53090099D01*
X75650099Y-52997007D01*
X75715925Y-52882993D01*
X75732962Y-52819408D01*
X76365269Y-53451716D01*
G37*
%TD.AperFunction*%
%TA.AperFunction,Conductor*%
G36*
X59426942Y-50680185D02*
G01*
X59447584Y-50696819D01*
X60388584Y-51637819D01*
X60422069Y-51699142D01*
X60417085Y-51768834D01*
X60375213Y-51824767D01*
X60309749Y-51849184D01*
X60300903Y-51849500D01*
X59970941Y-51849500D01*
X59933655Y-51859490D01*
X59933656Y-51859491D01*
X59818214Y-51890423D01*
X59818209Y-51890426D01*
X59681290Y-51969475D01*
X59681282Y-51969481D01*
X59569478Y-52081286D01*
X58921681Y-52729082D01*
X58860358Y-52762567D01*
X58790666Y-52757583D01*
X58734733Y-52715711D01*
X58710316Y-52650247D01*
X58710000Y-52641401D01*
X58710000Y-52493753D01*
X58676757Y-52283872D01*
X58676757Y-52283869D01*
X58611095Y-52081782D01*
X58514624Y-51892449D01*
X58475270Y-51838282D01*
X58475269Y-51838282D01*
X57842962Y-52470590D01*
X57825925Y-52407007D01*
X57760099Y-52292993D01*
X57667007Y-52199901D01*
X57552993Y-52134075D01*
X57489409Y-52117037D01*
X58121716Y-51484728D01*
X58067547Y-51445373D01*
X58067547Y-51445372D01*
X58058500Y-51440763D01*
X58007706Y-51392788D01*
X57990912Y-51324966D01*
X58013451Y-51258832D01*
X58058508Y-51219793D01*
X58067816Y-51215051D01*
X58213744Y-51109029D01*
X58239786Y-51090109D01*
X58239788Y-51090106D01*
X58239792Y-51090104D01*
X58390104Y-50939792D01*
X58390106Y-50939788D01*
X58390109Y-50939786D01*
X58490934Y-50801010D01*
X58515051Y-50767816D01*
X58515349Y-50767230D01*
X58535235Y-50728205D01*
X58583209Y-50677409D01*
X58645719Y-50660500D01*
X59359903Y-50660500D01*
X59426942Y-50680185D01*
G37*
%TD.AperFunction*%
%TA.AperFunction,Conductor*%
G36*
X64668434Y-47739876D02*
G01*
X64668436Y-47739877D01*
X64740821Y-47748569D01*
X64756897Y-47750500D01*
X64756898Y-47750500D01*
X64943103Y-47750500D01*
X64959178Y-47748569D01*
X65031564Y-47739877D01*
X65031565Y-47739876D01*
X65035215Y-47739438D01*
X65064785Y-47739438D01*
X65068434Y-47739876D01*
X65068436Y-47739877D01*
X65140821Y-47748569D01*
X65156897Y-47750500D01*
X65156898Y-47750500D01*
X65343092Y-47750500D01*
X65343102Y-47750500D01*
X65345002Y-47750271D01*
X65345505Y-47750356D01*
X65346796Y-47750279D01*
X65346813Y-47750575D01*
X65373550Y-47755053D01*
X65402435Y-47756946D01*
X65407587Y-47760755D01*
X65413907Y-47761814D01*
X65435339Y-47781272D01*
X65458618Y-47798482D01*
X65462075Y-47805545D01*
X65465637Y-47808779D01*
X65475717Y-47829357D01*
X65477950Y-47835236D01*
X65490423Y-47881785D01*
X65500651Y-47899500D01*
X65505640Y-47908141D01*
X65569477Y-48018712D01*
X65569481Y-48018717D01*
X65581092Y-48030328D01*
X65607972Y-48070555D01*
X65623535Y-48108127D01*
X65623538Y-48108133D01*
X65694723Y-48214668D01*
X65694726Y-48214672D01*
X65785327Y-48305273D01*
X65785331Y-48305276D01*
X65891866Y-48376461D01*
X65891872Y-48376464D01*
X65891873Y-48376465D01*
X66010256Y-48425501D01*
X66010260Y-48425501D01*
X66010261Y-48425502D01*
X66135928Y-48450500D01*
X66135931Y-48450500D01*
X66264071Y-48450500D01*
X66364884Y-48430446D01*
X66389744Y-48425501D01*
X66508127Y-48376465D01*
X66614669Y-48305276D01*
X66614671Y-48305273D01*
X66619373Y-48301415D01*
X66620952Y-48303339D01*
X66672668Y-48275068D01*
X66731175Y-48276446D01*
X66820943Y-48300500D01*
X67099903Y-48300500D01*
X67166942Y-48320185D01*
X67187584Y-48336819D01*
X67481091Y-48630326D01*
X67507971Y-48670553D01*
X67523535Y-48708126D01*
X67523538Y-48708133D01*
X67594723Y-48814668D01*
X67594726Y-48814672D01*
X67685327Y-48905273D01*
X67685331Y-48905276D01*
X67791866Y-48976461D01*
X67791872Y-48976464D01*
X67791873Y-48976465D01*
X67910256Y-49025501D01*
X67910260Y-49025501D01*
X67910261Y-49025502D01*
X68035928Y-49050500D01*
X68035931Y-49050500D01*
X68164071Y-49050500D01*
X68267649Y-49029896D01*
X68289744Y-49025501D01*
X68408127Y-48976465D01*
X68514669Y-48905276D01*
X68539887Y-48880057D01*
X68552961Y-48872918D01*
X68562977Y-48861890D01*
X68583005Y-48856512D01*
X68601208Y-48846573D01*
X68616069Y-48847635D01*
X68630457Y-48843773D01*
X68650213Y-48850077D01*
X68670900Y-48851557D01*
X68682826Y-48860484D01*
X68697020Y-48865014D01*
X68710231Y-48880999D01*
X68726834Y-48893427D01*
X68732789Y-48908292D01*
X68741532Y-48918870D01*
X68750682Y-48952953D01*
X68753507Y-48976466D01*
X68760561Y-49035218D01*
X68760561Y-49064783D01*
X68754718Y-49113440D01*
X68749500Y-49156898D01*
X68749500Y-49343102D01*
X68755101Y-49389744D01*
X68760561Y-49435217D01*
X68760561Y-49464783D01*
X68755255Y-49508974D01*
X68749500Y-49556898D01*
X68749500Y-49743102D01*
X68754298Y-49783058D01*
X68760561Y-49835217D01*
X68760561Y-49864783D01*
X68754718Y-49913440D01*
X68749500Y-49956898D01*
X68749500Y-50143102D01*
X68753224Y-50174113D01*
X68760561Y-50235217D01*
X68760561Y-50264783D01*
X68758224Y-50284248D01*
X68749500Y-50356898D01*
X68749500Y-50356903D01*
X68749500Y-50525500D01*
X68746949Y-50534185D01*
X68748238Y-50543147D01*
X68737259Y-50567187D01*
X68729815Y-50592539D01*
X68722974Y-50598466D01*
X68719213Y-50606703D01*
X68696978Y-50620992D01*
X68677011Y-50638294D01*
X68666496Y-50640581D01*
X68660435Y-50644477D01*
X68625500Y-50649500D01*
X68536670Y-50649500D01*
X68536654Y-50649499D01*
X68529058Y-50649499D01*
X68370943Y-50649499D01*
X68300360Y-50668412D01*
X68218214Y-50690423D01*
X68218209Y-50690426D01*
X68081290Y-50769475D01*
X68081282Y-50769481D01*
X67719483Y-51131280D01*
X67719482Y-51131282D01*
X67682854Y-51194724D01*
X67640425Y-51268213D01*
X67599501Y-51420941D01*
X67599501Y-51420943D01*
X67599501Y-51425235D01*
X67590062Y-51472687D01*
X67574502Y-51510251D01*
X67574499Y-51510261D01*
X67549502Y-51635928D01*
X67549502Y-51635931D01*
X67549502Y-51764069D01*
X67549502Y-51764071D01*
X67549501Y-51764071D01*
X67574499Y-51889738D01*
X67574501Y-51889744D01*
X67623535Y-52008124D01*
X67623540Y-52008133D01*
X67694725Y-52114668D01*
X67694728Y-52114672D01*
X67785329Y-52205273D01*
X67785333Y-52205276D01*
X67891868Y-52276461D01*
X67891874Y-52276464D01*
X67891875Y-52276465D01*
X68010258Y-52325501D01*
X68010262Y-52325501D01*
X68010263Y-52325502D01*
X68135930Y-52350500D01*
X68135933Y-52350500D01*
X68264073Y-52350500D01*
X68348617Y-52333682D01*
X68389746Y-52325501D01*
X68508129Y-52276465D01*
X68556985Y-52243820D01*
X68623660Y-52222943D01*
X68691041Y-52241427D01*
X68737731Y-52293405D01*
X68749432Y-52353192D01*
X68749500Y-52353192D01*
X68749500Y-52353540D01*
X68749654Y-52354327D01*
X68749500Y-52356895D01*
X68749500Y-52356898D01*
X68749500Y-52543102D01*
X68751560Y-52560255D01*
X68758848Y-52620949D01*
X68747296Y-52689857D01*
X68700323Y-52741581D01*
X68632843Y-52759698D01*
X68620949Y-52758848D01*
X68595426Y-52755783D01*
X68543102Y-52749500D01*
X68356898Y-52749500D01*
X68313440Y-52754718D01*
X68264783Y-52760561D01*
X68235217Y-52760561D01*
X68186559Y-52754718D01*
X68143102Y-52749500D01*
X67956898Y-52749500D01*
X67913440Y-52754718D01*
X67864783Y-52760561D01*
X67835217Y-52760561D01*
X67780547Y-52753996D01*
X67750475Y-52750385D01*
X67686262Y-52722849D01*
X67647129Y-52664967D01*
X67643643Y-52651461D01*
X67643402Y-52650247D01*
X67625501Y-52560256D01*
X67576465Y-52441873D01*
X67576464Y-52441872D01*
X67576461Y-52441866D01*
X67505276Y-52335331D01*
X67505273Y-52335327D01*
X67414672Y-52244726D01*
X67414668Y-52244723D01*
X67308133Y-52173538D01*
X67308124Y-52173533D01*
X67189744Y-52124499D01*
X67189738Y-52124497D01*
X67064071Y-52099500D01*
X67064069Y-52099500D01*
X66935931Y-52099500D01*
X66935929Y-52099500D01*
X66810262Y-52124497D01*
X66810255Y-52124499D01*
X66790262Y-52132780D01*
X66770387Y-52134915D01*
X66751660Y-52141901D01*
X66736360Y-52138572D01*
X66720792Y-52140246D01*
X66702917Y-52131297D01*
X66683387Y-52127049D01*
X66661091Y-52110358D01*
X66658314Y-52108968D01*
X66655133Y-52105898D01*
X66618907Y-52069672D01*
X66592027Y-52029444D01*
X66576465Y-51991873D01*
X66576461Y-51991866D01*
X66505276Y-51885331D01*
X66505273Y-51885327D01*
X66414672Y-51794726D01*
X66414668Y-51794723D01*
X66308133Y-51723538D01*
X66308124Y-51723533D01*
X66189744Y-51674499D01*
X66189738Y-51674497D01*
X66064071Y-51649500D01*
X66064069Y-51649500D01*
X65935931Y-51649500D01*
X65935929Y-51649500D01*
X65810261Y-51674497D01*
X65810255Y-51674499D01*
X65691875Y-51723533D01*
X65691866Y-51723538D01*
X65585331Y-51794723D01*
X65585327Y-51794726D01*
X65494726Y-51885327D01*
X65494723Y-51885331D01*
X65423538Y-51991866D01*
X65423533Y-51991875D01*
X65374499Y-52110255D01*
X65374497Y-52110261D01*
X65349500Y-52235928D01*
X65349500Y-52235931D01*
X65349500Y-52364069D01*
X65349500Y-52364071D01*
X65349499Y-52364071D01*
X65374497Y-52489738D01*
X65374500Y-52489748D01*
X65411282Y-52578548D01*
X65414484Y-52608338D01*
X65420162Y-52637764D01*
X65418180Y-52642715D01*
X65418751Y-52648017D01*
X65405339Y-52674808D01*
X65394206Y-52702634D01*
X65389861Y-52705729D01*
X65387475Y-52710496D01*
X65361713Y-52725780D01*
X65337299Y-52743173D01*
X65330461Y-52744323D01*
X65327386Y-52746148D01*
X65302644Y-52749858D01*
X65058027Y-52761556D01*
X65054966Y-52760814D01*
X65037321Y-52760814D01*
X65003771Y-52756785D01*
X64943102Y-52749500D01*
X64756898Y-52749500D01*
X64713440Y-52754718D01*
X64664783Y-52760561D01*
X64635217Y-52760561D01*
X64586559Y-52754718D01*
X64543102Y-52749500D01*
X64356898Y-52749500D01*
X64313440Y-52754718D01*
X64264783Y-52760561D01*
X64235217Y-52760561D01*
X64186559Y-52754718D01*
X64143102Y-52749500D01*
X63956898Y-52749500D01*
X63915660Y-52754452D01*
X63879049Y-52758848D01*
X63810141Y-52747296D01*
X63758417Y-52700323D01*
X63740300Y-52632843D01*
X63741149Y-52620967D01*
X63750500Y-52543102D01*
X63750500Y-52356898D01*
X63739877Y-52268436D01*
X63739876Y-52268434D01*
X63739438Y-52264785D01*
X63739438Y-52235215D01*
X63739876Y-52231565D01*
X63739877Y-52231564D01*
X63750500Y-52143102D01*
X63750500Y-51956898D01*
X63745741Y-51917271D01*
X63748931Y-51898236D01*
X63747097Y-51879022D01*
X63754588Y-51864490D01*
X63757291Y-51848366D01*
X63770266Y-51834076D01*
X63779112Y-51816919D01*
X63802672Y-51798391D01*
X63804262Y-51796641D01*
X63806811Y-51795127D01*
X63846047Y-51772475D01*
X63918716Y-51730520D01*
X64030520Y-51618716D01*
X64030521Y-51618714D01*
X64130330Y-51518903D01*
X64170555Y-51492026D01*
X64208127Y-51476465D01*
X64314669Y-51405276D01*
X64405276Y-51314669D01*
X64476465Y-51208127D01*
X64525501Y-51089744D01*
X64545282Y-50990302D01*
X64550500Y-50964071D01*
X64550500Y-50835928D01*
X64525502Y-50710261D01*
X64525501Y-50710260D01*
X64525501Y-50710256D01*
X64476465Y-50591873D01*
X64476464Y-50591872D01*
X64476461Y-50591866D01*
X64405276Y-50485331D01*
X64405273Y-50485327D01*
X64314672Y-50394726D01*
X64314668Y-50394723D01*
X64208133Y-50323538D01*
X64208123Y-50323533D01*
X64113281Y-50284248D01*
X64058878Y-50240407D01*
X64036813Y-50174113D01*
X64039116Y-50145502D01*
X64045369Y-50114068D01*
X64045369Y-49985930D01*
X64045369Y-49985927D01*
X64020371Y-49860260D01*
X64020370Y-49860259D01*
X64020370Y-49860255D01*
X63972115Y-49743757D01*
X63971335Y-49741874D01*
X63971330Y-49741865D01*
X63971193Y-49741660D01*
X63971154Y-49741535D01*
X63968461Y-49736497D01*
X63969416Y-49735986D01*
X63950318Y-49674981D01*
X63968805Y-49607602D01*
X63971196Y-49603882D01*
X64026461Y-49521172D01*
X64026461Y-49521171D01*
X64026465Y-49521166D01*
X64075501Y-49402783D01*
X64088469Y-49337592D01*
X64100500Y-49277110D01*
X64100500Y-49148967D01*
X64075502Y-49023300D01*
X64075501Y-49023299D01*
X64075501Y-49023295D01*
X64026465Y-48904912D01*
X64023456Y-48900409D01*
X64002578Y-48833737D01*
X64021060Y-48766356D01*
X64023424Y-48762677D01*
X64026465Y-48758127D01*
X64075501Y-48639744D01*
X64084667Y-48593663D01*
X64100500Y-48514071D01*
X64100500Y-48385928D01*
X64098340Y-48375072D01*
X64104564Y-48305480D01*
X64147425Y-48250301D01*
X64151023Y-48247802D01*
X64214669Y-48205276D01*
X64305276Y-48114669D01*
X64376465Y-48008127D01*
X64425501Y-47889744D01*
X64433454Y-47849760D01*
X64444863Y-47827950D01*
X64452345Y-47804503D01*
X64460771Y-47797538D01*
X64465838Y-47787852D01*
X64487225Y-47775672D01*
X64506199Y-47759990D01*
X64522405Y-47755638D01*
X64526553Y-47753277D01*
X64540286Y-47750838D01*
X64543101Y-47750500D01*
X64543102Y-47750500D01*
X64631564Y-47739877D01*
X64631566Y-47739876D01*
X64635215Y-47739438D01*
X64664785Y-47739438D01*
X64668434Y-47739876D01*
G37*
%TD.AperFunction*%
%TA.AperFunction,Conductor*%
G36*
X76468635Y-51027164D02*
G01*
X76498110Y-51090512D01*
X76499500Y-51109029D01*
X76499500Y-51804703D01*
X76479815Y-51871742D01*
X76427011Y-51917497D01*
X76365772Y-51928321D01*
X76365270Y-51928281D01*
X75732962Y-52560590D01*
X75715925Y-52497007D01*
X75650099Y-52382993D01*
X75557007Y-52289901D01*
X75442993Y-52224075D01*
X75379409Y-52207037D01*
X76011716Y-51574728D01*
X75957547Y-51535373D01*
X75957547Y-51535372D01*
X75948500Y-51530763D01*
X75897706Y-51482788D01*
X75880912Y-51414966D01*
X75903451Y-51348832D01*
X75948508Y-51309793D01*
X75957816Y-51305051D01*
X76037007Y-51247515D01*
X76129786Y-51180109D01*
X76129788Y-51180106D01*
X76129792Y-51180104D01*
X76280104Y-51029792D01*
X76280107Y-51029787D01*
X76281214Y-51028493D01*
X76281758Y-51028137D01*
X76283549Y-51026347D01*
X76283925Y-51026723D01*
X76339723Y-50990302D01*
X76409591Y-50989807D01*
X76468635Y-51027164D01*
G37*
%TD.AperFunction*%
%TA.AperFunction,Conductor*%
G36*
X56205703Y-50774336D02*
G01*
X56224815Y-50795160D01*
X56277772Y-50868049D01*
X56329896Y-50939792D01*
X56480213Y-51090109D01*
X56652179Y-51215048D01*
X56652181Y-51215049D01*
X56652184Y-51215051D01*
X56661493Y-51219794D01*
X56712290Y-51267766D01*
X56729087Y-51335587D01*
X56706552Y-51401722D01*
X56661505Y-51440760D01*
X56652446Y-51445376D01*
X56652440Y-51445380D01*
X56598282Y-51484727D01*
X56598282Y-51484728D01*
X57230591Y-52117037D01*
X57167007Y-52134075D01*
X57052993Y-52199901D01*
X56959901Y-52292993D01*
X56894075Y-52407007D01*
X56877037Y-52470591D01*
X56244728Y-51838282D01*
X56244727Y-51838282D01*
X56224819Y-51865685D01*
X56169489Y-51908351D01*
X56099876Y-51914330D01*
X56038080Y-51881725D01*
X56003723Y-51820887D01*
X56000500Y-51792800D01*
X56000500Y-50868049D01*
X56020185Y-50801010D01*
X56072989Y-50755255D01*
X56142147Y-50745311D01*
X56205703Y-50774336D01*
G37*
%TD.AperFunction*%
%TA.AperFunction,Conductor*%
G36*
X74174136Y-33870185D02*
G01*
X74219891Y-33922989D01*
X74229835Y-33992147D01*
X74207416Y-34047385D01*
X74094948Y-34202184D01*
X73998444Y-34391585D01*
X73932753Y-34593760D01*
X73899500Y-34803713D01*
X73899500Y-35016286D01*
X73932753Y-35226239D01*
X73998444Y-35428414D01*
X74094951Y-35617820D01*
X74219890Y-35789786D01*
X74370213Y-35940109D01*
X74542182Y-36065050D01*
X74550946Y-36069516D01*
X74601742Y-36117491D01*
X74618536Y-36185312D01*
X74595998Y-36251447D01*
X74550946Y-36290484D01*
X74542182Y-36294949D01*
X74370213Y-36419890D01*
X74219890Y-36570213D01*
X74094951Y-36742179D01*
X73998444Y-36931585D01*
X73932753Y-37133760D01*
X73899500Y-37343713D01*
X73899500Y-37556286D01*
X73932753Y-37766239D01*
X73998444Y-37968414D01*
X74094951Y-38157820D01*
X74219890Y-38329786D01*
X74370213Y-38480109D01*
X74542179Y-38605048D01*
X74542181Y-38605049D01*
X74542184Y-38605051D01*
X74551493Y-38609794D01*
X74602290Y-38657766D01*
X74619087Y-38725587D01*
X74596552Y-38791722D01*
X74551505Y-38830760D01*
X74542446Y-38835376D01*
X74542440Y-38835380D01*
X74488282Y-38874727D01*
X74488282Y-38874728D01*
X75120591Y-39507037D01*
X75057007Y-39524075D01*
X74942993Y-39589901D01*
X74849901Y-39682993D01*
X74784075Y-39797007D01*
X74767037Y-39860591D01*
X74134728Y-39228282D01*
X74134727Y-39228282D01*
X74095380Y-39282439D01*
X73998904Y-39471782D01*
X73933242Y-39673869D01*
X73933242Y-39673872D01*
X73900000Y-39883753D01*
X73900000Y-40096246D01*
X73933242Y-40306127D01*
X73933242Y-40306130D01*
X73998904Y-40508217D01*
X74095375Y-40697550D01*
X74134728Y-40751716D01*
X74767037Y-40119408D01*
X74784075Y-40182993D01*
X74849901Y-40297007D01*
X74942993Y-40390099D01*
X75057007Y-40455925D01*
X75120590Y-40472962D01*
X74488282Y-41105269D01*
X74488282Y-41105270D01*
X74542452Y-41144626D01*
X74542451Y-41144626D01*
X74551495Y-41149234D01*
X74602292Y-41197208D01*
X74619087Y-41265029D01*
X74596550Y-41331164D01*
X74551499Y-41370202D01*
X74542182Y-41374949D01*
X74370213Y-41499890D01*
X74219890Y-41650213D01*
X74094951Y-41822179D01*
X73998444Y-42011585D01*
X73932753Y-42213760D01*
X73907057Y-42376000D01*
X73899500Y-42423713D01*
X73899500Y-42636287D01*
X73907928Y-42689500D01*
X73927062Y-42810310D01*
X73932754Y-42846243D01*
X73998162Y-43047548D01*
X73998444Y-43048414D01*
X74094951Y-43237820D01*
X74219890Y-43409786D01*
X74370213Y-43560109D01*
X74542182Y-43685050D01*
X74550946Y-43689516D01*
X74601742Y-43737491D01*
X74618536Y-43805312D01*
X74595998Y-43871447D01*
X74550946Y-43910484D01*
X74542182Y-43914949D01*
X74370213Y-44039890D01*
X74219890Y-44190213D01*
X74094951Y-44362179D01*
X73998444Y-44551585D01*
X73932753Y-44753760D01*
X73899500Y-44963713D01*
X73899500Y-45176286D01*
X73931131Y-45376000D01*
X73932754Y-45386243D01*
X73988469Y-45557716D01*
X73998444Y-45588414D01*
X74094951Y-45777820D01*
X74219890Y-45949786D01*
X74370213Y-46100109D01*
X74542182Y-46225050D01*
X74550946Y-46229516D01*
X74601742Y-46277491D01*
X74618536Y-46345312D01*
X74595998Y-46411447D01*
X74550946Y-46450484D01*
X74542182Y-46454949D01*
X74370213Y-46579890D01*
X74219890Y-46730213D01*
X74094951Y-46902179D01*
X73998444Y-47091585D01*
X73932753Y-47293760D01*
X73899500Y-47503713D01*
X73899500Y-47633302D01*
X73879815Y-47700341D01*
X73827011Y-47746096D01*
X73807598Y-47753075D01*
X73723267Y-47775672D01*
X73668215Y-47790423D01*
X73635038Y-47809578D01*
X73635037Y-47809577D01*
X73531287Y-47869477D01*
X73531282Y-47869481D01*
X72219481Y-49181282D01*
X72219480Y-49181284D01*
X72171338Y-49264669D01*
X72140423Y-49318215D01*
X72099499Y-49470943D01*
X72099499Y-49470945D01*
X72099499Y-49639046D01*
X72099500Y-49639059D01*
X72099500Y-49735691D01*
X72079815Y-49802730D01*
X72027011Y-49848485D01*
X71957853Y-49858429D01*
X71894297Y-49829404D01*
X71887819Y-49823373D01*
X71826862Y-49762416D01*
X71752795Y-49688349D01*
X71752791Y-49688344D01*
X71633928Y-49569481D01*
X71633923Y-49569477D01*
X71616713Y-49559541D01*
X71568497Y-49508974D01*
X71555275Y-49440367D01*
X71581243Y-49375502D01*
X71631261Y-49337593D01*
X71658127Y-49326465D01*
X71764669Y-49255276D01*
X71855276Y-49164669D01*
X71926465Y-49058127D01*
X71975501Y-48939744D01*
X71986014Y-48886893D01*
X72000500Y-48814071D01*
X72000500Y-48685928D01*
X71975502Y-48560261D01*
X71975501Y-48560260D01*
X71975501Y-48560256D01*
X71932089Y-48455450D01*
X71926466Y-48441875D01*
X71926461Y-48441866D01*
X71855276Y-48335331D01*
X71855273Y-48335327D01*
X71764671Y-48244725D01*
X71745265Y-48231759D01*
X71727640Y-48219982D01*
X71682837Y-48166372D01*
X71674128Y-48097047D01*
X71674915Y-48092689D01*
X71700500Y-47964071D01*
X71700500Y-47835928D01*
X71679687Y-47731298D01*
X71685914Y-47661706D01*
X71728777Y-47606529D01*
X71766710Y-47588029D01*
X71856195Y-47562031D01*
X71995374Y-47479721D01*
X71995383Y-47479714D01*
X72109714Y-47365383D01*
X72109721Y-47365374D01*
X72192031Y-47226195D01*
X72192033Y-47226190D01*
X72237144Y-47070918D01*
X72237145Y-47070912D01*
X72238790Y-47050000D01*
X71584000Y-47050000D01*
X71575314Y-47047449D01*
X71566353Y-47048738D01*
X71542312Y-47037759D01*
X71516961Y-47030315D01*
X71511033Y-47023474D01*
X71502797Y-47019713D01*
X71488507Y-46997478D01*
X71471206Y-46977511D01*
X71468918Y-46966996D01*
X71465023Y-46960935D01*
X71460000Y-46926000D01*
X71460000Y-46740598D01*
X71479685Y-46673559D01*
X71496320Y-46652916D01*
X71532419Y-46616818D01*
X71593743Y-46583333D01*
X71620099Y-46580500D01*
X71734682Y-46580500D01*
X71734690Y-46580500D01*
X71770993Y-46577643D01*
X71849191Y-46554923D01*
X71883787Y-46550000D01*
X72238790Y-46550000D01*
X72237144Y-46529086D01*
X72195651Y-46386262D01*
X72195850Y-46316392D01*
X72207990Y-46288555D01*
X72262494Y-46196395D01*
X72262812Y-46195303D01*
X72307642Y-46040997D01*
X72307643Y-46040991D01*
X72310500Y-46004690D01*
X72310500Y-45890096D01*
X72319145Y-45860652D01*
X72325668Y-45830670D01*
X72329422Y-45825654D01*
X72330185Y-45823057D01*
X72346810Y-45802424D01*
X72469509Y-45679724D01*
X72469514Y-45679721D01*
X72479714Y-45669520D01*
X72479716Y-45669520D01*
X72591520Y-45557716D01*
X72670577Y-45420784D01*
X72710488Y-45271835D01*
X72711500Y-45268058D01*
X72711500Y-45109943D01*
X72711500Y-44311943D01*
X72711499Y-44311936D01*
X72711113Y-44310497D01*
X72711114Y-44310496D01*
X72711105Y-44310471D01*
X72708326Y-44300101D01*
X72693240Y-44243796D01*
X72670577Y-44159216D01*
X72665915Y-44151141D01*
X72591524Y-44022290D01*
X72591521Y-44022286D01*
X72591520Y-44022284D01*
X72479716Y-43910480D01*
X72479715Y-43910479D01*
X72475385Y-43906149D01*
X72475374Y-43906139D01*
X72436916Y-43867681D01*
X72403431Y-43806358D01*
X72408415Y-43736666D01*
X72436914Y-43692320D01*
X72446495Y-43682739D01*
X72469505Y-43659728D01*
X72469509Y-43659726D01*
X72479714Y-43649520D01*
X72479716Y-43649520D01*
X72591520Y-43537716D01*
X72670577Y-43400784D01*
X72701343Y-43285964D01*
X72711500Y-43248058D01*
X72711500Y-43089943D01*
X72711500Y-42702982D01*
X72731185Y-42635943D01*
X72783989Y-42590188D01*
X72800905Y-42583906D01*
X72876190Y-42562033D01*
X72876195Y-42562031D01*
X73015374Y-42479721D01*
X73015383Y-42479714D01*
X73129714Y-42365383D01*
X73129721Y-42365374D01*
X73212031Y-42226195D01*
X73212033Y-42226190D01*
X73257144Y-42070918D01*
X73257145Y-42070912D01*
X73258790Y-42050000D01*
X72670598Y-42050000D01*
X72641157Y-42041355D01*
X72611171Y-42034832D01*
X72606155Y-42031077D01*
X72603559Y-42030315D01*
X72582917Y-42013681D01*
X72516319Y-41947083D01*
X72482834Y-41885760D01*
X72480000Y-41859402D01*
X72480000Y-41800000D01*
X72424500Y-41800000D01*
X72357461Y-41780315D01*
X72311706Y-41727511D01*
X72300500Y-41676000D01*
X72300500Y-41565317D01*
X72300499Y-41565302D01*
X72300098Y-41560211D01*
X72297643Y-41529007D01*
X72296344Y-41524537D01*
X72252495Y-41373608D01*
X72252492Y-41373600D01*
X72247266Y-41364763D01*
X72230000Y-41301645D01*
X72230000Y-40995494D01*
X72730000Y-40995494D01*
X72730000Y-41550000D01*
X73258790Y-41550000D01*
X73257145Y-41529089D01*
X73212031Y-41373804D01*
X73129721Y-41234625D01*
X73129714Y-41234616D01*
X73015383Y-41120285D01*
X73015374Y-41120278D01*
X72876193Y-41037967D01*
X72876190Y-41037965D01*
X72730001Y-40995493D01*
X72730000Y-40995494D01*
X72230000Y-40995494D01*
X72229998Y-40995493D01*
X72083809Y-41037965D01*
X72083806Y-41037967D01*
X72063608Y-41049912D01*
X71995884Y-41067092D01*
X71937370Y-41049910D01*
X71916397Y-41037507D01*
X71916390Y-41037504D01*
X71760997Y-40992357D01*
X71760991Y-40992356D01*
X71724697Y-40989500D01*
X71724690Y-40989500D01*
X71315310Y-40989500D01*
X71315302Y-40989500D01*
X71279013Y-40992356D01*
X71279008Y-40992356D01*
X71279007Y-40992357D01*
X71279005Y-40992357D01*
X71278997Y-40992359D01*
X71273600Y-40993927D01*
X71203731Y-40993724D01*
X71145063Y-40955778D01*
X71132280Y-40937970D01*
X71130119Y-40934316D01*
X71130112Y-40934307D01*
X71015692Y-40819887D01*
X71015684Y-40819881D01*
X70876393Y-40737505D01*
X70876390Y-40737504D01*
X70720997Y-40692357D01*
X70720991Y-40692356D01*
X70684697Y-40689500D01*
X70684690Y-40689500D01*
X70275310Y-40689500D01*
X70275302Y-40689500D01*
X70239008Y-40692356D01*
X70239002Y-40692357D01*
X70083609Y-40737504D01*
X70083604Y-40737506D01*
X70062628Y-40749911D01*
X69994903Y-40767092D01*
X69936389Y-40749911D01*
X69916191Y-40737966D01*
X69916190Y-40737965D01*
X69770001Y-40695493D01*
X69770000Y-40695494D01*
X69770000Y-41001645D01*
X69752734Y-41064763D01*
X69747507Y-41073600D01*
X69747504Y-41073608D01*
X69702357Y-41229002D01*
X69702356Y-41229008D01*
X69699500Y-41265302D01*
X69699500Y-41734697D01*
X69702356Y-41770991D01*
X69702357Y-41770997D01*
X69747504Y-41926391D01*
X69747507Y-41926399D01*
X69752732Y-41935233D01*
X69757082Y-41951134D01*
X69764977Y-41963419D01*
X69770000Y-41998354D01*
X69770000Y-42001646D01*
X69752734Y-42064764D01*
X69747507Y-42073601D01*
X69747504Y-42073610D01*
X69702357Y-42229002D01*
X69702356Y-42229008D01*
X69699500Y-42265302D01*
X69699500Y-42376000D01*
X69696949Y-42384685D01*
X69698238Y-42393647D01*
X69687259Y-42417687D01*
X69679815Y-42443039D01*
X69672974Y-42448966D01*
X69669213Y-42457203D01*
X69646978Y-42471492D01*
X69627011Y-42488794D01*
X69616496Y-42491081D01*
X69610435Y-42494977D01*
X69575500Y-42500000D01*
X69394000Y-42500000D01*
X69326961Y-42480315D01*
X69281206Y-42427511D01*
X69270000Y-42376000D01*
X69270000Y-40695494D01*
X69269998Y-40695493D01*
X69159095Y-40727714D01*
X69089226Y-40727515D01*
X69030556Y-40689573D01*
X69001712Y-40625934D01*
X69000500Y-40608638D01*
X69000500Y-34023974D01*
X69020185Y-33956935D01*
X69072989Y-33911180D01*
X69129839Y-33901707D01*
X69129839Y-33900500D01*
X69264071Y-33900500D01*
X69367649Y-33879896D01*
X69389744Y-33875501D01*
X69417363Y-33864061D01*
X69427315Y-33859939D01*
X69474767Y-33850500D01*
X74107097Y-33850500D01*
X74174136Y-33870185D01*
G37*
%TD.AperFunction*%
%TA.AperFunction,Conductor*%
G36*
X70632539Y-43519685D02*
G01*
X70678294Y-43572489D01*
X70689500Y-43624000D01*
X70689500Y-43984697D01*
X70692356Y-44020991D01*
X70692357Y-44020994D01*
X70692734Y-44022290D01*
X70725076Y-44133613D01*
X70730000Y-44168205D01*
X70730000Y-45368638D01*
X70721355Y-45398078D01*
X70714832Y-45428065D01*
X70711077Y-45433080D01*
X70710315Y-45435677D01*
X70693681Y-45456319D01*
X70686319Y-45463681D01*
X70624996Y-45497166D01*
X70598638Y-45500000D01*
X70404500Y-45500000D01*
X70337461Y-45480315D01*
X70291706Y-45427511D01*
X70280500Y-45376000D01*
X70280500Y-45265317D01*
X70280499Y-45265302D01*
X70280421Y-45264313D01*
X70277643Y-45229007D01*
X70262326Y-45176287D01*
X70232495Y-45073608D01*
X70229395Y-45066443D01*
X70232500Y-45065099D01*
X70219113Y-45012275D01*
X70236293Y-44953789D01*
X70252494Y-44926395D01*
X70297643Y-44770993D01*
X70300500Y-44734690D01*
X70300500Y-44265310D01*
X70297643Y-44229007D01*
X70290576Y-44204683D01*
X70252495Y-44073608D01*
X70252492Y-44073600D01*
X70247266Y-44064763D01*
X70242916Y-44048862D01*
X70235023Y-44036580D01*
X70230000Y-44001645D01*
X70230000Y-43998352D01*
X70247267Y-43935233D01*
X70252494Y-43926395D01*
X70255820Y-43914949D01*
X70297642Y-43770997D01*
X70297643Y-43770991D01*
X70300500Y-43734690D01*
X70300500Y-43624000D01*
X70303050Y-43615314D01*
X70301762Y-43606353D01*
X70312740Y-43582312D01*
X70320185Y-43556961D01*
X70327025Y-43551033D01*
X70330787Y-43542797D01*
X70353021Y-43528507D01*
X70372989Y-43511206D01*
X70383503Y-43508918D01*
X70389565Y-43505023D01*
X70424500Y-43500000D01*
X70565500Y-43500000D01*
X70632539Y-43519685D01*
G37*
%TD.AperFunction*%
%TA.AperFunction,Conductor*%
G36*
X59876942Y-25280185D02*
G01*
X59897584Y-25296819D01*
X60313181Y-25712416D01*
X60346666Y-25773739D01*
X60349500Y-25800097D01*
X60349500Y-27871273D01*
X60349499Y-27883852D01*
X60349497Y-27883857D01*
X60347116Y-27908035D01*
X60341889Y-27934313D01*
X60341567Y-27935931D01*
X60341567Y-28064069D01*
X60341567Y-28064071D01*
X60341566Y-28064071D01*
X60366564Y-28189738D01*
X60366566Y-28189744D01*
X60415600Y-28308124D01*
X60415605Y-28308133D01*
X60486790Y-28414668D01*
X60486793Y-28414672D01*
X60577394Y-28505273D01*
X60577398Y-28505276D01*
X60683933Y-28576461D01*
X60683942Y-28576466D01*
X60704422Y-28584949D01*
X60802323Y-28625501D01*
X60802327Y-28625501D01*
X60802328Y-28625502D01*
X60927995Y-28650500D01*
X60927998Y-28650500D01*
X61056138Y-28650500D01*
X61153342Y-28631164D01*
X61181811Y-28625501D01*
X61300194Y-28576465D01*
X61406736Y-28505276D01*
X61497343Y-28414669D01*
X61568532Y-28308127D01*
X61617568Y-28189744D01*
X61641810Y-28067876D01*
X61642567Y-28064071D01*
X61642567Y-27989231D01*
X61662252Y-27922192D01*
X61680000Y-27902253D01*
X61680000Y-27096988D01*
X61689940Y-27114205D01*
X61745795Y-27170060D01*
X61814204Y-27209556D01*
X61890504Y-27230000D01*
X61969496Y-27230000D01*
X62045796Y-27209556D01*
X62114205Y-27170060D01*
X62170060Y-27114205D01*
X62209556Y-27045796D01*
X62209769Y-27045000D01*
X62875500Y-27045000D01*
X62942539Y-27064685D01*
X62988294Y-27117489D01*
X62999500Y-27169000D01*
X62999500Y-28067870D01*
X62999501Y-28067876D01*
X63005908Y-28127483D01*
X63056202Y-28262328D01*
X63056204Y-28262331D01*
X63099795Y-28320561D01*
X63124213Y-28386024D01*
X63124212Y-28386025D01*
X63124213Y-28386026D01*
X63119605Y-28407208D01*
X63109362Y-28454297D01*
X63109361Y-28454298D01*
X63109361Y-28454299D01*
X63088210Y-28482553D01*
X63004154Y-28566609D01*
X62942831Y-28600094D01*
X62932656Y-28601867D01*
X62890183Y-28607458D01*
X62821148Y-28596692D01*
X62768893Y-28550311D01*
X62750000Y-28484519D01*
X62750000Y-27545000D01*
X62180000Y-27545000D01*
X62180000Y-27916262D01*
X62193999Y-27936813D01*
X62200000Y-27974923D01*
X62200000Y-28067844D01*
X62206401Y-28127372D01*
X62206403Y-28127379D01*
X62256645Y-28262086D01*
X62256649Y-28262093D01*
X62342809Y-28377187D01*
X62347388Y-28380615D01*
X62389258Y-28436549D01*
X62394242Y-28506240D01*
X62360756Y-28567563D01*
X62299433Y-28601048D01*
X62289260Y-28602820D01*
X62193371Y-28615442D01*
X62193366Y-28615444D01*
X62047414Y-28675899D01*
X61922075Y-28772075D01*
X61825899Y-28897413D01*
X61765444Y-29043368D01*
X61757987Y-29100000D01*
X62265500Y-29100000D01*
X62274185Y-29102550D01*
X62283146Y-29101262D01*
X62307184Y-29112240D01*
X62332539Y-29119685D01*
X62338466Y-29126526D01*
X62346702Y-29130287D01*
X62360990Y-29152520D01*
X62378294Y-29172489D01*
X62380581Y-29183002D01*
X62384477Y-29189064D01*
X62389500Y-29223999D01*
X62389501Y-29375999D01*
X62369817Y-29443039D01*
X62317013Y-29488794D01*
X62265501Y-29500000D01*
X61757990Y-29500000D01*
X61757988Y-29500001D01*
X61765442Y-29556627D01*
X61765444Y-29556633D01*
X61825899Y-29702585D01*
X61922075Y-29827924D01*
X62047413Y-29924100D01*
X62193365Y-29984554D01*
X62193370Y-29984556D01*
X62246249Y-29991517D01*
X62310146Y-30019782D01*
X62348618Y-30078106D01*
X62349450Y-30147971D01*
X62349142Y-30149051D01*
X62302401Y-30309934D01*
X62299500Y-30346798D01*
X62299500Y-31653201D01*
X62302401Y-31690067D01*
X62302402Y-31690073D01*
X62348254Y-31847893D01*
X62348255Y-31847896D01*
X62348256Y-31847898D01*
X62382732Y-31906194D01*
X62400000Y-31969314D01*
X62400000Y-32625000D01*
X62950000Y-32625000D01*
X62950000Y-32362000D01*
X62952550Y-32353314D01*
X62951262Y-32344353D01*
X62962240Y-32320312D01*
X62969685Y-32294961D01*
X62976525Y-32289033D01*
X62980287Y-32280797D01*
X63002521Y-32266507D01*
X63022489Y-32249206D01*
X63033003Y-32246918D01*
X63039065Y-32243023D01*
X63074000Y-32238000D01*
X63125500Y-32238000D01*
X63192539Y-32257685D01*
X63238294Y-32310489D01*
X63249500Y-32362000D01*
X63249500Y-33528201D01*
X63252401Y-33565067D01*
X63252402Y-33565073D01*
X63298254Y-33722893D01*
X63298255Y-33722896D01*
X63298256Y-33722898D01*
X63317211Y-33754949D01*
X63381917Y-33864362D01*
X63381923Y-33864370D01*
X63413180Y-33895626D01*
X63446666Y-33956948D01*
X63449500Y-33983308D01*
X63449500Y-36020939D01*
X63449499Y-36020943D01*
X63449499Y-36179057D01*
X63449500Y-36179060D01*
X63449500Y-37007354D01*
X63429815Y-37074393D01*
X63377011Y-37120148D01*
X63307853Y-37130092D01*
X63244297Y-37101067D01*
X63219383Y-37071504D01*
X63155072Y-36965122D01*
X63034877Y-36844927D01*
X62889395Y-36756980D01*
X62889396Y-36756980D01*
X62727105Y-36706409D01*
X62727106Y-36706409D01*
X62656572Y-36700000D01*
X62650000Y-36700000D01*
X62650000Y-38076000D01*
X62630315Y-38143039D01*
X62577511Y-38188794D01*
X62526000Y-38200000D01*
X62400000Y-38200000D01*
X62400000Y-38326000D01*
X62380315Y-38393039D01*
X62327511Y-38438794D01*
X62276000Y-38450000D01*
X61500001Y-38450000D01*
X61500001Y-38975499D01*
X61480316Y-39042538D01*
X61427512Y-39088293D01*
X61376001Y-39099499D01*
X61340943Y-39099499D01*
X61264579Y-39119961D01*
X61188212Y-39140423D01*
X61188211Y-39140424D01*
X61138619Y-39169057D01*
X61051287Y-39219477D01*
X61051282Y-39219481D01*
X60988325Y-39282439D01*
X60939480Y-39331284D01*
X60939478Y-39331286D01*
X60770864Y-39499901D01*
X60617584Y-39653181D01*
X60556261Y-39686666D01*
X60529903Y-39689500D01*
X60415302Y-39689500D01*
X60379008Y-39692356D01*
X60379002Y-39692357D01*
X60223609Y-39737504D01*
X60223606Y-39737505D01*
X60084315Y-39819881D01*
X60084307Y-39819887D01*
X59969887Y-39934307D01*
X59969881Y-39934315D01*
X59887505Y-40073606D01*
X59887504Y-40073609D01*
X59842357Y-40229002D01*
X59842356Y-40229008D01*
X59839500Y-40265302D01*
X59839500Y-40734697D01*
X59842356Y-40770991D01*
X59842357Y-40770997D01*
X59887504Y-40926390D01*
X59887505Y-40926393D01*
X59887506Y-40926395D01*
X59904883Y-40955778D01*
X59969881Y-41065684D01*
X59969887Y-41065692D01*
X60084307Y-41180112D01*
X60084311Y-41180115D01*
X60084313Y-41180117D01*
X60223605Y-41262494D01*
X60264587Y-41274400D01*
X60379002Y-41307642D01*
X60379005Y-41307642D01*
X60379007Y-41307643D01*
X60415310Y-41310500D01*
X60529903Y-41310500D01*
X60596942Y-41330185D01*
X60617584Y-41346819D01*
X60794588Y-41523823D01*
X60828073Y-41585146D01*
X60823089Y-41654838D01*
X60781217Y-41710771D01*
X60768907Y-41718891D01*
X60681287Y-41769477D01*
X60681282Y-41769481D01*
X60119481Y-42331282D01*
X60119479Y-42331285D01*
X60069361Y-42418094D01*
X60069357Y-42418100D01*
X60057907Y-42437930D01*
X60007338Y-42486143D01*
X59938731Y-42499363D01*
X59873867Y-42473392D01*
X59862842Y-42463606D01*
X59337590Y-41938355D01*
X59337588Y-41938352D01*
X59218717Y-41819481D01*
X59218709Y-41819475D01*
X59109119Y-41756204D01*
X59109118Y-41756203D01*
X59089905Y-41745111D01*
X59081785Y-41740423D01*
X58929057Y-41699499D01*
X58770943Y-41699499D01*
X58763347Y-41699499D01*
X58763331Y-41699500D01*
X58554486Y-41699500D01*
X58487447Y-41679815D01*
X58454167Y-41648384D01*
X58390107Y-41560211D01*
X58239786Y-41409890D01*
X58067817Y-41284949D01*
X58058504Y-41280204D01*
X58007707Y-41232230D01*
X57990912Y-41164409D01*
X58013449Y-41098274D01*
X58058507Y-41059232D01*
X58067555Y-41054622D01*
X58121716Y-41015270D01*
X58121717Y-41015270D01*
X57489408Y-40382962D01*
X57552993Y-40365925D01*
X57667007Y-40300099D01*
X57760099Y-40207007D01*
X57825925Y-40092993D01*
X57842962Y-40029409D01*
X58475270Y-40661717D01*
X58475270Y-40661716D01*
X58514622Y-40607554D01*
X58611095Y-40418217D01*
X58676757Y-40216130D01*
X58676757Y-40216127D01*
X58710000Y-40006246D01*
X58710000Y-39793753D01*
X58676757Y-39583872D01*
X58676757Y-39583869D01*
X58611095Y-39381782D01*
X58514624Y-39192449D01*
X58475270Y-39138282D01*
X58475269Y-39138282D01*
X57842962Y-39770590D01*
X57825925Y-39707007D01*
X57760099Y-39592993D01*
X57667007Y-39499901D01*
X57552993Y-39434075D01*
X57489409Y-39417037D01*
X58121716Y-38784728D01*
X58067547Y-38745373D01*
X58067547Y-38745372D01*
X58058500Y-38740763D01*
X58007706Y-38692788D01*
X57990912Y-38624966D01*
X58013451Y-38558832D01*
X58058508Y-38519793D01*
X58067816Y-38515051D01*
X58157352Y-38450000D01*
X58239786Y-38390109D01*
X58239788Y-38390106D01*
X58239792Y-38390104D01*
X58390104Y-38239792D01*
X58390106Y-38239788D01*
X58390109Y-38239786D01*
X58515048Y-38067820D01*
X58515047Y-38067820D01*
X58515051Y-38067816D01*
X58611557Y-37878412D01*
X58677246Y-37676243D01*
X58710500Y-37466287D01*
X58710500Y-37343427D01*
X61500000Y-37343427D01*
X61500000Y-37950000D01*
X62150000Y-37950000D01*
X62150000Y-36700000D01*
X62149999Y-36699999D01*
X62143436Y-36700000D01*
X62143417Y-36700001D01*
X62072897Y-36706408D01*
X62072892Y-36706409D01*
X61910603Y-36756981D01*
X61765122Y-36844927D01*
X61644927Y-36965122D01*
X61556980Y-37110604D01*
X61506409Y-37272893D01*
X61500000Y-37343427D01*
X58710500Y-37343427D01*
X58710500Y-37253713D01*
X58677246Y-37043757D01*
X58611557Y-36841588D01*
X58515051Y-36652184D01*
X58515049Y-36652181D01*
X58515048Y-36652179D01*
X58390109Y-36480213D01*
X58239786Y-36329890D01*
X58067820Y-36204951D01*
X58067115Y-36204591D01*
X58059054Y-36200485D01*
X58008259Y-36152512D01*
X57991463Y-36084692D01*
X58013999Y-36018556D01*
X58059054Y-35979515D01*
X58067816Y-35975051D01*
X58115917Y-35940104D01*
X58239786Y-35850109D01*
X58239788Y-35850106D01*
X58239792Y-35850104D01*
X58390104Y-35699792D01*
X58390106Y-35699788D01*
X58390109Y-35699786D01*
X58515048Y-35527820D01*
X58515047Y-35527820D01*
X58515051Y-35527816D01*
X58611557Y-35338412D01*
X58677246Y-35136243D01*
X58710500Y-34926287D01*
X58710500Y-34713713D01*
X58677246Y-34503757D01*
X58611557Y-34301588D01*
X58515051Y-34112184D01*
X58515049Y-34112181D01*
X58515048Y-34112179D01*
X58390109Y-33940213D01*
X58239786Y-33789890D01*
X58067820Y-33664951D01*
X58067115Y-33664591D01*
X58059054Y-33660485D01*
X58008259Y-33612512D01*
X57991463Y-33544692D01*
X57997100Y-33528149D01*
X61350000Y-33528149D01*
X61352899Y-33564989D01*
X61352900Y-33564995D01*
X61398716Y-33722693D01*
X61398717Y-33722696D01*
X61482314Y-33864052D01*
X61482321Y-33864061D01*
X61598438Y-33980178D01*
X61598447Y-33980185D01*
X61739801Y-34063781D01*
X61897514Y-34109600D01*
X61897511Y-34109600D01*
X61899998Y-34109795D01*
X61900000Y-34109795D01*
X62400000Y-34109795D01*
X62400001Y-34109795D01*
X62402486Y-34109600D01*
X62560198Y-34063781D01*
X62701552Y-33980185D01*
X62701561Y-33980178D01*
X62817678Y-33864061D01*
X62817685Y-33864052D01*
X62901282Y-33722696D01*
X62901283Y-33722693D01*
X62947099Y-33564995D01*
X62947100Y-33564989D01*
X62949999Y-33528149D01*
X62950000Y-33528134D01*
X62950000Y-33125000D01*
X62400000Y-33125000D01*
X62400000Y-34109795D01*
X61900000Y-34109795D01*
X61900000Y-33125000D01*
X61350000Y-33125000D01*
X61350000Y-33528149D01*
X57997100Y-33528149D01*
X58013999Y-33478556D01*
X58059054Y-33439515D01*
X58067816Y-33435051D01*
X58115917Y-33400104D01*
X58239786Y-33310109D01*
X58239788Y-33310106D01*
X58239792Y-33310104D01*
X58390104Y-33159792D01*
X58449663Y-33077816D01*
X58505650Y-33000756D01*
X58505651Y-33000755D01*
X58510314Y-32994336D01*
X58515051Y-32987816D01*
X58611557Y-32798412D01*
X58677246Y-32596243D01*
X58710500Y-32386287D01*
X58710500Y-32221850D01*
X61350000Y-32221850D01*
X61350000Y-32625000D01*
X61900000Y-32625000D01*
X61900000Y-31640203D01*
X61897503Y-31640400D01*
X61739806Y-31686216D01*
X61739803Y-31686217D01*
X61598447Y-31769814D01*
X61598438Y-31769821D01*
X61482321Y-31885938D01*
X61482314Y-31885947D01*
X61398717Y-32027303D01*
X61398716Y-32027306D01*
X61352900Y-32185004D01*
X61352899Y-32185010D01*
X61350000Y-32221850D01*
X58710500Y-32221850D01*
X58710500Y-32173713D01*
X58677246Y-31963757D01*
X58611557Y-31761588D01*
X58515051Y-31572184D01*
X58515049Y-31572181D01*
X58515048Y-31572179D01*
X58390109Y-31400213D01*
X58239786Y-31249890D01*
X58067820Y-31124951D01*
X58067115Y-31124591D01*
X58059054Y-31120485D01*
X58008259Y-31072512D01*
X57991463Y-31004692D01*
X58013999Y-30938556D01*
X58059054Y-30899515D01*
X58067816Y-30895051D01*
X58115917Y-30860104D01*
X58239786Y-30770109D01*
X58239788Y-30770106D01*
X58239792Y-30770104D01*
X58390104Y-30619792D01*
X58390106Y-30619788D01*
X58390109Y-30619786D01*
X58515048Y-30447820D01*
X58515047Y-30447820D01*
X58515051Y-30447816D01*
X58611557Y-30258412D01*
X58677246Y-30056243D01*
X58710500Y-29846287D01*
X58710500Y-29633713D01*
X58677246Y-29423757D01*
X58611557Y-29221588D01*
X58515051Y-29032184D01*
X58515049Y-29032181D01*
X58515048Y-29032179D01*
X58390109Y-28860213D01*
X58239786Y-28709890D01*
X58067817Y-28584949D01*
X58058504Y-28580204D01*
X58007707Y-28532230D01*
X57990912Y-28464409D01*
X58013449Y-28398274D01*
X58058507Y-28359232D01*
X58067555Y-28354622D01*
X58121716Y-28315270D01*
X58121717Y-28315270D01*
X57489408Y-27682962D01*
X57552993Y-27665925D01*
X57667007Y-27600099D01*
X57760099Y-27507007D01*
X57825925Y-27392993D01*
X57842962Y-27329409D01*
X58475270Y-27961717D01*
X58475270Y-27961716D01*
X58514622Y-27907554D01*
X58611095Y-27718217D01*
X58676757Y-27516130D01*
X58676757Y-27516127D01*
X58710000Y-27306246D01*
X58710000Y-27093753D01*
X58676757Y-26883872D01*
X58676757Y-26883869D01*
X58611095Y-26681782D01*
X58514624Y-26492449D01*
X58475270Y-26438282D01*
X58475269Y-26438282D01*
X57842962Y-27070590D01*
X57825925Y-27007007D01*
X57760099Y-26892993D01*
X57667007Y-26799901D01*
X57552993Y-26734075D01*
X57489409Y-26717037D01*
X58121716Y-26084728D01*
X58067547Y-26045373D01*
X58067547Y-26045372D01*
X58058500Y-26040763D01*
X58007706Y-25992788D01*
X57990912Y-25924966D01*
X58013451Y-25858832D01*
X58058508Y-25819793D01*
X58067816Y-25815051D01*
X58182804Y-25731508D01*
X58239786Y-25690109D01*
X58239788Y-25690106D01*
X58239792Y-25690104D01*
X58390104Y-25539792D01*
X58390106Y-25539788D01*
X58390109Y-25539786D01*
X58476452Y-25420943D01*
X58515051Y-25367816D01*
X58518874Y-25360313D01*
X58535235Y-25328205D01*
X58583209Y-25277409D01*
X58645719Y-25260500D01*
X59809903Y-25260500D01*
X59876942Y-25280185D01*
G37*
%TD.AperFunction*%
%TA.AperFunction,Conductor*%
G36*
X65263117Y-41238869D02*
G01*
X65320607Y-41272869D01*
X65320610Y-41272869D01*
X65320612Y-41272871D01*
X65474791Y-41317664D01*
X65474794Y-41317664D01*
X65474796Y-41317665D01*
X65510819Y-41320500D01*
X65765501Y-41320499D01*
X65832539Y-41340183D01*
X65878294Y-41392987D01*
X65889500Y-41444499D01*
X65889500Y-41515138D01*
X65869815Y-41582177D01*
X65817011Y-41627932D01*
X65747853Y-41637876D01*
X65719658Y-41625000D01*
X65400622Y-41625000D01*
X65290658Y-41639478D01*
X65290657Y-41639478D01*
X65153824Y-41696156D01*
X65036317Y-41786323D01*
X65018329Y-41809765D01*
X64961901Y-41850967D01*
X64892155Y-41855120D01*
X64845644Y-41833544D01*
X64800835Y-41800000D01*
X64742331Y-41756204D01*
X64742329Y-41756203D01*
X64742328Y-41756202D01*
X64607481Y-41705908D01*
X64602118Y-41704641D01*
X64595218Y-41700712D01*
X64587297Y-41700146D01*
X64565289Y-41683671D01*
X64541401Y-41670069D01*
X64537719Y-41663032D01*
X64531364Y-41658274D01*
X64521757Y-41632519D01*
X64509014Y-41608158D01*
X64509721Y-41600248D01*
X64506947Y-41592810D01*
X64512790Y-41565949D01*
X64515240Y-41538567D01*
X64520489Y-41530556D01*
X64521799Y-41524537D01*
X64542944Y-41496289D01*
X64682418Y-41356815D01*
X64743739Y-41323333D01*
X64770097Y-41320499D01*
X64889168Y-41320499D01*
X64889180Y-41320499D01*
X64925204Y-41317665D01*
X65079393Y-41272869D01*
X65136882Y-41238869D01*
X65204602Y-41221688D01*
X65263117Y-41238869D01*
G37*
%TD.AperFunction*%
%TA.AperFunction,Conductor*%
G36*
X56894075Y-40092993D02*
G01*
X56959901Y-40207007D01*
X57052993Y-40300099D01*
X57167007Y-40365925D01*
X57230590Y-40382962D01*
X56598282Y-41015269D01*
X56598282Y-41015270D01*
X56652452Y-41054626D01*
X56652451Y-41054626D01*
X56661495Y-41059234D01*
X56712292Y-41107208D01*
X56729087Y-41175029D01*
X56706550Y-41241164D01*
X56661499Y-41280202D01*
X56652182Y-41284949D01*
X56480213Y-41409890D01*
X56329894Y-41560209D01*
X56329890Y-41560214D01*
X56224818Y-41704835D01*
X56169489Y-41747501D01*
X56099875Y-41753480D01*
X56038080Y-41720875D01*
X56003723Y-41660036D01*
X56000500Y-41631950D01*
X56000500Y-40707197D01*
X56020185Y-40640158D01*
X56072989Y-40594403D01*
X56142147Y-40584459D01*
X56205703Y-40613484D01*
X56224819Y-40634313D01*
X56244728Y-40661716D01*
X56877037Y-40029408D01*
X56894075Y-40092993D01*
G37*
%TD.AperFunction*%
%TA.AperFunction,Conductor*%
G36*
X76365269Y-40751716D02*
G01*
X76365770Y-40751677D01*
X76434147Y-40766041D01*
X76483905Y-40815092D01*
X76499500Y-40875295D01*
X76499500Y-41570970D01*
X76479815Y-41638009D01*
X76427011Y-41683764D01*
X76357853Y-41693708D01*
X76294297Y-41664683D01*
X76281222Y-41651516D01*
X76280107Y-41650211D01*
X76129786Y-41499890D01*
X75957817Y-41374949D01*
X75948504Y-41370204D01*
X75897707Y-41322230D01*
X75880912Y-41254409D01*
X75903449Y-41188274D01*
X75948507Y-41149232D01*
X75957555Y-41144622D01*
X76011716Y-41105270D01*
X76011717Y-41105270D01*
X75379408Y-40472962D01*
X75442993Y-40455925D01*
X75557007Y-40390099D01*
X75650099Y-40297007D01*
X75715925Y-40182993D01*
X75732962Y-40119408D01*
X76365269Y-40751716D01*
G37*
%TD.AperFunction*%
%TA.AperFunction,Conductor*%
G36*
X76468635Y-38327164D02*
G01*
X76498110Y-38390512D01*
X76499500Y-38409029D01*
X76499500Y-39104703D01*
X76479815Y-39171742D01*
X76427011Y-39217497D01*
X76365772Y-39228321D01*
X76365270Y-39228281D01*
X75732962Y-39860590D01*
X75715925Y-39797007D01*
X75650099Y-39682993D01*
X75557007Y-39589901D01*
X75442993Y-39524075D01*
X75379409Y-39507037D01*
X76011716Y-38874728D01*
X75957547Y-38835373D01*
X75957547Y-38835372D01*
X75948500Y-38830763D01*
X75897706Y-38782788D01*
X75880912Y-38714966D01*
X75903451Y-38648832D01*
X75948508Y-38609793D01*
X75957816Y-38605051D01*
X76037007Y-38547515D01*
X76129786Y-38480109D01*
X76129788Y-38480106D01*
X76129792Y-38480104D01*
X76280104Y-38329792D01*
X76280107Y-38329787D01*
X76281214Y-38328493D01*
X76281758Y-38328137D01*
X76283549Y-38326347D01*
X76283925Y-38326723D01*
X76339723Y-38290302D01*
X76409591Y-38289807D01*
X76468635Y-38327164D01*
G37*
%TD.AperFunction*%
%TA.AperFunction,Conductor*%
G36*
X56205703Y-38074336D02*
G01*
X56224815Y-38095160D01*
X56300986Y-38200000D01*
X56329896Y-38239792D01*
X56480213Y-38390109D01*
X56652179Y-38515048D01*
X56652181Y-38515049D01*
X56652184Y-38515051D01*
X56661493Y-38519794D01*
X56712290Y-38567766D01*
X56729087Y-38635587D01*
X56706552Y-38701722D01*
X56661505Y-38740760D01*
X56652446Y-38745376D01*
X56652440Y-38745380D01*
X56598282Y-38784727D01*
X56598282Y-38784728D01*
X57230591Y-39417037D01*
X57167007Y-39434075D01*
X57052993Y-39499901D01*
X56959901Y-39592993D01*
X56894075Y-39707007D01*
X56877037Y-39770591D01*
X56244728Y-39138282D01*
X56244727Y-39138282D01*
X56224819Y-39165685D01*
X56169489Y-39208351D01*
X56099876Y-39214330D01*
X56038080Y-39181725D01*
X56003723Y-39120887D01*
X56000500Y-39092800D01*
X56000500Y-38168049D01*
X56020185Y-38101010D01*
X56072989Y-38055255D01*
X56142147Y-38045311D01*
X56205703Y-38074336D01*
G37*
%TD.AperFunction*%
%TA.AperFunction,Conductor*%
G36*
X65881436Y-34179565D02*
G01*
X65888012Y-34178125D01*
X65914864Y-34188096D01*
X65942616Y-34195180D01*
X65948748Y-34200680D01*
X65953511Y-34202449D01*
X65978504Y-34227370D01*
X65995495Y-34250000D01*
X66676000Y-34250000D01*
X66743039Y-34269685D01*
X66788794Y-34322489D01*
X66800000Y-34374000D01*
X66800000Y-34555500D01*
X66780315Y-34622539D01*
X66727511Y-34668294D01*
X66676000Y-34679500D01*
X66565302Y-34679500D01*
X66529008Y-34682356D01*
X66529002Y-34682357D01*
X66373610Y-34727503D01*
X66373605Y-34727506D01*
X66364766Y-34732732D01*
X66301648Y-34750000D01*
X65995495Y-34750000D01*
X65981037Y-34769255D01*
X65981033Y-34770774D01*
X65943091Y-34829444D01*
X65879453Y-34858288D01*
X65862156Y-34859500D01*
X65436959Y-34859500D01*
X65369920Y-34839815D01*
X65324165Y-34787011D01*
X65314221Y-34717853D01*
X65343246Y-34654297D01*
X65389507Y-34620939D01*
X65502586Y-34574100D01*
X65627924Y-34477924D01*
X65724100Y-34352586D01*
X65764782Y-34254370D01*
X65769004Y-34249129D01*
X65770426Y-34242551D01*
X65790647Y-34222271D01*
X65808622Y-34199966D01*
X65815009Y-34197839D01*
X65819761Y-34193075D01*
X65847738Y-34186946D01*
X65874916Y-34177901D01*
X65881436Y-34179565D01*
G37*
%TD.AperFunction*%
%TA.AperFunction,Conductor*%
G36*
X64793039Y-30129685D02*
G01*
X64838794Y-30182489D01*
X64850000Y-30234000D01*
X64850000Y-30879930D01*
X64885122Y-30877167D01*
X64885128Y-30877166D01*
X65039189Y-30832407D01*
X65039196Y-30832404D01*
X65086386Y-30804496D01*
X65154109Y-30787312D01*
X65212629Y-30804495D01*
X65260607Y-30832869D01*
X65301268Y-30844682D01*
X65414791Y-30877664D01*
X65414794Y-30877664D01*
X65414796Y-30877665D01*
X65450819Y-30880500D01*
X65569902Y-30880499D01*
X65636941Y-30900183D01*
X65657583Y-30916818D01*
X67341271Y-32600506D01*
X67374756Y-32661829D01*
X67369772Y-32731521D01*
X67327900Y-32787454D01*
X67262436Y-32811871D01*
X67194163Y-32797019D01*
X67184700Y-32791289D01*
X67158138Y-32773541D01*
X67158124Y-32773533D01*
X67039744Y-32724499D01*
X67039738Y-32724497D01*
X66994254Y-32715450D01*
X66986352Y-32713608D01*
X66927923Y-32697951D01*
X66859057Y-32679499D01*
X66700943Y-32679499D01*
X66693347Y-32679499D01*
X66693331Y-32679500D01*
X65615354Y-32679500D01*
X65548315Y-32659815D01*
X65539881Y-32653886D01*
X65502841Y-32625464D01*
X65502838Y-32625463D01*
X65502836Y-32625461D01*
X65356765Y-32564957D01*
X65356760Y-32564955D01*
X65239362Y-32549500D01*
X64974500Y-32549500D01*
X64907461Y-32529815D01*
X64861706Y-32477011D01*
X64850500Y-32425500D01*
X64850500Y-32221813D01*
X64850499Y-32221798D01*
X64847598Y-32184932D01*
X64847597Y-32184926D01*
X64801745Y-32027106D01*
X64801744Y-32027103D01*
X64801744Y-32027102D01*
X64718081Y-31885635D01*
X64718079Y-31885633D01*
X64718076Y-31885629D01*
X64601870Y-31769423D01*
X64601862Y-31769417D01*
X64523681Y-31723181D01*
X64460398Y-31685756D01*
X64460397Y-31685755D01*
X64460396Y-31685755D01*
X64460393Y-31685754D01*
X64302573Y-31639902D01*
X64302567Y-31639901D01*
X64265701Y-31637000D01*
X64265694Y-31637000D01*
X64024500Y-31637000D01*
X63957461Y-31617315D01*
X63911706Y-31564511D01*
X63900500Y-31513000D01*
X63900500Y-30895855D01*
X63920185Y-30828816D01*
X63972989Y-30783061D01*
X64042147Y-30773117D01*
X64087622Y-30789123D01*
X64160811Y-30832408D01*
X64314871Y-30877166D01*
X64314877Y-30877167D01*
X64350000Y-30879931D01*
X64350000Y-30234000D01*
X64369685Y-30166961D01*
X64422489Y-30121206D01*
X64474000Y-30110000D01*
X64726000Y-30110000D01*
X64793039Y-30129685D01*
G37*
%TD.AperFunction*%
%TA.AperFunction,Conductor*%
G36*
X73966920Y-23902275D02*
G01*
X73969591Y-23901614D01*
X74000250Y-23912061D01*
X74031320Y-23921185D01*
X74033120Y-23923263D01*
X74035726Y-23924151D01*
X74055876Y-23949525D01*
X74077075Y-23973989D01*
X74077466Y-23976710D01*
X74079178Y-23978866D01*
X74082411Y-24011100D01*
X74087019Y-24043147D01*
X74085960Y-24046486D01*
X74086151Y-24048387D01*
X74074766Y-24081795D01*
X73998444Y-24231585D01*
X73932753Y-24433760D01*
X73899500Y-24643713D01*
X73899500Y-24856287D01*
X73900110Y-24860136D01*
X73930695Y-25053248D01*
X73932754Y-25066243D01*
X73998379Y-25268216D01*
X73998444Y-25268414D01*
X74094951Y-25457820D01*
X74219890Y-25629786D01*
X74370213Y-25780109D01*
X74542179Y-25905048D01*
X74542181Y-25905049D01*
X74542184Y-25905051D01*
X74551493Y-25909794D01*
X74602290Y-25957766D01*
X74619087Y-26025587D01*
X74596552Y-26091722D01*
X74551505Y-26130760D01*
X74542446Y-26135376D01*
X74542440Y-26135380D01*
X74488282Y-26174727D01*
X74488282Y-26174728D01*
X75120591Y-26807037D01*
X75057007Y-26824075D01*
X74942993Y-26889901D01*
X74849901Y-26982993D01*
X74784075Y-27097007D01*
X74767037Y-27160591D01*
X74134728Y-26528282D01*
X74134727Y-26528282D01*
X74095380Y-26582439D01*
X73998904Y-26771782D01*
X73933242Y-26973869D01*
X73933242Y-26973872D01*
X73900000Y-27183753D01*
X73900000Y-27396246D01*
X73933242Y-27606127D01*
X73933242Y-27606130D01*
X73998904Y-27808217D01*
X74095375Y-27997550D01*
X74134728Y-28051716D01*
X74767037Y-27419408D01*
X74784075Y-27482993D01*
X74849901Y-27597007D01*
X74942993Y-27690099D01*
X75057007Y-27755925D01*
X75120590Y-27772962D01*
X74488282Y-28405269D01*
X74488282Y-28405270D01*
X74542452Y-28444626D01*
X74542451Y-28444626D01*
X74551495Y-28449234D01*
X74602292Y-28497208D01*
X74619087Y-28565029D01*
X74596550Y-28631164D01*
X74551499Y-28670202D01*
X74542182Y-28674949D01*
X74370213Y-28799890D01*
X74219890Y-28950213D01*
X74094951Y-29122179D01*
X73998444Y-29311585D01*
X73998443Y-29311587D01*
X73998443Y-29311588D01*
X73965598Y-29412672D01*
X73932753Y-29513760D01*
X73899500Y-29723713D01*
X73899500Y-29936286D01*
X73928788Y-30121206D01*
X73932754Y-30146243D01*
X73997921Y-30346806D01*
X73998444Y-30348414D01*
X74094951Y-30537820D01*
X74219890Y-30709786D01*
X74370213Y-30860109D01*
X74542182Y-30985050D01*
X74550946Y-30989516D01*
X74601742Y-31037491D01*
X74618536Y-31105312D01*
X74595998Y-31171447D01*
X74550946Y-31210484D01*
X74542182Y-31214949D01*
X74370213Y-31339890D01*
X74219890Y-31490213D01*
X74094951Y-31662179D01*
X73998444Y-31851585D01*
X73932753Y-32053760D01*
X73899500Y-32263713D01*
X73899500Y-32476287D01*
X73904222Y-32506103D01*
X73895266Y-32575397D01*
X73850269Y-32628848D01*
X73783517Y-32649487D01*
X73781748Y-32649500D01*
X69474767Y-32649500D01*
X69427315Y-32640061D01*
X69389748Y-32624500D01*
X69389738Y-32624497D01*
X69264071Y-32599500D01*
X69264069Y-32599500D01*
X69135931Y-32599500D01*
X69129839Y-32599500D01*
X69129839Y-32598139D01*
X69067991Y-32586400D01*
X69017288Y-32538327D01*
X69000500Y-32476025D01*
X69000500Y-31599059D01*
X69000501Y-31599046D01*
X69000501Y-31430945D01*
X69000501Y-31430943D01*
X68959577Y-31278215D01*
X68903161Y-31180500D01*
X68880520Y-31141284D01*
X68768716Y-31029480D01*
X68768713Y-31029478D01*
X68621311Y-30882076D01*
X68587826Y-30820753D01*
X68592810Y-30751061D01*
X68621311Y-30706713D01*
X68690734Y-30637290D01*
X68690738Y-30637285D01*
X68772404Y-30499194D01*
X68812844Y-30360000D01*
X68150597Y-30360000D01*
X68121156Y-30351355D01*
X68091170Y-30344832D01*
X68086154Y-30341077D01*
X68083558Y-30340315D01*
X68062916Y-30323681D01*
X68036319Y-30297084D01*
X68002834Y-30235761D01*
X68000000Y-30209403D01*
X68000000Y-29984499D01*
X68019685Y-29917460D01*
X68072489Y-29871705D01*
X68124000Y-29860499D01*
X68249168Y-29860499D01*
X68249180Y-29860499D01*
X68249193Y-29860498D01*
X68250668Y-29860382D01*
X68260393Y-29860000D01*
X68812844Y-29860000D01*
X68772404Y-29720805D01*
X68738581Y-29663612D01*
X68721398Y-29595888D01*
X68738582Y-29537369D01*
X68772867Y-29479396D01*
X68772869Y-29479393D01*
X68817665Y-29325204D01*
X68820500Y-29289181D01*
X68820499Y-28890820D01*
X68817665Y-28854796D01*
X68772869Y-28700607D01*
X68772867Y-28700604D01*
X68769900Y-28693746D01*
X68765936Y-28661642D01*
X68760582Y-28629742D01*
X68761682Y-28627174D01*
X68761340Y-28624403D01*
X68775364Y-28595249D01*
X68788105Y-28565522D01*
X68790417Y-28563957D01*
X68791629Y-28561440D01*
X68819183Y-28544500D01*
X68845979Y-28526376D01*
X68849577Y-28525815D01*
X68851151Y-28524848D01*
X68880786Y-28520533D01*
X68882232Y-28520499D01*
X69047872Y-28520499D01*
X69094257Y-28515512D01*
X69099434Y-28515391D01*
X69101958Y-28516068D01*
X69115606Y-28516068D01*
X69152166Y-28519999D01*
X69152182Y-28520000D01*
X69250000Y-28520000D01*
X69250051Y-28519948D01*
X69269685Y-28453084D01*
X69299686Y-28420859D01*
X69357546Y-28377546D01*
X69443796Y-28262331D01*
X69494091Y-28127483D01*
X69500500Y-28067873D01*
X69500499Y-27418998D01*
X69503049Y-27410313D01*
X69501761Y-27401353D01*
X69512738Y-27377316D01*
X69520183Y-27351961D01*
X69527025Y-27346032D01*
X69530786Y-27337797D01*
X69553017Y-27323510D01*
X69572987Y-27306206D01*
X69583502Y-27303918D01*
X69589564Y-27300023D01*
X69624499Y-27295000D01*
X69626000Y-27295000D01*
X69693039Y-27314685D01*
X69738794Y-27367489D01*
X69750000Y-27419000D01*
X69750000Y-28520000D01*
X69847828Y-28520000D01*
X69847844Y-28519999D01*
X69907372Y-28513598D01*
X69907379Y-28513596D01*
X70042086Y-28463354D01*
X70042093Y-28463350D01*
X70157187Y-28377190D01*
X70157190Y-28377187D01*
X70243350Y-28262093D01*
X70243354Y-28262086D01*
X70293596Y-28127379D01*
X70293598Y-28127372D01*
X70299999Y-28067844D01*
X70300000Y-28067827D01*
X70300000Y-27974923D01*
X70319685Y-27907884D01*
X70320000Y-27907530D01*
X70320000Y-27096988D01*
X70329940Y-27114205D01*
X70385795Y-27170060D01*
X70454204Y-27209556D01*
X70530504Y-27230000D01*
X70609496Y-27230000D01*
X70685796Y-27209556D01*
X70754205Y-27170060D01*
X70810060Y-27114205D01*
X70820000Y-27096988D01*
X70820000Y-27899862D01*
X70861690Y-27891569D01*
X70861692Y-27891569D01*
X71043671Y-27816192D01*
X71043684Y-27816185D01*
X71207462Y-27706751D01*
X71207466Y-27706748D01*
X71346748Y-27567466D01*
X71346751Y-27567462D01*
X71456185Y-27403684D01*
X71456192Y-27403671D01*
X71531569Y-27221693D01*
X71531569Y-27221691D01*
X71544897Y-27154690D01*
X71544898Y-27154686D01*
X71569999Y-27028495D01*
X71570000Y-27028492D01*
X71570000Y-26630000D01*
X70870000Y-26630000D01*
X70870000Y-26130000D01*
X71570000Y-26130000D01*
X71570000Y-25731508D01*
X71569999Y-25731504D01*
X71531572Y-25538318D01*
X71531569Y-25538306D01*
X71456192Y-25356328D01*
X71456185Y-25356315D01*
X71346751Y-25192537D01*
X71346748Y-25192533D01*
X71207466Y-25053251D01*
X71207462Y-25053248D01*
X71043684Y-24943814D01*
X71043671Y-24943807D01*
X70861691Y-24868429D01*
X70861683Y-24868427D01*
X70820000Y-24860135D01*
X70820000Y-25663011D01*
X70810060Y-25645795D01*
X70754205Y-25589940D01*
X70685796Y-25550444D01*
X70609496Y-25530000D01*
X70530504Y-25530000D01*
X70454204Y-25550444D01*
X70385795Y-25589940D01*
X70329940Y-25645795D01*
X70320000Y-25663011D01*
X70320000Y-24860135D01*
X70301518Y-24844968D01*
X70262184Y-24787223D01*
X70260313Y-24717378D01*
X70292500Y-24661436D01*
X71016119Y-23937819D01*
X71077442Y-23904334D01*
X71103800Y-23901500D01*
X73964281Y-23901500D01*
X73966920Y-23902275D01*
G37*
%TD.AperFunction*%
%TA.AperFunction,Conductor*%
G36*
X56894075Y-27392993D02*
G01*
X56959901Y-27507007D01*
X57052993Y-27600099D01*
X57167007Y-27665925D01*
X57230590Y-27682962D01*
X56598282Y-28315269D01*
X56598282Y-28315270D01*
X56652452Y-28354626D01*
X56652451Y-28354626D01*
X56661495Y-28359234D01*
X56712292Y-28407208D01*
X56729087Y-28475029D01*
X56706550Y-28541164D01*
X56661499Y-28580202D01*
X56652182Y-28584949D01*
X56480213Y-28709890D01*
X56329894Y-28860209D01*
X56329890Y-28860214D01*
X56224818Y-29004835D01*
X56169489Y-29047501D01*
X56099875Y-29053480D01*
X56038080Y-29020875D01*
X56003723Y-28960036D01*
X56000500Y-28931950D01*
X56000500Y-28007197D01*
X56020185Y-27940158D01*
X56072989Y-27894403D01*
X56142147Y-27884459D01*
X56205703Y-27913484D01*
X56224819Y-27934313D01*
X56244728Y-27961716D01*
X56877037Y-27329408D01*
X56894075Y-27392993D01*
G37*
%TD.AperFunction*%
%TA.AperFunction,Conductor*%
G36*
X76365269Y-28051716D02*
G01*
X76365770Y-28051677D01*
X76434147Y-28066041D01*
X76483905Y-28115092D01*
X76499500Y-28175295D01*
X76499500Y-28870970D01*
X76479815Y-28938009D01*
X76427011Y-28983764D01*
X76357853Y-28993708D01*
X76294297Y-28964683D01*
X76281222Y-28951516D01*
X76280107Y-28950211D01*
X76129786Y-28799890D01*
X75957817Y-28674949D01*
X75948504Y-28670204D01*
X75897707Y-28622230D01*
X75880912Y-28554409D01*
X75903449Y-28488274D01*
X75948507Y-28449232D01*
X75957555Y-28444622D01*
X76011716Y-28405270D01*
X76011717Y-28405270D01*
X75379408Y-27772962D01*
X75442993Y-27755925D01*
X75557007Y-27690099D01*
X75650099Y-27597007D01*
X75715925Y-27482993D01*
X75732962Y-27419408D01*
X76365269Y-28051716D01*
G37*
%TD.AperFunction*%
%TA.AperFunction,Conductor*%
G36*
X76468635Y-25627164D02*
G01*
X76498110Y-25690512D01*
X76499500Y-25709029D01*
X76499500Y-26404703D01*
X76479815Y-26471742D01*
X76427011Y-26517497D01*
X76365772Y-26528321D01*
X76365270Y-26528281D01*
X75732962Y-27160590D01*
X75715925Y-27097007D01*
X75650099Y-26982993D01*
X75557007Y-26889901D01*
X75442993Y-26824075D01*
X75379409Y-26807037D01*
X76011716Y-26174728D01*
X75957547Y-26135373D01*
X75957547Y-26135372D01*
X75948500Y-26130763D01*
X75897706Y-26082788D01*
X75880912Y-26014966D01*
X75903451Y-25948832D01*
X75948508Y-25909793D01*
X75957816Y-25905051D01*
X76037007Y-25847515D01*
X76129786Y-25780109D01*
X76129788Y-25780106D01*
X76129792Y-25780104D01*
X76280104Y-25629792D01*
X76280107Y-25629787D01*
X76281214Y-25628493D01*
X76281758Y-25628137D01*
X76283549Y-25626347D01*
X76283925Y-25626723D01*
X76339723Y-25590302D01*
X76409591Y-25589807D01*
X76468635Y-25627164D01*
G37*
%TD.AperFunction*%
%TA.AperFunction,Conductor*%
G36*
X56205703Y-25374336D02*
G01*
X56224815Y-25395160D01*
X56277772Y-25468049D01*
X56329896Y-25539792D01*
X56480213Y-25690109D01*
X56652179Y-25815048D01*
X56652181Y-25815049D01*
X56652184Y-25815051D01*
X56661493Y-25819794D01*
X56712290Y-25867766D01*
X56729087Y-25935587D01*
X56706552Y-26001722D01*
X56661505Y-26040760D01*
X56652446Y-26045376D01*
X56652440Y-26045380D01*
X56598282Y-26084727D01*
X56598282Y-26084728D01*
X57230591Y-26717037D01*
X57167007Y-26734075D01*
X57052993Y-26799901D01*
X56959901Y-26892993D01*
X56894075Y-27007007D01*
X56877037Y-27070591D01*
X56244728Y-26438282D01*
X56244727Y-26438282D01*
X56224819Y-26465685D01*
X56169489Y-26508351D01*
X56099876Y-26514330D01*
X56038080Y-26481725D01*
X56003723Y-26420887D01*
X56000500Y-26392800D01*
X56000500Y-25468049D01*
X56020185Y-25401010D01*
X56072989Y-25355255D01*
X56142147Y-25345311D01*
X56205703Y-25374336D01*
G37*
%TD.AperFunction*%
%TA.AperFunction,Conductor*%
G36*
X61182962Y-21020185D02*
G01*
X61228717Y-21072989D01*
X61238661Y-21142147D01*
X61209636Y-21205703D01*
X61203604Y-21212181D01*
X61153251Y-21262533D01*
X61153248Y-21262537D01*
X61043814Y-21426315D01*
X61043807Y-21426328D01*
X60968430Y-21608306D01*
X60968427Y-21608318D01*
X60930000Y-21801504D01*
X60930000Y-21950000D01*
X61630000Y-21950000D01*
X61630000Y-22450000D01*
X60930000Y-22450000D01*
X60930000Y-22598495D01*
X60968427Y-22791681D01*
X60968430Y-22791693D01*
X61043807Y-22973671D01*
X61043814Y-22973684D01*
X61153248Y-23137462D01*
X61153251Y-23137466D01*
X61292533Y-23276748D01*
X61292537Y-23276751D01*
X61456315Y-23386185D01*
X61456328Y-23386192D01*
X61638308Y-23461569D01*
X61680000Y-23469862D01*
X61680000Y-22666988D01*
X61689940Y-22684205D01*
X61745795Y-22740060D01*
X61814204Y-22779556D01*
X61890504Y-22800000D01*
X61969496Y-22800000D01*
X62045796Y-22779556D01*
X62114205Y-22740060D01*
X62170060Y-22684205D01*
X62180000Y-22666988D01*
X62180000Y-23469862D01*
X62221690Y-23461569D01*
X62221692Y-23461569D01*
X62403671Y-23386192D01*
X62403684Y-23386185D01*
X62567462Y-23276751D01*
X62567466Y-23276748D01*
X62706748Y-23137466D01*
X62706751Y-23137462D01*
X62816185Y-22973684D01*
X62816192Y-22973671D01*
X62891569Y-22791693D01*
X62891572Y-22791681D01*
X62929999Y-22598495D01*
X62930000Y-22598492D01*
X62930000Y-22450000D01*
X62230000Y-22450000D01*
X62230000Y-21950000D01*
X62930000Y-21950000D01*
X62930000Y-21801508D01*
X62929999Y-21801504D01*
X62891572Y-21608318D01*
X62891569Y-21608306D01*
X62816192Y-21426328D01*
X62816185Y-21426315D01*
X62706751Y-21262537D01*
X62706748Y-21262533D01*
X62656396Y-21212181D01*
X62622911Y-21150858D01*
X62627895Y-21081166D01*
X62669767Y-21025233D01*
X62735231Y-21000816D01*
X62744077Y-21000500D01*
X73821312Y-21000500D01*
X73888351Y-21020185D01*
X73934106Y-21072989D01*
X73944050Y-21142147D01*
X73937494Y-21167833D01*
X73905908Y-21252517D01*
X73899501Y-21312116D01*
X73899500Y-21312127D01*
X73899500Y-21950000D01*
X73899501Y-22576500D01*
X73879816Y-22643539D01*
X73827013Y-22689294D01*
X73775501Y-22700500D01*
X70890372Y-22700500D01*
X70890356Y-22700499D01*
X70882760Y-22700499D01*
X70724645Y-22700499D01*
X70648281Y-22720961D01*
X70571916Y-22741423D01*
X70571911Y-22741426D01*
X70434992Y-22820475D01*
X70434984Y-22820481D01*
X68027733Y-25227733D01*
X68026075Y-25226075D01*
X67979348Y-25260191D01*
X67937406Y-25267500D01*
X64313968Y-25267500D01*
X64313952Y-25267499D01*
X64306356Y-25267499D01*
X64148241Y-25267499D01*
X64071877Y-25287961D01*
X63995512Y-25308423D01*
X63995507Y-25308426D01*
X63858588Y-25387475D01*
X63858584Y-25387478D01*
X63834834Y-25411228D01*
X63773510Y-25444712D01*
X63703818Y-25439726D01*
X63685154Y-25430932D01*
X63562838Y-25360313D01*
X63562837Y-25360312D01*
X63562836Y-25360312D01*
X63429183Y-25324500D01*
X63290817Y-25324500D01*
X63157164Y-25360312D01*
X63157161Y-25360313D01*
X63037338Y-25429492D01*
X63033613Y-25433217D01*
X62972288Y-25466699D01*
X62902596Y-25461710D01*
X62846665Y-25419836D01*
X62831375Y-25392984D01*
X62816190Y-25356324D01*
X62816185Y-25356315D01*
X62706751Y-25192537D01*
X62706748Y-25192533D01*
X62567466Y-25053251D01*
X62567462Y-25053248D01*
X62403684Y-24943814D01*
X62403671Y-24943807D01*
X62221691Y-24868429D01*
X62221683Y-24868427D01*
X62180000Y-24860135D01*
X62180000Y-25663011D01*
X62170060Y-25645795D01*
X62114205Y-25589940D01*
X62045796Y-25550444D01*
X61969496Y-25530000D01*
X61890504Y-25530000D01*
X61814204Y-25550444D01*
X61745795Y-25589940D01*
X61689940Y-25645795D01*
X61680000Y-25663011D01*
X61680000Y-24860136D01*
X61679999Y-24860135D01*
X61638316Y-24868427D01*
X61638308Y-24868429D01*
X61456328Y-24943807D01*
X61456319Y-24943812D01*
X61413083Y-24972701D01*
X61346405Y-24993577D01*
X61279025Y-24975091D01*
X61256513Y-24957278D01*
X60597590Y-24298355D01*
X60597588Y-24298352D01*
X60478717Y-24179481D01*
X60478709Y-24179475D01*
X60362215Y-24112218D01*
X60362215Y-24112217D01*
X60362210Y-24112216D01*
X60355082Y-24108100D01*
X60341786Y-24100423D01*
X60272265Y-24081795D01*
X60189057Y-24059499D01*
X60030943Y-24059499D01*
X60023347Y-24059499D01*
X60023331Y-24059500D01*
X58645719Y-24059500D01*
X58578680Y-24039815D01*
X58535235Y-23991795D01*
X58515052Y-23952185D01*
X58515051Y-23952184D01*
X58390109Y-23780213D01*
X58276569Y-23666673D01*
X58243084Y-23605350D01*
X58248068Y-23535658D01*
X58289940Y-23479725D01*
X58320915Y-23462810D01*
X58452331Y-23413796D01*
X58567546Y-23327546D01*
X58653796Y-23212331D01*
X58704091Y-23077483D01*
X58710500Y-23017873D01*
X58710499Y-21950000D01*
X58710499Y-21222129D01*
X58710498Y-21222123D01*
X58709430Y-21212181D01*
X58704091Y-21162517D01*
X58704090Y-21162515D01*
X58704090Y-21162512D01*
X58702308Y-21154969D01*
X58705106Y-21154307D01*
X58701090Y-21098139D01*
X58734577Y-21036816D01*
X58795901Y-21003333D01*
X58822256Y-21000500D01*
X61115923Y-21000500D01*
X61182962Y-21020185D01*
G37*
%TD.AperFunction*%
%TD*%
M02*
