%TF.GenerationSoftware,KiCad,Pcbnew,9.0.7*%
%TF.CreationDate,2026-01-26T20:35:48+05:30*%
%TF.ProjectId,Devboard,44657662-6f61-4726-942e-6b696361645f,rev?*%
%TF.SameCoordinates,Original*%
%TF.FileFunction,Copper,L2,Bot*%
%TF.FilePolarity,Positive*%
%FSLAX46Y46*%
G04 Gerber Fmt 4.6, Leading zero omitted, Abs format (unit mm)*
G04 Created by KiCad (PCBNEW 9.0.7) date 2026-01-26 20:35:48*
%MOMM*%
%LPD*%
G01*
G04 APERTURE LIST*
%TA.AperFunction,ComponentPad*%
%ADD10C,1.700000*%
%TD*%
%TA.AperFunction,ComponentPad*%
%ADD11R,1.700000X1.700000*%
%TD*%
%TA.AperFunction,HeatsinkPad*%
%ADD12O,1.000000X2.100000*%
%TD*%
%TA.AperFunction,HeatsinkPad*%
%ADD13O,1.000000X1.600000*%
%TD*%
%TA.AperFunction,ViaPad*%
%ADD14C,0.600000*%
%TD*%
%TA.AperFunction,Conductor*%
%ADD15C,0.200000*%
%TD*%
G04 APERTURE END LIST*
D10*
%TO.P,J2,20,Pin_20*%
%TO.N,GPI 15*%
X57360000Y-70450000D03*
%TO.P,J2,19,Pin_19*%
%TO.N,GPI 14*%
X57360000Y-67910000D03*
%TO.P,J2,18,Pin_18*%
%TO.N,GND*%
X57360000Y-65370000D03*
%TO.P,J2,17,Pin_17*%
%TO.N,GPI 13*%
X57360000Y-62830000D03*
%TO.P,J2,16,Pin_16*%
%TO.N,GPI 12*%
X57360000Y-60290000D03*
%TO.P,J2,15,Pin_15*%
%TO.N,GPI 11*%
X57360000Y-57750000D03*
%TO.P,J2,14,Pin_14*%
%TO.N,GPI 10*%
X57360000Y-55210000D03*
%TO.P,J2,13,Pin_13*%
%TO.N,GND*%
X57360000Y-52670000D03*
%TO.P,J2,12,Pin_12*%
%TO.N,GPIO 9*%
X57360000Y-50130000D03*
%TO.P,J2,11,Pin_11*%
%TO.N,GPIO 8*%
X57360000Y-47590000D03*
%TO.P,J2,10,Pin_10*%
%TO.N,GPIO 7*%
X57360000Y-45050000D03*
%TO.P,J2,9,Pin_9*%
%TO.N,GPIO 6*%
X57360000Y-42510000D03*
%TO.P,J2,8,Pin_8*%
%TO.N,GND*%
X57360000Y-39970000D03*
%TO.P,J2,7,Pin_7*%
%TO.N,GPIO 5*%
X57360000Y-37430000D03*
%TO.P,J2,6,Pin_6*%
%TO.N,GPIO 4*%
X57360000Y-34890000D03*
%TO.P,J2,5,Pin_5*%
%TO.N,GPIO 3*%
X57360000Y-32350000D03*
%TO.P,J2,4,Pin_4*%
%TO.N,GPIO 2*%
X57360000Y-29810000D03*
%TO.P,J2,3,Pin_3*%
%TO.N,GND*%
X57360000Y-27270000D03*
%TO.P,J2,2,Pin_2*%
%TO.N,GPIO 1*%
X57360000Y-24730000D03*
D11*
%TO.P,J2,1,Pin_1*%
%TO.N,GPI 0*%
X57360000Y-22190000D03*
%TD*%
D10*
%TO.P,J3,20,Pin_20*%
%TO.N,GPI 16*%
X75250000Y-70470000D03*
%TO.P,J3,19,Pin_19*%
%TO.N,GPI 17*%
X75250000Y-67930000D03*
%TO.P,J3,18,Pin_18*%
%TO.N,GND*%
X75250000Y-65390000D03*
%TO.P,J3,17,Pin_17*%
%TO.N,GPI 18*%
X75250000Y-62850000D03*
%TO.P,J3,16,Pin_16*%
%TO.N,GPI 19*%
X75250000Y-60310000D03*
%TO.P,J3,15,Pin_15*%
%TO.N,GPI 20*%
X75250000Y-57770000D03*
%TO.P,J3,14,Pin_14*%
%TO.N,GPI 21*%
X75250000Y-55230000D03*
%TO.P,J3,13,Pin_13*%
%TO.N,GND*%
X75250000Y-52690000D03*
%TO.P,J3,12,Pin_12*%
%TO.N,GPI 22*%
X75250000Y-50150000D03*
%TO.P,J3,11,Pin_11*%
%TO.N,RUN*%
X75250000Y-47610000D03*
%TO.P,J3,10,Pin_10*%
%TO.N,GPI 23*%
X75250000Y-45070000D03*
%TO.P,J3,9,Pin_9*%
%TO.N,GPI 24*%
X75250000Y-42530000D03*
%TO.P,J3,8,Pin_8*%
%TO.N,GND*%
X75250000Y-39990000D03*
%TO.P,J3,7,Pin_7*%
%TO.N,GPI 26*%
X75250000Y-37450000D03*
%TO.P,J3,6,Pin_6*%
%TO.N,GPI 27*%
X75250000Y-34910000D03*
%TO.P,J3,5,Pin_5*%
%TO.N,+3V3*%
X75250000Y-32370000D03*
%TO.P,J3,4,Pin_4*%
%TO.N,GPI 28*%
X75250000Y-29830000D03*
%TO.P,J3,3,Pin_3*%
%TO.N,GND*%
X75250000Y-27290000D03*
%TO.P,J3,2,Pin_2*%
%TO.N,GPI 29*%
X75250000Y-24750000D03*
D11*
%TO.P,J3,1,Pin_1*%
%TO.N,VBUS*%
X75250000Y-22210000D03*
%TD*%
D12*
%TO.P,J1,S1,SHIELD*%
%TO.N,GND*%
X70570000Y-26380000D03*
D13*
X70570000Y-22200000D03*
D12*
X61930000Y-26380000D03*
D13*
X61930000Y-22200000D03*
%TD*%
D11*
%TO.P,J4,1,Pin_1*%
%TO.N,SWCLK*%
X68780000Y-70200000D03*
D10*
%TO.P,J4,2,Pin_2*%
%TO.N,GND*%
X66240000Y-70200000D03*
%TO.P,J4,3,Pin_3*%
%TO.N,SWD*%
X63700000Y-70200000D03*
%TD*%
D14*
%TO.N,GND*%
X71400000Y-36500000D03*
X64500000Y-56100000D03*
X67690000Y-39465028D03*
%TO.N,*%
X63898757Y-31637500D03*
%TO.N,GND*%
X72599265Y-28099265D03*
X70600000Y-24600000D03*
X70400000Y-37500000D03*
X69550000Y-40870000D03*
X63600000Y-44350000D03*
X65925000Y-41350000D03*
X67820000Y-42400000D03*
X71050000Y-46550000D03*
X70501000Y-44570000D03*
%TO.N,+3V3*%
X64685000Y-36250000D03*
X72273460Y-35873460D03*
X64050000Y-32875000D03*
X67569000Y-36750000D03*
%TO.N,GPI 0*%
X63750000Y-48450000D03*
%TO.N,GPIO 1*%
X62400000Y-46550000D03*
%TO.N,GPIO 2*%
X61500000Y-46657178D03*
%TO.N,GPIO 3*%
X61100000Y-45964356D03*
%TO.N,GPIO 4*%
X60700000Y-45271535D03*
%TO.N,GND*%
X65250000Y-52751000D03*
X66250000Y-50250000D03*
%TO.N,RUN*%
X71424265Y-56850000D03*
%TO.N,GPI 17*%
X70824265Y-55725735D03*
%TO.N,GPI 16*%
X68750000Y-52750000D03*
%TO.N,SWCLK*%
X69190000Y-59556263D03*
%TO.N,+1V1*%
X67144465Y-52752567D03*
%TO.N,Net-(R7-Pad2)*%
X67569000Y-34450000D03*
X65925000Y-34450000D03*
%TO.N,XIN*%
X68590000Y-60330000D03*
X65450000Y-56254916D03*
%TO.N,+1V1*%
X68050000Y-47650000D03*
X66050000Y-47700000D03*
X69560000Y-44570000D03*
%TD*%
D15*
%TO.N,+3V3*%
X72273460Y-35873460D02*
X72620000Y-35526920D01*
X72620000Y-35526920D02*
X72620000Y-35000000D01*
X72620000Y-35000000D02*
X75250000Y-32370000D01*
%TO.N,XIN*%
X65450000Y-56254916D02*
X66754916Y-56254916D01*
X66754916Y-56254916D02*
X68590000Y-58090000D01*
X68590000Y-58090000D02*
X68590000Y-60330000D01*
%TO.N,GPI 16*%
X68750000Y-53450000D02*
X69800000Y-54500000D01*
X69800000Y-65020000D02*
X75250000Y-70470000D01*
X68750000Y-52750000D02*
X68750000Y-53450000D01*
X69800000Y-54500000D02*
X69800000Y-65020000D01*
%TO.N,+1V1*%
X67144465Y-52752567D02*
X67334915Y-52562117D01*
X67334915Y-52562117D02*
X67334915Y-52386972D01*
X68250000Y-51473301D02*
X68250000Y-47950000D01*
X67688386Y-52034915D02*
X68250000Y-51473301D01*
X67334915Y-52386972D02*
X67686972Y-52034915D01*
X67686972Y-52034915D02*
X67688386Y-52034915D01*
%TO.N,GPIO 4*%
X60700000Y-45271535D02*
X60700000Y-36050000D01*
X60700000Y-36050000D02*
X59470000Y-34820000D01*
X59470000Y-34820000D02*
X57360000Y-34820000D01*
%TO.N,GPIO 3*%
X57360000Y-32280000D02*
X59780000Y-32280000D01*
X59780000Y-32280000D02*
X61300000Y-33800000D01*
X61300000Y-33800000D02*
X61300000Y-45764356D01*
X61300000Y-45764356D02*
X61100000Y-45964356D01*
%TO.N,GPIO 2*%
X57360000Y-29740000D02*
X60340000Y-29740000D01*
X60340000Y-29740000D02*
X61700000Y-31100000D01*
X61700000Y-31100000D02*
X61700000Y-46457178D01*
X61700000Y-46457178D02*
X61500000Y-46657178D01*
%TO.N,GPIO 1*%
X62101000Y-30933900D02*
X60508550Y-29341450D01*
X62400000Y-46550000D02*
X62101000Y-46251000D01*
X62101000Y-46251000D02*
X62101000Y-30933900D01*
X60508550Y-29341450D02*
X60508550Y-27808550D01*
X60508550Y-27808550D02*
X57360000Y-24660000D01*
%TO.N,GND*%
X67350000Y-41350000D02*
X65925000Y-41350000D01*
X67820000Y-42400000D02*
X67820000Y-41820000D01*
X67450000Y-41450000D02*
X67350000Y-41350000D01*
X67820000Y-41820000D02*
X67450000Y-41450000D01*
X68531000Y-43969000D02*
X68500000Y-44000000D01*
X69900000Y-43969000D02*
X68531000Y-43969000D01*
X70715500Y-44784500D02*
X69900000Y-43969000D01*
X71050000Y-45119000D02*
X70715500Y-44784500D01*
X67820000Y-43320000D02*
X67820000Y-42400000D01*
X68500000Y-44000000D02*
X67820000Y-43320000D01*
X71050000Y-46550000D02*
X71050000Y-45119000D01*
X70715500Y-44784500D02*
X70501000Y-44570000D01*
X74099000Y-57501000D02*
X73350000Y-58250000D01*
X74099000Y-53841000D02*
X74099000Y-57501000D01*
X75250000Y-52690000D02*
X74099000Y-53841000D01*
%TO.N,+3V3*%
X67569000Y-36750000D02*
X65500000Y-36750000D01*
X64050000Y-35300000D02*
X64050000Y-32875000D01*
X65500000Y-36750000D02*
X64050000Y-35300000D01*
%TO.N,GPI 0*%
X63750000Y-48450000D02*
X63750000Y-46997003D01*
X63750000Y-46997003D02*
X62502000Y-45749003D01*
X62502000Y-45749003D02*
X62502000Y-28702000D01*
X62502000Y-28702000D02*
X58511000Y-24711000D01*
X58511000Y-24711000D02*
X58511000Y-23271000D01*
X58511000Y-23271000D02*
X57360000Y-22120000D01*
%TO.N,GND*%
X65250000Y-52751000D02*
X66250000Y-51751000D01*
X66250000Y-51751000D02*
X66250000Y-50250000D01*
%TO.N,RUN*%
X71424265Y-56850000D02*
X73500000Y-56850000D01*
X73500000Y-56850000D02*
X73500000Y-49360000D01*
X73500000Y-49360000D02*
X75250000Y-47610000D01*
%TO.N,GPI 17*%
X70824265Y-55725735D02*
X70824265Y-63504265D01*
X70824265Y-63504265D02*
X75250000Y-67930000D01*
%TO.N,SWCLK*%
X69191000Y-59557263D02*
X69191000Y-69789000D01*
X69191000Y-69789000D02*
X68780000Y-70200000D01*
X69190000Y-59556263D02*
X69191000Y-59557263D01*
%TO.N,Net-(R7-Pad2)*%
X67569000Y-34450000D02*
X65925000Y-34450000D01*
%TO.N,+1V1*%
X68050000Y-47650000D02*
X68050000Y-47750000D01*
X68050000Y-47750000D02*
X68250000Y-47950000D01*
X66050000Y-47700000D02*
X66300000Y-47950000D01*
X66300000Y-47950000D02*
X68250000Y-47950000D01*
X68250000Y-47950000D02*
X69560000Y-46640000D01*
X69560000Y-46640000D02*
X69560000Y-44570000D01*
%TD*%
%TA.AperFunction,Conductor*%
%TO.N,GND*%
G36*
X60998099Y-21270185D02*
G01*
X61043854Y-21322989D01*
X61053798Y-21392147D01*
X61045621Y-21421953D01*
X60968429Y-21608310D01*
X60968427Y-21608318D01*
X60930000Y-21801504D01*
X60930000Y-21950000D01*
X61630000Y-21950000D01*
X61630000Y-22450000D01*
X60930000Y-22450000D01*
X60930000Y-22598495D01*
X60968427Y-22791681D01*
X60968430Y-22791693D01*
X61043807Y-22973671D01*
X61043814Y-22973684D01*
X61153248Y-23137462D01*
X61153251Y-23137466D01*
X61292533Y-23276748D01*
X61292537Y-23276751D01*
X61456315Y-23386185D01*
X61456328Y-23386192D01*
X61638308Y-23461569D01*
X61680000Y-23469862D01*
X61680000Y-22666988D01*
X61689940Y-22684205D01*
X61745795Y-22740060D01*
X61814204Y-22779556D01*
X61890504Y-22800000D01*
X61969496Y-22800000D01*
X62045796Y-22779556D01*
X62114205Y-22740060D01*
X62170060Y-22684205D01*
X62180000Y-22666988D01*
X62180000Y-23469862D01*
X62221690Y-23461569D01*
X62221692Y-23461569D01*
X62403671Y-23386192D01*
X62403684Y-23386185D01*
X62567462Y-23276751D01*
X62567466Y-23276748D01*
X62706748Y-23137466D01*
X62706751Y-23137462D01*
X62816185Y-22973684D01*
X62816192Y-22973671D01*
X62891569Y-22791693D01*
X62891572Y-22791681D01*
X62929999Y-22598495D01*
X62930000Y-22598492D01*
X62930000Y-22450000D01*
X62230000Y-22450000D01*
X62230000Y-21950000D01*
X62930000Y-21950000D01*
X62930000Y-21801508D01*
X62929999Y-21801504D01*
X62891572Y-21608318D01*
X62891570Y-21608310D01*
X62814379Y-21421953D01*
X62806910Y-21352483D01*
X62838185Y-21290004D01*
X62898274Y-21254352D01*
X62928940Y-21250500D01*
X73775500Y-21250500D01*
X73842539Y-21270185D01*
X73888294Y-21322989D01*
X73899500Y-21374500D01*
X73899500Y-23107870D01*
X73899501Y-23107876D01*
X73905908Y-23167483D01*
X73956202Y-23302328D01*
X73956206Y-23302335D01*
X74042452Y-23417544D01*
X74042455Y-23417547D01*
X74157664Y-23503793D01*
X74157671Y-23503797D01*
X74289082Y-23552810D01*
X74345016Y-23594681D01*
X74369433Y-23660145D01*
X74354582Y-23728418D01*
X74333431Y-23756673D01*
X74219889Y-23870215D01*
X74094951Y-24042179D01*
X73998444Y-24231585D01*
X73932753Y-24433760D01*
X73922486Y-24498584D01*
X73899500Y-24643713D01*
X73899500Y-24856287D01*
X73900110Y-24860136D01*
X73930695Y-25053248D01*
X73932754Y-25066243D01*
X73973789Y-25192536D01*
X73998444Y-25268414D01*
X74094951Y-25457820D01*
X74219890Y-25629786D01*
X74370213Y-25780109D01*
X74542179Y-25905048D01*
X74542181Y-25905049D01*
X74542184Y-25905051D01*
X74551493Y-25909794D01*
X74602290Y-25957766D01*
X74619087Y-26025587D01*
X74596552Y-26091722D01*
X74551505Y-26130760D01*
X74542446Y-26135376D01*
X74542440Y-26135380D01*
X74488282Y-26174727D01*
X74488282Y-26174728D01*
X75120591Y-26807037D01*
X75057007Y-26824075D01*
X74942993Y-26889901D01*
X74849901Y-26982993D01*
X74784075Y-27097007D01*
X74767037Y-27160591D01*
X74134728Y-26528282D01*
X74134727Y-26528282D01*
X74095380Y-26582439D01*
X73998904Y-26771782D01*
X73933242Y-26973869D01*
X73933242Y-26973872D01*
X73900000Y-27183753D01*
X73900000Y-27396246D01*
X73933242Y-27606127D01*
X73933242Y-27606130D01*
X73998904Y-27808217D01*
X74095375Y-27997550D01*
X74134728Y-28051716D01*
X74767037Y-27419408D01*
X74784075Y-27482993D01*
X74849901Y-27597007D01*
X74942993Y-27690099D01*
X75057007Y-27755925D01*
X75120589Y-27772962D01*
X74488282Y-28405269D01*
X74488282Y-28405270D01*
X74542452Y-28444626D01*
X74542451Y-28444626D01*
X74551495Y-28449234D01*
X74602292Y-28497208D01*
X74619087Y-28565029D01*
X74596550Y-28631164D01*
X74551499Y-28670202D01*
X74542182Y-28674949D01*
X74370213Y-28799890D01*
X74219890Y-28950213D01*
X74094951Y-29122179D01*
X73998444Y-29311585D01*
X73932753Y-29513760D01*
X73906500Y-29679516D01*
X73899500Y-29723713D01*
X73899500Y-29936287D01*
X73932754Y-30146243D01*
X73995872Y-30340500D01*
X73998444Y-30348414D01*
X74094951Y-30537820D01*
X74219890Y-30709786D01*
X74370213Y-30860109D01*
X74542182Y-30985050D01*
X74550946Y-30989516D01*
X74601742Y-31037491D01*
X74618536Y-31105312D01*
X74595998Y-31171447D01*
X74550946Y-31210484D01*
X74542182Y-31214949D01*
X74370213Y-31339890D01*
X74219890Y-31490213D01*
X74094951Y-31662179D01*
X73998444Y-31851585D01*
X73932753Y-32053760D01*
X73899500Y-32263713D01*
X73899500Y-32476286D01*
X73932754Y-32686244D01*
X73932754Y-32686247D01*
X73946491Y-32728523D01*
X73948486Y-32798364D01*
X73916241Y-32854522D01*
X72251286Y-34519478D01*
X72139481Y-34631282D01*
X72139479Y-34631285D01*
X72089361Y-34718094D01*
X72089359Y-34718096D01*
X72060425Y-34768209D01*
X72060424Y-34768210D01*
X72053303Y-34794787D01*
X72019499Y-34920943D01*
X72019499Y-34920945D01*
X72019499Y-35029344D01*
X71999814Y-35096383D01*
X71947010Y-35142138D01*
X71942953Y-35143905D01*
X71894281Y-35164066D01*
X71894274Y-35164069D01*
X71763171Y-35251670D01*
X71763167Y-35251673D01*
X71651673Y-35363167D01*
X71651670Y-35363171D01*
X71564069Y-35494274D01*
X71564062Y-35494287D01*
X71503724Y-35639958D01*
X71503721Y-35639970D01*
X71472960Y-35794613D01*
X71472960Y-35952306D01*
X71503721Y-36106949D01*
X71503724Y-36106961D01*
X71564062Y-36252632D01*
X71564069Y-36252645D01*
X71651670Y-36383748D01*
X71651673Y-36383752D01*
X71763167Y-36495246D01*
X71763171Y-36495249D01*
X71894274Y-36582850D01*
X71894287Y-36582857D01*
X72039958Y-36643195D01*
X72039963Y-36643197D01*
X72194613Y-36673959D01*
X72194616Y-36673960D01*
X72194618Y-36673960D01*
X72352304Y-36673960D01*
X72352305Y-36673959D01*
X72506957Y-36643197D01*
X72652639Y-36582854D01*
X72783749Y-36495249D01*
X72895249Y-36383749D01*
X72982854Y-36252639D01*
X73043197Y-36106957D01*
X73073960Y-35952302D01*
X73073960Y-35952301D01*
X73074241Y-35950889D01*
X73097487Y-35899588D01*
X73100516Y-35895639D01*
X73100520Y-35895636D01*
X73179577Y-35758704D01*
X73220501Y-35605977D01*
X73220501Y-35447862D01*
X73220501Y-35440267D01*
X73220500Y-35440249D01*
X73220500Y-35300097D01*
X73240185Y-35233058D01*
X73256819Y-35212416D01*
X73687819Y-34781416D01*
X73749142Y-34747931D01*
X73818834Y-34752915D01*
X73874767Y-34794787D01*
X73899184Y-34860251D01*
X73899500Y-34869097D01*
X73899500Y-35016286D01*
X73931914Y-35220943D01*
X73932754Y-35226243D01*
X73995872Y-35420500D01*
X73998444Y-35428414D01*
X74094951Y-35617820D01*
X74219890Y-35789786D01*
X74370213Y-35940109D01*
X74542182Y-36065050D01*
X74550946Y-36069516D01*
X74601742Y-36117491D01*
X74618536Y-36185312D01*
X74595998Y-36251447D01*
X74550946Y-36290484D01*
X74542182Y-36294949D01*
X74370213Y-36419890D01*
X74219890Y-36570213D01*
X74094951Y-36742179D01*
X73998444Y-36931585D01*
X73932753Y-37133760D01*
X73899500Y-37343713D01*
X73899500Y-37556286D01*
X73929585Y-37746239D01*
X73932754Y-37766243D01*
X73991945Y-37948414D01*
X73998444Y-37968414D01*
X74094951Y-38157820D01*
X74219890Y-38329786D01*
X74370213Y-38480109D01*
X74542179Y-38605048D01*
X74542181Y-38605049D01*
X74542184Y-38605051D01*
X74551493Y-38609794D01*
X74602290Y-38657766D01*
X74619087Y-38725587D01*
X74596552Y-38791722D01*
X74551505Y-38830760D01*
X74542446Y-38835376D01*
X74542440Y-38835380D01*
X74488282Y-38874727D01*
X74488282Y-38874728D01*
X75120591Y-39507037D01*
X75057007Y-39524075D01*
X74942993Y-39589901D01*
X74849901Y-39682993D01*
X74784075Y-39797007D01*
X74767037Y-39860591D01*
X74134728Y-39228282D01*
X74134727Y-39228282D01*
X74095380Y-39282439D01*
X73998904Y-39471782D01*
X73933242Y-39673869D01*
X73933242Y-39673872D01*
X73900000Y-39883753D01*
X73900000Y-40096246D01*
X73933242Y-40306127D01*
X73933242Y-40306130D01*
X73998904Y-40508217D01*
X74095375Y-40697550D01*
X74134728Y-40751716D01*
X74767037Y-40119408D01*
X74784075Y-40182993D01*
X74849901Y-40297007D01*
X74942993Y-40390099D01*
X75057007Y-40455925D01*
X75120589Y-40472962D01*
X74488282Y-41105269D01*
X74488282Y-41105270D01*
X74542452Y-41144626D01*
X74542451Y-41144626D01*
X74551495Y-41149234D01*
X74602292Y-41197208D01*
X74619087Y-41265029D01*
X74596550Y-41331164D01*
X74551499Y-41370202D01*
X74542182Y-41374949D01*
X74370213Y-41499890D01*
X74219890Y-41650213D01*
X74094951Y-41822179D01*
X73998444Y-42011585D01*
X73932753Y-42213760D01*
X73899500Y-42423713D01*
X73899500Y-42636286D01*
X73929585Y-42826239D01*
X73932754Y-42846243D01*
X73991945Y-43028414D01*
X73998444Y-43048414D01*
X74094951Y-43237820D01*
X74219890Y-43409786D01*
X74370213Y-43560109D01*
X74542182Y-43685050D01*
X74550946Y-43689516D01*
X74601742Y-43737491D01*
X74618536Y-43805312D01*
X74595998Y-43871447D01*
X74550946Y-43910484D01*
X74542182Y-43914949D01*
X74370213Y-44039890D01*
X74219890Y-44190213D01*
X74094951Y-44362179D01*
X73998444Y-44551585D01*
X73932753Y-44753760D01*
X73924877Y-44803489D01*
X73899500Y-44963713D01*
X73899500Y-45176287D01*
X73909534Y-45239644D01*
X73929585Y-45366239D01*
X73932754Y-45386243D01*
X73991945Y-45568414D01*
X73998444Y-45588414D01*
X74094951Y-45777820D01*
X74219890Y-45949786D01*
X74370213Y-46100109D01*
X74542182Y-46225050D01*
X74550946Y-46229516D01*
X74601742Y-46277491D01*
X74618536Y-46345312D01*
X74595998Y-46411447D01*
X74550946Y-46450484D01*
X74542182Y-46454949D01*
X74370213Y-46579890D01*
X74219890Y-46730213D01*
X74094951Y-46902179D01*
X73998444Y-47091585D01*
X73932753Y-47293760D01*
X73905392Y-47466510D01*
X73899500Y-47503713D01*
X73899500Y-47716287D01*
X73916127Y-47821265D01*
X73932754Y-47926244D01*
X73932754Y-47926247D01*
X73946491Y-47968523D01*
X73948486Y-48038364D01*
X73916241Y-48094522D01*
X73131286Y-48879478D01*
X73019481Y-48991282D01*
X73019479Y-48991284D01*
X72996988Y-49030242D01*
X72985292Y-49050500D01*
X72940423Y-49128215D01*
X72899499Y-49280943D01*
X72899499Y-49280945D01*
X72899499Y-49449046D01*
X72899500Y-49449059D01*
X72899500Y-56125500D01*
X72879815Y-56192539D01*
X72827011Y-56238294D01*
X72775500Y-56249500D01*
X72004031Y-56249500D01*
X71936992Y-56229815D01*
X71935140Y-56228602D01*
X71803450Y-56140609D01*
X71803441Y-56140604D01*
X71670631Y-56085593D01*
X71616228Y-56041752D01*
X71594163Y-55975458D01*
X71596467Y-55946840D01*
X71624765Y-55804579D01*
X71624765Y-55646890D01*
X71624764Y-55646888D01*
X71622346Y-55634731D01*
X71594002Y-55492238D01*
X71578336Y-55454416D01*
X71533662Y-55346562D01*
X71533655Y-55346549D01*
X71446054Y-55215446D01*
X71446051Y-55215442D01*
X71334557Y-55103948D01*
X71334553Y-55103945D01*
X71203450Y-55016344D01*
X71203437Y-55016337D01*
X71057766Y-54955999D01*
X71057754Y-54955996D01*
X70903110Y-54925235D01*
X70903107Y-54925235D01*
X70745423Y-54925235D01*
X70745420Y-54925235D01*
X70590775Y-54955996D01*
X70590763Y-54955999D01*
X70571950Y-54963792D01*
X70502481Y-54971259D01*
X70440002Y-54939983D01*
X70404351Y-54879893D01*
X70400500Y-54849230D01*
X70400500Y-54420945D01*
X70400500Y-54420943D01*
X70359577Y-54268216D01*
X70359577Y-54268215D01*
X70320133Y-54199896D01*
X70318944Y-54197836D01*
X70280524Y-54131290D01*
X70280521Y-54131286D01*
X70280520Y-54131284D01*
X70168716Y-54019480D01*
X70168715Y-54019479D01*
X70164385Y-54015149D01*
X70164374Y-54015139D01*
X69458861Y-53309626D01*
X69425376Y-53248303D01*
X69430360Y-53178611D01*
X69443436Y-53153060D01*
X69459394Y-53129179D01*
X69519737Y-52983497D01*
X69550500Y-52828842D01*
X69550500Y-52671158D01*
X69550500Y-52671155D01*
X69550499Y-52671153D01*
X69550269Y-52669999D01*
X69519737Y-52516503D01*
X69507461Y-52486865D01*
X69459397Y-52370827D01*
X69459390Y-52370814D01*
X69371789Y-52239711D01*
X69371786Y-52239707D01*
X69260292Y-52128213D01*
X69260288Y-52128210D01*
X69129185Y-52040609D01*
X69129172Y-52040602D01*
X68983501Y-51980264D01*
X68983489Y-51980261D01*
X68854700Y-51954643D01*
X68829085Y-51941244D01*
X68802244Y-51930500D01*
X68798502Y-51925246D01*
X68792789Y-51922258D01*
X68778485Y-51897138D01*
X68761713Y-51873588D01*
X68761405Y-51867145D01*
X68758215Y-51861542D01*
X68759762Y-51832674D01*
X68758385Y-51803798D01*
X68761761Y-51795363D01*
X68761954Y-51791773D01*
X68771496Y-51771041D01*
X68780639Y-51755205D01*
X68809577Y-51705086D01*
X68850500Y-51552358D01*
X68850500Y-51394244D01*
X68850500Y-48250097D01*
X68870185Y-48183058D01*
X68886819Y-48162416D01*
X69428082Y-47621153D01*
X70040520Y-47008716D01*
X70119577Y-46871784D01*
X70160501Y-46719057D01*
X70160501Y-46560942D01*
X70160501Y-46553347D01*
X70160500Y-46553329D01*
X70160500Y-45149765D01*
X70180185Y-45082726D01*
X70181398Y-45080874D01*
X70210016Y-45038045D01*
X70269394Y-44949179D01*
X70329737Y-44803497D01*
X70360500Y-44648842D01*
X70360500Y-44491158D01*
X70360500Y-44491155D01*
X70360499Y-44491153D01*
X70329738Y-44336510D01*
X70329737Y-44336503D01*
X70329735Y-44336498D01*
X70269397Y-44190827D01*
X70269390Y-44190814D01*
X70181789Y-44059711D01*
X70181786Y-44059707D01*
X70070292Y-43948213D01*
X70070288Y-43948210D01*
X69939185Y-43860609D01*
X69939172Y-43860602D01*
X69793501Y-43800264D01*
X69793489Y-43800261D01*
X69638845Y-43769500D01*
X69638842Y-43769500D01*
X69481158Y-43769500D01*
X69481155Y-43769500D01*
X69326510Y-43800261D01*
X69326498Y-43800264D01*
X69180827Y-43860602D01*
X69180814Y-43860609D01*
X69049711Y-43948210D01*
X69049707Y-43948213D01*
X68938213Y-44059707D01*
X68938210Y-44059711D01*
X68850609Y-44190814D01*
X68850602Y-44190827D01*
X68790264Y-44336498D01*
X68790261Y-44336510D01*
X68759500Y-44491153D01*
X68759500Y-44648846D01*
X68790261Y-44803489D01*
X68790264Y-44803501D01*
X68850602Y-44949172D01*
X68850609Y-44949185D01*
X68938602Y-45080874D01*
X68959480Y-45147551D01*
X68959500Y-45149765D01*
X68959500Y-46339902D01*
X68939815Y-46406941D01*
X68923181Y-46427583D01*
X68474315Y-46876448D01*
X68412992Y-46909933D01*
X68343300Y-46904949D01*
X68339182Y-46903328D01*
X68283501Y-46880264D01*
X68283489Y-46880261D01*
X68128845Y-46849500D01*
X68128842Y-46849500D01*
X67971158Y-46849500D01*
X67971155Y-46849500D01*
X67816510Y-46880261D01*
X67816498Y-46880264D01*
X67670827Y-46940602D01*
X67670814Y-46940609D01*
X67539711Y-47028210D01*
X67539707Y-47028213D01*
X67428213Y-47139707D01*
X67428210Y-47139711D01*
X67340609Y-47270814D01*
X67340607Y-47270819D01*
X67339725Y-47272949D01*
X67338964Y-47273893D01*
X67337736Y-47276191D01*
X67337300Y-47275958D01*
X67295885Y-47327354D01*
X67229592Y-47349421D01*
X67225162Y-47349500D01*
X66844836Y-47349500D01*
X66777797Y-47329815D01*
X66741734Y-47294391D01*
X66671789Y-47189710D01*
X66560292Y-47078213D01*
X66560288Y-47078210D01*
X66429185Y-46990609D01*
X66429172Y-46990602D01*
X66283501Y-46930264D01*
X66283489Y-46930261D01*
X66128845Y-46899500D01*
X66128842Y-46899500D01*
X65971158Y-46899500D01*
X65971155Y-46899500D01*
X65816510Y-46930261D01*
X65816498Y-46930264D01*
X65670827Y-46990602D01*
X65670814Y-46990609D01*
X65539711Y-47078210D01*
X65539707Y-47078213D01*
X65428213Y-47189707D01*
X65428210Y-47189711D01*
X65340609Y-47320814D01*
X65340602Y-47320827D01*
X65280264Y-47466498D01*
X65280261Y-47466510D01*
X65249500Y-47621153D01*
X65249500Y-47778846D01*
X65280261Y-47933489D01*
X65280264Y-47933501D01*
X65340602Y-48079172D01*
X65340609Y-48079185D01*
X65428210Y-48210288D01*
X65428213Y-48210292D01*
X65539707Y-48321786D01*
X65539711Y-48321789D01*
X65670814Y-48409390D01*
X65670827Y-48409397D01*
X65816498Y-48469735D01*
X65816503Y-48469737D01*
X65971153Y-48500499D01*
X65971156Y-48500500D01*
X65971158Y-48500500D01*
X66021638Y-48500500D01*
X66054587Y-48504958D01*
X66065357Y-48507926D01*
X66068216Y-48509577D01*
X66180019Y-48539534D01*
X66220942Y-48550500D01*
X66220943Y-48550500D01*
X67525500Y-48550500D01*
X67592539Y-48570185D01*
X67638294Y-48622989D01*
X67649500Y-48674500D01*
X67649500Y-51173203D01*
X67629815Y-51240242D01*
X67613181Y-51260884D01*
X67330080Y-51543984D01*
X67318577Y-51554073D01*
X66966201Y-51906448D01*
X66966199Y-51906452D01*
X66892308Y-51980342D01*
X66852080Y-52007221D01*
X66765289Y-52043171D01*
X66765279Y-52043176D01*
X66634176Y-52130777D01*
X66634172Y-52130780D01*
X66522678Y-52242274D01*
X66522675Y-52242278D01*
X66435074Y-52373381D01*
X66435067Y-52373394D01*
X66374729Y-52519065D01*
X66374726Y-52519077D01*
X66343965Y-52673720D01*
X66343965Y-52831413D01*
X66374726Y-52986056D01*
X66374729Y-52986068D01*
X66435067Y-53131739D01*
X66435074Y-53131752D01*
X66522675Y-53262855D01*
X66522678Y-53262859D01*
X66634172Y-53374353D01*
X66634176Y-53374356D01*
X66765279Y-53461957D01*
X66765292Y-53461964D01*
X66910963Y-53522302D01*
X66910968Y-53522304D01*
X67065618Y-53553066D01*
X67065621Y-53553067D01*
X67065623Y-53553067D01*
X67223309Y-53553067D01*
X67223310Y-53553066D01*
X67377962Y-53522304D01*
X67523644Y-53461961D01*
X67654754Y-53374356D01*
X67766254Y-53262856D01*
X67822545Y-53178611D01*
X67844988Y-53145023D01*
X67870164Y-53123982D01*
X67894573Y-53102057D01*
X67896838Y-53101689D01*
X67898600Y-53100218D01*
X67931155Y-53096129D01*
X67963543Y-53090881D01*
X67965647Y-53091797D01*
X67967925Y-53091511D01*
X67997524Y-53105671D01*
X68027607Y-53118766D01*
X68029651Y-53121042D01*
X68030953Y-53121665D01*
X68051192Y-53145023D01*
X68128602Y-53260874D01*
X68149480Y-53327551D01*
X68149500Y-53329765D01*
X68149500Y-53363330D01*
X68149499Y-53363348D01*
X68149499Y-53529054D01*
X68149498Y-53529054D01*
X68190423Y-53681785D01*
X68219358Y-53731900D01*
X68219359Y-53731904D01*
X68219360Y-53731904D01*
X68269479Y-53818714D01*
X68269481Y-53818717D01*
X68388349Y-53937585D01*
X68388355Y-53937590D01*
X69163181Y-54712416D01*
X69196666Y-54773739D01*
X69199500Y-54800097D01*
X69199500Y-57550902D01*
X69179815Y-57617941D01*
X69127011Y-57663696D01*
X69057853Y-57673640D01*
X68994297Y-57644615D01*
X68987819Y-57638583D01*
X67242506Y-55893271D01*
X67242504Y-55893268D01*
X67123633Y-55774397D01*
X67123632Y-55774396D01*
X67036820Y-55724276D01*
X67036820Y-55724275D01*
X67036816Y-55724274D01*
X66986701Y-55695339D01*
X66833973Y-55654415D01*
X66675859Y-55654415D01*
X66668263Y-55654415D01*
X66668247Y-55654416D01*
X66029766Y-55654416D01*
X65962727Y-55634731D01*
X65960875Y-55633518D01*
X65829185Y-55545525D01*
X65829172Y-55545518D01*
X65683501Y-55485180D01*
X65683489Y-55485177D01*
X65528845Y-55454416D01*
X65528842Y-55454416D01*
X65371158Y-55454416D01*
X65371155Y-55454416D01*
X65216510Y-55485177D01*
X65216498Y-55485180D01*
X65070827Y-55545518D01*
X65070814Y-55545525D01*
X64939711Y-55633126D01*
X64939707Y-55633129D01*
X64828213Y-55744623D01*
X64828210Y-55744627D01*
X64740609Y-55875730D01*
X64740602Y-55875743D01*
X64680264Y-56021414D01*
X64680261Y-56021426D01*
X64649500Y-56176069D01*
X64649500Y-56333762D01*
X64680261Y-56488405D01*
X64680264Y-56488417D01*
X64740602Y-56634088D01*
X64740609Y-56634101D01*
X64828210Y-56765204D01*
X64828213Y-56765208D01*
X64939707Y-56876702D01*
X64939711Y-56876705D01*
X65070814Y-56964306D01*
X65070827Y-56964313D01*
X65216498Y-57024651D01*
X65216503Y-57024653D01*
X65371153Y-57055415D01*
X65371156Y-57055416D01*
X65371158Y-57055416D01*
X65528844Y-57055416D01*
X65528845Y-57055415D01*
X65683497Y-57024653D01*
X65829179Y-56964310D01*
X65881939Y-56929057D01*
X65960875Y-56876314D01*
X66027553Y-56855436D01*
X66029766Y-56855416D01*
X66454819Y-56855416D01*
X66521858Y-56875101D01*
X66542500Y-56891735D01*
X67953181Y-58302416D01*
X67986666Y-58363739D01*
X67989500Y-58390097D01*
X67989500Y-59750234D01*
X67969815Y-59817273D01*
X67968602Y-59819125D01*
X67880609Y-59950814D01*
X67880602Y-59950827D01*
X67820264Y-60096498D01*
X67820261Y-60096510D01*
X67789500Y-60251153D01*
X67789500Y-60408846D01*
X67820261Y-60563489D01*
X67820264Y-60563501D01*
X67880602Y-60709172D01*
X67880609Y-60709185D01*
X67968210Y-60840288D01*
X67968213Y-60840292D01*
X68079707Y-60951786D01*
X68079711Y-60951789D01*
X68210814Y-61039390D01*
X68210827Y-61039397D01*
X68356498Y-61099735D01*
X68356503Y-61099737D01*
X68450645Y-61118463D01*
X68490691Y-61126429D01*
X68552602Y-61158814D01*
X68587176Y-61219529D01*
X68590500Y-61248046D01*
X68590500Y-68725500D01*
X68570815Y-68792539D01*
X68518011Y-68838294D01*
X68466500Y-68849500D01*
X67882129Y-68849500D01*
X67882123Y-68849501D01*
X67822516Y-68855908D01*
X67687671Y-68906202D01*
X67687664Y-68906206D01*
X67572455Y-68992452D01*
X67572452Y-68992455D01*
X67486206Y-69107664D01*
X67486202Y-69107671D01*
X67435908Y-69242517D01*
X67429501Y-69302116D01*
X67429501Y-69302123D01*
X67429500Y-69302135D01*
X67429500Y-69312690D01*
X67409815Y-69379729D01*
X67393181Y-69400371D01*
X66722962Y-70070590D01*
X66705925Y-70007007D01*
X66640099Y-69892993D01*
X66547007Y-69799901D01*
X66432993Y-69734075D01*
X66369409Y-69717037D01*
X67001716Y-69084728D01*
X66947550Y-69045375D01*
X66758217Y-68948904D01*
X66556129Y-68883242D01*
X66346246Y-68850000D01*
X66133754Y-68850000D01*
X65923872Y-68883242D01*
X65923869Y-68883242D01*
X65721782Y-68948904D01*
X65532439Y-69045380D01*
X65478282Y-69084727D01*
X65478282Y-69084728D01*
X66110591Y-69717037D01*
X66047007Y-69734075D01*
X65932993Y-69799901D01*
X65839901Y-69892993D01*
X65774075Y-70007007D01*
X65757037Y-70070591D01*
X65124728Y-69438282D01*
X65124727Y-69438282D01*
X65085380Y-69492440D01*
X65085376Y-69492446D01*
X65080760Y-69501505D01*
X65032781Y-69552297D01*
X64964959Y-69569087D01*
X64898826Y-69546543D01*
X64859794Y-69501493D01*
X64855051Y-69492184D01*
X64855049Y-69492181D01*
X64855048Y-69492179D01*
X64730109Y-69320213D01*
X64579786Y-69169890D01*
X64407820Y-69044951D01*
X64218414Y-68948444D01*
X64218413Y-68948443D01*
X64218412Y-68948443D01*
X64016243Y-68882754D01*
X64016241Y-68882753D01*
X64016240Y-68882753D01*
X63854957Y-68857208D01*
X63806287Y-68849500D01*
X63593713Y-68849500D01*
X63545042Y-68857208D01*
X63383760Y-68882753D01*
X63181585Y-68948444D01*
X62992179Y-69044951D01*
X62820213Y-69169890D01*
X62669890Y-69320213D01*
X62544951Y-69492179D01*
X62448444Y-69681585D01*
X62382753Y-69883760D01*
X62349500Y-70093713D01*
X62349500Y-70306287D01*
X62382754Y-70516243D01*
X62402263Y-70576286D01*
X62448444Y-70718414D01*
X62544951Y-70907820D01*
X62669890Y-71079786D01*
X62820210Y-71230106D01*
X62821507Y-71231214D01*
X62821862Y-71231758D01*
X62823653Y-71233549D01*
X62823276Y-71233925D01*
X62859698Y-71289723D01*
X62860193Y-71359591D01*
X62822836Y-71418635D01*
X62759488Y-71448110D01*
X62740971Y-71449500D01*
X58546495Y-71449500D01*
X58479456Y-71429815D01*
X58433701Y-71377011D01*
X58423757Y-71307853D01*
X58446177Y-71252615D01*
X58515048Y-71157820D01*
X58515047Y-71157820D01*
X58515051Y-71157816D01*
X58611557Y-70968412D01*
X58677246Y-70766243D01*
X58710500Y-70556287D01*
X58710500Y-70343713D01*
X58677246Y-70133757D01*
X58611557Y-69931588D01*
X58515051Y-69742184D01*
X58515049Y-69742181D01*
X58515048Y-69742179D01*
X58390109Y-69570213D01*
X58239786Y-69419890D01*
X58067820Y-69294951D01*
X58067115Y-69294591D01*
X58059054Y-69290485D01*
X58008259Y-69242512D01*
X57991463Y-69174692D01*
X58013999Y-69108556D01*
X58059054Y-69069515D01*
X58067816Y-69065051D01*
X58094898Y-69045375D01*
X58239786Y-68940109D01*
X58239788Y-68940106D01*
X58239792Y-68940104D01*
X58390104Y-68789792D01*
X58390106Y-68789788D01*
X58390109Y-68789786D01*
X58515048Y-68617820D01*
X58515047Y-68617820D01*
X58515051Y-68617816D01*
X58611557Y-68428412D01*
X58677246Y-68226243D01*
X58710500Y-68016287D01*
X58710500Y-67803713D01*
X58677246Y-67593757D01*
X58611557Y-67391588D01*
X58515051Y-67202184D01*
X58515049Y-67202181D01*
X58515048Y-67202179D01*
X58390109Y-67030213D01*
X58239786Y-66879890D01*
X58067817Y-66754949D01*
X58058504Y-66750204D01*
X58007707Y-66702230D01*
X57990912Y-66634409D01*
X58013449Y-66568274D01*
X58058507Y-66529232D01*
X58067555Y-66524622D01*
X58121716Y-66485270D01*
X58121717Y-66485270D01*
X57489408Y-65852962D01*
X57552993Y-65835925D01*
X57667007Y-65770099D01*
X57760099Y-65677007D01*
X57825925Y-65562993D01*
X57842962Y-65499409D01*
X58475270Y-66131717D01*
X58475270Y-66131716D01*
X58514622Y-66077554D01*
X58611095Y-65888217D01*
X58676757Y-65686130D01*
X58676757Y-65686127D01*
X58710000Y-65476246D01*
X58710000Y-65263753D01*
X58676757Y-65053872D01*
X58676757Y-65053869D01*
X58611095Y-64851782D01*
X58514624Y-64662449D01*
X58475270Y-64608282D01*
X58475269Y-64608282D01*
X57842962Y-65240590D01*
X57825925Y-65177007D01*
X57760099Y-65062993D01*
X57667007Y-64969901D01*
X57552993Y-64904075D01*
X57489409Y-64887037D01*
X58121716Y-64254728D01*
X58067547Y-64215373D01*
X58067547Y-64215372D01*
X58058500Y-64210763D01*
X58007706Y-64162788D01*
X57990912Y-64094966D01*
X58013451Y-64028832D01*
X58058508Y-63989793D01*
X58067816Y-63985051D01*
X58147007Y-63927515D01*
X58239786Y-63860109D01*
X58239788Y-63860106D01*
X58239792Y-63860104D01*
X58390104Y-63709792D01*
X58390106Y-63709788D01*
X58390109Y-63709786D01*
X58515048Y-63537820D01*
X58515047Y-63537820D01*
X58515051Y-63537816D01*
X58611557Y-63348412D01*
X58677246Y-63146243D01*
X58710500Y-62936287D01*
X58710500Y-62723713D01*
X58677246Y-62513757D01*
X58611557Y-62311588D01*
X58515051Y-62122184D01*
X58515049Y-62122181D01*
X58515048Y-62122179D01*
X58390109Y-61950213D01*
X58239786Y-61799890D01*
X58067820Y-61674951D01*
X58067115Y-61674591D01*
X58059054Y-61670485D01*
X58008259Y-61622512D01*
X57991463Y-61554692D01*
X58013999Y-61488556D01*
X58059054Y-61449515D01*
X58067816Y-61445051D01*
X58143921Y-61389758D01*
X58239786Y-61320109D01*
X58239788Y-61320106D01*
X58239792Y-61320104D01*
X58390104Y-61169792D01*
X58390106Y-61169788D01*
X58390109Y-61169786D01*
X58515048Y-60997820D01*
X58515047Y-60997820D01*
X58515051Y-60997816D01*
X58611557Y-60808412D01*
X58677246Y-60606243D01*
X58710500Y-60396287D01*
X58710500Y-60183713D01*
X58677246Y-59973757D01*
X58611557Y-59771588D01*
X58515051Y-59582184D01*
X58515049Y-59582181D01*
X58515048Y-59582179D01*
X58390109Y-59410213D01*
X58239786Y-59259890D01*
X58067820Y-59134951D01*
X58067115Y-59134591D01*
X58059054Y-59130485D01*
X58008259Y-59082512D01*
X57991463Y-59014692D01*
X58013999Y-58948556D01*
X58059054Y-58909515D01*
X58067816Y-58905051D01*
X58143921Y-58849758D01*
X58239786Y-58780109D01*
X58239788Y-58780106D01*
X58239792Y-58780104D01*
X58390104Y-58629792D01*
X58390106Y-58629788D01*
X58390109Y-58629786D01*
X58515048Y-58457820D01*
X58515047Y-58457820D01*
X58515051Y-58457816D01*
X58611557Y-58268412D01*
X58677246Y-58066243D01*
X58710500Y-57856287D01*
X58710500Y-57643713D01*
X58677246Y-57433757D01*
X58611557Y-57231588D01*
X58515051Y-57042184D01*
X58515049Y-57042181D01*
X58515048Y-57042179D01*
X58390109Y-56870213D01*
X58239786Y-56719890D01*
X58067820Y-56594951D01*
X58067115Y-56594591D01*
X58059054Y-56590485D01*
X58008259Y-56542512D01*
X57991463Y-56474692D01*
X58013999Y-56408556D01*
X58059054Y-56369515D01*
X58067816Y-56365051D01*
X58110882Y-56333762D01*
X58239786Y-56240109D01*
X58239788Y-56240106D01*
X58239792Y-56240104D01*
X58390104Y-56089792D01*
X58390106Y-56089788D01*
X58390109Y-56089786D01*
X58515048Y-55917820D01*
X58515047Y-55917820D01*
X58515051Y-55917816D01*
X58611557Y-55728412D01*
X58677246Y-55526243D01*
X58710500Y-55316287D01*
X58710500Y-55103713D01*
X58677246Y-54893757D01*
X58611557Y-54691588D01*
X58515051Y-54502184D01*
X58515049Y-54502181D01*
X58515048Y-54502179D01*
X58390109Y-54330213D01*
X58239786Y-54179890D01*
X58067817Y-54054949D01*
X58058504Y-54050204D01*
X58007707Y-54002230D01*
X57990912Y-53934409D01*
X58013449Y-53868274D01*
X58058507Y-53829232D01*
X58067555Y-53824622D01*
X58121716Y-53785270D01*
X58121717Y-53785270D01*
X57489408Y-53152962D01*
X57552993Y-53135925D01*
X57667007Y-53070099D01*
X57760099Y-52977007D01*
X57825925Y-52862993D01*
X57842962Y-52799409D01*
X58475270Y-53431717D01*
X58475270Y-53431716D01*
X58514622Y-53377554D01*
X58611095Y-53188217D01*
X58676757Y-52986130D01*
X58676757Y-52986127D01*
X58710000Y-52776246D01*
X58710000Y-52563753D01*
X58676757Y-52353872D01*
X58676757Y-52353869D01*
X58611095Y-52151782D01*
X58514624Y-51962449D01*
X58475270Y-51908282D01*
X58475269Y-51908282D01*
X57842962Y-52540590D01*
X57825925Y-52477007D01*
X57760099Y-52362993D01*
X57667007Y-52269901D01*
X57552993Y-52204075D01*
X57489409Y-52187037D01*
X58121716Y-51554728D01*
X58067547Y-51515373D01*
X58067547Y-51515372D01*
X58058500Y-51510763D01*
X58007706Y-51462788D01*
X57990912Y-51394966D01*
X58013451Y-51328832D01*
X58058508Y-51289793D01*
X58067816Y-51285051D01*
X58171449Y-51209758D01*
X58239786Y-51160109D01*
X58239788Y-51160106D01*
X58239792Y-51160104D01*
X58390104Y-51009792D01*
X58390106Y-51009788D01*
X58390109Y-51009786D01*
X58515048Y-50837820D01*
X58515047Y-50837820D01*
X58515051Y-50837816D01*
X58611557Y-50648412D01*
X58677246Y-50446243D01*
X58710500Y-50236287D01*
X58710500Y-50023713D01*
X58677246Y-49813757D01*
X58611557Y-49611588D01*
X58515051Y-49422184D01*
X58515049Y-49422181D01*
X58515048Y-49422179D01*
X58390109Y-49250213D01*
X58239786Y-49099890D01*
X58067820Y-48974951D01*
X58067115Y-48974591D01*
X58059054Y-48970485D01*
X58008259Y-48922512D01*
X57991463Y-48854692D01*
X58013999Y-48788556D01*
X58059054Y-48749515D01*
X58067816Y-48745051D01*
X58152533Y-48683501D01*
X58239786Y-48620109D01*
X58239788Y-48620106D01*
X58239792Y-48620104D01*
X58390104Y-48469792D01*
X58390106Y-48469788D01*
X58390109Y-48469786D01*
X58515048Y-48297820D01*
X58515047Y-48297820D01*
X58515051Y-48297816D01*
X58611557Y-48108412D01*
X58677246Y-47906243D01*
X58710500Y-47696287D01*
X58710500Y-47483713D01*
X58677246Y-47273757D01*
X58611557Y-47071588D01*
X58515051Y-46882184D01*
X58515049Y-46882181D01*
X58515048Y-46882179D01*
X58390109Y-46710213D01*
X58239786Y-46559890D01*
X58067820Y-46434951D01*
X58067115Y-46434591D01*
X58059054Y-46430485D01*
X58008259Y-46382512D01*
X57991463Y-46314692D01*
X58013999Y-46248556D01*
X58059054Y-46209515D01*
X58067816Y-46205051D01*
X58143921Y-46149758D01*
X58239786Y-46080109D01*
X58239788Y-46080106D01*
X58239792Y-46080104D01*
X58390104Y-45929792D01*
X58390106Y-45929788D01*
X58390109Y-45929786D01*
X58515048Y-45757820D01*
X58515047Y-45757820D01*
X58515051Y-45757816D01*
X58611557Y-45568412D01*
X58677246Y-45366243D01*
X58710500Y-45156287D01*
X58710500Y-44943713D01*
X58677246Y-44733757D01*
X58611557Y-44531588D01*
X58515051Y-44342184D01*
X58515049Y-44342181D01*
X58515048Y-44342179D01*
X58390109Y-44170213D01*
X58239786Y-44019890D01*
X58067820Y-43894951D01*
X58067115Y-43894591D01*
X58059054Y-43890485D01*
X58008259Y-43842512D01*
X57991463Y-43774692D01*
X58013999Y-43708556D01*
X58059054Y-43669515D01*
X58067816Y-43665051D01*
X58143921Y-43609758D01*
X58239786Y-43540109D01*
X58239788Y-43540106D01*
X58239792Y-43540104D01*
X58390104Y-43389792D01*
X58390106Y-43389788D01*
X58390109Y-43389786D01*
X58515048Y-43217820D01*
X58515047Y-43217820D01*
X58515051Y-43217816D01*
X58611557Y-43028412D01*
X58677246Y-42826243D01*
X58710500Y-42616287D01*
X58710500Y-42403713D01*
X58677246Y-42193757D01*
X58611557Y-41991588D01*
X58515051Y-41802184D01*
X58515049Y-41802181D01*
X58515048Y-41802179D01*
X58390109Y-41630213D01*
X58239786Y-41479890D01*
X58067817Y-41354949D01*
X58058504Y-41350204D01*
X58007707Y-41302230D01*
X57990912Y-41234409D01*
X58013449Y-41168274D01*
X58058507Y-41129232D01*
X58067555Y-41124622D01*
X58121716Y-41085270D01*
X58121717Y-41085270D01*
X57489408Y-40452962D01*
X57552993Y-40435925D01*
X57667007Y-40370099D01*
X57760099Y-40277007D01*
X57825925Y-40162993D01*
X57842962Y-40099409D01*
X58475270Y-40731717D01*
X58475270Y-40731716D01*
X58514622Y-40677554D01*
X58611095Y-40488217D01*
X58676757Y-40286130D01*
X58676757Y-40286127D01*
X58710000Y-40076246D01*
X58710000Y-39863753D01*
X58676757Y-39653872D01*
X58676757Y-39653869D01*
X58611095Y-39451782D01*
X58514624Y-39262449D01*
X58475270Y-39208282D01*
X58475269Y-39208282D01*
X57842962Y-39840590D01*
X57825925Y-39777007D01*
X57760099Y-39662993D01*
X57667007Y-39569901D01*
X57552993Y-39504075D01*
X57489409Y-39487037D01*
X58121716Y-38854728D01*
X58067547Y-38815373D01*
X58067547Y-38815372D01*
X58058500Y-38810763D01*
X58007706Y-38762788D01*
X57990912Y-38694966D01*
X58013451Y-38628832D01*
X58058508Y-38589793D01*
X58067816Y-38585051D01*
X58147007Y-38527515D01*
X58239786Y-38460109D01*
X58239788Y-38460106D01*
X58239792Y-38460104D01*
X58390104Y-38309792D01*
X58390106Y-38309788D01*
X58390109Y-38309786D01*
X58515048Y-38137820D01*
X58515047Y-38137820D01*
X58515051Y-38137816D01*
X58611557Y-37948412D01*
X58677246Y-37746243D01*
X58710500Y-37536287D01*
X58710500Y-37323713D01*
X58677246Y-37113757D01*
X58611557Y-36911588D01*
X58515051Y-36722184D01*
X58515049Y-36722181D01*
X58515048Y-36722179D01*
X58390109Y-36550213D01*
X58239786Y-36399890D01*
X58067820Y-36274951D01*
X58067115Y-36274591D01*
X58059054Y-36270485D01*
X58008259Y-36222512D01*
X57991463Y-36154692D01*
X58013999Y-36088556D01*
X58059054Y-36049515D01*
X58067816Y-36045051D01*
X58143921Y-35989758D01*
X58239786Y-35920109D01*
X58239788Y-35920106D01*
X58239792Y-35920104D01*
X58390104Y-35769792D01*
X58390106Y-35769788D01*
X58390109Y-35769786D01*
X58469500Y-35660512D01*
X58515051Y-35597816D01*
X58567805Y-35494281D01*
X58570901Y-35488205D01*
X58618876Y-35437409D01*
X58681386Y-35420500D01*
X59169903Y-35420500D01*
X59236942Y-35440185D01*
X59257584Y-35456819D01*
X60063181Y-36262416D01*
X60096666Y-36323739D01*
X60099500Y-36350097D01*
X60099500Y-44691769D01*
X60079815Y-44758808D01*
X60078602Y-44760660D01*
X59990609Y-44892349D01*
X59990602Y-44892362D01*
X59930264Y-45038033D01*
X59930261Y-45038045D01*
X59899500Y-45192688D01*
X59899500Y-45350381D01*
X59930261Y-45505024D01*
X59930264Y-45505036D01*
X59990602Y-45650707D01*
X59990609Y-45650720D01*
X60078210Y-45781823D01*
X60078213Y-45781827D01*
X60189706Y-45893320D01*
X60189709Y-45893322D01*
X60189711Y-45893324D01*
X60244391Y-45929860D01*
X60289195Y-45983470D01*
X60299500Y-46032961D01*
X60299500Y-46043202D01*
X60330261Y-46197845D01*
X60330264Y-46197857D01*
X60390602Y-46343528D01*
X60390609Y-46343541D01*
X60478210Y-46474644D01*
X60478213Y-46474648D01*
X60589706Y-46586141D01*
X60589709Y-46586143D01*
X60589711Y-46586145D01*
X60644391Y-46622681D01*
X60689195Y-46676291D01*
X60699500Y-46725782D01*
X60699500Y-46736024D01*
X60730261Y-46890667D01*
X60730264Y-46890679D01*
X60790602Y-47036350D01*
X60790609Y-47036363D01*
X60878210Y-47167466D01*
X60878213Y-47167470D01*
X60989707Y-47278964D01*
X60989711Y-47278967D01*
X61120814Y-47366568D01*
X61120827Y-47366575D01*
X61266498Y-47426913D01*
X61266503Y-47426915D01*
X61421153Y-47457677D01*
X61421156Y-47457678D01*
X61421158Y-47457678D01*
X61578844Y-47457678D01*
X61578845Y-47457677D01*
X61733497Y-47426915D01*
X61879179Y-47366572D01*
X61977293Y-47301013D01*
X62043970Y-47280136D01*
X62093636Y-47289555D01*
X62166503Y-47319737D01*
X62166506Y-47319737D01*
X62166511Y-47319739D01*
X62321153Y-47350499D01*
X62321156Y-47350500D01*
X62321158Y-47350500D01*
X62478844Y-47350500D01*
X62478845Y-47350499D01*
X62633497Y-47319737D01*
X62751596Y-47270819D01*
X62779172Y-47259397D01*
X62779172Y-47259396D01*
X62779179Y-47259394D01*
X62910289Y-47171789D01*
X62910298Y-47171779D01*
X62914172Y-47168601D01*
X62916815Y-47167477D01*
X62918536Y-47165180D01*
X62948770Y-47153902D01*
X62978480Y-47141282D01*
X62981310Y-47141766D01*
X62984000Y-47140763D01*
X63015533Y-47147622D01*
X63047348Y-47153067D01*
X63050320Y-47155190D01*
X63052273Y-47155615D01*
X63080527Y-47176766D01*
X63113181Y-47209420D01*
X63146666Y-47270743D01*
X63149500Y-47297101D01*
X63149500Y-47870234D01*
X63129815Y-47937273D01*
X63128602Y-47939125D01*
X63040609Y-48070814D01*
X63040602Y-48070827D01*
X62980264Y-48216498D01*
X62980261Y-48216510D01*
X62949500Y-48371153D01*
X62949500Y-48528846D01*
X62980261Y-48683489D01*
X62980264Y-48683501D01*
X63040602Y-48829172D01*
X63040609Y-48829185D01*
X63128210Y-48960288D01*
X63128213Y-48960292D01*
X63239707Y-49071786D01*
X63239711Y-49071789D01*
X63370814Y-49159390D01*
X63370827Y-49159397D01*
X63516498Y-49219735D01*
X63516503Y-49219737D01*
X63669690Y-49250208D01*
X63671153Y-49250499D01*
X63671156Y-49250500D01*
X63671158Y-49250500D01*
X63828844Y-49250500D01*
X63828845Y-49250499D01*
X63983497Y-49219737D01*
X64129179Y-49159394D01*
X64260289Y-49071789D01*
X64371789Y-48960289D01*
X64459394Y-48829179D01*
X64472520Y-48797491D01*
X64494242Y-48745048D01*
X64519737Y-48683497D01*
X64550500Y-48528842D01*
X64550500Y-48371158D01*
X64550500Y-48371155D01*
X64550499Y-48371153D01*
X64519738Y-48216510D01*
X64519737Y-48216503D01*
X64497334Y-48162416D01*
X64459397Y-48070827D01*
X64459390Y-48070814D01*
X64371398Y-47939125D01*
X64350520Y-47872447D01*
X64350500Y-47870234D01*
X64350500Y-47086063D01*
X64350501Y-47086050D01*
X64350501Y-46917947D01*
X64345558Y-46899500D01*
X64309577Y-46765219D01*
X64309573Y-46765212D01*
X64230524Y-46628293D01*
X64230518Y-46628285D01*
X63138819Y-45536586D01*
X63105334Y-45475263D01*
X63102500Y-45448905D01*
X63102500Y-33302730D01*
X63122185Y-33235691D01*
X63174989Y-33189936D01*
X63244147Y-33179992D01*
X63307703Y-33209017D01*
X63330412Y-33235066D01*
X63336669Y-33244676D01*
X63340606Y-33254179D01*
X63428211Y-33385289D01*
X63428271Y-33385349D01*
X63429412Y-33387101D01*
X63439260Y-33419914D01*
X63449480Y-33452551D01*
X63449493Y-33454005D01*
X63449498Y-33454022D01*
X63449493Y-33454037D01*
X63449500Y-33454765D01*
X63449500Y-35213330D01*
X63449499Y-35213348D01*
X63449499Y-35379054D01*
X63449498Y-35379054D01*
X63490423Y-35531785D01*
X63519358Y-35581900D01*
X63519359Y-35581904D01*
X63519360Y-35581904D01*
X63569479Y-35668714D01*
X63569481Y-35668717D01*
X63688349Y-35787585D01*
X63688355Y-35787590D01*
X63868728Y-35967963D01*
X63902213Y-36029286D01*
X63902665Y-36079835D01*
X63896032Y-36113181D01*
X63886720Y-36160000D01*
X63884500Y-36171159D01*
X63884500Y-36328846D01*
X63915261Y-36483489D01*
X63915264Y-36483501D01*
X63975602Y-36629172D01*
X63975609Y-36629185D01*
X64063210Y-36760288D01*
X64063213Y-36760292D01*
X64174707Y-36871786D01*
X64174711Y-36871789D01*
X64305814Y-36959390D01*
X64305827Y-36959397D01*
X64450086Y-37019150D01*
X64451503Y-37019737D01*
X64606153Y-37050499D01*
X64606156Y-37050500D01*
X64606158Y-37050500D01*
X64763844Y-37050500D01*
X64824622Y-37038409D01*
X64855162Y-37032335D01*
X64924753Y-37038562D01*
X64967035Y-37066271D01*
X65131284Y-37230520D01*
X65131286Y-37230521D01*
X65131290Y-37230524D01*
X65268209Y-37309573D01*
X65268216Y-37309577D01*
X65420943Y-37350501D01*
X65420945Y-37350501D01*
X65586654Y-37350501D01*
X65586670Y-37350500D01*
X66989234Y-37350500D01*
X67056273Y-37370185D01*
X67058125Y-37371398D01*
X67189814Y-37459390D01*
X67189827Y-37459397D01*
X67335498Y-37519735D01*
X67335503Y-37519737D01*
X67490153Y-37550499D01*
X67490156Y-37550500D01*
X67490158Y-37550500D01*
X67647844Y-37550500D01*
X67647845Y-37550499D01*
X67802497Y-37519737D01*
X67948179Y-37459394D01*
X68079289Y-37371789D01*
X68190789Y-37260289D01*
X68278394Y-37129179D01*
X68338737Y-36983497D01*
X68369500Y-36828842D01*
X68369500Y-36671158D01*
X68369500Y-36671155D01*
X68369499Y-36671153D01*
X68361148Y-36629172D01*
X68338737Y-36516503D01*
X68338735Y-36516498D01*
X68278397Y-36370827D01*
X68278390Y-36370814D01*
X68190789Y-36239711D01*
X68190786Y-36239707D01*
X68079292Y-36128213D01*
X68079288Y-36128210D01*
X67948185Y-36040609D01*
X67948172Y-36040602D01*
X67802501Y-35980264D01*
X67802489Y-35980261D01*
X67647845Y-35949500D01*
X67647842Y-35949500D01*
X67490158Y-35949500D01*
X67490155Y-35949500D01*
X67335510Y-35980261D01*
X67335498Y-35980264D01*
X67189827Y-36040602D01*
X67189814Y-36040609D01*
X67058125Y-36128602D01*
X66991447Y-36149480D01*
X66989234Y-36149500D01*
X65800098Y-36149500D01*
X65733059Y-36129815D01*
X65712417Y-36113181D01*
X64686819Y-35087583D01*
X64653334Y-35026260D01*
X64650500Y-34999902D01*
X64650500Y-34371153D01*
X65124500Y-34371153D01*
X65124500Y-34528846D01*
X65155261Y-34683489D01*
X65155264Y-34683501D01*
X65215602Y-34829172D01*
X65215609Y-34829185D01*
X65303210Y-34960288D01*
X65303213Y-34960292D01*
X65414707Y-35071786D01*
X65414711Y-35071789D01*
X65545814Y-35159390D01*
X65545827Y-35159397D01*
X65673828Y-35212416D01*
X65691503Y-35219737D01*
X65837285Y-35248735D01*
X65846153Y-35250499D01*
X65846156Y-35250500D01*
X65846158Y-35250500D01*
X66003844Y-35250500D01*
X66003845Y-35250499D01*
X66158497Y-35219737D01*
X66271166Y-35173067D01*
X66304172Y-35159397D01*
X66304172Y-35159396D01*
X66304179Y-35159394D01*
X66327360Y-35143905D01*
X66435875Y-35071398D01*
X66502553Y-35050520D01*
X66504766Y-35050500D01*
X66989234Y-35050500D01*
X67056273Y-35070185D01*
X67058125Y-35071398D01*
X67189814Y-35159390D01*
X67189827Y-35159397D01*
X67317828Y-35212416D01*
X67335503Y-35219737D01*
X67481285Y-35248735D01*
X67490153Y-35250499D01*
X67490156Y-35250500D01*
X67490158Y-35250500D01*
X67647844Y-35250500D01*
X67647845Y-35250499D01*
X67802497Y-35219737D01*
X67915166Y-35173067D01*
X67948172Y-35159397D01*
X67948172Y-35159396D01*
X67948179Y-35159394D01*
X68079289Y-35071789D01*
X68190789Y-34960289D01*
X68278394Y-34829179D01*
X68338737Y-34683497D01*
X68369500Y-34528842D01*
X68369500Y-34371158D01*
X68369500Y-34371155D01*
X68369499Y-34371153D01*
X68338738Y-34216510D01*
X68338737Y-34216503D01*
X68298552Y-34119487D01*
X68278397Y-34070827D01*
X68278390Y-34070814D01*
X68190789Y-33939711D01*
X68190786Y-33939707D01*
X68079292Y-33828213D01*
X68079288Y-33828210D01*
X67948185Y-33740609D01*
X67948172Y-33740602D01*
X67802501Y-33680264D01*
X67802489Y-33680261D01*
X67647845Y-33649500D01*
X67647842Y-33649500D01*
X67490158Y-33649500D01*
X67490155Y-33649500D01*
X67335510Y-33680261D01*
X67335498Y-33680264D01*
X67189827Y-33740602D01*
X67189814Y-33740609D01*
X67058125Y-33828602D01*
X66991447Y-33849480D01*
X66989234Y-33849500D01*
X66504766Y-33849500D01*
X66437727Y-33829815D01*
X66435875Y-33828602D01*
X66304185Y-33740609D01*
X66304172Y-33740602D01*
X66158501Y-33680264D01*
X66158489Y-33680261D01*
X66003845Y-33649500D01*
X66003842Y-33649500D01*
X65846158Y-33649500D01*
X65846155Y-33649500D01*
X65691510Y-33680261D01*
X65691498Y-33680264D01*
X65545827Y-33740602D01*
X65545814Y-33740609D01*
X65414711Y-33828210D01*
X65414707Y-33828213D01*
X65303213Y-33939707D01*
X65303210Y-33939711D01*
X65215609Y-34070814D01*
X65215602Y-34070827D01*
X65155264Y-34216498D01*
X65155261Y-34216510D01*
X65124500Y-34371153D01*
X64650500Y-34371153D01*
X64650500Y-33454765D01*
X64670185Y-33387726D01*
X64671398Y-33385874D01*
X64675254Y-33380104D01*
X64759394Y-33254179D01*
X64819737Y-33108497D01*
X64850500Y-32953842D01*
X64850500Y-32796158D01*
X64850500Y-32796155D01*
X64850499Y-32796153D01*
X64828637Y-32686247D01*
X64819737Y-32641503D01*
X64819735Y-32641498D01*
X64759397Y-32495827D01*
X64759390Y-32495814D01*
X64671789Y-32364711D01*
X64671786Y-32364707D01*
X64566197Y-32259118D01*
X64532712Y-32197795D01*
X64537696Y-32128103D01*
X64550772Y-32102552D01*
X64608151Y-32016679D01*
X64668494Y-31870997D01*
X64699257Y-31716342D01*
X64699257Y-31558658D01*
X64699257Y-31558655D01*
X64699256Y-31558653D01*
X64668495Y-31404010D01*
X64668494Y-31404003D01*
X64654993Y-31371408D01*
X64608154Y-31258327D01*
X64608147Y-31258314D01*
X64520546Y-31127211D01*
X64520543Y-31127207D01*
X64409049Y-31015713D01*
X64409045Y-31015710D01*
X64277942Y-30928109D01*
X64277929Y-30928102D01*
X64132258Y-30867764D01*
X64132246Y-30867761D01*
X63977602Y-30837000D01*
X63977599Y-30837000D01*
X63819915Y-30837000D01*
X63819912Y-30837000D01*
X63665267Y-30867761D01*
X63665255Y-30867764D01*
X63519584Y-30928102D01*
X63519571Y-30928109D01*
X63388468Y-31015710D01*
X63388464Y-31015713D01*
X63314181Y-31089997D01*
X63252858Y-31123482D01*
X63183166Y-31118498D01*
X63127233Y-31076626D01*
X63102816Y-31011162D01*
X63102500Y-31002316D01*
X63102500Y-28622945D01*
X63102500Y-28622943D01*
X63061577Y-28470216D01*
X63012534Y-28385270D01*
X62982524Y-28333290D01*
X62982521Y-28333286D01*
X62982520Y-28333284D01*
X62870716Y-28221480D01*
X62870715Y-28221479D01*
X62866385Y-28217149D01*
X62866374Y-28217139D01*
X62547531Y-27898296D01*
X62514046Y-27836973D01*
X62519030Y-27767281D01*
X62560902Y-27711348D01*
X62566330Y-27707507D01*
X62567468Y-27706746D01*
X62706748Y-27567466D01*
X62706751Y-27567462D01*
X62816185Y-27403684D01*
X62816192Y-27403671D01*
X62891569Y-27221693D01*
X62891572Y-27221681D01*
X62929999Y-27028495D01*
X62930000Y-27028492D01*
X62930000Y-26630000D01*
X62230000Y-26630000D01*
X62230000Y-26130000D01*
X62785536Y-26130000D01*
X62852575Y-26149685D01*
X62892923Y-26192000D01*
X62899482Y-26203361D01*
X62899484Y-26203364D01*
X62899485Y-26203365D01*
X63006635Y-26310515D01*
X63137865Y-26386281D01*
X63284234Y-26425500D01*
X63284236Y-26425500D01*
X63435764Y-26425500D01*
X63435766Y-26425500D01*
X63582135Y-26386281D01*
X63713365Y-26310515D01*
X63820515Y-26203365D01*
X63896281Y-26072135D01*
X63935500Y-25925766D01*
X63935500Y-25774234D01*
X68564500Y-25774234D01*
X68564500Y-25925766D01*
X68573074Y-25957766D01*
X68603719Y-26072136D01*
X68637566Y-26130760D01*
X68679485Y-26203365D01*
X68786635Y-26310515D01*
X68917865Y-26386281D01*
X69064234Y-26425500D01*
X69064236Y-26425500D01*
X69215764Y-26425500D01*
X69215766Y-26425500D01*
X69362135Y-26386281D01*
X69493365Y-26310515D01*
X69600515Y-26203365D01*
X69607077Y-26192000D01*
X69657644Y-26143784D01*
X69714464Y-26130000D01*
X70270000Y-26130000D01*
X70270000Y-26630000D01*
X69570000Y-26630000D01*
X69570000Y-27028495D01*
X69608427Y-27221681D01*
X69608430Y-27221693D01*
X69683807Y-27403671D01*
X69683814Y-27403684D01*
X69793248Y-27567462D01*
X69793251Y-27567466D01*
X69932533Y-27706748D01*
X69932537Y-27706751D01*
X70096315Y-27816185D01*
X70096328Y-27816192D01*
X70278308Y-27891569D01*
X70320000Y-27899862D01*
X70320000Y-27096988D01*
X70329940Y-27114205D01*
X70385795Y-27170060D01*
X70454204Y-27209556D01*
X70530504Y-27230000D01*
X70609496Y-27230000D01*
X70685796Y-27209556D01*
X70754205Y-27170060D01*
X70810060Y-27114205D01*
X70820000Y-27096988D01*
X70820000Y-27899862D01*
X70861690Y-27891569D01*
X70861692Y-27891569D01*
X71043671Y-27816192D01*
X71043684Y-27816185D01*
X71207462Y-27706751D01*
X71207466Y-27706748D01*
X71346748Y-27567466D01*
X71346751Y-27567462D01*
X71456185Y-27403684D01*
X71456192Y-27403671D01*
X71531569Y-27221693D01*
X71531569Y-27221691D01*
X71544897Y-27154690D01*
X71544898Y-27154686D01*
X71569999Y-27028495D01*
X71570000Y-27028492D01*
X71570000Y-26630000D01*
X70870000Y-26630000D01*
X70870000Y-26130000D01*
X71570000Y-26130000D01*
X71570000Y-25731508D01*
X71569999Y-25731504D01*
X71531572Y-25538318D01*
X71531569Y-25538306D01*
X71456192Y-25356328D01*
X71456185Y-25356315D01*
X71346751Y-25192537D01*
X71346748Y-25192533D01*
X71207466Y-25053251D01*
X71207462Y-25053248D01*
X71043684Y-24943814D01*
X71043671Y-24943807D01*
X70861691Y-24868429D01*
X70861683Y-24868427D01*
X70820000Y-24860135D01*
X70820000Y-25663011D01*
X70810060Y-25645795D01*
X70754205Y-25589940D01*
X70685796Y-25550444D01*
X70609496Y-25530000D01*
X70530504Y-25530000D01*
X70454204Y-25550444D01*
X70385795Y-25589940D01*
X70329940Y-25645795D01*
X70320000Y-25663011D01*
X70320000Y-24860136D01*
X70319999Y-24860135D01*
X70278316Y-24868427D01*
X70278308Y-24868429D01*
X70096328Y-24943807D01*
X70096315Y-24943814D01*
X69932537Y-25053248D01*
X69932533Y-25053251D01*
X69793248Y-25192536D01*
X69680427Y-25361387D01*
X69679003Y-25360435D01*
X69635742Y-25404451D01*
X69567600Y-25419892D01*
X69501927Y-25396041D01*
X69499907Y-25394306D01*
X69499811Y-25394432D01*
X69493367Y-25389487D01*
X69493365Y-25389485D01*
X69427750Y-25351602D01*
X69362136Y-25313719D01*
X69288950Y-25294109D01*
X69215766Y-25274500D01*
X69064234Y-25274500D01*
X68917863Y-25313719D01*
X68786635Y-25389485D01*
X68786632Y-25389487D01*
X68679487Y-25496632D01*
X68679485Y-25496635D01*
X68603719Y-25627863D01*
X68573116Y-25742077D01*
X68564500Y-25774234D01*
X63935500Y-25774234D01*
X63896281Y-25627865D01*
X63820515Y-25496635D01*
X63713365Y-25389485D01*
X63647750Y-25351602D01*
X63582136Y-25313719D01*
X63508950Y-25294109D01*
X63435766Y-25274500D01*
X63284234Y-25274500D01*
X63137863Y-25313719D01*
X63006635Y-25389485D01*
X63000189Y-25394432D01*
X62998099Y-25391709D01*
X62950217Y-25417466D01*
X62880558Y-25412043D01*
X62824888Y-25369821D01*
X62819299Y-25360976D01*
X62706751Y-25192537D01*
X62706748Y-25192533D01*
X62567466Y-25053251D01*
X62567462Y-25053248D01*
X62403684Y-24943814D01*
X62403671Y-24943807D01*
X62221691Y-24868429D01*
X62221683Y-24868427D01*
X62180000Y-24860135D01*
X62180000Y-25663011D01*
X62170060Y-25645795D01*
X62114205Y-25589940D01*
X62045796Y-25550444D01*
X61969496Y-25530000D01*
X61890504Y-25530000D01*
X61814204Y-25550444D01*
X61745795Y-25589940D01*
X61689940Y-25645795D01*
X61680000Y-25663011D01*
X61680000Y-24860136D01*
X61679999Y-24860135D01*
X61638316Y-24868427D01*
X61638308Y-24868429D01*
X61456328Y-24943807D01*
X61456315Y-24943814D01*
X61292537Y-25053248D01*
X61292533Y-25053251D01*
X61153251Y-25192533D01*
X61153248Y-25192537D01*
X61043814Y-25356315D01*
X61043807Y-25356328D01*
X60968430Y-25538306D01*
X60968427Y-25538318D01*
X60930000Y-25731504D01*
X60930000Y-25981403D01*
X60910315Y-26048442D01*
X60857511Y-26094197D01*
X60788353Y-26104141D01*
X60724797Y-26075116D01*
X60718319Y-26069084D01*
X59147819Y-24498584D01*
X59114334Y-24437261D01*
X59111500Y-24410903D01*
X59111500Y-23360060D01*
X59111501Y-23360047D01*
X59111501Y-23191945D01*
X59111501Y-23191943D01*
X59070577Y-23039215D01*
X59040511Y-22987139D01*
X58991520Y-22902284D01*
X58879716Y-22790480D01*
X58879715Y-22790479D01*
X58875385Y-22786149D01*
X58875374Y-22786139D01*
X58746818Y-22657583D01*
X58713333Y-22596260D01*
X58710499Y-22569902D01*
X58710499Y-21374500D01*
X58730184Y-21307461D01*
X58782988Y-21261706D01*
X58834499Y-21250500D01*
X60931060Y-21250500D01*
X60998099Y-21270185D01*
G37*
%TD.AperFunction*%
%TA.AperFunction,Conductor*%
G36*
X65774075Y-70392993D02*
G01*
X65839901Y-70507007D01*
X65932993Y-70600099D01*
X66047007Y-70665925D01*
X66110590Y-70682962D01*
X65478282Y-71315269D01*
X65478322Y-71315770D01*
X65463958Y-71384147D01*
X65414907Y-71433905D01*
X65354704Y-71449500D01*
X64659029Y-71449500D01*
X64591990Y-71429815D01*
X64546235Y-71377011D01*
X64536291Y-71307853D01*
X64565316Y-71244297D01*
X64578493Y-71231214D01*
X64579789Y-71230106D01*
X64579788Y-71230106D01*
X64579792Y-71230104D01*
X64730104Y-71079792D01*
X64730106Y-71079788D01*
X64730109Y-71079786D01*
X64811026Y-70968412D01*
X64855051Y-70907816D01*
X64859793Y-70898508D01*
X64907763Y-70847711D01*
X64975583Y-70830911D01*
X65041719Y-70853445D01*
X65080763Y-70898500D01*
X65085373Y-70907547D01*
X65124728Y-70961716D01*
X65757037Y-70329408D01*
X65774075Y-70392993D01*
G37*
%TD.AperFunction*%
%TA.AperFunction,Conductor*%
G36*
X67393181Y-70999628D02*
G01*
X67425656Y-71056673D01*
X67429500Y-71071753D01*
X67429501Y-71097872D01*
X67435909Y-71157483D01*
X67484741Y-71288408D01*
X67486387Y-71294864D01*
X67485361Y-71323391D01*
X67487397Y-71351859D01*
X67484121Y-71357857D01*
X67483876Y-71364689D01*
X67467590Y-71388131D01*
X67453912Y-71413182D01*
X67447912Y-71416457D01*
X67444013Y-71422071D01*
X67417640Y-71432987D01*
X67392589Y-71446666D01*
X67381788Y-71447827D01*
X67379455Y-71448793D01*
X67376974Y-71448344D01*
X67366231Y-71449500D01*
X67125296Y-71449500D01*
X67058257Y-71429815D01*
X67012502Y-71377011D01*
X67001678Y-71315772D01*
X67001717Y-71315270D01*
X66369408Y-70682962D01*
X66432993Y-70665925D01*
X66547007Y-70600099D01*
X66640099Y-70507007D01*
X66705925Y-70392993D01*
X66722962Y-70329408D01*
X67393181Y-70999628D01*
G37*
%TD.AperFunction*%
%TA.AperFunction,Conductor*%
G36*
X56894075Y-65562993D02*
G01*
X56959901Y-65677007D01*
X57052993Y-65770099D01*
X57167007Y-65835925D01*
X57230590Y-65852962D01*
X56598282Y-66485269D01*
X56598282Y-66485270D01*
X56652452Y-66524626D01*
X56652451Y-66524626D01*
X56661495Y-66529234D01*
X56712292Y-66577208D01*
X56729087Y-66645029D01*
X56706550Y-66711164D01*
X56661499Y-66750202D01*
X56652182Y-66754949D01*
X56480213Y-66879890D01*
X56480209Y-66879894D01*
X56462181Y-66897923D01*
X56400858Y-66931408D01*
X56331166Y-66926424D01*
X56275233Y-66884552D01*
X56250816Y-66819088D01*
X56250500Y-66810242D01*
X56250500Y-66177308D01*
X56270185Y-66110269D01*
X56286819Y-66089627D01*
X56877037Y-65499408D01*
X56894075Y-65562993D01*
G37*
%TD.AperFunction*%
%TA.AperFunction,Conductor*%
G36*
X73818368Y-57396102D02*
G01*
X73834171Y-57396328D01*
X73850708Y-57407292D01*
X73869462Y-57413782D01*
X73879233Y-57426205D01*
X73892404Y-57434938D01*
X73900387Y-57453101D01*
X73912656Y-57468700D01*
X73914514Y-57485242D01*
X73920518Y-57498901D01*
X73920014Y-57534192D01*
X73899500Y-57663713D01*
X73899500Y-57876286D01*
X73929585Y-58066239D01*
X73932754Y-58086243D01*
X73991945Y-58268414D01*
X73998444Y-58288414D01*
X74094951Y-58477820D01*
X74219890Y-58649786D01*
X74370213Y-58800109D01*
X74542182Y-58925050D01*
X74550946Y-58929516D01*
X74601742Y-58977491D01*
X74618536Y-59045312D01*
X74595998Y-59111447D01*
X74550946Y-59150484D01*
X74542182Y-59154949D01*
X74370213Y-59279890D01*
X74219890Y-59430213D01*
X74094951Y-59602179D01*
X73998444Y-59791585D01*
X73998443Y-59791587D01*
X73998443Y-59791588D01*
X73990097Y-59817273D01*
X73932753Y-59993760D01*
X73899500Y-60203713D01*
X73899500Y-60416286D01*
X73929585Y-60606239D01*
X73932754Y-60626243D01*
X73991945Y-60808414D01*
X73998444Y-60828414D01*
X74094951Y-61017820D01*
X74219890Y-61189786D01*
X74370213Y-61340109D01*
X74542182Y-61465050D01*
X74550946Y-61469516D01*
X74601742Y-61517491D01*
X74618536Y-61585312D01*
X74595998Y-61651447D01*
X74550946Y-61690484D01*
X74542182Y-61694949D01*
X74370213Y-61819890D01*
X74219890Y-61970213D01*
X74094951Y-62142179D01*
X73998444Y-62331585D01*
X73932753Y-62533760D01*
X73899500Y-62743713D01*
X73899500Y-62956286D01*
X73929585Y-63146239D01*
X73932754Y-63166243D01*
X73991945Y-63348414D01*
X73998444Y-63368414D01*
X74094951Y-63557820D01*
X74219890Y-63729786D01*
X74370213Y-63880109D01*
X74542179Y-64005048D01*
X74542181Y-64005049D01*
X74542184Y-64005051D01*
X74551493Y-64009794D01*
X74602290Y-64057766D01*
X74619087Y-64125587D01*
X74596552Y-64191722D01*
X74551505Y-64230760D01*
X74542446Y-64235376D01*
X74542440Y-64235380D01*
X74488282Y-64274727D01*
X74488282Y-64274728D01*
X75120591Y-64907037D01*
X75057007Y-64924075D01*
X74942993Y-64989901D01*
X74849901Y-65082993D01*
X74784075Y-65197007D01*
X74767037Y-65260591D01*
X74134728Y-64628282D01*
X74134727Y-64628282D01*
X74095380Y-64682439D01*
X73998904Y-64871782D01*
X73933242Y-65073869D01*
X73933242Y-65073872D01*
X73900000Y-65283753D01*
X73900000Y-65431403D01*
X73880315Y-65498442D01*
X73827511Y-65544197D01*
X73758353Y-65554141D01*
X73694797Y-65525116D01*
X73688319Y-65519084D01*
X71461084Y-63291849D01*
X71427599Y-63230526D01*
X71424765Y-63204168D01*
X71424765Y-57767847D01*
X71444450Y-57700808D01*
X71497254Y-57655053D01*
X71524574Y-57646230D01*
X71563017Y-57638583D01*
X71657762Y-57619737D01*
X71803444Y-57559394D01*
X71816153Y-57550902D01*
X71935140Y-57471398D01*
X72001818Y-57450520D01*
X72004031Y-57450500D01*
X73579055Y-57450500D01*
X73579057Y-57450500D01*
X73731784Y-57409577D01*
X73735536Y-57407410D01*
X73739104Y-57406544D01*
X73739294Y-57406466D01*
X73739306Y-57406495D01*
X73750891Y-57403684D01*
X73764308Y-57395330D01*
X73784149Y-57395613D01*
X73803433Y-57390934D01*
X73818368Y-57396102D01*
G37*
%TD.AperFunction*%
%TA.AperFunction,Conductor*%
G36*
X56455703Y-63836045D02*
G01*
X56462181Y-63842077D01*
X56480213Y-63860109D01*
X56652179Y-63985048D01*
X56652181Y-63985049D01*
X56652184Y-63985051D01*
X56661493Y-63989794D01*
X56712290Y-64037766D01*
X56729087Y-64105587D01*
X56706552Y-64171722D01*
X56661505Y-64210760D01*
X56652446Y-64215376D01*
X56652440Y-64215380D01*
X56598282Y-64254727D01*
X56598282Y-64254728D01*
X57230591Y-64887037D01*
X57167007Y-64904075D01*
X57052993Y-64969901D01*
X56959901Y-65062993D01*
X56894075Y-65177007D01*
X56877037Y-65240591D01*
X56286819Y-64650373D01*
X56253334Y-64589050D01*
X56250500Y-64562692D01*
X56250500Y-63929758D01*
X56270185Y-63862719D01*
X56322989Y-63816964D01*
X56392147Y-63807020D01*
X56455703Y-63836045D01*
G37*
%TD.AperFunction*%
%TA.AperFunction,Conductor*%
G36*
X74228814Y-56168936D02*
G01*
X74242147Y-56167020D01*
X74262290Y-56176219D01*
X74283927Y-56180926D01*
X74301652Y-56194194D01*
X74305703Y-56196045D01*
X74312181Y-56202077D01*
X74370213Y-56260109D01*
X74542182Y-56385050D01*
X74550946Y-56389516D01*
X74601742Y-56437491D01*
X74618536Y-56505312D01*
X74595998Y-56571447D01*
X74550946Y-56610484D01*
X74542182Y-56614949D01*
X74370213Y-56739890D01*
X74370209Y-56739894D01*
X74312181Y-56797923D01*
X74250858Y-56831408D01*
X74181166Y-56826424D01*
X74125233Y-56784552D01*
X74100816Y-56719088D01*
X74100500Y-56710242D01*
X74100500Y-56289758D01*
X74106738Y-56268512D01*
X74108318Y-56246424D01*
X74116390Y-56235640D01*
X74120185Y-56222719D01*
X74136918Y-56208219D01*
X74150190Y-56190491D01*
X74162810Y-56185783D01*
X74172989Y-56176964D01*
X74194906Y-56173812D01*
X74215654Y-56166074D01*
X74228814Y-56168936D01*
G37*
%TD.AperFunction*%
%TA.AperFunction,Conductor*%
G36*
X74784075Y-52882993D02*
G01*
X74849901Y-52997007D01*
X74942993Y-53090099D01*
X75057007Y-53155925D01*
X75120589Y-53172962D01*
X74488282Y-53805269D01*
X74488282Y-53805270D01*
X74542452Y-53844626D01*
X74542451Y-53844626D01*
X74551495Y-53849234D01*
X74602292Y-53897208D01*
X74619087Y-53965029D01*
X74596550Y-54031164D01*
X74551499Y-54070202D01*
X74542182Y-54074949D01*
X74370213Y-54199890D01*
X74370209Y-54199894D01*
X74312181Y-54257923D01*
X74250858Y-54291408D01*
X74181166Y-54286424D01*
X74125233Y-54244552D01*
X74100816Y-54179088D01*
X74100500Y-54170242D01*
X74100500Y-53537307D01*
X74120185Y-53470268D01*
X74136819Y-53449626D01*
X74767037Y-52819408D01*
X74784075Y-52882993D01*
G37*
%TD.AperFunction*%
%TA.AperFunction,Conductor*%
G36*
X56894075Y-52862993D02*
G01*
X56959901Y-52977007D01*
X57052993Y-53070099D01*
X57167007Y-53135925D01*
X57230590Y-53152962D01*
X56598282Y-53785269D01*
X56598282Y-53785270D01*
X56652452Y-53824626D01*
X56652451Y-53824626D01*
X56661495Y-53829234D01*
X56712292Y-53877208D01*
X56729087Y-53945029D01*
X56706550Y-54011164D01*
X56661499Y-54050202D01*
X56652182Y-54054949D01*
X56480213Y-54179890D01*
X56480209Y-54179894D01*
X56462181Y-54197923D01*
X56400858Y-54231408D01*
X56331166Y-54226424D01*
X56275233Y-54184552D01*
X56250816Y-54119088D01*
X56250500Y-54110242D01*
X56250500Y-53477308D01*
X56270185Y-53410269D01*
X56286819Y-53389627D01*
X56877037Y-52799408D01*
X56894075Y-52862993D01*
G37*
%TD.AperFunction*%
%TA.AperFunction,Conductor*%
G36*
X74228814Y-51088936D02*
G01*
X74242147Y-51087020D01*
X74262290Y-51096219D01*
X74283927Y-51100926D01*
X74301652Y-51114194D01*
X74305703Y-51116045D01*
X74312181Y-51122077D01*
X74370213Y-51180109D01*
X74542179Y-51305048D01*
X74542181Y-51305049D01*
X74542184Y-51305051D01*
X74551493Y-51309794D01*
X74602290Y-51357766D01*
X74619087Y-51425587D01*
X74596552Y-51491722D01*
X74551505Y-51530760D01*
X74542446Y-51535376D01*
X74542440Y-51535380D01*
X74488282Y-51574727D01*
X74488282Y-51574728D01*
X75120591Y-52207037D01*
X75057007Y-52224075D01*
X74942993Y-52289901D01*
X74849901Y-52382993D01*
X74784075Y-52497007D01*
X74767037Y-52560591D01*
X74136819Y-51930373D01*
X74103334Y-51869050D01*
X74100500Y-51842692D01*
X74100500Y-51209758D01*
X74106738Y-51188512D01*
X74108318Y-51166424D01*
X74116390Y-51155640D01*
X74120185Y-51142719D01*
X74136918Y-51128219D01*
X74150190Y-51110491D01*
X74162810Y-51105783D01*
X74172989Y-51096964D01*
X74194906Y-51093812D01*
X74215654Y-51086074D01*
X74228814Y-51088936D01*
G37*
%TD.AperFunction*%
%TA.AperFunction,Conductor*%
G36*
X56455703Y-51136045D02*
G01*
X56462181Y-51142077D01*
X56480213Y-51160109D01*
X56652179Y-51285048D01*
X56652181Y-51285049D01*
X56652184Y-51285051D01*
X56661493Y-51289794D01*
X56712290Y-51337766D01*
X56729087Y-51405587D01*
X56706552Y-51471722D01*
X56661505Y-51510760D01*
X56652446Y-51515376D01*
X56652440Y-51515380D01*
X56598282Y-51554727D01*
X56598282Y-51554728D01*
X57230591Y-52187037D01*
X57167007Y-52204075D01*
X57052993Y-52269901D01*
X56959901Y-52362993D01*
X56894075Y-52477007D01*
X56877037Y-52540591D01*
X56286819Y-51950373D01*
X56253334Y-51889050D01*
X56250500Y-51862692D01*
X56250500Y-51229758D01*
X56270185Y-51162719D01*
X56322989Y-51116964D01*
X56392147Y-51107020D01*
X56455703Y-51136045D01*
G37*
%TD.AperFunction*%
%TA.AperFunction,Conductor*%
G36*
X56894075Y-40162993D02*
G01*
X56959901Y-40277007D01*
X57052993Y-40370099D01*
X57167007Y-40435925D01*
X57230590Y-40452962D01*
X56598282Y-41085269D01*
X56598282Y-41085270D01*
X56652452Y-41124626D01*
X56652451Y-41124626D01*
X56661495Y-41129234D01*
X56712292Y-41177208D01*
X56729087Y-41245029D01*
X56706550Y-41311164D01*
X56661499Y-41350202D01*
X56652182Y-41354949D01*
X56480213Y-41479890D01*
X56480209Y-41479894D01*
X56462181Y-41497923D01*
X56400858Y-41531408D01*
X56331166Y-41526424D01*
X56275233Y-41484552D01*
X56250816Y-41419088D01*
X56250500Y-41410242D01*
X56250500Y-40777308D01*
X56270185Y-40710269D01*
X56286819Y-40689627D01*
X56877037Y-40099408D01*
X56894075Y-40162993D01*
G37*
%TD.AperFunction*%
%TA.AperFunction,Conductor*%
G36*
X56455703Y-38436045D02*
G01*
X56462181Y-38442077D01*
X56480213Y-38460109D01*
X56652179Y-38585048D01*
X56652181Y-38585049D01*
X56652184Y-38585051D01*
X56661493Y-38589794D01*
X56712290Y-38637766D01*
X56729087Y-38705587D01*
X56706552Y-38771722D01*
X56661505Y-38810760D01*
X56652446Y-38815376D01*
X56652440Y-38815380D01*
X56598282Y-38854727D01*
X56598282Y-38854728D01*
X57230591Y-39487037D01*
X57167007Y-39504075D01*
X57052993Y-39569901D01*
X56959901Y-39662993D01*
X56894075Y-39777007D01*
X56877037Y-39840591D01*
X56286819Y-39250373D01*
X56253334Y-39189050D01*
X56250500Y-39162692D01*
X56250500Y-38529758D01*
X56270185Y-38462719D01*
X56322989Y-38416964D01*
X56392147Y-38407020D01*
X56455703Y-38436045D01*
G37*
%TD.AperFunction*%
%TA.AperFunction,Conductor*%
G36*
X58907356Y-27058616D02*
G01*
X58921656Y-27070891D01*
X59871731Y-28020966D01*
X59905216Y-28082289D01*
X59908050Y-28108647D01*
X59908050Y-29015500D01*
X59888365Y-29082539D01*
X59835561Y-29128294D01*
X59784050Y-29139500D01*
X58605344Y-29139500D01*
X58538305Y-29119815D01*
X58505026Y-29088386D01*
X58390104Y-28930208D01*
X58239792Y-28779896D01*
X58239786Y-28779890D01*
X58067817Y-28654949D01*
X58058504Y-28650204D01*
X58007707Y-28602230D01*
X57990912Y-28534409D01*
X58013449Y-28468274D01*
X58058507Y-28429232D01*
X58067555Y-28424622D01*
X58121716Y-28385270D01*
X58121717Y-28385270D01*
X57489408Y-27752962D01*
X57552993Y-27735925D01*
X57667007Y-27670099D01*
X57760099Y-27577007D01*
X57825925Y-27462993D01*
X57842962Y-27399408D01*
X58475270Y-28031717D01*
X58475270Y-28031716D01*
X58514622Y-27977554D01*
X58611095Y-27788217D01*
X58676757Y-27586130D01*
X58676757Y-27586127D01*
X58710000Y-27376246D01*
X58710000Y-27158881D01*
X58712393Y-27158881D01*
X58724593Y-27100163D01*
X58773535Y-27050299D01*
X58841667Y-27034811D01*
X58907356Y-27058616D01*
G37*
%TD.AperFunction*%
%TA.AperFunction,Conductor*%
G36*
X56894075Y-27462993D02*
G01*
X56959901Y-27577007D01*
X57052993Y-27670099D01*
X57167007Y-27735925D01*
X57230590Y-27752962D01*
X56598282Y-28385269D01*
X56598282Y-28385270D01*
X56652452Y-28424626D01*
X56652451Y-28424626D01*
X56661495Y-28429234D01*
X56712292Y-28477208D01*
X56729087Y-28545029D01*
X56706550Y-28611164D01*
X56661499Y-28650202D01*
X56652182Y-28654949D01*
X56480213Y-28779890D01*
X56480209Y-28779894D01*
X56462181Y-28797923D01*
X56400858Y-28831408D01*
X56331166Y-28826424D01*
X56275233Y-28784552D01*
X56250816Y-28719088D01*
X56250500Y-28710242D01*
X56250500Y-28077308D01*
X56270185Y-28010269D01*
X56286819Y-27989627D01*
X56877037Y-27399408D01*
X56894075Y-27462993D01*
G37*
%TD.AperFunction*%
%TA.AperFunction,Conductor*%
G36*
X56455703Y-25736045D02*
G01*
X56462181Y-25742077D01*
X56480213Y-25760109D01*
X56652179Y-25885048D01*
X56652181Y-25885049D01*
X56652184Y-25885051D01*
X56661493Y-25889794D01*
X56712290Y-25937766D01*
X56729087Y-26005587D01*
X56706552Y-26071722D01*
X56661505Y-26110760D01*
X56652446Y-26115376D01*
X56652440Y-26115380D01*
X56598282Y-26154727D01*
X56598282Y-26154728D01*
X57230591Y-26787037D01*
X57167007Y-26804075D01*
X57052993Y-26869901D01*
X56959901Y-26962993D01*
X56894075Y-27077007D01*
X56877037Y-27140591D01*
X56286819Y-26550373D01*
X56253334Y-26489050D01*
X56250500Y-26462692D01*
X56250500Y-25829758D01*
X56270185Y-25762719D01*
X56322989Y-25716964D01*
X56392147Y-25707020D01*
X56455703Y-25736045D01*
G37*
%TD.AperFunction*%
%TD*%
M02*
