M48
; DRILL file {KiCad 9.0.7} date 2026-01-26T20:35:51+0530
; FORMAT={-:-/ absolute / metric / decimal}
; #@! TF.CreationDate,2026-01-26T20:35:51+05:30
; #@! TF.GenerationSoftware,Kicad,Pcbnew,9.0.7
; #@! TF.FileFunction,Plated,1,2,PTH
FMAT,2
METRIC
; #@! TA.AperFunction,Plated,PTH,ViaDrill
T1C0.300
; #@! TA.AperFunction,Plated,PTH,ComponentDrill
T2C0.600
; #@! TA.AperFunction,Plated,PTH,ComponentDrill
T3C1.000
%
G90
G05
T1
X60.7Y-45.272
X61.1Y-45.964
X61.5Y-46.657
X62.4Y-46.55
X63.6Y-44.35
X63.75Y-48.45
X63.899Y-31.637
X64.05Y-32.875
X64.5Y-56.1
X64.685Y-36.25
X65.25Y-52.751
X65.45Y-56.255
X65.925Y-34.45
X65.925Y-41.35
X66.05Y-47.7
X66.25Y-50.25
X67.144Y-52.753
X67.569Y-34.45
X67.569Y-36.75
X67.69Y-39.465
X67.82Y-42.4
X68.05Y-47.65
X68.59Y-60.33
X68.75Y-52.75
X69.19Y-59.556
X69.55Y-40.87
X69.56Y-44.57
X70.4Y-37.5
X70.501Y-44.57
X70.6Y-24.6
X70.824Y-55.726
X71.05Y-46.55
X71.4Y-36.5
X71.424Y-56.85
X72.273Y-35.873
X72.599Y-28.099
T3
X57.36Y-22.19
X57.36Y-24.73
X57.36Y-27.27
X57.36Y-29.81
X57.36Y-32.35
X57.36Y-34.89
X57.36Y-37.43
X57.36Y-39.97
X57.36Y-42.51
X57.36Y-45.05
X57.36Y-47.59
X57.36Y-50.13
X57.36Y-52.67
X57.36Y-55.21
X57.36Y-57.75
X57.36Y-60.29
X57.36Y-62.83
X57.36Y-65.37
X57.36Y-67.91
X57.36Y-70.45
X63.7Y-70.2
X66.24Y-70.2
X68.78Y-70.2
X75.25Y-22.21
X75.25Y-24.75
X75.25Y-27.29
X75.25Y-29.83
X75.25Y-32.37
X75.25Y-34.91
X75.25Y-37.45
X75.25Y-39.99
X75.25Y-42.53
X75.25Y-45.07
X75.25Y-47.61
X75.25Y-50.15
X75.25Y-52.69
X75.25Y-55.23
X75.25Y-57.77
X75.25Y-60.31
X75.25Y-62.85
X75.25Y-65.39
X75.25Y-67.93
X75.25Y-70.47
T2
G00X61.93Y-22.5
M15
G01X61.93Y-21.9
M16
G05
G00X61.93Y-26.93
M15
G01X61.93Y-25.83
M16
G05
G00X70.57Y-22.5
M15
G01X70.57Y-21.9
M16
G05
G00X70.57Y-26.93
M15
G01X70.57Y-25.83
M16
G05
M30
