%TF.GenerationSoftware,KiCad,Pcbnew,9.0.7*%
%TF.CreationDate,2026-01-26T20:35:49+05:30*%
%TF.ProjectId,Devboard,44657662-6f61-4726-942e-6b696361645f,rev?*%
%TF.SameCoordinates,Original*%
%TF.FileFunction,Soldermask,Bot*%
%TF.FilePolarity,Negative*%
%FSLAX46Y46*%
G04 Gerber Fmt 4.6, Leading zero omitted, Abs format (unit mm)*
G04 Created by KiCad (PCBNEW 9.0.7) date 2026-01-26 20:35:49*
%MOMM*%
%LPD*%
G01*
G04 APERTURE LIST*
%ADD10C,1.700000*%
%ADD11R,1.700000X1.700000*%
%ADD12C,0.650000*%
%ADD13O,1.000000X2.100000*%
%ADD14O,1.000000X1.600000*%
G04 APERTURE END LIST*
D10*
%TO.C,J2*%
X57360000Y-70450000D03*
X57360000Y-67910000D03*
X57360000Y-65370000D03*
X57360000Y-62830000D03*
X57360000Y-60290000D03*
X57360000Y-57750000D03*
X57360000Y-55210000D03*
X57360000Y-52670000D03*
X57360000Y-50130000D03*
X57360000Y-47590000D03*
X57360000Y-45050000D03*
X57360000Y-42510000D03*
X57360000Y-39970000D03*
X57360000Y-37430000D03*
X57360000Y-34890000D03*
X57360000Y-32350000D03*
X57360000Y-29810000D03*
X57360000Y-27270000D03*
X57360000Y-24730000D03*
D11*
X57360000Y-22190000D03*
%TD*%
D10*
%TO.C,J3*%
X75250000Y-70470000D03*
X75250000Y-67930000D03*
X75250000Y-65390000D03*
X75250000Y-62850000D03*
X75250000Y-60310000D03*
X75250000Y-57770000D03*
X75250000Y-55230000D03*
X75250000Y-52690000D03*
X75250000Y-50150000D03*
X75250000Y-47610000D03*
X75250000Y-45070000D03*
X75250000Y-42530000D03*
X75250000Y-39990000D03*
X75250000Y-37450000D03*
X75250000Y-34910000D03*
X75250000Y-32370000D03*
X75250000Y-29830000D03*
X75250000Y-27290000D03*
X75250000Y-24750000D03*
D11*
X75250000Y-22210000D03*
%TD*%
D12*
%TO.C,J1*%
X69140000Y-25850000D03*
X63360000Y-25850000D03*
D13*
X70570000Y-26380000D03*
D14*
X70570000Y-22200000D03*
D13*
X61930000Y-26380000D03*
D14*
X61930000Y-22200000D03*
%TD*%
D11*
%TO.C,J4*%
X68780000Y-70200000D03*
D10*
X66240000Y-70200000D03*
X63700000Y-70200000D03*
%TD*%
M02*
