%TF.GenerationSoftware,KiCad,Pcbnew,9.0.6*%
%TF.CreationDate,2026-01-06T13:19:56+05:30*%
%TF.ProjectId,Devboard,44657662-6f61-4726-942e-6b696361645f,rev?*%
%TF.SameCoordinates,Original*%
%TF.FileFunction,Paste,Top*%
%TF.FilePolarity,Positive*%
%FSLAX46Y46*%
G04 Gerber Fmt 4.6, Leading zero omitted, Abs format (unit mm)*
G04 Created by KiCad (PCBNEW 9.0.6) date 2026-01-06 13:19:56*
%MOMM*%
%LPD*%
G01*
G04 APERTURE LIST*
G04 Aperture macros list*
%AMRoundRect*
0 Rectangle with rounded corners*
0 $1 Rounding radius*
0 $2 $3 $4 $5 $6 $7 $8 $9 X,Y pos of 4 corners*
0 Add a 4 corners polygon primitive as box body*
4,1,4,$2,$3,$4,$5,$6,$7,$8,$9,$2,$3,0*
0 Add four circle primitives for the rounded corners*
1,1,$1+$1,$2,$3*
1,1,$1+$1,$4,$5*
1,1,$1+$1,$6,$7*
1,1,$1+$1,$8,$9*
0 Add four rect primitives between the rounded corners*
20,1,$1+$1,$2,$3,$4,$5,0*
20,1,$1+$1,$4,$5,$6,$7,0*
20,1,$1+$1,$6,$7,$8,$9,0*
20,1,$1+$1,$8,$9,$2,$3,0*%
G04 Aperture macros list end*
%ADD10RoundRect,0.135000X0.135000X0.185000X-0.135000X0.185000X-0.135000X-0.185000X0.135000X-0.185000X0*%
%ADD11RoundRect,0.079500X0.100500X-0.079500X0.100500X0.079500X-0.100500X0.079500X-0.100500X-0.079500X0*%
%ADD12RoundRect,0.150000X0.150000X-0.587500X0.150000X0.587500X-0.150000X0.587500X-0.150000X-0.587500X0*%
%ADD13RoundRect,0.140000X0.140000X0.170000X-0.140000X0.170000X-0.140000X-0.170000X0.140000X-0.170000X0*%
%ADD14RoundRect,0.140000X0.170000X-0.140000X0.170000X0.140000X-0.170000X0.140000X-0.170000X-0.140000X0*%
%ADD15RoundRect,0.140000X-0.140000X-0.170000X0.140000X-0.170000X0.140000X0.170000X-0.140000X0.170000X0*%
%ADD16RoundRect,0.135000X-0.185000X0.135000X-0.185000X-0.135000X0.185000X-0.135000X0.185000X0.135000X0*%
%ADD17RoundRect,0.135000X-0.135000X-0.185000X0.135000X-0.185000X0.135000X0.185000X-0.135000X0.185000X0*%
%ADD18RoundRect,0.079500X-0.079500X-0.100500X0.079500X-0.100500X0.079500X0.100500X-0.079500X0.100500X0*%
%ADD19RoundRect,0.040000X-0.040000X-0.605000X0.040000X-0.605000X0.040000X0.605000X-0.040000X0.605000X0*%
%ADD20RoundRect,0.062500X-0.387500X-0.062500X0.387500X-0.062500X0.387500X0.062500X-0.387500X0.062500X0*%
%ADD21R,0.600000X1.450000*%
%ADD22R,0.300000X1.450000*%
%ADD23RoundRect,0.200000X-0.200000X-0.800000X0.200000X-0.800000X0.200000X0.800000X-0.200000X0.800000X0*%
%ADD24RoundRect,0.250000X-0.450000X-0.350000X0.450000X-0.350000X0.450000X0.350000X-0.450000X0.350000X0*%
%ADD25RoundRect,0.249999X-0.395001X-0.395001X0.395001X-0.395001X0.395001X0.395001X-0.395001X0.395001X0*%
%ADD26RoundRect,0.050000X-0.387500X-0.050000X0.387500X-0.050000X0.387500X0.050000X-0.387500X0.050000X0*%
%ADD27RoundRect,0.050000X-0.050000X-0.387500X0.050000X-0.387500X0.050000X0.387500X-0.050000X0.387500X0*%
G04 APERTURE END LIST*
D10*
%TO.C,R6*%
X62590000Y-41250000D03*
X63610000Y-41250000D03*
%TD*%
D11*
%TO.C,C14*%
X65100000Y-33255000D03*
X65100000Y-33945000D03*
%TD*%
D12*
%TO.C,U4*%
X63100000Y-31000000D03*
X64050000Y-32875000D03*
X62150000Y-32875000D03*
%TD*%
D13*
%TO.C,C7*%
X70480000Y-42500000D03*
X69520000Y-42500000D03*
%TD*%
D14*
%TO.C,C8*%
X71500000Y-43780000D03*
X71500000Y-42820000D03*
%TD*%
D15*
%TO.C,C6*%
X72480000Y-41800000D03*
X71520000Y-41800000D03*
%TD*%
D14*
%TO.C,C9*%
X66700000Y-41380000D03*
X66700000Y-40420000D03*
%TD*%
D13*
%TO.C,C16*%
X63080000Y-56030000D03*
X62120000Y-56030000D03*
%TD*%
D14*
%TO.C,C5*%
X71500000Y-45800000D03*
X71500000Y-44840000D03*
%TD*%
D13*
%TO.C,C11*%
X70480000Y-41500000D03*
X69520000Y-41500000D03*
%TD*%
D16*
%TO.C,R1*%
X68000000Y-29090000D03*
X68000000Y-30110000D03*
%TD*%
%TO.C,R4*%
X67000000Y-29090000D03*
X67000000Y-30110000D03*
%TD*%
D15*
%TO.C,C3*%
X69500000Y-45500000D03*
X70460000Y-45500000D03*
%TD*%
D17*
%TO.C,R7*%
X64690000Y-40500000D03*
X65710000Y-40500000D03*
%TD*%
D18*
%TO.C,C13*%
X62455000Y-29300000D03*
X63145000Y-29300000D03*
%TD*%
D15*
%TO.C,C10*%
X70500000Y-46800000D03*
X71460000Y-46800000D03*
%TD*%
D19*
%TO.C,U3*%
X64400000Y-43000000D03*
D20*
X62975000Y-42250000D03*
X62975000Y-42750000D03*
X62975000Y-43250000D03*
X62975000Y-43750000D03*
X65825000Y-43750000D03*
X65825000Y-43250000D03*
X65825000Y-42750000D03*
X65825000Y-42250000D03*
%TD*%
D21*
%TO.C,J1*%
X69500000Y-27295000D03*
X68700000Y-27295000D03*
D22*
X67500000Y-27295000D03*
X66500000Y-27295000D03*
X66000000Y-27295000D03*
X65000000Y-27295000D03*
D21*
X63800000Y-27295000D03*
X63000000Y-27295000D03*
X63000000Y-27295000D03*
X63800000Y-27295000D03*
D22*
X64500000Y-27295000D03*
X65500000Y-27295000D03*
X67000000Y-27295000D03*
X68000000Y-27295000D03*
D21*
X68700000Y-27295000D03*
X69500000Y-27295000D03*
%TD*%
D15*
%TO.C,C1*%
X69520000Y-43500000D03*
X70480000Y-43500000D03*
%TD*%
D13*
%TO.C,C15*%
X63080000Y-58000000D03*
X62120000Y-58000000D03*
%TD*%
D23*
%TO.C,SW1*%
X62400000Y-38200000D03*
X66600000Y-38200000D03*
%TD*%
D16*
%TO.C,R2*%
X64600000Y-29090000D03*
X64600000Y-30110000D03*
%TD*%
%TO.C,R3*%
X65700000Y-29090000D03*
X65700000Y-30110000D03*
%TD*%
D14*
%TO.C,C4*%
X66800000Y-35460000D03*
X66800000Y-34500000D03*
%TD*%
D24*
%TO.C,Y1*%
X64900000Y-60200000D03*
X67100000Y-60200000D03*
X67100000Y-58500000D03*
X64900000Y-58500000D03*
%TD*%
D15*
%TO.C,C2*%
X69520000Y-44500000D03*
X70480000Y-44500000D03*
%TD*%
D25*
%TO.C,U1*%
X65450000Y-49450000D03*
X65450000Y-51050000D03*
X67050000Y-49450000D03*
X67050000Y-51050000D03*
D26*
X62812500Y-47650000D03*
X62812500Y-48050000D03*
X62812500Y-48450000D03*
X62812500Y-48850000D03*
X62812500Y-49250000D03*
X62812500Y-49650000D03*
X62812500Y-50050000D03*
X62812500Y-50450000D03*
X62812500Y-50850000D03*
X62812500Y-51250000D03*
X62812500Y-51650000D03*
X62812500Y-52050000D03*
X62812500Y-52450000D03*
X62812500Y-52850000D03*
D27*
X63650000Y-53687500D03*
X64050000Y-53687500D03*
X64450000Y-53687500D03*
X64850000Y-53687500D03*
X65250000Y-53687500D03*
X65650000Y-53687500D03*
X66050000Y-53687500D03*
X66450000Y-53687500D03*
X66850000Y-53687500D03*
X67250000Y-53687500D03*
X67650000Y-53687500D03*
X68050000Y-53687500D03*
X68450000Y-53687500D03*
X68850000Y-53687500D03*
D26*
X69687500Y-52850000D03*
X69687500Y-52450000D03*
X69687500Y-52050000D03*
X69687500Y-51650000D03*
X69687500Y-51250000D03*
X69687500Y-50850000D03*
X69687500Y-50450000D03*
X69687500Y-50050000D03*
X69687500Y-49650000D03*
X69687500Y-49250000D03*
X69687500Y-48850000D03*
X69687500Y-48450000D03*
X69687500Y-48050000D03*
X69687500Y-47650000D03*
D27*
X68850000Y-46812500D03*
X68450000Y-46812500D03*
X68050000Y-46812500D03*
X67650000Y-46812500D03*
X67250000Y-46812500D03*
X66850000Y-46812500D03*
X66450000Y-46812500D03*
X66050000Y-46812500D03*
X65650000Y-46812500D03*
X65250000Y-46812500D03*
X64850000Y-46812500D03*
X64450000Y-46812500D03*
X64050000Y-46812500D03*
X63650000Y-46812500D03*
%TD*%
D17*
%TO.C,R5*%
X65190000Y-56100000D03*
X66210000Y-56100000D03*
%TD*%
D15*
%TO.C,C17*%
X60620000Y-40500000D03*
X61580000Y-40500000D03*
%TD*%
M02*
