%TF.GenerationSoftware,KiCad,Pcbnew,9.0.6*%
%TF.CreationDate,2026-01-06T13:19:56+05:30*%
%TF.ProjectId,Devboard,44657662-6f61-4726-942e-6b696361645f,rev?*%
%TF.SameCoordinates,Original*%
%TF.FileFunction,Legend,Bot*%
%TF.FilePolarity,Positive*%
%FSLAX46Y46*%
G04 Gerber Fmt 4.6, Leading zero omitted, Abs format (unit mm)*
G04 Created by KiCad (PCBNEW 9.0.6) date 2026-01-06 13:19:56*
%MOMM*%
%LPD*%
G01*
G04 APERTURE LIST*
%ADD10C,0.187500*%
%ADD11C,0.150000*%
%ADD12C,0.120000*%
%ADD13C,0.000000*%
G04 APERTURE END LIST*
D10*
G36*
X71418328Y-28742393D02*
G01*
X71418328Y-28633033D01*
X71376447Y-28626543D01*
X71346453Y-28608619D01*
X71325259Y-28578668D01*
X71312815Y-28532527D01*
X71311411Y-28501448D01*
X71317639Y-28443940D01*
X71334124Y-28403684D01*
X71359405Y-28376029D01*
X71360076Y-28376029D01*
X71384225Y-28363576D01*
X71412100Y-28359359D01*
X71441656Y-28366080D01*
X71467079Y-28386988D01*
X71489525Y-28427076D01*
X71505950Y-28482519D01*
X71530619Y-28582964D01*
X71550997Y-28649433D01*
X71575099Y-28697202D01*
X71602109Y-28730346D01*
X71631980Y-28751919D01*
X71667986Y-28764958D01*
X71714167Y-28769687D01*
X71764049Y-28764076D01*
X71806655Y-28747930D01*
X71843622Y-28721234D01*
X71875856Y-28682615D01*
X71901570Y-28632475D01*
X71917927Y-28571609D01*
X71923789Y-28497540D01*
X71918732Y-28425429D01*
X71904925Y-28368610D01*
X71883829Y-28324112D01*
X71856031Y-28289590D01*
X71821181Y-28263510D01*
X71778037Y-28245298D01*
X71741201Y-28237213D01*
X71698658Y-28234368D01*
X71698658Y-28344888D01*
X71748711Y-28355438D01*
X71777854Y-28369495D01*
X71784021Y-28374991D01*
X71806142Y-28404284D01*
X71820651Y-28445180D01*
X71826092Y-28501570D01*
X71826092Y-28506393D01*
X71820201Y-28565272D01*
X71804466Y-28607928D01*
X71780357Y-28638468D01*
X71753733Y-28654863D01*
X71722960Y-28660327D01*
X71692562Y-28654625D01*
X71668039Y-28637794D01*
X71647916Y-28607571D01*
X71647184Y-28607571D01*
X71647184Y-28606899D01*
X71631552Y-28558295D01*
X71607616Y-28459621D01*
X71580650Y-28372227D01*
X71552340Y-28316241D01*
X71523658Y-28282911D01*
X71495921Y-28265277D01*
X71461046Y-28254058D01*
X71417107Y-28250000D01*
X71368697Y-28255409D01*
X71327457Y-28270952D01*
X71291786Y-28296605D01*
X71260792Y-28333653D01*
X71236952Y-28380420D01*
X71221852Y-28436635D01*
X71216461Y-28504439D01*
X71221412Y-28571034D01*
X71234956Y-28623558D01*
X71255753Y-28664795D01*
X71283379Y-28696887D01*
X71318372Y-28721144D01*
X71360981Y-28736838D01*
X71412833Y-28742393D01*
X71418328Y-28742393D01*
G37*
G36*
X71892526Y-29352023D02*
G01*
X71892526Y-29256830D01*
X71799958Y-29256830D01*
X71851646Y-29213565D01*
X71886593Y-29170001D01*
X71907730Y-29125549D01*
X71916661Y-29085700D01*
X71919881Y-29037133D01*
X71915050Y-28980127D01*
X71901610Y-28933870D01*
X71880476Y-28896247D01*
X71851615Y-28865736D01*
X71819413Y-28845226D01*
X71782538Y-28832718D01*
X71739752Y-28828367D01*
X71232093Y-28828367D01*
X71232093Y-28933879D01*
X71699513Y-28933879D01*
X71738600Y-28938052D01*
X71769417Y-28949641D01*
X71793831Y-28968130D01*
X71812903Y-28994207D01*
X71813635Y-28994207D01*
X71825726Y-29027305D01*
X71830000Y-29067419D01*
X71825053Y-29111278D01*
X71810846Y-29148540D01*
X71787395Y-29180687D01*
X71753490Y-29208531D01*
X71712707Y-29229015D01*
X71664299Y-29241925D01*
X71606578Y-29246510D01*
X71232093Y-29246510D01*
X71232093Y-29352023D01*
X71892526Y-29352023D01*
G37*
G36*
X71666147Y-29419352D02*
G01*
X71733226Y-29432884D01*
X71790465Y-29454176D01*
X71839342Y-29482754D01*
X71886677Y-29525733D01*
X71919856Y-29575449D01*
X71940144Y-29633224D01*
X71947236Y-29701229D01*
X71941130Y-29761313D01*
X71927683Y-29802123D01*
X71905568Y-29840300D01*
X71873864Y-29876431D01*
X71831038Y-29910790D01*
X71919881Y-29910790D01*
X71919881Y-30004640D01*
X71001528Y-30004640D01*
X71001528Y-29899127D01*
X71341025Y-29899127D01*
X71328752Y-29890945D01*
X71290249Y-29853953D01*
X71262861Y-29810312D01*
X71245894Y-29758697D01*
X71241647Y-29714968D01*
X71337606Y-29714968D01*
X71342785Y-29757556D01*
X71357912Y-29794916D01*
X71383401Y-29828358D01*
X71384073Y-29829030D01*
X71420514Y-29858010D01*
X71466495Y-29879822D01*
X71524165Y-29893978D01*
X71596259Y-29899127D01*
X71664570Y-29894031D01*
X71721142Y-29879790D01*
X71768084Y-29857423D01*
X71804602Y-29828784D01*
X71829510Y-29796361D01*
X71844401Y-29759444D01*
X71849539Y-29716617D01*
X71843656Y-29669632D01*
X71826489Y-29628701D01*
X71797515Y-29592297D01*
X71760164Y-29563658D01*
X71714779Y-29542388D01*
X71659709Y-29528789D01*
X71592840Y-29523909D01*
X71582643Y-29523909D01*
X71517726Y-29529213D01*
X71463381Y-29544146D01*
X71417657Y-29567873D01*
X71381988Y-29597858D01*
X71357456Y-29631752D01*
X71342705Y-29670321D01*
X71337606Y-29714968D01*
X71241647Y-29714968D01*
X71239909Y-29697077D01*
X71245328Y-29639272D01*
X71260996Y-29588319D01*
X71286715Y-29542852D01*
X71323196Y-29501927D01*
X71373163Y-29465100D01*
X71432551Y-29437922D01*
X71503204Y-29420687D01*
X71587466Y-29414549D01*
X71666147Y-29419352D01*
G37*
G36*
X71646395Y-30058791D02*
G01*
X71709243Y-30071005D01*
X71763193Y-30090247D01*
X71809544Y-30116076D01*
X71851433Y-30150787D01*
X71883554Y-30190948D01*
X71906787Y-30237252D01*
X71921265Y-30290881D01*
X71926353Y-30353419D01*
X71925682Y-30374607D01*
X71914478Y-30443980D01*
X71890305Y-30502799D01*
X71853264Y-30553148D01*
X71803586Y-30594816D01*
X71742814Y-30625601D01*
X71668607Y-30645251D01*
X71577880Y-30652311D01*
X71485731Y-30645729D01*
X71410201Y-30627442D01*
X71348292Y-30598944D01*
X71301988Y-30564746D01*
X71266580Y-30524114D01*
X71240941Y-30476281D01*
X71224889Y-30419817D01*
X71219235Y-30353053D01*
X71314159Y-30353053D01*
X71318375Y-30394706D01*
X71330495Y-30430640D01*
X71350368Y-30462046D01*
X71386156Y-30495246D01*
X71433565Y-30520361D01*
X71495512Y-30536862D01*
X71575865Y-30542951D01*
X71641557Y-30538316D01*
X71695798Y-30525398D01*
X71740607Y-30505216D01*
X71779483Y-30475818D01*
X71806226Y-30441398D01*
X71822401Y-30401063D01*
X71828046Y-30353053D01*
X71823545Y-30310608D01*
X71810549Y-30273768D01*
X71789089Y-30241311D01*
X71753543Y-30209362D01*
X71707327Y-30185302D01*
X71647868Y-30169589D01*
X71571774Y-30163825D01*
X71505162Y-30168372D01*
X71450013Y-30181045D01*
X71404345Y-30200828D01*
X71364195Y-30229769D01*
X71336645Y-30264022D01*
X71319984Y-30304491D01*
X71314159Y-30353053D01*
X71219235Y-30353053D01*
X71219209Y-30352747D01*
X71223963Y-30293670D01*
X71237591Y-30242064D01*
X71259618Y-30196628D01*
X71290223Y-30156376D01*
X71329471Y-30121330D01*
X71376039Y-30093391D01*
X71431094Y-30072516D01*
X71496173Y-30059205D01*
X71573117Y-30054466D01*
X71646395Y-30058791D01*
G37*
G36*
X71505645Y-31023621D02*
G01*
X71595526Y-31023621D01*
X71595526Y-30722714D01*
X71505645Y-30722714D01*
X71505645Y-31023621D01*
G37*
G36*
X71775174Y-31067265D02*
G01*
X71815147Y-31080338D01*
X71849844Y-31101657D01*
X71881229Y-31133300D01*
X71904091Y-31172323D01*
X71918584Y-31220297D01*
X71923789Y-31279466D01*
X71921041Y-31321903D01*
X71906289Y-31380251D01*
X71876123Y-31440718D01*
X71827740Y-31504535D01*
X71864255Y-31511985D01*
X71889755Y-31525189D01*
X71907854Y-31544992D01*
X71919466Y-31572761D01*
X71923789Y-31611270D01*
X71921127Y-31644123D01*
X71912309Y-31684054D01*
X71834579Y-31684054D01*
X71836655Y-31660851D01*
X71836655Y-31650959D01*
X71828242Y-31625521D01*
X71811899Y-31611156D01*
X71785242Y-31605896D01*
X71395736Y-31605896D01*
X71360590Y-31603050D01*
X71330034Y-31594905D01*
X71291959Y-31573905D01*
X71261550Y-31542369D01*
X71238100Y-31498202D01*
X71222368Y-31437837D01*
X71216461Y-31356585D01*
X71218476Y-31314576D01*
X71228161Y-31253901D01*
X71244322Y-31205006D01*
X71266131Y-31165828D01*
X71293337Y-31134752D01*
X71303595Y-31126448D01*
X71334854Y-31108659D01*
X71375718Y-31097029D01*
X71428831Y-31092742D01*
X71428831Y-31197339D01*
X71392438Y-31204849D01*
X71389691Y-31205521D01*
X71356968Y-31223932D01*
X71333087Y-31252515D01*
X71317362Y-31293879D01*
X71311411Y-31352616D01*
X71313604Y-31390993D01*
X71319654Y-31422348D01*
X71334644Y-31458393D01*
X71354360Y-31481838D01*
X71378959Y-31495580D01*
X71410085Y-31500383D01*
X71438112Y-31500383D01*
X71568904Y-31500383D01*
X71687667Y-31500383D01*
X71705497Y-31498979D01*
X71737683Y-31487487D01*
X71773457Y-31458679D01*
X71807183Y-31411583D01*
X71827126Y-31360103D01*
X71833907Y-31302669D01*
X71830650Y-31265245D01*
X71821512Y-31234342D01*
X71805758Y-31206643D01*
X71785439Y-31187720D01*
X71759896Y-31176172D01*
X71727479Y-31172060D01*
X71697586Y-31175473D01*
X71673928Y-31185005D01*
X71653337Y-31201941D01*
X71634698Y-31229292D01*
X71618329Y-31270499D01*
X71605296Y-31330024D01*
X71594977Y-31401160D01*
X71582728Y-31461529D01*
X71568904Y-31500383D01*
X71438112Y-31500383D01*
X71458065Y-31498003D01*
X71473100Y-31491468D01*
X71487459Y-31475696D01*
X71500498Y-31444650D01*
X71510774Y-31390230D01*
X71525184Y-31291128D01*
X71538209Y-31222738D01*
X71551868Y-31177555D01*
X71574335Y-31135500D01*
X71602460Y-31104086D01*
X71636613Y-31081669D01*
X71678013Y-31067679D01*
X71728578Y-31062700D01*
X71775174Y-31067265D01*
G37*
G36*
X72146538Y-31809106D02*
G01*
X71802644Y-31809106D01*
X71831160Y-31834385D01*
X71861320Y-31871645D01*
X71882729Y-31912869D01*
X71895816Y-31958862D01*
X71900341Y-32010729D01*
X71894895Y-32069025D01*
X71879179Y-32120162D01*
X71853438Y-32165557D01*
X71816994Y-32206184D01*
X71766961Y-32243070D01*
X71707518Y-32270284D01*
X71636825Y-32287541D01*
X71552540Y-32293684D01*
X71473411Y-32288820D01*
X71406019Y-32275117D01*
X71348571Y-32253561D01*
X71299565Y-32224624D01*
X71252774Y-32182326D01*
X71220015Y-32133471D01*
X71200005Y-32076777D01*
X71193014Y-32010118D01*
X71194617Y-31992594D01*
X71290711Y-31992594D01*
X71296379Y-32038589D01*
X71312901Y-32078640D01*
X71340720Y-32114227D01*
X71378199Y-32143434D01*
X71424431Y-32165240D01*
X71481282Y-32179264D01*
X71551135Y-32184324D01*
X71619265Y-32178781D01*
X71675887Y-32163223D01*
X71723143Y-32138590D01*
X71758658Y-32108833D01*
X71783012Y-32075406D01*
X71797611Y-32037578D01*
X71802644Y-31993998D01*
X71797289Y-31950447D01*
X71781675Y-31912483D01*
X71755383Y-31878715D01*
X71718659Y-31850365D01*
X71673060Y-31829120D01*
X71616667Y-31815410D01*
X71547044Y-31810450D01*
X71533306Y-31810450D01*
X71470328Y-31815139D01*
X71417957Y-31828265D01*
X71374303Y-31848918D01*
X71336925Y-31877510D01*
X71311369Y-31910347D01*
X71296028Y-31948195D01*
X71290711Y-31992594D01*
X71194617Y-31992594D01*
X71197896Y-31956761D01*
X71211959Y-31910051D01*
X71234935Y-31868695D01*
X71267365Y-31831791D01*
X71310556Y-31798909D01*
X71212554Y-31798909D01*
X71212554Y-31703593D01*
X72146538Y-31703593D01*
X72146538Y-31809106D01*
G37*
G36*
X71251632Y-32621946D02*
G01*
X71337606Y-32621946D01*
X71337606Y-32512526D01*
X71789455Y-32512526D01*
X71817162Y-32515516D01*
X71833651Y-32522927D01*
X71842700Y-32533714D01*
X71843433Y-32534385D01*
X71847752Y-32548416D01*
X71849539Y-32572060D01*
X71847476Y-32604371D01*
X71842700Y-32621946D01*
X71931299Y-32621946D01*
X71937439Y-32577476D01*
X71939420Y-32535790D01*
X71934193Y-32485719D01*
X71920403Y-32450770D01*
X71899421Y-32426876D01*
X71870483Y-32411837D01*
X71835006Y-32407013D01*
X71337606Y-32407013D01*
X71337606Y-32317131D01*
X71251632Y-32317131D01*
X71251632Y-32407013D01*
X71069916Y-32407013D01*
X71069916Y-32512526D01*
X71251632Y-32512526D01*
X71251632Y-32621946D01*
G37*
G36*
X71505645Y-32964863D02*
G01*
X71595526Y-32964863D01*
X71595526Y-32663956D01*
X71505645Y-32663956D01*
X71505645Y-32964863D01*
G37*
G36*
X71259448Y-33183705D02*
G01*
X71919881Y-33183705D01*
X71919881Y-33078192D01*
X71259448Y-33078192D01*
X71259448Y-33183705D01*
G37*
G36*
X71001528Y-33183705D02*
G01*
X71134396Y-33183705D01*
X71134396Y-33078192D01*
X71001528Y-33078192D01*
X71001528Y-33183705D01*
G37*
G36*
X71236001Y-33293126D02*
G01*
X71236001Y-33390518D01*
X71348230Y-33390518D01*
X71289875Y-33434332D01*
X71251127Y-33479590D01*
X71228307Y-33526927D01*
X71219550Y-33564431D01*
X71216461Y-33608077D01*
X71221245Y-33664586D01*
X71234564Y-33710556D01*
X71255530Y-33748051D01*
X71284178Y-33778558D01*
X71316555Y-33799567D01*
X71353530Y-33812344D01*
X71396346Y-33816782D01*
X71896434Y-33816782D01*
X71896434Y-33711270D01*
X71439638Y-33711270D01*
X71392039Y-33704379D01*
X71356434Y-33685191D01*
X71329790Y-33653384D01*
X71329118Y-33651980D01*
X71328447Y-33651980D01*
X71315850Y-33618051D01*
X71311411Y-33577119D01*
X71316404Y-33532306D01*
X71330663Y-33494693D01*
X71354063Y-33462684D01*
X71387737Y-33435397D01*
X71388469Y-33434726D01*
X71389141Y-33434054D01*
X71428388Y-33415058D01*
X71475743Y-33402966D01*
X71533000Y-33398639D01*
X71896434Y-33398639D01*
X71896434Y-33293126D01*
X71236001Y-33293126D01*
G37*
G36*
X71418328Y-34394173D02*
G01*
X71418328Y-34284813D01*
X71376447Y-34278323D01*
X71346453Y-34260398D01*
X71325259Y-34230448D01*
X71312815Y-34184307D01*
X71311411Y-34153227D01*
X71317639Y-34095720D01*
X71334124Y-34055464D01*
X71359405Y-34027808D01*
X71360076Y-34027808D01*
X71384225Y-34015356D01*
X71412100Y-34011139D01*
X71441656Y-34017859D01*
X71467079Y-34038767D01*
X71489525Y-34078855D01*
X71505950Y-34134298D01*
X71530619Y-34234743D01*
X71550997Y-34301212D01*
X71575099Y-34348981D01*
X71602109Y-34382125D01*
X71631980Y-34403698D01*
X71667986Y-34416738D01*
X71714167Y-34421467D01*
X71764049Y-34415856D01*
X71806655Y-34399709D01*
X71843622Y-34373014D01*
X71875856Y-34334394D01*
X71901570Y-34284255D01*
X71917927Y-34223388D01*
X71923789Y-34149319D01*
X71918732Y-34077209D01*
X71904925Y-34020390D01*
X71883829Y-33975891D01*
X71856031Y-33941370D01*
X71821181Y-33915289D01*
X71778037Y-33897077D01*
X71741201Y-33888992D01*
X71698658Y-33886147D01*
X71698658Y-33996667D01*
X71748711Y-34007217D01*
X71777854Y-34021275D01*
X71784021Y-34026770D01*
X71806142Y-34056063D01*
X71820651Y-34096959D01*
X71826092Y-34153349D01*
X71826092Y-34158173D01*
X71820201Y-34217051D01*
X71804466Y-34259708D01*
X71780357Y-34290247D01*
X71753733Y-34306643D01*
X71722960Y-34312107D01*
X71692562Y-34306405D01*
X71668039Y-34289573D01*
X71647916Y-34259351D01*
X71647184Y-34259351D01*
X71647184Y-34258679D01*
X71631552Y-34210075D01*
X71607616Y-34111400D01*
X71580650Y-34024007D01*
X71552340Y-33968020D01*
X71523658Y-33934691D01*
X71495921Y-33917057D01*
X71461046Y-33905837D01*
X71417107Y-33901779D01*
X71368697Y-33907188D01*
X71327457Y-33922732D01*
X71291786Y-33948385D01*
X71260792Y-33985432D01*
X71236952Y-34032199D01*
X71221852Y-34088414D01*
X71216461Y-34156219D01*
X71221412Y-34222813D01*
X71234956Y-34275337D01*
X71255753Y-34316575D01*
X71283379Y-34348666D01*
X71318372Y-34372923D01*
X71360981Y-34388618D01*
X71412833Y-34394173D01*
X71418328Y-34394173D01*
G37*
G36*
X71251632Y-34757606D02*
G01*
X71337606Y-34757606D01*
X71337606Y-34648185D01*
X71789455Y-34648185D01*
X71817162Y-34651175D01*
X71833651Y-34658587D01*
X71842700Y-34669373D01*
X71843433Y-34670045D01*
X71847752Y-34684076D01*
X71849539Y-34707719D01*
X71847476Y-34740030D01*
X71842700Y-34757606D01*
X71931299Y-34757606D01*
X71937439Y-34713135D01*
X71939420Y-34671449D01*
X71934193Y-34621379D01*
X71920403Y-34586430D01*
X71899421Y-34562535D01*
X71870483Y-34547496D01*
X71835006Y-34542672D01*
X71337606Y-34542672D01*
X71337606Y-34452791D01*
X71251632Y-34452791D01*
X71251632Y-34542672D01*
X71069916Y-34542672D01*
X71069916Y-34648185D01*
X71251632Y-34648185D01*
X71251632Y-34757606D01*
G37*
G36*
X71775174Y-34769009D02*
G01*
X71815147Y-34782083D01*
X71849844Y-34803401D01*
X71881229Y-34835044D01*
X71904091Y-34874067D01*
X71918584Y-34922041D01*
X71923789Y-34981210D01*
X71921041Y-35023647D01*
X71906289Y-35081996D01*
X71876123Y-35142463D01*
X71827740Y-35206280D01*
X71864255Y-35213729D01*
X71889755Y-35226933D01*
X71907854Y-35246737D01*
X71919466Y-35274505D01*
X71923789Y-35313014D01*
X71921127Y-35345867D01*
X71912309Y-35385799D01*
X71834579Y-35385799D01*
X71836655Y-35362595D01*
X71836655Y-35352704D01*
X71828242Y-35327266D01*
X71811899Y-35312901D01*
X71785242Y-35307641D01*
X71395736Y-35307641D01*
X71360590Y-35304794D01*
X71330034Y-35296650D01*
X71291959Y-35275650D01*
X71261550Y-35244113D01*
X71238100Y-35199946D01*
X71222368Y-35139582D01*
X71216461Y-35058330D01*
X71218476Y-35016320D01*
X71228161Y-34955645D01*
X71244322Y-34906751D01*
X71266131Y-34867572D01*
X71293337Y-34836496D01*
X71303595Y-34828192D01*
X71334854Y-34810404D01*
X71375718Y-34798774D01*
X71428831Y-34794487D01*
X71428831Y-34899084D01*
X71392438Y-34906594D01*
X71389691Y-34907266D01*
X71356968Y-34925676D01*
X71333087Y-34954260D01*
X71317362Y-34995624D01*
X71311411Y-35054361D01*
X71313604Y-35092738D01*
X71319654Y-35124092D01*
X71334644Y-35160138D01*
X71354360Y-35183582D01*
X71378959Y-35197325D01*
X71410085Y-35202128D01*
X71438112Y-35202128D01*
X71568904Y-35202128D01*
X71687667Y-35202128D01*
X71705497Y-35200724D01*
X71737683Y-35189231D01*
X71773457Y-35160423D01*
X71807183Y-35113328D01*
X71827126Y-35061848D01*
X71833907Y-35004413D01*
X71830650Y-34966990D01*
X71821512Y-34936086D01*
X71805758Y-34908388D01*
X71785439Y-34889465D01*
X71759896Y-34877917D01*
X71727479Y-34873804D01*
X71697586Y-34877218D01*
X71673928Y-34886749D01*
X71653337Y-34903686D01*
X71634698Y-34931037D01*
X71618329Y-34972243D01*
X71605296Y-35031769D01*
X71594977Y-35102904D01*
X71582728Y-35163274D01*
X71568904Y-35202128D01*
X71438112Y-35202128D01*
X71458065Y-35199748D01*
X71473100Y-35193213D01*
X71487459Y-35177440D01*
X71500498Y-35146395D01*
X71510774Y-35091974D01*
X71525184Y-34992873D01*
X71538209Y-34924482D01*
X71551868Y-34879300D01*
X71574335Y-34837244D01*
X71602460Y-34805831D01*
X71636613Y-34783414D01*
X71678013Y-34769424D01*
X71728578Y-34764445D01*
X71775174Y-34769009D01*
G37*
G36*
X71001528Y-35573377D02*
G01*
X71919881Y-35573377D01*
X71919881Y-35467864D01*
X71001528Y-35467864D01*
X71001528Y-35573377D01*
G37*
G36*
X71001528Y-35823482D02*
G01*
X71919881Y-35823482D01*
X71919881Y-35717969D01*
X71001528Y-35717969D01*
X71001528Y-35823482D01*
G37*
G36*
X71505645Y-36225994D02*
G01*
X71595526Y-36225994D01*
X71595526Y-35925087D01*
X71505645Y-35925087D01*
X71505645Y-36225994D01*
G37*
G36*
X71251632Y-36573796D02*
G01*
X71337606Y-36573796D01*
X71337606Y-36464375D01*
X71789455Y-36464375D01*
X71817162Y-36467365D01*
X71833651Y-36474776D01*
X71842700Y-36485563D01*
X71843433Y-36486235D01*
X71847752Y-36500266D01*
X71849539Y-36523909D01*
X71847476Y-36556220D01*
X71842700Y-36573796D01*
X71931299Y-36573796D01*
X71937439Y-36529325D01*
X71939420Y-36487639D01*
X71934193Y-36437569D01*
X71920403Y-36402620D01*
X71899421Y-36378725D01*
X71870483Y-36363686D01*
X71835006Y-36358862D01*
X71337606Y-36358862D01*
X71337606Y-36268981D01*
X71251632Y-36268981D01*
X71251632Y-36358862D01*
X71069916Y-36358862D01*
X71069916Y-36464375D01*
X71251632Y-36464375D01*
X71251632Y-36573796D01*
G37*
G36*
X71775174Y-36585199D02*
G01*
X71815147Y-36598272D01*
X71849844Y-36619591D01*
X71881229Y-36651234D01*
X71904091Y-36690257D01*
X71918584Y-36738231D01*
X71923789Y-36797400D01*
X71921041Y-36839837D01*
X71906289Y-36898186D01*
X71876123Y-36958653D01*
X71827740Y-37022470D01*
X71864255Y-37029919D01*
X71889755Y-37043123D01*
X71907854Y-37062926D01*
X71919466Y-37090695D01*
X71923789Y-37129204D01*
X71921127Y-37162057D01*
X71912309Y-37201988D01*
X71834579Y-37201988D01*
X71836655Y-37178785D01*
X71836655Y-37168893D01*
X71828242Y-37143455D01*
X71811899Y-37129090D01*
X71785242Y-37123831D01*
X71395736Y-37123831D01*
X71360590Y-37120984D01*
X71330034Y-37112840D01*
X71291959Y-37091840D01*
X71261550Y-37060303D01*
X71238100Y-37016136D01*
X71222368Y-36955771D01*
X71216461Y-36874520D01*
X71218476Y-36832510D01*
X71228161Y-36771835D01*
X71244322Y-36722941D01*
X71266131Y-36683762D01*
X71293337Y-36652686D01*
X71303595Y-36644382D01*
X71334854Y-36626594D01*
X71375718Y-36614964D01*
X71428831Y-36610676D01*
X71428831Y-36715273D01*
X71392438Y-36722784D01*
X71389691Y-36723456D01*
X71356968Y-36741866D01*
X71333087Y-36770450D01*
X71317362Y-36811814D01*
X71311411Y-36870551D01*
X71313604Y-36908927D01*
X71319654Y-36940282D01*
X71334644Y-36976328D01*
X71354360Y-36999772D01*
X71378959Y-37013515D01*
X71410085Y-37018318D01*
X71438112Y-37018318D01*
X71568904Y-37018318D01*
X71687667Y-37018318D01*
X71705497Y-37016913D01*
X71737683Y-37005421D01*
X71773457Y-36976613D01*
X71807183Y-36929517D01*
X71827126Y-36878037D01*
X71833907Y-36820603D01*
X71830650Y-36783180D01*
X71821512Y-36752276D01*
X71805758Y-36724578D01*
X71785439Y-36705655D01*
X71759896Y-36694107D01*
X71727479Y-36689994D01*
X71697586Y-36693408D01*
X71673928Y-36702939D01*
X71653337Y-36719875D01*
X71634698Y-36747226D01*
X71618329Y-36788433D01*
X71605296Y-36847958D01*
X71594977Y-36919094D01*
X71582728Y-36979464D01*
X71568904Y-37018318D01*
X71438112Y-37018318D01*
X71458065Y-37015938D01*
X71473100Y-37009403D01*
X71487459Y-36993630D01*
X71500498Y-36962585D01*
X71510774Y-36908164D01*
X71525184Y-36809063D01*
X71538209Y-36740672D01*
X71551868Y-36695490D01*
X71574335Y-36653434D01*
X71602460Y-36622021D01*
X71636613Y-36599603D01*
X71678013Y-36585614D01*
X71728578Y-36580635D01*
X71775174Y-36585199D01*
G37*
G36*
X72146538Y-37327041D02*
G01*
X71802644Y-37327041D01*
X71831160Y-37352320D01*
X71861320Y-37389579D01*
X71882729Y-37430804D01*
X71895816Y-37476796D01*
X71900341Y-37528663D01*
X71894895Y-37586959D01*
X71879179Y-37638096D01*
X71853438Y-37683491D01*
X71816994Y-37724118D01*
X71766961Y-37761004D01*
X71707518Y-37788219D01*
X71636825Y-37805475D01*
X71552540Y-37811618D01*
X71473411Y-37806754D01*
X71406019Y-37793052D01*
X71348571Y-37771495D01*
X71299565Y-37742559D01*
X71252774Y-37700260D01*
X71220015Y-37651406D01*
X71200005Y-37594711D01*
X71193014Y-37528053D01*
X71194617Y-37510528D01*
X71290711Y-37510528D01*
X71296379Y-37556523D01*
X71312901Y-37596575D01*
X71340720Y-37632161D01*
X71378199Y-37661369D01*
X71424431Y-37683174D01*
X71481282Y-37697198D01*
X71551135Y-37702259D01*
X71619265Y-37696715D01*
X71675887Y-37681158D01*
X71723143Y-37656524D01*
X71758658Y-37626768D01*
X71783012Y-37593341D01*
X71797611Y-37555513D01*
X71802644Y-37511933D01*
X71797289Y-37468381D01*
X71781675Y-37430417D01*
X71755383Y-37396650D01*
X71718659Y-37368299D01*
X71673060Y-37347054D01*
X71616667Y-37333344D01*
X71547044Y-37328384D01*
X71533306Y-37328384D01*
X71470328Y-37333073D01*
X71417957Y-37346200D01*
X71374303Y-37366852D01*
X71336925Y-37395445D01*
X71311369Y-37428282D01*
X71296028Y-37466129D01*
X71290711Y-37510528D01*
X71194617Y-37510528D01*
X71197896Y-37474695D01*
X71211959Y-37427985D01*
X71234935Y-37386629D01*
X71267365Y-37349725D01*
X71310556Y-37316844D01*
X71212554Y-37316844D01*
X71212554Y-37221528D01*
X72146538Y-37221528D01*
X72146538Y-37327041D01*
G37*
D11*
X57693333Y-19194819D02*
X57693333Y-19909104D01*
X57693333Y-19909104D02*
X57740952Y-20051961D01*
X57740952Y-20051961D02*
X57836190Y-20147200D01*
X57836190Y-20147200D02*
X57979047Y-20194819D01*
X57979047Y-20194819D02*
X58074285Y-20194819D01*
X57264761Y-19290057D02*
X57217142Y-19242438D01*
X57217142Y-19242438D02*
X57121904Y-19194819D01*
X57121904Y-19194819D02*
X56883809Y-19194819D01*
X56883809Y-19194819D02*
X56788571Y-19242438D01*
X56788571Y-19242438D02*
X56740952Y-19290057D01*
X56740952Y-19290057D02*
X56693333Y-19385295D01*
X56693333Y-19385295D02*
X56693333Y-19480533D01*
X56693333Y-19480533D02*
X56740952Y-19623390D01*
X56740952Y-19623390D02*
X57312380Y-20194819D01*
X57312380Y-20194819D02*
X56693333Y-20194819D01*
X75583333Y-19284819D02*
X75583333Y-19999104D01*
X75583333Y-19999104D02*
X75630952Y-20141961D01*
X75630952Y-20141961D02*
X75726190Y-20237200D01*
X75726190Y-20237200D02*
X75869047Y-20284819D01*
X75869047Y-20284819D02*
X75964285Y-20284819D01*
X75202380Y-19284819D02*
X74583333Y-19284819D01*
X74583333Y-19284819D02*
X74916666Y-19665771D01*
X74916666Y-19665771D02*
X74773809Y-19665771D01*
X74773809Y-19665771D02*
X74678571Y-19713390D01*
X74678571Y-19713390D02*
X74630952Y-19761009D01*
X74630952Y-19761009D02*
X74583333Y-19856247D01*
X74583333Y-19856247D02*
X74583333Y-20094342D01*
X74583333Y-20094342D02*
X74630952Y-20189580D01*
X74630952Y-20189580D02*
X74678571Y-20237200D01*
X74678571Y-20237200D02*
X74773809Y-20284819D01*
X74773809Y-20284819D02*
X75059523Y-20284819D01*
X75059523Y-20284819D02*
X75154761Y-20237200D01*
X75154761Y-20237200D02*
X75202380Y-20189580D01*
D12*
%TO.C,J4*%
X70160000Y-71580000D02*
X70160000Y-70200000D01*
X68780000Y-71580000D02*
X70160000Y-71580000D01*
X67510000Y-68820000D02*
X62320000Y-68820000D01*
X67510000Y-71580000D02*
X67510000Y-68820000D01*
X67510000Y-71580000D02*
X62320000Y-71580000D01*
X62320000Y-71580000D02*
X62320000Y-68820000D01*
%TO.C,J2*%
X55980000Y-23390000D02*
X55980000Y-71760000D01*
X58740000Y-20740000D02*
X57360000Y-20740000D01*
X58740000Y-22120000D02*
X58740000Y-20740000D01*
X58740000Y-23390000D02*
X55980000Y-23390000D01*
X58740000Y-23390000D02*
X58740000Y-71760000D01*
X58740000Y-71760000D02*
X55980000Y-71760000D01*
D13*
%TO.C,G\u002A\u002A\u002A*%
G36*
X67659149Y-43009920D02*
G01*
X68023906Y-43228664D01*
X68305537Y-43529687D01*
X68442229Y-43812743D01*
X68507228Y-44251078D01*
X68436941Y-44720178D01*
X68240112Y-45192741D01*
X67925487Y-45641464D01*
X67501810Y-46039045D01*
X67137060Y-46317552D01*
X67457057Y-46418460D01*
X67766244Y-46536684D01*
X68127929Y-46750548D01*
X68366004Y-46996848D01*
X68465582Y-47258438D01*
X68411781Y-47518176D01*
X68407357Y-47526431D01*
X68350161Y-47613880D01*
X68274043Y-47640748D01*
X68132883Y-47606311D01*
X67880565Y-47509846D01*
X67744068Y-47457065D01*
X67406156Y-47330759D01*
X67001937Y-47183401D01*
X66591721Y-47037113D01*
X66506851Y-47006762D01*
X66072345Y-46833175D01*
X65752486Y-46672013D01*
X65572540Y-46535705D01*
X65571304Y-46534251D01*
X65421078Y-46391594D01*
X65301353Y-46332333D01*
X65193226Y-46255060D01*
X65111746Y-46048685D01*
X65078111Y-45858168D01*
X65711894Y-45858168D01*
X65716163Y-45950664D01*
X65748649Y-45956134D01*
X65906862Y-45940526D01*
X66144864Y-45896895D01*
X66481481Y-45795627D01*
X66947187Y-45521256D01*
X67325272Y-45103413D01*
X67397891Y-44991903D01*
X67583755Y-44586519D01*
X67611391Y-44234430D01*
X67480454Y-43938224D01*
X67405185Y-43852457D01*
X67198044Y-43718893D01*
X66963212Y-43721993D01*
X66681989Y-43865252D01*
X66335674Y-44152166D01*
X66135168Y-44342633D01*
X65972646Y-44523497D01*
X65877822Y-44697519D01*
X65821028Y-44922976D01*
X65772593Y-45258143D01*
X65762004Y-45340253D01*
X65728328Y-45640542D01*
X65711894Y-45858168D01*
X65078111Y-45858168D01*
X65059313Y-45751694D01*
X65038246Y-45402576D01*
X65050867Y-45039818D01*
X65099498Y-44701908D01*
X65186460Y-44427333D01*
X65320902Y-44176662D01*
X65667168Y-43717152D01*
X66089531Y-43331197D01*
X66551118Y-43049537D01*
X67015054Y-42902913D01*
X67198044Y-42901340D01*
X67267454Y-42900744D01*
X67659149Y-43009920D01*
G37*
G36*
X65745676Y-53141733D02*
G01*
X65958593Y-53281091D01*
X66186311Y-53536683D01*
X66438962Y-53919460D01*
X66726677Y-54440372D01*
X67059590Y-55110372D01*
X67108813Y-55212548D01*
X67398062Y-55789449D01*
X67633534Y-56209052D01*
X67819189Y-56472802D01*
X67958988Y-56582145D01*
X68056890Y-56538527D01*
X68116856Y-56343393D01*
X68142845Y-55998190D01*
X68138819Y-55504363D01*
X68137036Y-55448108D01*
X68120830Y-55067286D01*
X68094313Y-54804681D01*
X68046593Y-54614701D01*
X67966778Y-54451752D01*
X67843975Y-54270244D01*
X67819859Y-54236430D01*
X67607242Y-53900757D01*
X67517192Y-53657828D01*
X67546526Y-53488897D01*
X67692063Y-53375219D01*
X67926543Y-53311115D01*
X68185548Y-53365561D01*
X68421353Y-53571232D01*
X68640378Y-53934149D01*
X68849042Y-54460333D01*
X68930014Y-54802827D01*
X68980108Y-55270674D01*
X68989663Y-55780873D01*
X68959915Y-56281447D01*
X68892104Y-56720421D01*
X68787466Y-57045820D01*
X68603728Y-57320735D01*
X68329946Y-57510638D01*
X68015460Y-57545805D01*
X67678304Y-57424979D01*
X67336510Y-57146904D01*
X67324582Y-57133849D01*
X67181208Y-56939739D01*
X66990558Y-56636288D01*
X66776078Y-56262488D01*
X66561208Y-55857333D01*
X66296708Y-55341898D01*
X66073041Y-54920392D01*
X65902833Y-54620743D01*
X65776303Y-54426756D01*
X65683672Y-54322240D01*
X65615159Y-54290999D01*
X65613144Y-54291027D01*
X65499557Y-54371460D01*
X65387806Y-54579589D01*
X65291192Y-54874921D01*
X65223016Y-55216966D01*
X65196580Y-55565232D01*
X65196290Y-55608290D01*
X65173727Y-55962997D01*
X65104145Y-56181675D01*
X64971377Y-56292337D01*
X64759255Y-56322999D01*
X64715335Y-56320788D01*
X64481795Y-56220836D01*
X64322375Y-55996815D01*
X64263387Y-55682704D01*
X64287978Y-55380515D01*
X64378029Y-54950647D01*
X64519301Y-54495260D01*
X64696059Y-54052877D01*
X64892571Y-53662022D01*
X65093101Y-53361215D01*
X65281916Y-53188979D01*
X65323714Y-53167910D01*
X65537427Y-53107656D01*
X65745676Y-53141733D01*
G37*
G36*
X69054397Y-48304877D02*
G01*
X69715280Y-48356917D01*
X70324017Y-48440150D01*
X70851561Y-48551356D01*
X71268862Y-48687314D01*
X71546871Y-48844801D01*
X71604546Y-48896285D01*
X71768614Y-49122336D01*
X71767250Y-49327625D01*
X71600011Y-49506628D01*
X71482670Y-49570627D01*
X71361042Y-49583503D01*
X71190303Y-49534278D01*
X70919274Y-49416149D01*
X70608879Y-49290627D01*
X70226868Y-49186446D01*
X69796094Y-49127652D01*
X69277287Y-49109272D01*
X68631179Y-49126333D01*
X68535654Y-49130775D01*
X68165943Y-49150877D01*
X67937204Y-49172250D01*
X67825968Y-49200061D01*
X67808766Y-49239477D01*
X67862129Y-49295666D01*
X67913320Y-49342706D01*
X68079123Y-49526061D01*
X68256836Y-49752869D01*
X68362713Y-49913704D01*
X68468375Y-50182312D01*
X68496721Y-50515428D01*
X68492743Y-50675873D01*
X68406425Y-51236936D01*
X68215764Y-51699070D01*
X67931886Y-52047404D01*
X67565919Y-52267069D01*
X67128990Y-52343194D01*
X66632557Y-52296630D01*
X66181864Y-52131829D01*
X65754497Y-51826289D01*
X65461564Y-51534215D01*
X65081604Y-50981626D01*
X64858550Y-50366590D01*
X64828160Y-50217638D01*
X64820633Y-50121012D01*
X65754823Y-50121012D01*
X65810052Y-50535744D01*
X66008777Y-50924007D01*
X66360721Y-51246869D01*
X66363675Y-51248885D01*
X66668047Y-51393115D01*
X67001195Y-51455052D01*
X67306295Y-51431221D01*
X67526524Y-51318148D01*
X67614382Y-51166789D01*
X67685638Y-50902907D01*
X67711925Y-50619542D01*
X67679985Y-50396333D01*
X67628256Y-50281222D01*
X67465106Y-49999041D01*
X67263442Y-49714352D01*
X67061385Y-49478455D01*
X66897054Y-49342653D01*
X66763921Y-49286182D01*
X66587877Y-49274667D01*
X66345398Y-49340531D01*
X66134437Y-49423476D01*
X65901831Y-49580112D01*
X65786148Y-49798279D01*
X65754823Y-50121012D01*
X64820633Y-50121012D01*
X64810997Y-49997298D01*
X64854980Y-49788287D01*
X64970545Y-49510867D01*
X65117664Y-49233206D01*
X65341482Y-48950197D01*
X65629708Y-48734894D01*
X66008463Y-48573406D01*
X66503871Y-48451846D01*
X66587877Y-48439272D01*
X67142054Y-48356324D01*
X67692394Y-48307267D01*
X68370419Y-48287253D01*
X69054397Y-48304877D01*
G37*
G36*
X64934527Y-37535608D02*
G01*
X65190286Y-37643620D01*
X65324489Y-37863737D01*
X65325627Y-38181250D01*
X65289204Y-38361710D01*
X65255770Y-38552736D01*
X65261622Y-38686566D01*
X65328301Y-38775496D01*
X65477345Y-38831818D01*
X65730292Y-38867827D01*
X66108682Y-38895818D01*
X66634054Y-38928084D01*
X66913263Y-38946700D01*
X67448421Y-38991371D01*
X67854460Y-39044515D01*
X68159422Y-39113601D01*
X68391349Y-39206098D01*
X68578282Y-39329475D01*
X68748265Y-39491202D01*
X68757886Y-39501717D01*
X68876341Y-39695541D01*
X68909435Y-39939828D01*
X68856338Y-40266010D01*
X68716219Y-40705521D01*
X68595214Y-41006476D01*
X68381691Y-41382443D01*
X68119594Y-41652060D01*
X67777054Y-41854309D01*
X67601040Y-41925473D01*
X67258372Y-42002954D01*
X66977831Y-41985910D01*
X66788315Y-41878920D01*
X66718721Y-41686566D01*
X66719039Y-41675274D01*
X66797392Y-41485011D01*
X66966856Y-41321678D01*
X67159381Y-41252333D01*
X67343120Y-41215499D01*
X67566341Y-41124839D01*
X67735714Y-40991219D01*
X67884940Y-40753014D01*
X67962731Y-40476257D01*
X67963786Y-40206022D01*
X67882803Y-39987383D01*
X67714480Y-39865414D01*
X67664695Y-39855912D01*
X67449143Y-39832070D01*
X67115517Y-39806012D01*
X66698875Y-39780294D01*
X66234279Y-39757473D01*
X65852668Y-39738585D01*
X65456379Y-39721048D01*
X65181138Y-39731979D01*
X64999125Y-39792059D01*
X64882519Y-39921973D01*
X64803497Y-40142404D01*
X64734239Y-40474035D01*
X64646923Y-40937548D01*
X64618147Y-41080278D01*
X64514316Y-41523673D01*
X64412983Y-41817910D01*
X64304806Y-41978497D01*
X64180444Y-42020944D01*
X64030554Y-41960759D01*
X64011694Y-41947543D01*
X63955475Y-41880080D01*
X63919404Y-41761858D01*
X63900086Y-41563265D01*
X63894120Y-41254690D01*
X63898110Y-40806520D01*
X63913834Y-39747322D01*
X63654694Y-39695494D01*
X63634817Y-39691696D01*
X63359634Y-39657650D01*
X63063266Y-39643666D01*
X62779642Y-39611533D01*
X62506591Y-39521357D01*
X62308072Y-39395120D01*
X62231387Y-39254925D01*
X62246442Y-39153949D01*
X62319033Y-38960766D01*
X62368838Y-38892749D01*
X62460266Y-38842451D01*
X62621629Y-38813464D01*
X62886038Y-38800181D01*
X63286607Y-38796999D01*
X64166536Y-38796999D01*
X64225081Y-38310166D01*
X64274156Y-38021634D01*
X64386122Y-37733129D01*
X64560825Y-37575105D01*
X64813721Y-37526999D01*
X64934527Y-37535608D01*
G37*
G36*
X67346775Y-30346149D02*
G01*
X67929645Y-30448823D01*
X68156844Y-30531430D01*
X68655689Y-30826706D01*
X69121948Y-31252367D01*
X69533085Y-31781480D01*
X69866566Y-32387116D01*
X70099854Y-33042343D01*
X70191135Y-33471412D01*
X70258146Y-34056790D01*
X70261038Y-34606739D01*
X70196951Y-35061843D01*
X70191409Y-35084315D01*
X70138883Y-35335286D01*
X70077209Y-35677947D01*
X70018594Y-36045004D01*
X70011982Y-36088436D01*
X69944447Y-36459115D01*
X69865485Y-36799168D01*
X69790837Y-37039838D01*
X69711619Y-37209636D01*
X69595893Y-37328074D01*
X69424049Y-37357666D01*
X69348605Y-37355478D01*
X69233845Y-37318916D01*
X69170484Y-37202417D01*
X69125042Y-36961641D01*
X69109576Y-36772172D01*
X69117283Y-36409059D01*
X69159886Y-36051475D01*
X69171870Y-35984487D01*
X69259712Y-35353367D01*
X69309948Y-34707674D01*
X69321581Y-34092088D01*
X69293616Y-33551290D01*
X69225055Y-33129957D01*
X69212774Y-33082855D01*
X69047524Y-32571215D01*
X68843670Y-32183466D01*
X68573121Y-31877689D01*
X68207786Y-31611966D01*
X68121554Y-31559177D01*
X67907404Y-31437091D01*
X67723338Y-31361863D01*
X67519504Y-31322161D01*
X67246048Y-31306651D01*
X66853119Y-31303999D01*
X66482295Y-31307144D01*
X66191984Y-31323395D01*
X65979320Y-31361846D01*
X65796268Y-31431567D01*
X65594793Y-31541629D01*
X65476013Y-31616229D01*
X65010796Y-32005004D01*
X64607645Y-32492151D01*
X64290627Y-33038066D01*
X64083805Y-33603142D01*
X64011247Y-34147774D01*
X64012055Y-34190401D01*
X64095376Y-34658717D01*
X64296580Y-35096870D01*
X64589075Y-35470164D01*
X64946270Y-35743906D01*
X65341570Y-35883401D01*
X65620620Y-35911757D01*
X66106169Y-35906665D01*
X66576776Y-35842605D01*
X66994269Y-35728337D01*
X67320474Y-35572618D01*
X67517220Y-35384207D01*
X67547979Y-35257148D01*
X67456934Y-35117654D01*
X67239548Y-35022310D01*
X66919717Y-34986999D01*
X66799772Y-34983208D01*
X66461797Y-34932983D01*
X66187076Y-34837144D01*
X66028397Y-34711980D01*
X65965105Y-34664023D01*
X65836597Y-34727292D01*
X65786879Y-34763829D01*
X65664034Y-34786839D01*
X65492822Y-34699610D01*
X65425488Y-34649617D01*
X65270429Y-34442404D01*
X65243358Y-34321956D01*
X65956721Y-34321956D01*
X66170880Y-34153499D01*
X66195948Y-34134985D01*
X66440331Y-34009909D01*
X66719739Y-33928494D01*
X66965604Y-33853015D01*
X67267580Y-33618643D01*
X67340798Y-33521623D01*
X67466524Y-33206632D01*
X67424647Y-32891499D01*
X67423408Y-32888585D01*
X67306937Y-32809602D01*
X67097378Y-32789765D01*
X66857776Y-32826858D01*
X66651177Y-32918668D01*
X66493600Y-33075268D01*
X66308100Y-33333924D01*
X66135334Y-33632699D01*
X66007679Y-33915269D01*
X65957515Y-34125311D01*
X65956721Y-34321956D01*
X65243358Y-34321956D01*
X65202752Y-34141283D01*
X65213931Y-33716190D01*
X65220805Y-33658024D01*
X65360819Y-33213426D01*
X65629387Y-32821477D01*
X65995068Y-32499785D01*
X66426417Y-32265962D01*
X66891993Y-32137617D01*
X67097378Y-32135312D01*
X67360351Y-32132360D01*
X67800050Y-32267801D01*
X67897389Y-32321795D01*
X68113159Y-32473981D01*
X68239890Y-32611043D01*
X68294281Y-32751727D01*
X68315450Y-33099177D01*
X68223190Y-33479291D01*
X68032219Y-33845144D01*
X67757255Y-34149813D01*
X67520372Y-34345993D01*
X67926226Y-34548239D01*
X68194694Y-34714791D01*
X68445434Y-34990340D01*
X68544277Y-35294383D01*
X68495249Y-35609023D01*
X68302376Y-35916362D01*
X67969685Y-36198503D01*
X67501201Y-36437549D01*
X67333663Y-36498731D01*
X67025373Y-36578206D01*
X66671510Y-36620143D01*
X66210721Y-36633875D01*
X65942333Y-36633370D01*
X65620330Y-36619181D01*
X65369986Y-36578561D01*
X65131635Y-36500078D01*
X64845608Y-36372298D01*
X64695568Y-36298224D01*
X64129018Y-35942379D01*
X63686670Y-35513109D01*
X63334787Y-34979311D01*
X63331367Y-34972891D01*
X63184739Y-34680630D01*
X63109948Y-34461485D01*
X63091753Y-34244791D01*
X63114913Y-33959887D01*
X63143767Y-33754024D01*
X63212446Y-33404049D01*
X63289731Y-33124303D01*
X63452932Y-32762455D01*
X63775644Y-32253642D01*
X64187652Y-31743805D01*
X64652436Y-31272838D01*
X65133474Y-30880632D01*
X65594244Y-30607081D01*
X66087722Y-30440808D01*
X66710021Y-30345021D01*
X67346775Y-30346149D01*
G37*
G36*
X64779251Y-59812664D02*
G01*
X64907102Y-59874589D01*
X65024452Y-59980013D01*
X65126000Y-60130293D01*
X65199286Y-60305616D01*
X65243403Y-60503730D01*
X65253842Y-60705276D01*
X65232199Y-60902229D01*
X65180071Y-61086565D01*
X65099056Y-61250256D01*
X64990749Y-61385278D01*
X64856748Y-61483605D01*
X64840486Y-61491714D01*
X64704283Y-61529490D01*
X64558751Y-61524067D01*
X64418846Y-61475715D01*
X64356059Y-61436501D01*
X64236622Y-61321858D01*
X64140697Y-61172811D01*
X64071244Y-60997984D01*
X64031224Y-60806001D01*
X64023597Y-60605487D01*
X64051323Y-60405066D01*
X64088428Y-60278722D01*
X64167983Y-60108106D01*
X64268837Y-59972859D01*
X64385692Y-59874337D01*
X64513245Y-59813893D01*
X64646198Y-59792884D01*
X64779251Y-59812664D01*
G37*
G36*
X68117807Y-59790482D02*
G01*
X68218834Y-59842925D01*
X68340266Y-59949993D01*
X68437247Y-60089215D01*
X68508649Y-60252785D01*
X68553346Y-60432896D01*
X68570212Y-60621740D01*
X68558120Y-60811511D01*
X68515943Y-60994402D01*
X68442555Y-61162605D01*
X68336829Y-61308315D01*
X68284540Y-61359747D01*
X68195639Y-61429844D01*
X68116900Y-61472536D01*
X68112018Y-61474269D01*
X67964736Y-61501820D01*
X67823970Y-61483045D01*
X67693701Y-61422222D01*
X67577910Y-61323628D01*
X67480581Y-61191541D01*
X67405694Y-61030237D01*
X67357231Y-60843994D01*
X67339175Y-60637090D01*
X67339873Y-60585585D01*
X67363081Y-60388160D01*
X67415825Y-60209631D01*
X67493913Y-60054553D01*
X67593154Y-59927487D01*
X67709356Y-59832989D01*
X67838327Y-59775616D01*
X67975874Y-59759928D01*
X68117807Y-59790482D01*
G37*
G36*
X65380339Y-63357062D02*
G01*
X65450975Y-63394719D01*
X65543544Y-63459516D01*
X65665800Y-63555049D01*
X65714064Y-63593421D01*
X65865159Y-63707121D01*
X65989009Y-63787889D01*
X66091576Y-63838841D01*
X66178825Y-63863093D01*
X66256720Y-63863760D01*
X66277398Y-63860069D01*
X66375125Y-63829495D01*
X66504052Y-63774724D01*
X66656092Y-63699680D01*
X66823156Y-63608287D01*
X66997158Y-63504470D01*
X67111420Y-63436485D01*
X67208836Y-63388342D01*
X67280796Y-63368129D01*
X67334835Y-63373851D01*
X67378486Y-63403514D01*
X67379967Y-63405038D01*
X67409903Y-63465766D01*
X67417207Y-63543148D01*
X67398962Y-63608041D01*
X67396031Y-63611689D01*
X67357040Y-63643384D01*
X67284287Y-63693156D01*
X67186713Y-63755589D01*
X67073260Y-63825266D01*
X66952871Y-63896770D01*
X66834487Y-63964686D01*
X66727051Y-64023596D01*
X66639503Y-64068084D01*
X66634312Y-64070535D01*
X66527121Y-64115647D01*
X66419749Y-64152344D01*
X66334703Y-64172889D01*
X66255998Y-64180898D01*
X66136394Y-64176211D01*
X66015639Y-64147887D01*
X65887316Y-64092971D01*
X65745005Y-64008508D01*
X65582289Y-63891541D01*
X65392750Y-63739116D01*
X65391075Y-63737718D01*
X65297614Y-63658135D01*
X65237081Y-63600947D01*
X65202491Y-63557388D01*
X65186859Y-63518689D01*
X65183200Y-63476082D01*
X65183978Y-63450787D01*
X65200104Y-63393599D01*
X65244827Y-63359831D01*
X65273845Y-63348779D01*
X65323881Y-63342947D01*
X65380339Y-63357062D01*
G37*
G36*
X65818098Y-60410850D02*
G01*
X65818200Y-60671200D01*
X66220175Y-60671200D01*
X66622149Y-60671200D01*
X66624002Y-60414724D01*
X66936758Y-60414724D01*
X66939262Y-60585851D01*
X66947839Y-60741177D01*
X66962489Y-60863385D01*
X67014615Y-61089421D01*
X67101672Y-61335835D01*
X67213267Y-61556741D01*
X67345691Y-61746049D01*
X67495235Y-61897671D01*
X67658189Y-62005518D01*
X67660969Y-62006896D01*
X67825859Y-62062525D01*
X67991752Y-62070319D01*
X68155250Y-62032998D01*
X68312955Y-61953285D01*
X68461471Y-61833902D01*
X68597400Y-61677570D01*
X68717345Y-61487011D01*
X68817909Y-61264947D01*
X68895693Y-61014100D01*
X68901695Y-60988746D01*
X68936677Y-60776272D01*
X68953741Y-60538192D01*
X68952863Y-60292783D01*
X68934020Y-60058322D01*
X68897189Y-59853084D01*
X68816156Y-59590893D01*
X68711999Y-59360284D01*
X68589329Y-59167441D01*
X68451497Y-59013442D01*
X68301855Y-58899363D01*
X68143751Y-58826282D01*
X67980536Y-58795275D01*
X67815561Y-58807420D01*
X67652177Y-58863795D01*
X67493732Y-58965475D01*
X67343578Y-59113539D01*
X67205066Y-59309063D01*
X67139257Y-59435796D01*
X67066848Y-59614435D01*
X67005641Y-59807781D01*
X66962489Y-59996414D01*
X66949966Y-60094337D01*
X66940326Y-60245113D01*
X66936758Y-60414724D01*
X66624002Y-60414724D01*
X66624122Y-60398150D01*
X66638926Y-60127749D01*
X66695344Y-59788076D01*
X66791988Y-59468159D01*
X66926906Y-59175878D01*
X67015608Y-59040937D01*
X67134422Y-58898174D01*
X67268426Y-58764543D01*
X67405294Y-58652295D01*
X67532700Y-58573685D01*
X67590651Y-58546681D01*
X67658584Y-58521604D01*
X67728567Y-58507355D01*
X67816838Y-58500975D01*
X67939635Y-58499505D01*
X68052465Y-58500551D01*
X68141412Y-58506044D01*
X68211143Y-58519200D01*
X68278102Y-58543229D01*
X68358735Y-58581343D01*
X68391106Y-58597905D01*
X68579363Y-58717613D01*
X68741188Y-58867477D01*
X68887974Y-59057753D01*
X68922247Y-59110965D01*
X69063452Y-59383688D01*
X69168334Y-59683720D01*
X69236120Y-60003514D01*
X69266034Y-60335519D01*
X69260779Y-60538192D01*
X69257305Y-60672187D01*
X69209157Y-61005969D01*
X69120817Y-61329314D01*
X69047250Y-61542929D01*
X69223425Y-61734125D01*
X69275719Y-61791811D01*
X69339646Y-61865415D01*
X69383388Y-61919742D01*
X69399601Y-61945960D01*
X69399953Y-61949546D01*
X69422780Y-61966600D01*
X69424487Y-61966209D01*
X69445856Y-61938949D01*
X69477181Y-61877219D01*
X69512322Y-61792930D01*
X69537586Y-61730098D01*
X69621875Y-61565331D01*
X69718745Y-61445118D01*
X69834117Y-61364900D01*
X69973909Y-61320114D01*
X70144043Y-61306200D01*
X70193214Y-61307138D01*
X70393759Y-61325110D01*
X70635742Y-61365509D01*
X70916218Y-61427779D01*
X71232240Y-61511365D01*
X71480632Y-61585606D01*
X71707286Y-61664335D01*
X71897780Y-61745468D01*
X72059568Y-61833080D01*
X72200103Y-61931245D01*
X72326838Y-62044036D01*
X72447224Y-62175527D01*
X72458304Y-62188774D01*
X72542845Y-62299423D01*
X72588845Y-62384736D01*
X72597219Y-62450635D01*
X72568882Y-62503045D01*
X72504751Y-62547891D01*
X72471972Y-62560858D01*
X72431133Y-62561189D01*
X72383186Y-62540475D01*
X72321470Y-62494484D01*
X72239327Y-62418984D01*
X72130100Y-62309741D01*
X72032938Y-62215246D01*
X71901278Y-62106314D01*
X71786491Y-62037508D01*
X71762604Y-62026714D01*
X71611053Y-61966087D01*
X71428409Y-61903245D01*
X71224506Y-61840685D01*
X71009182Y-61780903D01*
X70792274Y-61726393D01*
X70583617Y-61679652D01*
X70393048Y-61643176D01*
X70230403Y-61619459D01*
X70105520Y-61611000D01*
X70080968Y-61611681D01*
X70001858Y-61630874D01*
X69931047Y-61685246D01*
X69912257Y-61704493D01*
X69867787Y-61759237D01*
X69865502Y-61786145D01*
X69905889Y-61785834D01*
X69989438Y-61758921D01*
X70075441Y-61733032D01*
X70190159Y-61722203D01*
X70310913Y-61740537D01*
X70444768Y-61790113D01*
X70598791Y-61873007D01*
X70780047Y-61991296D01*
X70899638Y-62078716D01*
X71074922Y-62218290D01*
X71266445Y-62381256D01*
X71464646Y-62559203D01*
X71659964Y-62743719D01*
X71842838Y-62926391D01*
X71950712Y-63039001D01*
X72039466Y-63136382D01*
X72106382Y-63217989D01*
X72159113Y-63293965D01*
X72205313Y-63374456D01*
X72252634Y-63469605D01*
X72272198Y-63512216D01*
X72330774Y-63655348D01*
X72384403Y-63806548D01*
X72423489Y-63939433D01*
X72423873Y-63940975D01*
X72450280Y-64050186D01*
X72464345Y-64122450D01*
X72466674Y-64169799D01*
X72457876Y-64204266D01*
X72438557Y-64237883D01*
X72421531Y-64259240D01*
X72353979Y-64298642D01*
X72277152Y-64298007D01*
X72209289Y-64255901D01*
X72198410Y-64239943D01*
X72169290Y-64176481D01*
X72136195Y-64084183D01*
X72104384Y-63977028D01*
X72046609Y-63789062D01*
X71966972Y-63603515D01*
X71864176Y-63433995D01*
X71728496Y-63262000D01*
X71711606Y-63242712D01*
X71572887Y-63095255D01*
X71404244Y-62930740D01*
X71216241Y-62758380D01*
X71019442Y-62587389D01*
X70824412Y-62426980D01*
X70641715Y-62286368D01*
X70481913Y-62174765D01*
X70418222Y-62135257D01*
X70292798Y-62073263D01*
X70186691Y-62048708D01*
X70090918Y-62060335D01*
X69996500Y-62106889D01*
X69961315Y-62131169D01*
X69931923Y-62156040D01*
X69939041Y-62159959D01*
X70017202Y-62140068D01*
X70191492Y-62126587D01*
X70355067Y-62155450D01*
X70497574Y-62225444D01*
X70523859Y-62247382D01*
X70594744Y-62338723D01*
X70667977Y-62477105D01*
X70742647Y-62659902D01*
X70817843Y-62884486D01*
X70892655Y-63148232D01*
X70966172Y-63448512D01*
X71037484Y-63782700D01*
X71093886Y-64075149D01*
X71140466Y-64345522D01*
X71173065Y-64580862D01*
X71191551Y-64788324D01*
X71195786Y-64975063D01*
X71185637Y-65148234D01*
X71160968Y-65314991D01*
X71121644Y-65482491D01*
X71067530Y-65657887D01*
X70998492Y-65848335D01*
X70962208Y-65936784D01*
X70910068Y-66033998D01*
X70857904Y-66088376D01*
X70800790Y-66104347D01*
X70733801Y-66086340D01*
X70696959Y-66066081D01*
X70665652Y-66033934D01*
X70651426Y-65988113D01*
X70654782Y-65921980D01*
X70676221Y-65828893D01*
X70716243Y-65702213D01*
X70775349Y-65535300D01*
X70788516Y-65498878D01*
X70817024Y-65415342D01*
X70836522Y-65343737D01*
X70848724Y-65271515D01*
X70855349Y-65186132D01*
X70858110Y-65075042D01*
X70858724Y-64925700D01*
X70857219Y-64775302D01*
X70848496Y-64585943D01*
X70830441Y-64410444D01*
X70801276Y-64227200D01*
X70778370Y-64103828D01*
X70718107Y-63802005D01*
X70655545Y-63518534D01*
X70592107Y-63258759D01*
X70529216Y-63028025D01*
X70468296Y-62831674D01*
X70410771Y-62675051D01*
X70358063Y-62563500D01*
X70314765Y-62498587D01*
X70269655Y-62466213D01*
X70204121Y-62453939D01*
X70168435Y-62454574D01*
X70096796Y-62463976D01*
X70014607Y-62480204D01*
X69937074Y-62499728D01*
X69879403Y-62519018D01*
X69856800Y-62534547D01*
X69866816Y-62546387D01*
X69905882Y-62587997D01*
X69967596Y-62652135D01*
X70044600Y-62731099D01*
X70049609Y-62736216D01*
X70114268Y-62806147D01*
X70146617Y-62841133D01*
X70222357Y-62939131D01*
X70289498Y-63048503D01*
X70360709Y-63187543D01*
X70411175Y-63294375D01*
X70481580Y-63460682D01*
X70529866Y-63608848D01*
X70559760Y-63754443D01*
X70574993Y-63913037D01*
X70576540Y-63980380D01*
X70579292Y-64100200D01*
X70579293Y-64107688D01*
X70578058Y-64245714D01*
X70573348Y-64345868D01*
X70570777Y-64365512D01*
X70563583Y-64420476D01*
X70547181Y-64481863D01*
X70522561Y-64542356D01*
X70420719Y-64733327D01*
X70254517Y-64973100D01*
X70048223Y-65213710D01*
X69807239Y-65450321D01*
X69536965Y-65678098D01*
X69242802Y-65892202D01*
X68930152Y-66087799D01*
X68604415Y-66260050D01*
X68578208Y-66271900D01*
X68355447Y-66372627D01*
X68067481Y-66481188D01*
X67811812Y-66550839D01*
X67588264Y-66581601D01*
X67396659Y-66573496D01*
X67236820Y-66526545D01*
X67108571Y-66440771D01*
X67085012Y-66418184D01*
X67034997Y-66359011D01*
X67008713Y-66295939D01*
X67005020Y-66271900D01*
X67570800Y-66271900D01*
X67583500Y-66284600D01*
X67596200Y-66271900D01*
X67583500Y-66259200D01*
X67570800Y-66271900D01*
X67005020Y-66271900D01*
X66994824Y-66205523D01*
X66992171Y-66086060D01*
X67003843Y-66028546D01*
X67320685Y-66028546D01*
X67339728Y-66023440D01*
X67395551Y-65993434D01*
X67482484Y-65941286D01*
X67594914Y-65870468D01*
X67727226Y-65784447D01*
X67873806Y-65686693D01*
X68003283Y-65600365D01*
X68143377Y-65509428D01*
X68266655Y-65432034D01*
X68366870Y-65372012D01*
X68437774Y-65333191D01*
X68473120Y-65319400D01*
X68540773Y-65341983D01*
X68591962Y-65399325D01*
X68612200Y-65475397D01*
X68610458Y-65496842D01*
X68598623Y-65530857D01*
X68571606Y-65568697D01*
X68524787Y-65614256D01*
X68453544Y-65671429D01*
X68353254Y-65744109D01*
X68219297Y-65836190D01*
X68047050Y-65951567D01*
X68019793Y-65969722D01*
X67893353Y-66054631D01*
X67783973Y-66129202D01*
X67697993Y-66189033D01*
X67641756Y-66229723D01*
X67621600Y-66246871D01*
X67643310Y-66256249D01*
X67699101Y-66255915D01*
X67773293Y-66246844D01*
X67850200Y-66230181D01*
X67955290Y-66198904D01*
X68211349Y-66104640D01*
X68472975Y-65985329D01*
X68734781Y-65845052D01*
X68991381Y-65687890D01*
X69237390Y-65517924D01*
X69467422Y-65339235D01*
X69676090Y-65155903D01*
X69858009Y-64972009D01*
X70007793Y-64791635D01*
X70120056Y-64618861D01*
X70189411Y-64457769D01*
X70200830Y-64418318D01*
X70209906Y-64365512D01*
X70197566Y-64331591D01*
X70160267Y-64297006D01*
X70123209Y-64272125D01*
X70077099Y-64257937D01*
X70009914Y-64254432D01*
X69906990Y-64259435D01*
X69901720Y-64259806D01*
X69688130Y-64293243D01*
X69449832Y-64361902D01*
X69194048Y-64461761D01*
X68928001Y-64588796D01*
X68658916Y-64738981D01*
X68394014Y-64908294D01*
X68140520Y-65092711D01*
X67905655Y-65288208D01*
X67696645Y-65490761D01*
X67603007Y-65594409D01*
X67508145Y-65709437D01*
X67427199Y-65817922D01*
X67365452Y-65912307D01*
X67328186Y-65985034D01*
X67320685Y-66028546D01*
X67003843Y-66028546D01*
X67023014Y-65934077D01*
X67094726Y-65771933D01*
X67212957Y-65585812D01*
X67370299Y-65389886D01*
X67562502Y-65188584D01*
X67785321Y-64986333D01*
X68034507Y-64787561D01*
X68305814Y-64596696D01*
X68369266Y-64555829D01*
X68487033Y-64483534D01*
X68614798Y-64408421D01*
X68741953Y-64336450D01*
X68857889Y-64273582D01*
X68951999Y-64225776D01*
X69013675Y-64198992D01*
X69028642Y-64181292D01*
X69028022Y-64133221D01*
X69027288Y-64130470D01*
X69017767Y-64107640D01*
X69000072Y-64101570D01*
X68965935Y-64115481D01*
X68907087Y-64152598D01*
X68815259Y-64216142D01*
X68751891Y-64258775D01*
X68550552Y-64377975D01*
X68322136Y-64494058D01*
X68083552Y-64598811D01*
X67851711Y-64684026D01*
X67575678Y-64762787D01*
X67238928Y-64835636D01*
X66885770Y-64890957D01*
X66533447Y-64926097D01*
X66199201Y-64938400D01*
X66084139Y-64936769D01*
X65769119Y-64918253D01*
X65440959Y-64881050D01*
X65115444Y-64827596D01*
X64808363Y-64760327D01*
X64535500Y-64681680D01*
X64395577Y-64630683D01*
X64237913Y-64566139D01*
X64076012Y-64494213D01*
X63922927Y-64420927D01*
X63791711Y-64352297D01*
X63695420Y-64294344D01*
X63598260Y-64228322D01*
X63564840Y-64307804D01*
X63561390Y-64316123D01*
X63542323Y-64368101D01*
X63538161Y-64391727D01*
X63542622Y-64393685D01*
X63582852Y-64408928D01*
X63655174Y-64435391D01*
X63748100Y-64468854D01*
X63830959Y-64500384D01*
X64019601Y-64582049D01*
X64227338Y-64682500D01*
X64439612Y-64794231D01*
X64641867Y-64909732D01*
X64819548Y-65021495D01*
X65020348Y-65162650D01*
X65258405Y-65353216D01*
X65452086Y-65538888D01*
X65600568Y-65718456D01*
X65703024Y-65890709D01*
X65758631Y-66054437D01*
X65761680Y-66113632D01*
X65766563Y-66208430D01*
X65725995Y-66351477D01*
X65691678Y-66403798D01*
X65603885Y-66482367D01*
X65487798Y-66546710D01*
X65357273Y-66587940D01*
X65304022Y-66596563D01*
X65118977Y-66603627D01*
X64901814Y-66583797D01*
X64659595Y-66538841D01*
X64399385Y-66470529D01*
X64128245Y-66380629D01*
X63853240Y-66270911D01*
X63581432Y-66143144D01*
X63468865Y-66084476D01*
X63176097Y-65917211D01*
X62912082Y-65744366D01*
X62679297Y-65568495D01*
X62480221Y-65392153D01*
X62317332Y-65217895D01*
X62193109Y-65048275D01*
X62110030Y-64885847D01*
X62070574Y-64733166D01*
X62074373Y-64652900D01*
X62377482Y-64652900D01*
X62377773Y-64684343D01*
X62395343Y-64750659D01*
X62427480Y-64831628D01*
X62472095Y-64913052D01*
X62583985Y-65059797D01*
X62735815Y-65213061D01*
X62921694Y-65369177D01*
X63135730Y-65524480D01*
X63372032Y-65675305D01*
X63624707Y-65817985D01*
X63887866Y-65948856D01*
X64155615Y-66064251D01*
X64422064Y-66160504D01*
X64681321Y-66233951D01*
X64706467Y-66239831D01*
X64815797Y-66262351D01*
X64913165Y-66278058D01*
X64980000Y-66283848D01*
X65068900Y-66283452D01*
X64929200Y-66197402D01*
X64862291Y-66156178D01*
X64748274Y-66085905D01*
X64643388Y-66021234D01*
X64642876Y-66020918D01*
X64534385Y-65943934D01*
X64472964Y-65874179D01*
X64456201Y-65807449D01*
X64481683Y-65739540D01*
X64512198Y-65702335D01*
X64552715Y-65679157D01*
X64605866Y-65676631D01*
X64677461Y-65696432D01*
X64773312Y-65740235D01*
X64899230Y-65809716D01*
X65061026Y-65906550D01*
X65167083Y-65970304D01*
X65278561Y-66034692D01*
X65368856Y-66083918D01*
X65430687Y-66114035D01*
X65456771Y-66121095D01*
X65460812Y-66113632D01*
X65452724Y-66068767D01*
X65416952Y-65998739D01*
X65359182Y-65912326D01*
X65285103Y-65818304D01*
X65200401Y-65725451D01*
X65168066Y-65693231D01*
X64943610Y-65494255D01*
X64688908Y-65304775D01*
X64411800Y-65128487D01*
X64120126Y-64969087D01*
X63821725Y-64830272D01*
X63524436Y-64715739D01*
X63236101Y-64629184D01*
X62964557Y-64574303D01*
X62717644Y-64554793D01*
X62654738Y-64555862D01*
X62516330Y-64570882D01*
X62423518Y-64603341D01*
X62377482Y-64652900D01*
X62074373Y-64652900D01*
X62077218Y-64592786D01*
X62089732Y-64487300D01*
X62082046Y-64372975D01*
X62078272Y-64351849D01*
X62063358Y-64199472D01*
X62063067Y-64156285D01*
X62364300Y-64156285D01*
X62369929Y-64227816D01*
X62382850Y-64260820D01*
X62406702Y-64263620D01*
X62468955Y-64260598D01*
X62552269Y-64251224D01*
X62650194Y-64243913D01*
X62776076Y-64244177D01*
X62896930Y-64252569D01*
X62906687Y-64253693D01*
X63010424Y-64266942D01*
X63100836Y-64280579D01*
X63159320Y-64291819D01*
X63179035Y-64296149D01*
X63215695Y-64293921D01*
X63244236Y-64264699D01*
X63277651Y-64198205D01*
X63292522Y-64163717D01*
X63317866Y-64094249D01*
X63327890Y-64049400D01*
X63327854Y-64048459D01*
X63309400Y-64011349D01*
X63263631Y-63952532D01*
X63200066Y-63884300D01*
X63180157Y-63864217D01*
X62994937Y-63640570D01*
X62854901Y-63396083D01*
X62761691Y-63133565D01*
X62726988Y-62997965D01*
X62649622Y-63104766D01*
X62610602Y-63164076D01*
X62528574Y-63326231D01*
X62457789Y-63518339D01*
X62403910Y-63726077D01*
X62386570Y-63827301D01*
X62373080Y-63944351D01*
X62365504Y-64057904D01*
X62364300Y-64156285D01*
X62063067Y-64156285D01*
X62062163Y-64022324D01*
X62074187Y-63841010D01*
X62098931Y-63676140D01*
X62155642Y-63450025D01*
X62258911Y-63175099D01*
X62392951Y-62937771D01*
X62506261Y-62799755D01*
X63022654Y-62799755D01*
X63046704Y-63023012D01*
X63118877Y-63242943D01*
X63238164Y-63456892D01*
X63403556Y-63662204D01*
X63614044Y-63856221D01*
X63651663Y-63885898D01*
X63894729Y-64049400D01*
X63932734Y-64074965D01*
X64253943Y-64240157D01*
X64610167Y-64379429D01*
X64996285Y-64490736D01*
X65407174Y-64572035D01*
X65475327Y-64580909D01*
X65602142Y-64592835D01*
X65754361Y-64603570D01*
X65921121Y-64612685D01*
X66091561Y-64619751D01*
X66254821Y-64624337D01*
X66400038Y-64626016D01*
X66516352Y-64624356D01*
X66592900Y-64618929D01*
X66613145Y-64616204D01*
X66689033Y-64606635D01*
X66792093Y-64594146D01*
X66906038Y-64580724D01*
X67076080Y-64556336D01*
X67349119Y-64501919D01*
X67623933Y-64431099D01*
X67875600Y-64349813D01*
X68060405Y-64277590D01*
X68393539Y-64117823D01*
X68680733Y-63936604D01*
X68784544Y-63849398D01*
X69243491Y-63849398D01*
X69289796Y-63962003D01*
X69305946Y-63999367D01*
X69332696Y-64052403D01*
X69348800Y-64072168D01*
X69372792Y-64065159D01*
X69432767Y-64046296D01*
X69513900Y-64020152D01*
X69641212Y-63987788D01*
X69788516Y-63964888D01*
X69937337Y-63953329D01*
X70071010Y-63954394D01*
X70172872Y-63969369D01*
X70195915Y-63975377D01*
X70255385Y-63986598D01*
X70284972Y-63985295D01*
X70287481Y-63980380D01*
X70285996Y-63935682D01*
X70270134Y-63856984D01*
X70243046Y-63754778D01*
X70207881Y-63639553D01*
X70167790Y-63521802D01*
X70125921Y-63412014D01*
X70085425Y-63320680D01*
X70064858Y-63281247D01*
X70005498Y-63182017D01*
X69936024Y-63080061D01*
X69863680Y-62984639D01*
X69795708Y-62905014D01*
X69739351Y-62850447D01*
X69701852Y-62830200D01*
X69686080Y-62849902D01*
X69679000Y-62901063D01*
X69677679Y-62936132D01*
X69653202Y-63080229D01*
X69602136Y-63244509D01*
X69530110Y-63415136D01*
X69442756Y-63578275D01*
X69345703Y-63720090D01*
X69243491Y-63849398D01*
X68784544Y-63849398D01*
X68922101Y-63733843D01*
X69117756Y-63509454D01*
X69267811Y-63263347D01*
X69283527Y-63231445D01*
X69320370Y-63151645D01*
X69343300Y-63085270D01*
X69355605Y-63016265D01*
X69360575Y-62928575D01*
X69361500Y-62806147D01*
X69361186Y-62741999D01*
X69357414Y-62628756D01*
X69347511Y-62543982D01*
X69329163Y-62472317D01*
X69300056Y-62398400D01*
X69266650Y-62329722D01*
X69196417Y-62207635D01*
X69114573Y-62083573D01*
X69031976Y-61973617D01*
X68959481Y-61893853D01*
X68894861Y-61833807D01*
X68720865Y-62010236D01*
X68698611Y-62032460D01*
X68535477Y-62172891D01*
X68370519Y-62273483D01*
X68285519Y-62313584D01*
X68216388Y-62339102D01*
X68146904Y-62353136D01*
X68060256Y-62359073D01*
X67939635Y-62360300D01*
X67845141Y-62359574D01*
X67749410Y-62354783D01*
X67676247Y-62342906D01*
X67609420Y-62320980D01*
X67532700Y-62286046D01*
X67413395Y-62213364D01*
X67275487Y-62101738D01*
X67139914Y-61967513D01*
X67018927Y-61822900D01*
X66924774Y-61680108D01*
X66874830Y-61580404D01*
X66805721Y-61416027D01*
X66735153Y-61221433D01*
X66667388Y-61007749D01*
X66666828Y-61006322D01*
X66646783Y-60994443D01*
X66596603Y-60985833D01*
X66511131Y-60980129D01*
X66385209Y-60976972D01*
X66213677Y-60975999D01*
X65769359Y-60976000D01*
X65742109Y-61083950D01*
X65696881Y-61245866D01*
X65590711Y-61534477D01*
X65462317Y-61784269D01*
X65313237Y-61992898D01*
X65145008Y-62158022D01*
X64959165Y-62277300D01*
X64865518Y-62320267D01*
X64785685Y-62345856D01*
X64700309Y-62357518D01*
X64586835Y-62360279D01*
X64510574Y-62359124D01*
X64410864Y-62350230D01*
X64326110Y-62328815D01*
X64234095Y-62290481D01*
X64138183Y-62234287D01*
X64016995Y-62140754D01*
X63897833Y-62029293D01*
X63795119Y-61913547D01*
X63723274Y-61807163D01*
X63710338Y-61783622D01*
X63678542Y-61732841D01*
X63659338Y-61712600D01*
X63658943Y-61712638D01*
X63632885Y-61729534D01*
X63580399Y-61771255D01*
X63512389Y-61829154D01*
X63441839Y-61895734D01*
X63293719Y-62069297D01*
X63169775Y-62261780D01*
X63082018Y-62455697D01*
X63047736Y-62575827D01*
X63022654Y-62799755D01*
X62506261Y-62799755D01*
X62558994Y-62735524D01*
X62571260Y-62722974D01*
X62628994Y-62661405D01*
X62665487Y-62618137D01*
X62673294Y-62601874D01*
X62640262Y-62607715D01*
X62569822Y-62627850D01*
X62483731Y-62656693D01*
X62399503Y-62688305D01*
X62334653Y-62716745D01*
X62328779Y-62719743D01*
X62199588Y-62809201D01*
X62094597Y-62934127D01*
X62007959Y-63101406D01*
X61999299Y-63122570D01*
X61932358Y-63310276D01*
X61869417Y-63526801D01*
X61812497Y-63761251D01*
X61763619Y-64002731D01*
X61724804Y-64240344D01*
X61698073Y-64463195D01*
X61685448Y-64660389D01*
X61688950Y-64821032D01*
X61696258Y-64883514D01*
X61740097Y-65087072D01*
X61817835Y-65323236D01*
X61929943Y-65593312D01*
X62076891Y-65898604D01*
X62126539Y-65997231D01*
X62198640Y-66147375D01*
X62247708Y-66262918D01*
X62275445Y-66349842D01*
X62283552Y-66414125D01*
X62273732Y-66461746D01*
X62247686Y-66498685D01*
X62234301Y-66509982D01*
X62165121Y-66535524D01*
X62088871Y-66530080D01*
X62029588Y-66494150D01*
X62001606Y-66452043D01*
X61955012Y-66368539D01*
X61895968Y-66254580D01*
X61828509Y-66118680D01*
X61756669Y-65969355D01*
X61684483Y-65815121D01*
X61615986Y-65664493D01*
X61555213Y-65525986D01*
X61506199Y-65408117D01*
X61472977Y-65319400D01*
X61462618Y-65287544D01*
X61402865Y-65033288D01*
X61375813Y-64752738D01*
X61381496Y-64442778D01*
X61419950Y-64100293D01*
X61491211Y-63722167D01*
X61516665Y-63614603D01*
X61564677Y-63436470D01*
X61619498Y-63255292D01*
X61676849Y-63084265D01*
X61732450Y-62936587D01*
X61782021Y-62825455D01*
X61856738Y-62703350D01*
X61971221Y-62579011D01*
X62119637Y-62474210D01*
X62310260Y-62382000D01*
X62452700Y-62323405D01*
X62349257Y-62322802D01*
X62268251Y-62334999D01*
X62149468Y-62374680D01*
X62008769Y-62436967D01*
X61855250Y-62516793D01*
X61698007Y-62609090D01*
X61546136Y-62708790D01*
X61408734Y-62810828D01*
X61294897Y-62910136D01*
X61209925Y-62998478D01*
X61123179Y-63106971D01*
X61050441Y-63224577D01*
X60989810Y-63357250D01*
X60939385Y-63510944D01*
X60897265Y-63691614D01*
X60861549Y-63905216D01*
X60830337Y-64157703D01*
X60801727Y-64455031D01*
X60799326Y-64482604D01*
X60779131Y-64706397D01*
X60760937Y-64885077D01*
X60743400Y-65023660D01*
X60725174Y-65127162D01*
X60704913Y-65200599D01*
X60681270Y-65248985D01*
X60652900Y-65277337D01*
X60618457Y-65290670D01*
X60576596Y-65294000D01*
X60565291Y-65293601D01*
X60493991Y-65265948D01*
X60449079Y-65197754D01*
X60433545Y-65093213D01*
X60433682Y-65077129D01*
X60438185Y-64964168D01*
X60448232Y-64814274D01*
X60462718Y-64638743D01*
X60480535Y-64448870D01*
X60500577Y-64255950D01*
X60521738Y-64071277D01*
X60542911Y-63906146D01*
X60562990Y-63771853D01*
X60598584Y-63582174D01*
X60657173Y-63353703D01*
X60730405Y-63158577D01*
X60823000Y-62986872D01*
X60939678Y-62828664D01*
X61085160Y-62674029D01*
X61119763Y-62641728D01*
X61264927Y-62522517D01*
X61437649Y-62399753D01*
X61625117Y-62281214D01*
X61814522Y-62174679D01*
X61993053Y-62087927D01*
X62147900Y-62028735D01*
X62249500Y-61997377D01*
X62177997Y-61969288D01*
X62142169Y-61958049D01*
X62016492Y-61945536D01*
X61860939Y-61959870D01*
X61684132Y-61999307D01*
X61494695Y-62062106D01*
X61301251Y-62146522D01*
X61274313Y-62160027D01*
X61157629Y-62226106D01*
X61048918Y-62302691D01*
X60943787Y-62394767D01*
X60837842Y-62507320D01*
X60726687Y-62645334D01*
X60605929Y-62813795D01*
X60471174Y-63017688D01*
X60318027Y-63262000D01*
X60276054Y-63329602D01*
X60209342Y-63431997D01*
X60157975Y-63500150D01*
X60115694Y-63540745D01*
X60076238Y-63560464D01*
X60033350Y-63565992D01*
X60013702Y-63564124D01*
X59948904Y-63533926D01*
X59896296Y-63480092D01*
X59874600Y-63419854D01*
X59880812Y-63397591D01*
X59911119Y-63334172D01*
X59962513Y-63241184D01*
X60030383Y-63125991D01*
X60110118Y-62995957D01*
X60197105Y-62858444D01*
X60286732Y-62720816D01*
X60374388Y-62590435D01*
X60455462Y-62474667D01*
X60525340Y-62380872D01*
X60598288Y-62292031D01*
X60776780Y-62112386D01*
X60977194Y-61963773D01*
X61213592Y-61835042D01*
X61407919Y-61753300D01*
X61661360Y-61677611D01*
X61902669Y-61640837D01*
X62126004Y-61643754D01*
X62325526Y-61687139D01*
X62387872Y-61710782D01*
X62536614Y-61779069D01*
X62699877Y-61866893D01*
X62861101Y-61965645D01*
X62939301Y-62016880D01*
X63070660Y-61852958D01*
X63156130Y-61754851D01*
X63261511Y-61646912D01*
X63360759Y-61556373D01*
X63383413Y-61537135D01*
X63452162Y-61474423D01*
X63499449Y-61424475D01*
X63516115Y-61396705D01*
X63515046Y-61390621D01*
X63503957Y-61342934D01*
X63483927Y-61263725D01*
X63458345Y-61166500D01*
X63404681Y-60922905D01*
X63367324Y-60615616D01*
X63361060Y-60308379D01*
X63361153Y-60307171D01*
X63671611Y-60307171D01*
X63677524Y-60586661D01*
X63709050Y-60858549D01*
X63764650Y-61116982D01*
X63842788Y-61356105D01*
X63941925Y-61570064D01*
X64060524Y-61753004D01*
X64197047Y-61899072D01*
X64349956Y-62002412D01*
X64386638Y-62019587D01*
X64531725Y-62062042D01*
X64671585Y-62057250D01*
X64816894Y-62005278D01*
X64926452Y-61937745D01*
X65071692Y-61802587D01*
X65198470Y-61629181D01*
X65305416Y-61423408D01*
X65391161Y-61191150D01*
X65454335Y-60938289D01*
X65493570Y-60670707D01*
X65507495Y-60394284D01*
X65494741Y-60114904D01*
X65453939Y-59838447D01*
X65383720Y-59570795D01*
X65361219Y-59504584D01*
X65260379Y-59262892D01*
X65144091Y-59066543D01*
X65010272Y-58912478D01*
X64856838Y-58797640D01*
X64731822Y-58744583D01*
X64577170Y-58725796D01*
X64421332Y-58752359D01*
X64272327Y-58822733D01*
X64138174Y-58935383D01*
X64030276Y-59072586D01*
X63918465Y-59264495D01*
X63823062Y-59483935D01*
X63750113Y-59718700D01*
X63742773Y-59748806D01*
X63692848Y-60025935D01*
X63671611Y-60307171D01*
X63361153Y-60307171D01*
X63384330Y-60006506D01*
X63435579Y-59715307D01*
X63513249Y-59440091D01*
X63615781Y-59186169D01*
X63741620Y-58958850D01*
X63889208Y-58763445D01*
X64056987Y-58605263D01*
X64243400Y-58489616D01*
X64292055Y-58467870D01*
X64375570Y-58440370D01*
X64466684Y-58426900D01*
X64586835Y-58423320D01*
X64697574Y-58425903D01*
X64783438Y-58437242D01*
X64863117Y-58462365D01*
X64959165Y-58506299D01*
X64970289Y-58511872D01*
X65150885Y-58631239D01*
X65314569Y-58794093D01*
X65459136Y-58995551D01*
X65582384Y-59230724D01*
X65682107Y-59494727D01*
X65756103Y-59782673D01*
X65802168Y-60089676D01*
X65817276Y-60394284D01*
X65818098Y-60410850D01*
G37*
D12*
%TO.C,J3*%
X73870000Y-23480000D02*
X73870000Y-71850000D01*
X76630000Y-20830000D02*
X75250000Y-20830000D01*
X76630000Y-22210000D02*
X76630000Y-20830000D01*
X76630000Y-23480000D02*
X73870000Y-23480000D01*
X76630000Y-23480000D02*
X76630000Y-71850000D01*
X76630000Y-71850000D02*
X73870000Y-71850000D01*
D13*
%TO.C,G\u002A\u002A\u002A*%
G36*
X61172850Y-33122987D02*
G01*
X61214801Y-33142077D01*
X61259006Y-33179252D01*
X61257988Y-33226278D01*
X61214353Y-33293877D01*
X61158941Y-33343952D01*
X61093703Y-33354452D01*
X61079103Y-33351931D01*
X61029992Y-33319133D01*
X61018190Y-33254616D01*
X61044495Y-33161512D01*
X61077600Y-33084341D01*
X61172850Y-33122987D01*
G37*
G36*
X61220644Y-27839452D02*
G01*
X61231448Y-27899853D01*
X61239694Y-27978372D01*
X61240141Y-27997008D01*
X61234074Y-28025157D01*
X61209627Y-28042208D01*
X61156059Y-28053339D01*
X61062626Y-28063728D01*
X60988367Y-28069966D01*
X60900992Y-28070168D01*
X60860867Y-28055438D01*
X60867378Y-28023518D01*
X60919911Y-27972154D01*
X61017854Y-27899087D01*
X61204600Y-27767805D01*
X61220644Y-27839452D01*
G37*
G36*
X61497348Y-33213395D02*
G01*
X61579250Y-33233735D01*
X61636011Y-33254182D01*
X61668219Y-33286660D01*
X61661040Y-33336318D01*
X61616477Y-33412793D01*
X61607661Y-33425325D01*
X61540470Y-33489766D01*
X61474586Y-33510610D01*
X61418761Y-33493541D01*
X61381749Y-33444243D01*
X61372303Y-33368400D01*
X61399177Y-33271695D01*
X61420370Y-33232492D01*
X61449219Y-33211962D01*
X61497348Y-33213395D01*
G37*
G36*
X60318287Y-20888234D02*
G01*
X60352308Y-20892440D01*
X60382673Y-20907039D01*
X60415574Y-20938520D01*
X60457203Y-20993372D01*
X60513752Y-21078086D01*
X60591411Y-21199150D01*
X60668166Y-21324200D01*
X60786213Y-21530730D01*
X60910776Y-21762381D01*
X61035225Y-22006078D01*
X61152932Y-22248746D01*
X61257266Y-22477312D01*
X61341599Y-22678700D01*
X61351061Y-22702925D01*
X61422409Y-22893706D01*
X61504094Y-23124466D01*
X61593388Y-23387355D01*
X61687563Y-23674526D01*
X61693411Y-23677498D01*
X61727805Y-23659878D01*
X61785216Y-23614504D01*
X61857421Y-23547526D01*
X61869355Y-23535939D01*
X62049373Y-23391636D01*
X62278025Y-23256803D01*
X62555659Y-23131283D01*
X62882623Y-23014917D01*
X63259265Y-22907544D01*
X63322582Y-22891647D01*
X63668962Y-22817115D01*
X63990439Y-22769393D01*
X64231486Y-22752188D01*
X64283946Y-22748444D01*
X64546418Y-22754226D01*
X64774791Y-22786701D01*
X64965999Y-22845830D01*
X65116977Y-22931571D01*
X65205100Y-22998785D01*
X65205100Y-22930902D01*
X65203303Y-22898103D01*
X65195312Y-22818176D01*
X65182393Y-22711833D01*
X65166156Y-22593059D01*
X65154629Y-22516963D01*
X65089606Y-22177431D01*
X65006052Y-21855838D01*
X64906606Y-21560242D01*
X64793905Y-21298699D01*
X64670587Y-21079269D01*
X64545725Y-20888000D01*
X64645596Y-20888000D01*
X64670362Y-20888293D01*
X64716098Y-20894609D01*
X64751480Y-20916568D01*
X64788193Y-20963754D01*
X64837920Y-21045748D01*
X64931607Y-21222374D01*
X65051623Y-21503655D01*
X65156931Y-21816880D01*
X65244530Y-22151608D01*
X65311419Y-22497395D01*
X65354596Y-22843800D01*
X65359046Y-22894450D01*
X65371971Y-23052434D01*
X65378631Y-23171978D01*
X65378027Y-23262616D01*
X65369158Y-23333879D01*
X65351025Y-23395300D01*
X65322627Y-23456412D01*
X65282965Y-23526748D01*
X65265128Y-23556454D01*
X65155464Y-23707934D01*
X65018529Y-23847009D01*
X64843150Y-23985331D01*
X64790016Y-24023597D01*
X64741293Y-24059392D01*
X64722500Y-24074233D01*
X64724816Y-24074793D01*
X64759536Y-24076264D01*
X64822668Y-24076854D01*
X64841138Y-24077474D01*
X64945349Y-24108172D01*
X65027370Y-24181899D01*
X65081876Y-24294189D01*
X65092406Y-24390866D01*
X65060956Y-24500943D01*
X64986236Y-24601220D01*
X64872217Y-24684308D01*
X64829319Y-24706725D01*
X64755607Y-24735994D01*
X64681078Y-24746764D01*
X64581087Y-24744096D01*
X64527223Y-24739417D01*
X64420481Y-24717479D01*
X64343075Y-24677781D01*
X64331929Y-24669703D01*
X64279153Y-24635850D01*
X64247278Y-24622455D01*
X64241021Y-24625558D01*
X64214482Y-24659994D01*
X64182529Y-24720138D01*
X64138905Y-24787973D01*
X64043561Y-24868797D01*
X63921923Y-24924201D01*
X63786205Y-24950788D01*
X63648616Y-24945166D01*
X63521370Y-24903938D01*
X63498094Y-24892814D01*
X63446783Y-24875956D01*
X63427100Y-24883218D01*
X63424947Y-24895493D01*
X63406688Y-24947190D01*
X63375876Y-25016374D01*
X63354808Y-25053327D01*
X63266233Y-25146899D01*
X63147650Y-25214501D01*
X63011287Y-25252209D01*
X62869372Y-25256102D01*
X62734134Y-25222256D01*
X62636999Y-25163743D01*
X62538643Y-25067620D01*
X62470703Y-24958350D01*
X62466494Y-24948878D01*
X62434302Y-24896924D01*
X62404409Y-24875663D01*
X62398305Y-24876373D01*
X62350710Y-24889902D01*
X62273364Y-24917087D01*
X62179689Y-24953291D01*
X61986379Y-25031056D01*
X61971109Y-25194571D01*
X61966328Y-25262407D01*
X61967983Y-25497131D01*
X61993813Y-25776111D01*
X62043761Y-26099058D01*
X62117770Y-26465685D01*
X62215786Y-26875704D01*
X62219594Y-26889851D01*
X62337751Y-27328827D01*
X62483610Y-27824765D01*
X62539315Y-28008780D01*
X62648417Y-28380309D01*
X62740904Y-28714517D01*
X62818013Y-29018283D01*
X62880980Y-29298488D01*
X62931043Y-29562011D01*
X62969439Y-29815733D01*
X62997403Y-30066532D01*
X63016174Y-30321290D01*
X63026987Y-30586886D01*
X63031079Y-30870200D01*
X63031353Y-30952787D01*
X63031086Y-31141236D01*
X63028360Y-31292716D01*
X63021896Y-31417274D01*
X63010413Y-31524954D01*
X62992632Y-31625801D01*
X62967275Y-31729861D01*
X62933059Y-31847179D01*
X62888708Y-31987800D01*
X62793997Y-32251243D01*
X62633214Y-32615529D01*
X62432770Y-32998602D01*
X62195026Y-33396559D01*
X61922348Y-33805498D01*
X61617099Y-34221515D01*
X61281644Y-34640710D01*
X61199167Y-34738270D01*
X61105655Y-34845841D01*
X61020199Y-34941144D01*
X60948921Y-35017496D01*
X60897941Y-35068209D01*
X60873382Y-35086600D01*
X60873136Y-35086494D01*
X60869523Y-35059380D01*
X60866383Y-34989773D01*
X60863907Y-34885472D01*
X60862283Y-34754281D01*
X60861700Y-34604000D01*
X60861698Y-34596913D01*
X60860623Y-34415654D01*
X60857376Y-34281251D01*
X60851728Y-34189926D01*
X60843448Y-34137902D01*
X60832306Y-34121400D01*
X60804428Y-34131354D01*
X60738370Y-34161563D01*
X60642351Y-34208319D01*
X60524066Y-34267872D01*
X60391210Y-34336470D01*
X60264556Y-34401626D01*
X60148233Y-34459438D01*
X60054785Y-34503711D01*
X59991525Y-34530986D01*
X59965768Y-34537801D01*
X59964835Y-34534419D01*
X59976314Y-34497921D01*
X60007425Y-34432349D01*
X60052923Y-34349061D01*
X60079316Y-34302509D01*
X60238730Y-33987911D01*
X60388115Y-33637040D01*
X60495799Y-33338535D01*
X60836320Y-33338535D01*
X60836734Y-33350466D01*
X60864351Y-33428742D01*
X60927852Y-33482865D01*
X61016873Y-33507112D01*
X61121049Y-33495760D01*
X61128884Y-33493574D01*
X61180639Y-33486580D01*
X61224287Y-33504291D01*
X61279894Y-33554074D01*
X61330995Y-33597552D01*
X61431750Y-33647535D01*
X61531565Y-33656304D01*
X61619632Y-33621707D01*
X61652672Y-33590471D01*
X61707168Y-33519733D01*
X61757050Y-33436098D01*
X61785356Y-33373922D01*
X61815114Y-33287108D01*
X61826496Y-33221495D01*
X61826092Y-33143500D01*
X61433675Y-33033507D01*
X61347965Y-33010099D01*
X61222296Y-32978179D01*
X61118528Y-32954771D01*
X61045600Y-32941831D01*
X61012453Y-32941317D01*
X60991018Y-32964443D01*
X60953529Y-33026756D01*
X60912492Y-33110708D01*
X60874730Y-33200912D01*
X60847065Y-33281984D01*
X60836320Y-33338535D01*
X60495799Y-33338535D01*
X60523348Y-33262167D01*
X60640308Y-32875568D01*
X60691252Y-32667588D01*
X61095200Y-32667588D01*
X61121536Y-32711788D01*
X61198605Y-32760191D01*
X61324251Y-32803171D01*
X61497372Y-32840255D01*
X61695828Y-32863596D01*
X61854298Y-32857720D01*
X61973608Y-32822371D01*
X62055001Y-32757364D01*
X62087496Y-32698459D01*
X62103358Y-32595467D01*
X62083304Y-32486690D01*
X62030662Y-32386207D01*
X61948762Y-32308097D01*
X61919451Y-32292613D01*
X61840791Y-32261822D01*
X61736066Y-32227929D01*
X61617634Y-32194181D01*
X61497854Y-32163825D01*
X61389085Y-32140108D01*
X61303685Y-32126277D01*
X61254014Y-32125578D01*
X61214305Y-32144270D01*
X61191900Y-32192779D01*
X61193718Y-32208382D01*
X61212093Y-32238797D01*
X61255364Y-32267387D01*
X61329802Y-32296884D01*
X61441677Y-32330023D01*
X61597258Y-32369539D01*
X61658555Y-32385328D01*
X61801590Y-32432806D01*
X61894349Y-32483238D01*
X61937168Y-32536852D01*
X61930386Y-32593874D01*
X61894775Y-32629454D01*
X61833156Y-32655838D01*
X61820132Y-32657799D01*
X61742348Y-32659381D01*
X61634759Y-32652357D01*
X61513213Y-32638452D01*
X61393557Y-32619391D01*
X61291639Y-32596899D01*
X61232777Y-32586396D01*
X61156429Y-32591904D01*
X61106965Y-32620265D01*
X61095200Y-32667588D01*
X60691252Y-32667588D01*
X60734871Y-32489515D01*
X60802915Y-32116282D01*
X60808372Y-32077185D01*
X60831349Y-31844247D01*
X60843634Y-31584534D01*
X60843759Y-31564929D01*
X61300276Y-31564929D01*
X61345260Y-31607313D01*
X61375808Y-31620208D01*
X61462192Y-31644770D01*
X61575534Y-31668583D01*
X61700541Y-31688969D01*
X61821922Y-31703250D01*
X61924384Y-31708746D01*
X62011615Y-31710231D01*
X62099422Y-31718554D01*
X62151374Y-31737662D01*
X62176168Y-31771427D01*
X62182500Y-31823724D01*
X62181109Y-31855019D01*
X62170408Y-31943475D01*
X62152603Y-32037245D01*
X62138146Y-32110948D01*
X62137014Y-32165513D01*
X62153302Y-32197362D01*
X62184074Y-32214561D01*
X62229097Y-32197583D01*
X62273472Y-32135313D01*
X62314203Y-32030855D01*
X62320366Y-32010112D01*
X62351301Y-31886206D01*
X62371405Y-31769947D01*
X62379722Y-31671583D01*
X62375299Y-31601365D01*
X62357180Y-31569539D01*
X62348646Y-31567150D01*
X62294699Y-31557327D01*
X62209181Y-31545107D01*
X62106300Y-31532582D01*
X62087573Y-31530464D01*
X61949406Y-31514132D01*
X61795669Y-31495052D01*
X61656293Y-31476924D01*
X61576725Y-31467020D01*
X61475117Y-31458866D01*
X61405791Y-31461483D01*
X61357843Y-31474793D01*
X61353366Y-31476898D01*
X61303280Y-31518281D01*
X61300276Y-31564929D01*
X60843759Y-31564929D01*
X60845369Y-31313364D01*
X60837330Y-31065566D01*
X61348347Y-31065566D01*
X61365914Y-31116584D01*
X61415413Y-31173821D01*
X61443040Y-31198815D01*
X61475117Y-31217954D01*
X61512005Y-31239964D01*
X61569484Y-31248863D01*
X61606637Y-31228662D01*
X61614625Y-31182508D01*
X61584608Y-31113552D01*
X61561421Y-31074225D01*
X61556376Y-31034801D01*
X61581779Y-30986766D01*
X61588019Y-30977897D01*
X61662331Y-30917854D01*
X61767878Y-30883827D01*
X61893104Y-30876636D01*
X62026458Y-30897099D01*
X62156386Y-30946035D01*
X62189105Y-30964223D01*
X62264060Y-31029664D01*
X62292654Y-31109686D01*
X62278049Y-31211181D01*
X62271147Y-31235201D01*
X62262818Y-31296444D01*
X62279515Y-31332975D01*
X62312827Y-31348412D01*
X62373081Y-31340234D01*
X62434705Y-31305276D01*
X62480035Y-31250778D01*
X62487838Y-31231776D01*
X62505214Y-31155999D01*
X62512325Y-31068998D01*
X62498256Y-30968906D01*
X62440513Y-30865105D01*
X62338751Y-30785383D01*
X62193608Y-30730206D01*
X62005727Y-30700040D01*
X61926772Y-30695904D01*
X61749527Y-30706818D01*
X61598054Y-30745456D01*
X61477826Y-30809284D01*
X61394313Y-30895767D01*
X61352987Y-31002371D01*
X61348347Y-31065566D01*
X60837330Y-31065566D01*
X60836697Y-31046053D01*
X60817759Y-30797918D01*
X60788698Y-30584276D01*
X60773528Y-30501255D01*
X60728898Y-30283630D01*
X60679134Y-30085075D01*
X60620128Y-29893010D01*
X60547773Y-29694853D01*
X60475079Y-29519346D01*
X60995857Y-29519346D01*
X61005254Y-29567512D01*
X61012453Y-29575382D01*
X61054398Y-29621234D01*
X61088868Y-29648578D01*
X61125556Y-29666757D01*
X61173924Y-29674742D01*
X61246954Y-29674543D01*
X61254014Y-29674136D01*
X61357631Y-29668169D01*
X61588655Y-29652994D01*
X61488857Y-29759947D01*
X61390619Y-29872063D01*
X61318581Y-29971895D01*
X61284739Y-30045860D01*
X61290403Y-30091769D01*
X61334543Y-30116798D01*
X61401649Y-30104137D01*
X61491656Y-30050235D01*
X61606616Y-29954200D01*
X61696794Y-29876642D01*
X61760959Y-29834053D01*
X61793810Y-29831270D01*
X61839346Y-29858431D01*
X61919937Y-29890711D01*
X61926772Y-29892943D01*
X62020627Y-29923596D01*
X62126502Y-29952619D01*
X62222648Y-29973310D01*
X62294153Y-29981200D01*
X62317728Y-29980491D01*
X62388196Y-29969924D01*
X62431420Y-29950720D01*
X62457385Y-29902212D01*
X62454885Y-29832348D01*
X62417450Y-29771588D01*
X62395586Y-29758940D01*
X62327804Y-29734620D01*
X62231219Y-29708658D01*
X62119000Y-29684880D01*
X62048373Y-29671429D01*
X61955400Y-29650997D01*
X61899512Y-29632813D01*
X61872211Y-29613724D01*
X61865000Y-29590573D01*
X61865005Y-29589900D01*
X61891069Y-29544447D01*
X61967708Y-29501894D01*
X62086396Y-29443323D01*
X62185843Y-29372229D01*
X62255448Y-29297073D01*
X62289080Y-29224528D01*
X62280612Y-29161265D01*
X62264160Y-29139132D01*
X62219594Y-29120671D01*
X62152454Y-29135476D01*
X62055500Y-29184288D01*
X61924723Y-29251813D01*
X61660535Y-29347369D01*
X61382400Y-29399109D01*
X61272807Y-29410663D01*
X61160975Y-29424821D01*
X61085798Y-29439116D01*
X61039187Y-29455788D01*
X61013050Y-29477077D01*
X60999296Y-29505226D01*
X60995857Y-29519346D01*
X60475079Y-29519346D01*
X60457963Y-29478022D01*
X60346589Y-29229935D01*
X60283110Y-29090101D01*
X60220279Y-28940952D01*
X60785833Y-28940952D01*
X60800024Y-29052389D01*
X60861379Y-29146587D01*
X60887351Y-29170936D01*
X60949588Y-29208997D01*
X61017567Y-29214483D01*
X61064414Y-29205619D01*
X61120185Y-29171942D01*
X61131707Y-29121294D01*
X61095800Y-29059954D01*
X61079037Y-29041030D01*
X61044430Y-28977494D01*
X61056192Y-28918969D01*
X61115303Y-28855131D01*
X61179414Y-28809290D01*
X61322827Y-28740179D01*
X61486736Y-28693407D01*
X61652711Y-28675144D01*
X61663606Y-28675054D01*
X61782354Y-28683154D01*
X61862750Y-28712610D01*
X61914266Y-28769362D01*
X61946376Y-28859353D01*
X61966567Y-28914862D01*
X62011009Y-28958296D01*
X62067146Y-28953685D01*
X62128768Y-28899657D01*
X62169487Y-28829620D01*
X62177509Y-28746855D01*
X62146396Y-28645545D01*
X62132437Y-28617091D01*
X62049975Y-28518215D01*
X61929681Y-28450704D01*
X61774056Y-28415591D01*
X61585600Y-28413907D01*
X61484016Y-28426298D01*
X61311491Y-28467667D01*
X61149626Y-28530128D01*
X61008455Y-28608647D01*
X60898009Y-28698194D01*
X60828321Y-28793736D01*
X60819005Y-28814404D01*
X60785833Y-28940952D01*
X60220279Y-28940952D01*
X60098476Y-28651817D01*
X59948003Y-28239132D01*
X59912004Y-28119624D01*
X60487444Y-28119624D01*
X60519592Y-28169065D01*
X60596935Y-28215116D01*
X60630344Y-28227731D01*
X60737863Y-28247636D01*
X60877492Y-28254805D01*
X61038874Y-28250518D01*
X61211654Y-28236056D01*
X61385475Y-28212700D01*
X61549981Y-28181731D01*
X61585600Y-28172557D01*
X61694816Y-28144429D01*
X61809624Y-28102074D01*
X61884050Y-28055948D01*
X61918406Y-28016333D01*
X61949050Y-27949631D01*
X61947509Y-27891380D01*
X61911883Y-27855282D01*
X61894386Y-27852007D01*
X61831418Y-27855626D01*
X61753133Y-27872136D01*
X61658825Y-27897292D01*
X61590550Y-27907640D01*
X61551565Y-27895961D01*
X61531799Y-27858806D01*
X61521185Y-27792729D01*
X61520841Y-27789739D01*
X61515472Y-27722179D01*
X61524782Y-27678024D01*
X61557607Y-27639561D01*
X61622785Y-27589076D01*
X61624398Y-27587881D01*
X61694084Y-27529924D01*
X61728664Y-27481240D01*
X61738000Y-27428047D01*
X61736499Y-27395196D01*
X61719906Y-27360598D01*
X61674403Y-27352815D01*
X61654939Y-27357452D01*
X61591692Y-27383075D01*
X61495576Y-27428070D01*
X61373644Y-27488971D01*
X61232951Y-27562310D01*
X61080555Y-27644621D01*
X60947976Y-27717859D01*
X60804043Y-27799058D01*
X60695806Y-27862979D01*
X60617869Y-27913150D01*
X60564836Y-27953099D01*
X60531310Y-27986356D01*
X60511897Y-28016447D01*
X60495548Y-28055243D01*
X60487444Y-28119624D01*
X59912004Y-28119624D01*
X59829334Y-27845185D01*
X59740116Y-27463111D01*
X59719880Y-27353218D01*
X59701726Y-27224323D01*
X59690112Y-27089574D01*
X59683825Y-26934018D01*
X59681651Y-26742700D01*
X59681733Y-26681608D01*
X59687727Y-26448486D01*
X59687833Y-26447212D01*
X60184096Y-26447212D01*
X60191663Y-26519021D01*
X60242131Y-26578576D01*
X60328767Y-26622384D01*
X60444839Y-26646952D01*
X60583612Y-26648787D01*
X60731940Y-26638058D01*
X60784120Y-26763616D01*
X60804066Y-26812976D01*
X60827262Y-26875272D01*
X60836300Y-26907034D01*
X60829330Y-26914986D01*
X60786662Y-26943000D01*
X60713789Y-26983840D01*
X60620720Y-27031719D01*
X60570993Y-27057363D01*
X60480107Y-27109811D01*
X60411543Y-27156838D01*
X60377260Y-27190637D01*
X60371015Y-27203708D01*
X60360194Y-27278891D01*
X60387093Y-27343429D01*
X60445749Y-27380760D01*
X60498518Y-27382318D01*
X60593360Y-27369365D01*
X60717391Y-27343746D01*
X60861012Y-27308263D01*
X61014625Y-27265715D01*
X61168631Y-27218904D01*
X61313431Y-27170627D01*
X61439429Y-27123687D01*
X61537024Y-27080883D01*
X61596619Y-27045016D01*
X61656330Y-26981323D01*
X61674403Y-26932734D01*
X61683680Y-26907793D01*
X61661846Y-26840068D01*
X61652412Y-26828250D01*
X61629611Y-26812139D01*
X61592853Y-26807339D01*
X61530168Y-26813304D01*
X61429583Y-26829489D01*
X61407217Y-26833296D01*
X61311377Y-26849227D01*
X61236254Y-26861125D01*
X61196513Y-26866652D01*
X61180408Y-26854900D01*
X61148747Y-26808405D01*
X61111677Y-26739993D01*
X61076345Y-26664164D01*
X61049903Y-26595417D01*
X61039500Y-26548250D01*
X61059209Y-26528060D01*
X61113150Y-26493249D01*
X61189319Y-26451902D01*
X61290602Y-26392115D01*
X61381815Y-26314499D01*
X61435377Y-26236290D01*
X61447756Y-26162984D01*
X61415420Y-26100080D01*
X61391132Y-26082581D01*
X61344946Y-26072233D01*
X61276348Y-26078466D01*
X61177170Y-26102246D01*
X61039242Y-26144538D01*
X61017145Y-26151611D01*
X60872347Y-26195034D01*
X60714670Y-26238546D01*
X60574522Y-26273697D01*
X60472592Y-26297874D01*
X60356314Y-26328264D01*
X60277119Y-26354563D01*
X60227331Y-26380094D01*
X60199272Y-26408179D01*
X60185266Y-26442138D01*
X60184096Y-26447212D01*
X59687833Y-26447212D01*
X59703924Y-26254385D01*
X59731740Y-26090335D01*
X59772592Y-25947364D01*
X59827896Y-25816500D01*
X59883800Y-25703101D01*
X60937900Y-25277384D01*
X61098274Y-25212584D01*
X61309866Y-25126995D01*
X61344946Y-25112786D01*
X61504839Y-25048021D01*
X61678111Y-24977727D01*
X61824600Y-24918177D01*
X61939223Y-24871434D01*
X62016898Y-24839565D01*
X62052543Y-24824632D01*
X62083926Y-24808897D01*
X62091157Y-24792723D01*
X62079172Y-24781502D01*
X62588939Y-24781502D01*
X62590939Y-24808010D01*
X62623563Y-24903842D01*
X62686292Y-24993762D01*
X62766303Y-25057795D01*
X62841731Y-25088151D01*
X62970612Y-25102739D01*
X63093380Y-25074103D01*
X63197485Y-25003814D01*
X63222791Y-24972346D01*
X63248608Y-24900566D01*
X63242563Y-24830203D01*
X63209919Y-24773311D01*
X63155937Y-24741945D01*
X63085881Y-24748160D01*
X63071681Y-24752711D01*
X62999402Y-24747980D01*
X62935479Y-24696855D01*
X62882961Y-24602860D01*
X62876681Y-24580862D01*
X63191604Y-24580862D01*
X63225399Y-24596400D01*
X63236139Y-24592395D01*
X63249300Y-24559097D01*
X63244009Y-24540390D01*
X63211345Y-24536358D01*
X63191746Y-24551002D01*
X63191604Y-24580862D01*
X62876681Y-24580862D01*
X62846946Y-24476702D01*
X63401739Y-24476702D01*
X63403739Y-24503210D01*
X63436363Y-24599042D01*
X63499092Y-24688962D01*
X63579103Y-24752995D01*
X63654531Y-24783351D01*
X63783412Y-24797939D01*
X63906180Y-24769303D01*
X64010285Y-24699014D01*
X64035591Y-24667546D01*
X64061408Y-24595766D01*
X64055363Y-24525403D01*
X64022719Y-24468511D01*
X63968737Y-24437145D01*
X63898681Y-24443360D01*
X63884481Y-24447911D01*
X63812202Y-24443180D01*
X63748279Y-24392055D01*
X63695761Y-24298060D01*
X63690291Y-24278900D01*
X63858900Y-24278900D01*
X63871600Y-24291600D01*
X63884300Y-24278900D01*
X63878902Y-24273502D01*
X64265339Y-24273502D01*
X64267339Y-24300010D01*
X64299963Y-24395842D01*
X64362692Y-24485762D01*
X64442703Y-24549795D01*
X64518131Y-24580151D01*
X64647012Y-24594739D01*
X64769780Y-24566103D01*
X64873885Y-24495814D01*
X64899191Y-24464346D01*
X64925008Y-24392566D01*
X64918963Y-24322203D01*
X64886319Y-24265311D01*
X64832337Y-24233945D01*
X64762281Y-24240160D01*
X64748081Y-24244711D01*
X64675802Y-24239980D01*
X64611879Y-24188855D01*
X64559361Y-24094860D01*
X64521296Y-23961520D01*
X64488892Y-23796540D01*
X64427708Y-23872620D01*
X64403127Y-23907477D01*
X64354261Y-23997191D01*
X64309921Y-24100660D01*
X64277737Y-24199044D01*
X64265339Y-24273502D01*
X63878902Y-24273502D01*
X63871600Y-24266200D01*
X63858900Y-24278900D01*
X63690291Y-24278900D01*
X63685225Y-24261153D01*
X63942290Y-24261153D01*
X63977472Y-24265427D01*
X64013809Y-24263365D01*
X64072722Y-24250782D01*
X64092559Y-24239968D01*
X64112900Y-24210970D01*
X64110804Y-24205105D01*
X64079996Y-24200137D01*
X64024631Y-24213912D01*
X63960500Y-24243100D01*
X63954058Y-24246876D01*
X63942290Y-24261153D01*
X63685225Y-24261153D01*
X63657696Y-24164720D01*
X63625292Y-23999740D01*
X63564108Y-24075820D01*
X63539527Y-24110677D01*
X63490661Y-24200391D01*
X63446321Y-24303860D01*
X63414137Y-24402244D01*
X63401739Y-24476702D01*
X62846946Y-24476702D01*
X62844896Y-24469520D01*
X62812492Y-24304540D01*
X62751308Y-24380620D01*
X62726727Y-24415477D01*
X62677861Y-24505191D01*
X62633521Y-24608660D01*
X62601337Y-24707044D01*
X62588939Y-24781502D01*
X62079172Y-24781502D01*
X62065246Y-24768463D01*
X62001244Y-24726668D01*
X61890439Y-24643283D01*
X61762631Y-24496004D01*
X61673514Y-24316650D01*
X61622284Y-24103898D01*
X61616927Y-24073824D01*
X61780754Y-24073824D01*
X61808143Y-24230702D01*
X61876646Y-24380433D01*
X61983424Y-24512412D01*
X61988698Y-24517371D01*
X62073390Y-24582224D01*
X62173840Y-24639828D01*
X62272255Y-24681221D01*
X62350839Y-24697442D01*
X62351480Y-24697447D01*
X62394342Y-24690561D01*
X62428374Y-24662885D01*
X62460941Y-24605003D01*
X62499408Y-24507500D01*
X62529556Y-24443477D01*
X62588925Y-24352894D01*
X62661937Y-24264097D01*
X62738807Y-24187624D01*
X62809749Y-24134012D01*
X62812492Y-24133008D01*
X62864979Y-24113800D01*
X62897956Y-24120559D01*
X62932104Y-24153795D01*
X62960270Y-24221961D01*
X62986845Y-24332951D01*
X63008000Y-24437803D01*
X63135854Y-24388788D01*
X63188079Y-24367521D01*
X63211345Y-24353553D01*
X63243486Y-24334256D01*
X63278635Y-24286800D01*
X63310310Y-24207736D01*
X63371701Y-24085495D01*
X63489741Y-23942350D01*
X63531344Y-23902099D01*
X63617772Y-23833656D01*
X63625292Y-23830995D01*
X63683667Y-23810339D01*
X63732747Y-23833101D01*
X63768729Y-23902894D01*
X63795332Y-24020673D01*
X63805693Y-24070496D01*
X63824183Y-24102504D01*
X63854099Y-24100755D01*
X63871600Y-24093800D01*
X63882160Y-24089604D01*
X63950181Y-24062893D01*
X64032863Y-24030645D01*
X64067268Y-24016369D01*
X64079996Y-24008836D01*
X64161860Y-23960388D01*
X64226113Y-23886921D01*
X64272702Y-23822911D01*
X64345118Y-23743387D01*
X64422496Y-23673822D01*
X64488892Y-23627482D01*
X64493131Y-23624523D01*
X64545317Y-23605800D01*
X64558589Y-23607016D01*
X64601076Y-23634859D01*
X64633608Y-23703252D01*
X64658884Y-23817219D01*
X64674703Y-23914338D01*
X64768451Y-23845150D01*
X64867614Y-23766416D01*
X64979839Y-23663004D01*
X65070170Y-23563437D01*
X65127736Y-23478800D01*
X65167150Y-23395746D01*
X65188840Y-23323969D01*
X65185959Y-23264093D01*
X65160430Y-23199718D01*
X65119560Y-23137476D01*
X65015006Y-23047425D01*
X64870005Y-22978431D01*
X64688474Y-22931099D01*
X64474329Y-22906032D01*
X64231486Y-22903835D01*
X63963861Y-22925113D01*
X63675371Y-22970470D01*
X63494064Y-23008106D01*
X63171599Y-23088513D01*
X62873722Y-23180487D01*
X62604176Y-23282214D01*
X62366705Y-23391880D01*
X62165050Y-23507670D01*
X62002955Y-23627769D01*
X61884162Y-23750364D01*
X61812414Y-23873640D01*
X61797316Y-23920405D01*
X61780754Y-24073824D01*
X61616927Y-24073824D01*
X61602116Y-23990680D01*
X61556912Y-23801414D01*
X61494093Y-23581135D01*
X61416505Y-23338255D01*
X61326991Y-23081186D01*
X61228396Y-22818339D01*
X61123564Y-22558126D01*
X61015339Y-22308959D01*
X60934654Y-22135163D01*
X60823527Y-21911726D01*
X60705125Y-21693297D01*
X60573150Y-21468854D01*
X60421305Y-21227378D01*
X60243293Y-20957850D01*
X60196311Y-20888000D01*
X60294533Y-20888000D01*
X60318287Y-20888234D01*
G37*
%TD*%
M02*
